<svg xmlns="http://www.w3.org/2000/svg" viewBox="0 0 438.61 327.2"><defs><style>.cls-1{fill:#534741;}.cls-1,.cls-10,.cls-2,.cls-5,.cls-7,.cls-8,.cls-9{stroke:#736357;}.cls-1,.cls-10,.cls-11,.cls-2,.cls-4,.cls-5,.cls-7,.cls-8,.cls-9{stroke-linecap:round;stroke-linejoin:round;}.cls-1,.cls-2,.cls-4,.cls-5{stroke-width:3.36px;}.cls-10,.cls-2{fill:#c7b299;}.cls-3{fill:#b3b3b3;}.cls-4{fill:none;stroke:#f2f2f2;opacity:0.5;}.cls-5,.cls-7,.cls-9{fill:#998675;}.cls-6,.cls-8{fill:#736357;}.cls-7{stroke-width:4.46px;}.cls-10,.cls-8,.cls-9{stroke-width:3.08px;}.cls-11{fill:#dcc992;}.cls-11,.cls-14{stroke:#d69055;stroke-width:2px;}.cls-12{fill:#171e58;}.cls-13{fill:#fff;}.cls-14{fill:#e8d9b9;stroke-miterlimit:10;}</style></defs><title>BoxesМонтажная область 11</title><g id="Дополнения"><polygon class="cls-1" points="163.37 74.54 280.65 142.27 119.05 235.36 1.73 167.6 163.37 74.54"/><polygon class="cls-2" points="163.34 2.23 1.73 95.57 1.73 167.6 163.37 74.54 163.34 2.23"/><polygon class="cls-3" points="163.34 91.77 249.82 141.71 126.73 213.12 40.22 163.16 163.34 91.77"/><line class="cls-4" x1="187.01" y1="112.71" x2="139.42" y2="114.27"/><line class="cls-4" x1="158.86" y1="176.55" x2="103.76" y2="178.36"/><line class="cls-4" x1="191.51" y1="122.8" x2="118.34" y2="125.2"/><line class="cls-4" x1="176.12" y1="163.6" x2="57.48" y2="167.49"/><polygon class="cls-5" points="1.73 167.6 1.73 122.47 119.05 190.23 119.05 235.36 1.73 167.6"/><polygon class="cls-6" points="154.93 198.64 119.43 235.36 154.93 213.28 154.93 198.64"/><path class="cls-7" d="M2.23,96.06c16.89,3.62,35.93,3.34,35.93,61.23,0,0,2,19.94-20,16.34L2.23,166.54Z"/><polygon class="cls-5" points="163.34 74.52 163.34 29.39 280.65 97.15 280.65 142.27 163.34 74.52"/><path class="cls-7" d="M163.34,2.23c16.89,3.61,35.93,3.33,35.93,61.22,0,0,2,19.94-20,16.34l-15.93-7.08Z"/><polygon class="cls-8" points="316.15 162.77 204.71 227.39 275.84 268.46 387.52 203.98 316.15 162.77"/><polygon class="cls-9" points="316.15 162.77 437.07 232.58 437.07 175.37 316.15 105.56 316.15 162.77"/><polygon class="cls-10" points="204.71 227.39 316.15 162.77 316.15 105.56 154.93 198.64 204.71 227.39"/><g id="_6" data-name="6"><path class="cls-11" d="M322.69,217.89l-36.41-8.07-29.56-9.43L231,180.15v34.21l0,0a24.79,24.79,0,0,0,4.23,12.71q7.68,12,30.66,25.29,22.69,13.11,46.28,14.06a78.12,78.12,0,0,0,43.06-10.29q18.33-10.58,18.07-22.53l0-34.67-22.1,10.23Z"/><path class="cls-12" d="M315.83,267.9c-1.21,0-2.44,0-3.67-.07-15.88-.65-31.67-5.44-46.92-14.24-15.45-8.92-25.92-17.58-31.13-25.75a26.57,26.57,0,0,1-4.42-12.68l0,0,0-.78V177.3l27.77,21.85,29.31,9.35,35.95,8,28.18-8.59L374.7,196.8l0,36.83c.19,8.44-6.12,16.44-18.76,23.73A79.16,79.16,0,0,1,315.83,267.9Zm-83.46-54.1,0,.55a23.48,23.48,0,0,0,4,12c5,7.78,15.12,16.14,30.18,24.83,14.86,8.58,30.22,13.25,45.65,13.87A77,77,0,0,0,354.58,255c11.7-6.75,17.54-13.92,17.38-21.31l0-32.54-20.14,9.32-29.05,8.87L286,211.17l-30.11-9.69L232.37,183Z"/><path class="cls-13" d="M264.83,176.08q-.76,8,13.37,16.92l.9-.52q-6-11.28,8.94-19.91a57.68,57.68,0,0,1,10.15-4.6V150.92a133.58,133.58,0,0,0-17.74,8.59Q265.59,168.11,264.83,176.08Z"/><path class="cls-14" d="M265.93,216.71q-23-13.28-30.66-25.29t-1.61-23.32q6-11.29,24.83-22.14a169.27,169.27,0,0,1,16.91-8.29l23.22,13.41a131.15,131.15,0,0,0-17.74,8.59q-14.86,8.58-15.63,16.57t13.38,16.92l.9-.53q-6-11.26,8.94-19.91a57.77,57.77,0,0,1,32.17-7.67q17.49.78,34.33,10.49Q373.08,186,373.34,198t-18.07,22.54a78.11,78.11,0,0,1-43.06,10.28Q288.62,229.81,265.93,216.71Zm69.28-15.92q-.6-3.78-8.42-8.28-13.37-7.72-23.74-1.74C299.64,192.74,335.61,203.31,335.21,200.79Z"/><path class="cls-12" d="M327.48,191.31c-9.33-5.39-17.78-6-25.12-1.74-3.88,2.24-5.75,5-5.53,8.08s2.19,5.66,5.9,7.81a39.87,39.87,0,0,0,15.45,5.22,30.08,30.08,0,0,0,3.6.22,19.76,19.76,0,0,0,10-2.41c3.68-2.12,5.3-4.78,4.8-7.92C336.1,197.59,333.12,194.56,327.48,191.31Zm2.9,14.79c-3.07,1.78-7.07,2.39-11.88,1.84a37.16,37.16,0,0,1-14.39-4.87c-2.86-1.66-4.39-3.54-4.53-5.61s1.23-3.8,4.16-5.49a17.52,17.52,0,0,1,9-2.45c4.13,0,8.57,1.39,13.4,4.18,6,3.45,7.52,5.88,7.75,7.31C334,201.71,334.29,203.85,330.38,206.1Z"/><path class="cls-12" d="M355.66,174.34a76.7,76.7,0,0,0-35-10.68,61.31,61.31,0,0,0-21.13,2.68V150l-1.17-.67-22.91-13.23-.64.28a170.08,170.08,0,0,0-17.05,8.35c-12.69,7.33-21.23,15-25.36,22.69-4.27,8-3.7,16.28,1.67,24.71,5.21,8.17,15.68,16.83,31.13,25.75,15.26,8.81,31,13.6,46.92,14.24,1.23,0,2.44.07,3.66.07A79.19,79.19,0,0,0,356,221.68c12.64-7.29,19-15.29,18.76-23.76S368.12,181.54,355.66,174.34Zm-1.08,44.95a76.79,76.79,0,0,1-42.31,10.1c-15.43-.62-30.79-5.29-45.65-13.88-15.06-8.69-25.21-17-30.18-24.83-4.87-7.63-5.38-14.8-1.57-21.93s12.07-14.53,24.31-21.6a169.6,169.6,0,0,1,16.13-7.94l19.86,11.47a136.7,136.7,0,0,0-15.4,7.63c-10.43,6-15.77,11.79-16.32,17.64s4,11.9,14,18.22l.71.45.09-.06.34.21,2.78-1.61-.63-1.18c-3.62-6.79-.87-12.7,8.41-18.06a56.75,56.75,0,0,1,31.41-7.49c11.4.5,22.74,4,33.71,10.31,11.57,6.67,17.51,13.82,17.68,21.24S366.28,212.54,354.58,219.29Z"/><polygon class="cls-12" points="301.95 229.77 302.17 265.48 328.39 265.59 345.1 261 362.03 251.74 372.98 239.6 373.34 223.34 374.39 201.56 362.03 217.77 346.58 226.29 331.1 230.84 301.95 229.77"/><polygon class="cls-12" points="290.56 226.66 290.56 262.95 273.13 257.63 273.11 220.54 290.56 226.66"/><polygon class="cls-12" points="314.82 188.28 321.84 190.28 335.21 199.66 332.69 206.42 322.66 208.95 317.19 208.95 314.82 208.13 302.16 203.46 298.2 197.56 302.16 191.03 314.82 188.28"/></g><polygon class="cls-9" points="154.93 255.85 275.84 325.66 275.84 268.46 154.93 198.64 154.93 255.85"/><polygon class="cls-10" points="275.84 325.66 437.07 232.58 437.07 175.37 275.84 268.46 275.84 325.66"/></g></svg>