<svg xmlns="http://www.w3.org/2000/svg" viewBox="0 0 291.17 106.75"><defs><style>.cls-1{fill:#666;stroke:#4d4d4d;}.cls-1,.cls-2,.cls-3,.cls-6{stroke-miterlimit:10;}.cls-1,.cls-2,.cls-3{stroke-width:2px;}.cls-2{fill:#ff666d;}.cls-2,.cls-3,.cls-6{stroke:gray;}.cls-3{fill:#ccc;}.cls-4{fill:gray;}.cls-5{fill:#f2f2f2;}.cls-6{fill:#8c6239;}</style></defs><title>creamasasasМонтажная область 26</title><g id="Слои"><path class="cls-1" d="M8.94,89.23c-4.23,1.17-6,1.54-7.23,3.92s-.65,7.47.39,8.73,2.51,3.94,9.1,3.86"/><path class="cls-2" d="M179.91,102h0l19.53-.44A68.17,68.17,0,0,0,229.71,94c13.13-6.87,26.68-19.56,22.09-42-9.14-44.64-51.12-37.1-68.52-30.21L161.6,30.2,8.94,89.24c-1.6,6.37.87,15.08,2.27,16.5Z"/><path class="cls-3" d="M250.89,48.16c6.32,19.56,23.81,28.74,34.62,32.66a3.46,3.46,0,0,0,4.11-5.1l-2.77-4.36a5.12,5.12,0,0,1-.7-3.68l1.46-7.75a5.07,5.07,0,0,0-1.25-4.39l-8.23-9A5.12,5.12,0,0,1,277,41.61l3.26-10.86a5.14,5.14,0,0,0-1.3-5.11L269.16,16A5.13,5.13,0,0,1,267.81,11l1.49-5.65a3.45,3.45,0,0,0-5.43-3.63C255.07,8.59,242.82,23.21,250.89,48.16Z"/><path class="cls-4" d="M265,11.66l-4.37,7.93c-1.44,2.64-2.93,5.27-4.22,8-.32.68-.64,1.36-.89,2a3.63,3.63,0,0,0-.15.51,1.13,1.13,0,0,0,0,.13.19.19,0,0,0-.12-.12.21.21,0,0,0-.12,0l0,0a6.45,6.45,0,0,0,.74-.74c1-1.13,1.9-2.33,2.89-3.48s2-2.3,3-3.39a13.57,13.57,0,0,1,3.56-2.79,14.46,14.46,0,0,0-3.34,3c-1,1.12-1.95,2.29-2.87,3.48s-1.85,2.38-2.83,3.55a5.68,5.68,0,0,1-.85.85.77.77,0,0,1-.22.1.36.36,0,0,1-.25,0,.35.35,0,0,1-.2-.23.86.86,0,0,1,0-.43,3.28,3.28,0,0,1,.16-.58c.26-.73.57-1.43.89-2.11,1.35-2.73,2.83-5.35,4.36-8S263.37,14.18,265,11.66Z"/><path class="cls-5" d="M263.51,15.83,260.59,21c-1,1.73-1.95,3.44-2.82,5.21a10,10,0,0,0-.58,1.32v0s0,0-.06-.08-.1,0-.09,0a.28.28,0,0,0,.1-.08,3.27,3.27,0,0,0,.24-.27l.46-.57,1.79-2.37c.61-.78,1.22-1.56,1.87-2.31a8.64,8.64,0,0,1,2.19-2A9,9,0,0,0,261.61,22c-.62.76-1.21,1.56-1.79,2.36l-1.75,2.39-.46.59a3.58,3.58,0,0,1-.26.29.65.65,0,0,1-.19.15.19.19,0,0,1-.17,0,.19.19,0,0,1-.1-.16.57.57,0,0,1,0-.14,9.78,9.78,0,0,1,.58-1.4c.91-1.77,1.9-3.49,2.91-5.19S262.44,17.49,263.51,15.83Z"/><path class="cls-4" d="M275.09,58.46a39,39,0,0,1-11.66-3,31.77,31.77,0,0,1-5.34-2.84,30.35,30.35,0,0,1-4.72-3.82l.45-.4c2.81,3.45,5.68,6.87,8.65,10.2,1.48,1.66,3,3.31,4.56,4.88.78.8,1.58,1.57,2.42,2.3a8.76,8.76,0,0,0,2.77,1.82,8.88,8.88,0,0,1-2.87-1.69c-.88-.7-1.72-1.44-2.54-2.2-1.62-1.54-3.18-3.15-4.71-4.78s-3-3.32-4.45-5-2.91-3.39-4.3-5.14l.45-.4a30.86,30.86,0,0,0,4.59,3.78,36.8,36.8,0,0,0,5.22,2.88,41.63,41.63,0,0,0,5.62,2.08A37.62,37.62,0,0,0,275.09,58.46Z"/><path class="cls-5" d="M275.71,57.29a31.74,31.74,0,0,1-6-.94,38.72,38.72,0,0,1-5.73-2,31.42,31.42,0,0,1-5.29-2.94,25.7,25.7,0,0,1-4.52-4c.8.62,1.49,1.34,2.33,1.89l1.2.9,1.26.81a36.31,36.31,0,0,0,5.27,2.78,46.5,46.5,0,0,0,5.61,2.06A50,50,0,0,0,275.71,57.29Z"/><path class="cls-4" d="M267.6,36.61c-1,.87-2,1.75-2.91,2.65s-1.89,1.81-2.8,2.75-1.84,1.86-2.76,2.8-1.83,1.88-2.76,2.81a38.28,38.28,0,0,1,2.41-3.13c.85-1,1.76-2,2.67-2.92s1.9-1.83,2.92-2.67A25.87,25.87,0,0,1,267.6,36.61Z"/><path class="cls-5" d="M266.66,35.4c-1.39,1.23-2.73,2.48-4,3.8s-2.56,2.65-3.88,3.95a32.93,32.93,0,0,1,3.57-4.25A23.14,23.14,0,0,1,266.66,35.4Z"/><path class="cls-4" d="M222.17,23.06a17,17,0,0,1,4.18,1.75,42.72,42.72,0,0,1,3.87,2.38,78.61,78.61,0,0,1,7.18,5.56c2.29,2,4.51,4.06,6.6,6.25a90.5,90.5,0,0,1,5.9,6.92l-.41.36c-1.1-1.08-2.27-2.1-3.46-3.1a46.07,46.07,0,0,0-3.71-2.79,30.72,30.72,0,0,0-4-2.32,14.31,14.31,0,0,0-4.43-1.35,14.42,14.42,0,0,1,4.51,1.16,25.68,25.68,0,0,1,4.14,2.21,48.2,48.2,0,0,1,7.35,5.8l-.41.36q-2.79-3.55-5.92-6.82c-2.06-2.2-4.25-4.28-6.5-6.27s-4.59-3.92-7-5.67c-1.23-.87-2.47-1.74-3.76-2.51A17.28,17.28,0,0,0,222.17,23.06Z"/><path class="cls-5" d="M227.46,27.58a11.77,11.77,0,0,1,2.39,1c.76.41,1.51.86,2.24,1.34,1.46.94,2.88,1.95,4.27,3a40.87,40.87,0,0,1,7.55,7.2l.56.72-.72-.56c-1.65-1.29-3.36-2.53-5.13-3.66-.88-.56-1.78-1.11-2.71-1.6A8.87,8.87,0,0,0,233,34a8.79,8.79,0,0,1,3,1,26.6,26.6,0,0,1,2.76,1.54c1.79,1.12,3.51,2.34,5.18,3.62l-.16.16a33.46,33.46,0,0,0-3.56-3.78q-1.89-1.77-3.95-3.38c-1.37-1.07-2.77-2.09-4.22-3.05-.72-.47-1.45-.95-2.2-1.39A11.19,11.19,0,0,0,227.46,27.58Z"/><path class="cls-4" d="M249.77,50.62a19,19,0,0,1-2,5.74,53.9,53.9,0,0,1-3,5.28,49.31,49.31,0,0,1-3.61,4.89,21.21,21.21,0,0,1-4.47,4.1,28.48,28.48,0,0,0,4.1-4.4c1.23-1.58,2.39-3.23,3.46-4.92s2.14-3.41,3.1-5.17c.48-.88.94-1.77,1.35-2.69A14.72,14.72,0,0,0,249.77,50.62Z"/><path class="cls-5" d="M246.81,52.6a15.83,15.83,0,0,1-1.61,4.71,44.28,44.28,0,0,1-2.47,4.35,40.07,40.07,0,0,1-3,4,17.32,17.32,0,0,1-3.68,3.37,23.11,23.11,0,0,0,3.37-3.62,47.55,47.55,0,0,0,2.85-4.05c.92-1.37,1.76-2.8,2.55-4.24q.6-1.1,1.11-2.22A11.94,11.94,0,0,0,246.81,52.6Z"/><polygon class="cls-6" points="248.69 38.75 247.62 39.02 252.35 55.56 253.89 55.29 248.69 38.75"/><path class="cls-4" d="M8.46,92.47a29,29,0,0,1,5.14-2.71,40,40,0,0,1,5.48-1.94c-1.7,1-3.47,1.74-5.24,2.51S10.28,91.79,8.46,92.47Z"/><path class="cls-4" d="M9.45,101.54a55.54,55.54,0,0,1,6.32.22,55,55,0,0,1,6.26.83,55.46,55.46,0,0,1-6.32-.22A55.3,55.3,0,0,1,9.45,101.54Z"/><path class="cls-5" d="M109.75,53.21c3.77-1.7,7.59-3.3,11.41-4.88s7.68-3.08,11.52-4.63,7.71-3,11.6-4.41l5.82-2.13c2-.67,3.9-1.38,5.87-2-1.88.86-3.79,1.66-5.69,2.49L144.56,40c-3.83,1.58-7.68,3.08-11.52,4.62s-7.72,3-11.6,4.42S113.67,51.89,109.75,53.21Z"/></g></svg>