<svg xmlns="http://www.w3.org/2000/svg" viewBox="0 0 256.65 222.78"><defs><style>.cls-1{fill:#666;stroke:#4d4d4d;}.cls-1,.cls-2,.cls-3,.cls-6{stroke-miterlimit:10;}.cls-1,.cls-2,.cls-3{stroke-width:2px;}.cls-2{fill:#dcc992;}.cls-2,.cls-3,.cls-6{stroke:gray;}.cls-3{fill:#ccc;}.cls-4{fill:gray;}.cls-5{fill:#f2f2f2;}.cls-6{fill:#8c6239;}</style></defs><title>Монтажная область 11</title><g id="Слои"><path class="cls-1" d="M9.22,203.45c-3.18,3-4.53,4.17-4.52,6.87s3,6.89,4.46,7.51,4.07,2.29,9.85-.89"/><path class="cls-2" d="M166,134.07h0l17-9.61a68.29,68.29,0,0,0,23.12-20.94c8.33-12.26,14.29-29.85-.35-47.47-29.12-35-62.58-8.6-74.67,5.69L116,79.38,9.22,203.46c1.6,6.36,7.89,12.88,9.79,13.47Z"/><path class="cls-3" d="M203.17,53.09C218,67.35,237.73,67.19,249.1,65.55a3.45,3.45,0,0,0,1.23-6.43l-4.5-2.54a5.11,5.11,0,0,1-2.36-2.92l-2.36-7.52a5.12,5.12,0,0,0-3.18-3.28L226.42,38.8A5.14,5.14,0,0,1,223.11,35l-2.25-11.12A5.09,5.09,0,0,0,217.31,20l-13.22-3.92a5.13,5.13,0,0,1-3.52-3.72l-1.36-5.69a3.45,3.45,0,0,0-6.5-.63C188.2,16.23,184.29,34.9,203.17,53.09Z"/><path class="cls-4" d="M198.43,14.23l-.12,9.05c0,3-.09,6,.06,9a20.14,20.14,0,0,0,.18,2.22,2,2,0,0,0,.1.51c0,.07.07.18,0,.13a.21.21,0,0,0-.16-.05c-.06,0-.11.05-.11,0l0,0a5.24,5.24,0,0,0,.3-1c.34-1.46.58-2.95.91-4.43s.65-3,1.07-4.41a13.11,13.11,0,0,1,1.82-4.14A14.43,14.43,0,0,0,201,25.36c-.36,1.46-.64,2.94-.89,4.42s-.51,3-.83,4.46A5.76,5.76,0,0,1,199,35.4a.59.59,0,0,1-.14.19.45.45,0,0,1-.24.11.36.36,0,0,1-.28-.11.9.9,0,0,1-.2-.37,4.87,4.87,0,0,1-.13-.59,22.4,22.4,0,0,1-.21-2.29c-.1-3,0-6.05.09-9.07S198.15,17.24,198.43,14.23Z"/><path class="cls-5" d="M199.05,18.62l-.13,5.94c0,2-.1,4,0,5.93a9.65,9.65,0,0,0,.12,1.44l0,0s0,0-.09,0a.11.11,0,0,0-.08,0l.05-.12c0-.11.06-.23.08-.34l.14-.73.46-2.93c.16-1,.34-1.95.55-2.92a9,9,0,0,1,1-2.79,8.86,8.86,0,0,0-.85,2.82c-.18,1-.33,1.95-.46,2.93l-.42,2.94-.13.73a2.62,2.62,0,0,1-.09.38.58.58,0,0,1-.1.22.2.2,0,0,1-.15.08c-.12,0-.13-.07-.16-.09l-.06-.13a8.75,8.75,0,0,1-.14-1.51c0-2,0-4,.11-5.95S198.89,20.6,199.05,18.62Z"/><path class="cls-4" d="M229.37,50.76a39.37,39.37,0,0,1-11.68,2.87,32.18,32.18,0,0,1-6.05,0,30.17,30.17,0,0,1-6-1.14l.21-.57c4.1,1.72,8.25,3.38,12.43,4.91,2.09.78,4.2,1.51,6.33,2.16,1.06.33,2.13.64,3.22.89a9,9,0,0,0,3.3.29,8.89,8.89,0,0,1-3.33-.14c-1.11-.2-2.2-.45-3.28-.74-2.16-.59-4.29-1.27-6.4-2S214,55.8,211.87,55s-4.17-1.62-6.22-2.5l.21-.57a30.27,30.27,0,0,0,5.83,1.17,37.06,37.06,0,0,0,6,.08,44.16,44.16,0,0,0,5.94-.81A40.3,40.3,0,0,0,229.37,50.76Z"/><path class="cls-5" d="M229.37,49.43a31.78,31.78,0,0,1-5.7,2,40.17,40.17,0,0,1-6,1,32.29,32.29,0,0,1-6.06-.11,24.61,24.61,0,0,1-5.87-1.39c1,.17,1.94.48,2.95.58l1.47.22,1.49.12a36.06,36.06,0,0,0,6,0,45.4,45.4,0,0,0,5.91-.82A53.36,53.36,0,0,0,229.37,49.43Z"/><path class="cls-4" d="M212.46,35c-.46,1.23-.91,2.46-1.32,3.71s-.81,2.48-1.17,3.74-.74,2.52-1.11,3.78-.72,2.52-1.11,3.78c.14-1.31.38-2.61.65-3.9s.62-2.56,1-3.83.81-2.52,1.32-3.74A25.37,25.37,0,0,1,212.46,35Z"/><path class="cls-5" d="M211.06,34.4c-.65,1.74-1.24,3.47-1.75,5.24s-1,3.55-1.56,5.32a32.7,32.7,0,0,1,1.15-5.44A23.07,23.07,0,0,1,211.06,34.4Z"/><path class="cls-4" d="M166,44.51a16.65,16.65,0,0,1,4.51-.43,40.34,40.34,0,0,1,4.53.27,77.57,77.57,0,0,1,9,1.51c3,.67,5.89,1.45,8.77,2.4s5.7,2.07,8.46,3.31l-.19.52c-1.47-.44-3-.78-4.5-1.1a44.64,44.64,0,0,0-4.59-.71,31.25,31.25,0,0,0-4.64-.16,14.17,14.17,0,0,0-4.54.91,14.13,14.13,0,0,1,4.53-1.11,25.23,25.23,0,0,1,4.68,0,49,49,0,0,1,9.22,1.65l-.19.51c-2.76-1.21-5.58-2.28-8.44-3.22s-5.76-1.77-8.69-2.46S178,45.1,175,44.71c-1.49-.19-3-.37-4.5-.43A16.56,16.56,0,0,0,166,44.51Z"/><path class="cls-5" d="M172.81,46a11.23,11.23,0,0,1,2.59-.2q1.31,0,2.61.12c1.74.14,3.46.35,5.18.63a40.54,40.54,0,0,1,10.06,2.79l.83.37-.9-.16c-2.07-.36-4.15-.64-6.25-.81-1-.07-2.09-.13-3.14-.12a9,9,0,0,0-3.1.44,9,9,0,0,1,3.1-.54,27.82,27.82,0,0,1,3.16.06c2.1.15,4.19.41,6.27.75l-.07.21a32.27,32.27,0,0,0-4.92-1.64c-1.67-.46-3.36-.83-5.07-1.13s-3.43-.53-5.16-.69c-.87-.08-1.73-.16-2.6-.19A11.22,11.22,0,0,0,172.81,46Z"/><path class="cls-4" d="M203.35,55.79a18.88,18.88,0,0,1,1,6,55.92,55.92,0,0,1-.15,6.07,50.77,50.77,0,0,1-.88,6,21.39,21.39,0,0,1-2,5.72,28.62,28.62,0,0,0,1.54-5.81c.34-2,.58-4,.73-6s.27-4,.3-6c0-1,0-2-.08-3A15,15,0,0,0,203.35,55.79Z"/><path class="cls-5" d="M201.67,58.92a15.8,15.8,0,0,1,.81,4.92,46.31,46.31,0,0,1-.13,5,41.28,41.28,0,0,1-.72,5,18,18,0,0,1-1.65,4.7,24.06,24.06,0,0,0,1.26-4.78c.28-1.63.48-3.27.6-4.91s.23-3.3.25-4.95c0-.83,0-1.65-.07-2.48A12.06,12.06,0,0,0,201.67,58.92Z"/><polygon class="cls-6" points="196.8 45.82 195.98 46.57 207.96 58.92 209.18 57.95 196.8 45.82"/><path class="cls-4" d="M10.33,206.53a29.71,29.71,0,0,1,3.25-4.82,39.62,39.62,0,0,1,3.92-4.28c-1.06,1.63-2.24,3.16-3.44,4.67S11.61,205.07,10.33,206.53Z"/><path class="cls-4" d="M15.48,214.06a59.57,59.57,0,0,1,5.67-2.79,57,57,0,0,1,5.92-2.22,56.33,56.33,0,0,1-5.68,2.79A55.15,55.15,0,0,1,15.48,214.06Z"/><path class="cls-5" d="M81.11,124.13c2.53-3.28,5.14-6.49,7.76-9.69s5.32-6.34,8-9.51,5.4-6.27,8.15-9.36l4.13-4.63c1.41-1.52,2.79-3.06,4.22-4.56-1.26,1.64-2.57,3.25-3.85,4.88l-3.92,4.81c-2.62,3.19-5.31,6.34-8,9.51s-5.39,6.27-8.14,9.36S84,121.12,81.11,124.13Z"/></g></svg>