<svg xmlns="http://www.w3.org/2000/svg" xmlns:xlink="http://www.w3.org/1999/xlink" viewBox="0 0 226.31 111.42"><defs><style>.cls-1{fill:none;}.cls-2{fill:#d69055;}.cls-2,.cls-3,.cls-4{stroke:#b96e16;stroke-linecap:round;stroke-linejoin:round;stroke-width:2px;}.cls-3{fill:#cc742a;}.cls-4{fill:#995720;}.cls-5{clip-path:url(#clip-path);}.cls-6{opacity:0.7;}.cls-7{fill:#fff;}.cls-8{fill:#f89d32;}</style><clipPath id="clip-path" transform="translate(25.62 29.12)"><path class="cls-1" d="M109.23,2.32A1.07,1.07,0,0,0,108,1.15L3.61,16.25A3.05,3.05,0,0,0,1,19.65a.19.19,0,0,1,0,.08.19.19,0,0,0,0-.08v14.5C2,42,8.58,62.85,50.36,69.4a1.1,1.1,0,0,0,.89-.26l58-51.62V2.31ZM3.25,27.48C3.17,27.3,3.1,27.13,3,27,3.1,27.13,3.17,27.3,3.25,27.48Zm-.56-1.35-.23-.6Zm-.47-1.31c-.06-.19-.13-.38-.19-.57C2.09,24.43,2.16,24.63,2.22,24.82Zm-1-3.88c0-.14-.05-.28-.07-.41C1.17,20.66,1.2,20.8,1.22,20.94Zm.54,2.36c-.06-.22-.11-.42-.16-.63C1.65,22.88,1.7,23.08,1.76,23.3ZM1.44,22c0-.17-.07-.33-.1-.49C1.37,21.69,1.4,21.85,1.44,22ZM4.7,30.34c.13.23.26.46.4.69l-.28-.46Zm-.81-1.51c.06.14.14.28.21.42C4,29.11,4,29,3.89,28.83Zm5.37,7.74,1,1.07Zm-4-5.25c.22.36.45.72.7,1.08C5.73,32,5.5,31.68,5.28,31.32Zm.92,1.41.61.86Zm.86,1.19c.27.36.56.73.85,1.09C7.62,34.65,7.33,34.28,7.06,33.92ZM8.2,35.35l.73.84ZM47,54.31c1.12.21,2.25.4,3.41.59a1,1,0,0,0,.17,0,1,1,0,0,1-.17,0C49.2,54.71,48.07,54.52,47,54.31ZM10.66,38l.84.8Zm1.27,1.2,1.2,1Zm1.66,1.42c.31.26.64.52,1,.77C14.23,41.15,13.9,40.89,13.59,40.63Zm1.51,1.18c.46.34.92.68,1.41,1C16,42.49,15.56,42.15,15.1,41.81Zm2,1.38c.36.25.74.49,1.12.74C17.79,43.68,17.41,43.44,17.05,43.19Zm1.77,1.15c.53.32,1.07.65,1.63,1C19.89,45,19.35,44.66,18.82,44.34Zm2.24,1.3c.43.24.87.48,1.32.71C21.93,46.12,21.49,45.88,21.06,45.64Zm2.07,1.1c.61.31,1.24.61,1.89.92C24.37,47.35,23.74,47.05,23.13,46.74ZM25.66,48l1.56.68Zm2.4,1c.71.29,1.43.58,2.18.86C29.49,49.55,28.77,49.26,28.06,49Zm2.82,1.09,1.89.66Zm2.77.95c.83.27,1.67.53,2.53.78C35.32,51.54,34.48,51.28,33.65,51Zm3.05.93c.77.21,1.55.43,2.35.63C38.25,52.37,37.47,52.15,36.7,51.94Zm3.24.86c1,.24,1.94.47,3,.7C41.88,53.27,40.9,53,39.94,52.8Zm3.21.75c1,.21,2,.41,3,.61C45.11,54,44.12,53.76,43.15,53.55Z"/></clipPath></defs><title>Ресурс 13</title><g id="Слой_2" data-name="Слой 2"><g id="Слои"><path class="cls-2" d="M108,1,3.61,16.11A3,3,0,0,0,1,19.51c1,7.83,7.56,28.7,49.34,35.25a1.1,1.1,0,0,0,.89-.26L108.88,2.88A1.08,1.08,0,0,0,108,1Z" transform="translate(25.62 29.12)"/><polygon class="cls-3" points="134.87 31.29 134.87 46.5 76.88 98.12 76.88 83.62 134.87 31.29"/><path class="cls-4" d="M50.36,54.76C22.26,50.35,10.08,39.47,4.82,30.43A28.92,28.92,0,0,1,1,19.51V34c1,7.83,7.56,28.7,49.34,35.25a1.1,1.1,0,0,0,.89-.26V54.5A1.1,1.1,0,0,1,50.36,54.76Z" transform="translate(25.62 29.12)"/><g class="cls-5"><g class="cls-6"><polygon class="cls-7" points="101.91 96.1 101.57 96.1 101.83 96.06 101.91 96.1"/><polygon class="cls-7" points="102.51 96.07 102.22 96.19 102.18 95.92 102.51 96.07"/><path class="cls-8" d="M59.58-1.8c.12-.21.35-.14.5-.36a.71.71,0,0,1,.49.82.73.73,0,0,1-.84.34A.72.72,0,0,1,59.58-1.8Z" transform="translate(25.62 29.12)"/><path class="cls-8" d="M59.63-4.28c.27,0,.24.26.34.42a.63.63,0,0,1-.47.42C59.11-3.55,59-4.36,59.63-4.28Z" transform="translate(25.62 29.12)"/><path class="cls-8" d="M-7.73,63c.13.18.06.53-.24.47l-.22-.1C-8.24,63.13-8,62.85-7.73,63Z" transform="translate(25.62 29.12)"/><rect class="cls-8" x="42.18" y="33.5" width="0.24" height="0.08" transform="translate(15.85 48.43) rotate(-23.13)"/><path class="cls-8" d="M-7.08,61.46c.1,0,.11.07.14.14s-.27.28-.35.12S-7.23,61.48-7.08,61.46Z" transform="translate(25.62 29.12)"/><path class="cls-8" d="M45.57,33l.11.27a1,1,0,0,1-1.29,0C44.7,33.22,45.16,32.77,45.57,33Z" transform="translate(25.62 29.12)"/><path class="cls-8" d="M-2.69,62.16c.25.23.41.57,0,.78a.7.7,0,0,1-.63-.26C-3.35,62.38-3,62.15-2.69,62.16Z" transform="translate(25.62 29.12)"/><path class="cls-8" d="M-25.48,46.91l-.1.05c.52-.42,1.29-1,2-.67.1.3-.28.42-.55.55-.49.3-1,0-1.49.28C-25.66,47-25.4,47-25.48,46.91Z" transform="translate(25.62 29.12)"/><path class="cls-8" d="M92.73,6.44c-.07,0-.17-.1-.25,0L92.72,6c-.49-.44.42-.55.29-.89a1.74,1.74,0,0,1,1.63,0c.38.48.2.54.55,1-.41.23.43,1.06-.44,1.12-.21.47-.69.09-1,.44.24-.15-.25-.23-.43-.29l-.28,0c.16-.36-.19-.49-.49-.6C92.76,6.79,92.67,6.56,92.73,6.44Z" transform="translate(25.62 29.12)"/><path class="cls-8" d="M-20.43,46.22c.2,0,.45-.07.6.05,0,.35-.55.45-.84.57l-.54-.1A1.84,1.84,0,0,1-20.43,46.22Z" transform="translate(25.62 29.12)"/><path class="cls-8" d="M-19,44c.1,0,.18.06.26,0l.06.12c-.41.42-.91.27-1.38.41A1.87,1.87,0,0,1-19,44Z" transform="translate(25.62 29.12)"/><path class="cls-7" d="M-19.21,44.21c0-.07-.16.25-.29.1Z" transform="translate(25.62 29.12)"/><path class="cls-8" d="M-19.16,42.86l0,0,0,0-.22,0C-19.29,42.88-19.24,42.79-19.16,42.86Z" transform="translate(25.62 29.12)"/><path class="cls-8" d="M-7.34,34.67c.07,0,.1,0,.13.11l-.2,0A.08.08,0,0,0-7.34,34.67Z" transform="translate(25.62 29.12)"/><path class="cls-8" d="M10.73,41.16a.31.31,0,0,1,.29.27c-.12.19-.17.21-.39.18C10.65,41.43,10.42,41.23,10.73,41.16Z" transform="translate(25.62 29.12)"/><path class="cls-8" d="M11.37,31.21a.36.36,0,0,1,.39,0c-.06.16.06.37-.13.46S11.27,31.38,11.37,31.21Z" transform="translate(25.62 29.12)"/><path class="cls-8" d="M9.9,26.37c.28,0,.73-.05.79.32a.52.52,0,0,1-.3.77c-.26.32-.46-.13-.69-.09C9.5,27,9.75,26.72,9.9,26.37Z" transform="translate(25.62 29.12)"/><path class="cls-8" d="M11.37,30c.08,0,.16-.1.25,0a.42.42,0,0,1,0,.39C11.43,30.44,11.17,30.16,11.37,30Z" transform="translate(25.62 29.12)"/><path class="cls-8" d="M16.89,38c.14,0,.28-.06.42,0,0,.23.19.35,0,.58C16.86,38.89,16.56,38.36,16.89,38Z" transform="translate(25.62 29.12)"/><polygon class="cls-8" points="20.71 77.45 20.37 77.76 20.4 77.54 20.71 77.45"/><path class="cls-8" d="M-2.41,48.1c.31,0,.7-.1.71.29-.1.72-1.06.7-1.5.85l-.11,0c.08-.12-.15-.17-.08-.32-.45.36-.4-.34-.83,0A3.18,3.18,0,0,1-2.41,48.1Z" transform="translate(25.62 29.12)"/><path class="cls-8" d="M14.73,30c.19-.18.26.12.38.16a.24.24,0,0,1-.39.18C14.63,30.22,14.69,30.12,14.73,30Z" transform="translate(25.62 29.12)"/><path class="cls-8" d="M19.26,35.94c.16,0,.15.2.2.31s-.21.13-.31.21A.27.27,0,0,1,19.26,35.94Z" transform="translate(25.62 29.12)"/><path class="cls-8" d="M18.27,32.67a.29.29,0,0,1,.27.38c-.16,0-.29.19-.4,0S18.23,32.82,18.27,32.67Z" transform="translate(25.62 29.12)"/><path class="cls-8" d="M19.61,35.28c.28.11.76-.48.8.14-.3,0-.48.52-.85.29C19.57,35.6,19.5,35.43,19.61,35.28Z" transform="translate(25.62 29.12)"/><path class="cls-8" d="M1.78,45.21c.23-.1.42-.19.43-.46-.11-.09-.35,0-.35-.24,1-.21,2.12-.94,3.07-.27a.63.63,0,0,1,0,.65,1.16,1.16,0,0,0-.58.5c-.5-.2-.9.63-1.49.45.1,0,.07-.13.13-.22a5.41,5.41,0,0,1-1.32-.2Z" transform="translate(25.62 29.12)"/><path class="cls-8" d="M5.73,48.61c.44.67-.66.71-1,.86L4,49.36A1.78,1.78,0,0,1,5.73,48.61Z" transform="translate(25.62 29.12)"/><polygon class="cls-7" points="30.88 77.95 30.81 78.32 30.43 78.09 30.79 78.26 30.88 77.95"/><path class="cls-8" d="M64.58,29.88l.25.22c-.48,1-1.95,1-2.92,1L61.24,31A4,4,0,0,1,64.58,29.88Z" transform="translate(25.62 29.12)"/><polygon class="cls-8" points="33.38 77.95 33.12 77.9 33.29 77.75 33.38 77.95"/><path class="cls-8" d="M10.22,48.16a2.24,2.24,0,0,1,.46.12c.12.19,0,.43-.15.55a1.9,1.9,0,0,1-1.44.26l0,.1c-.05.1.1-.14.13-.23s-.27,0-.39,0A1.77,1.77,0,0,1,10.22,48.16Z" transform="translate(25.62 29.12)"/><path class="cls-7" d="M9.9,48.71l-.19-.05c0,.29,0,0-.2.09C9.86,48.79,9.51,48.52,9.9,48.71Z" transform="translate(25.62 29.12)"/><path class="cls-8" d="M11.88,48.78a1.72,1.72,0,0,1,1.42-.73c.23.07.58.17.38.47a2.17,2.17,0,0,1-1.18.72c-.26-.26-.61,0-.91,0C11.57,49.05,12.27,49,11.88,48.78Z" transform="translate(25.62 29.12)"/><polygon class="cls-7" points="38.03 77.66 38.13 77.71 38.07 77.74 38.03 77.66"/><path class="cls-8" d="M23,60.55c.16,0,.13.15.2.22-.09.47-.71.55-1.07.65-.24-.23-.32.24-.59.1C22,61.17,22.31,60.57,23,60.55Z" transform="translate(25.62 29.12)"/><path class="cls-8" d="M9.68,10.27c.45.54-.33.72-.62,1-.88.49-1.72-.17-2.55.07L6,11.29C7.17,11.13,8.32,9.45,9.68,10.27Z" transform="translate(25.62 29.12)"/><path class="cls-8" d="M31.61,46.51c.1.05.24,0,.34.08a.45.45,0,0,1,0,.64l-.81.36c-.05-.05,0-.1,0-.17l-.41-.05C30.61,46.81,31.22,46.68,31.61,46.51Z" transform="translate(25.62 29.12)"/><polygon class="cls-7" points="51.06 78.37 50.81 78.55 50.87 78.46 51.06 78.37"/><path class="cls-8" d="M38.39,44.21l0-.18c-.11-.08-.19,0-.29.06.11-.48.51-.63.87-1,.33,0,.72,0,.95.33s-.09.51-.16.76c-.24.29-.74,0-1,.36l0-.1-.77-.2C38.19,44.23,38.29,44.1,38.39,44.21Z" transform="translate(25.62 29.12)"/><polygon class="cls-8" points="42.72 44.99 42.39 45.01 42.67 44.88 42.72 44.99"/><path class="cls-8" d="M18.05,17.46c.13-.16-.07.32-.2.26l.6.13h-.71Z" transform="translate(25.62 29.12)"/><path class="cls-8" d="M18.28,17.45c0-.15.23-.16.31-.23.18.09.38.1.41.32s-.18.12-.26.18c.05-.12.16-.17.2-.32a.5.5,0,0,0-.57,0c0,.07.06.07.12.11l-.24.17.14-.22Z" transform="translate(25.62 29.12)"/><path class="cls-8" d="M18.68,14.78l-.09,0,.09,0-.23.27C18.62,15,18.63,14.9,18.68,14.78Z" transform="translate(25.62 29.12)"/><path class="cls-8" d="M32,33.91c.74-.17,1.3-1.19,2.22-.88a.55.55,0,0,1-.19.89c-.63.37-1.31,0-2,.12Z" transform="translate(25.62 29.12)"/><path class="cls-8" d="M44.31,44.33c.32-.11.68-.35,1,0s-.09.45-.16.67-.51.12-.76.2c0-.11,0-.24-.16-.18C44.23,44.61,44.1,44.67,44.31,44.33Z" transform="translate(25.62 29.12)"/><path class="cls-8" d="M30.45,23.15a.85.85,0,0,1,.85.06.43.43,0,0,1-.19.61c-.33.15-.7.34-1,.17C29.84,23.57,30.28,23.44,30.45,23.15Z" transform="translate(25.62 29.12)"/><path class="cls-8" d="M46.17,45.62c.13-.24-.25-.21-.18-.3s.22,0,.25,0l.1.05a.43.43,0,0,1-.59.26C45.86,45.63,46,45.77,46.17,45.62Z" transform="translate(25.62 29.12)"/><path class="cls-8" d="M24.44,7.67a.88.88,0,0,1,.9,0c.15.28.27.7-.06.78S24.1,8.18,24.44,7.67Z" transform="translate(25.62 29.12)"/><path class="cls-8" d="M28.33,14.13c0-.11-.12-.1-.19-.13,0-.34.3-.16.41-.11.64-.41,1.32-1.07,2.23-.65a.75.75,0,0,1,0,.89l-1.21.45,0-.08A4.65,4.65,0,0,1,28,14.34C28.1,14.27,28.29,14.27,28.33,14.13Z" transform="translate(25.62 29.12)"/><path class="cls-8" d="M34.75,26.08c0,.15.16.18.25.27l0-.08.11-.05,0,.08c-.07,0-.08.06-.09.1.22.13.44.1.43-.18-.57.15-.25-.51-.61-.55.3-.22,1-.69,1.39-.16a.91.91,0,0,1-.17.66,2.83,2.83,0,0,0-.79.5s.12,0,.13-.12l0-.08-.45.13c0-.11-.17-.21,0-.36h-.37C34.59,26.18,34.75,26.2,34.75,26.08Z" transform="translate(25.62 29.12)"/><path class="cls-8" d="M53.49,52.93c.34.08.16.46.07.59-.3.44-.93,0-1.15.49C52.66,53.59,52.94,53,53.49,52.93Z" transform="translate(25.62 29.12)"/><path class="cls-7" d="M35.22,26c.12,0,0,.18-.08.13l0-.08Z" transform="translate(25.62 29.12)"/><path class="cls-7" d="M35.35,25.67c.06.1.22.16.33.23l0,.17c.07,0,.09.09.12.17l-.34-.17c0-.19.15-.28-.08-.4l0,.23C35.24,25.81,35.32,25.75,35.35,25.67Z" transform="translate(25.62 29.12)"/><path class="cls-8" d="M88.44,31.34l-.37-.19c0-.14,1.31,0,.69-.66.9.06,1.92-.57,2.67.1.07-.07.25,0,.26-.17l-.37-.12c.5-.29,1-.9,1.65-.77.13.09.35.24.26.43-.43,1.24-2.33.18-2.31,1.93a2.57,2.57,0,0,1-1.87.78l-.54.44c.44-.27-.1-.52-.07-.76l-.39.16.18-.37L87.68,32C87.87,31.89,88.36,31.73,88.44,31.34Z" transform="translate(25.62 29.12)"/><path class="cls-8" d="M50.48,44.09c.34,0,.7-.36,1,.09s-.31.44-.41.76c-.17.14-.36-.12-.53.08l0-.07C50.5,44.8,50,44.22,50.48,44.09Z" transform="translate(25.62 29.12)"/><path class="cls-8" d="M33.58,15.09a1.15,1.15,0,0,1,1-.44c.08.12.31.18.2.35-.12.51-.74.44-1.12.48C33.88,15.34,33.56,15.22,33.58,15.09Z" transform="translate(25.62 29.12)"/><polygon class="cls-7" points="59.73 44.2 59.4 44.35 59.38 44.3 59.73 44.2"/><path class="cls-8" d="M55.49,46c-.27.09,0-.26-.17-.29.19-.15.52-.47.83-.23s-.11.36-.18.61l-.54.07Z" transform="translate(25.62 29.12)"/><polygon class="cls-7" points="81.19 75 81.46 74.89 81.38 75.13 81.4 75.06 81.08 75.04 81.14 74.86 81.19 75"/><path class="cls-8" d="M60.74,42.66c.11-.28.39-.73.81-.67a1.12,1.12,0,0,1,.81.23c.16.69-.63.79-.92,1.17l0-.07c-.17-.27-.46-.08-.67-.12A.78.78,0,0,0,60.74,42.66Z" transform="translate(25.62 29.12)"/><path class="cls-8" d="M65.7,52.74c0-.1-.17-.1-.22-.14l-.14.06c.54-.26.9-1,1.61-.83.24.19,0,.74-.25.89a2.64,2.64,0,0,1-1.27.3Z" transform="translate(25.62 29.12)"/><path class="cls-8" d="M39.1,10.94a1.24,1.24,0,0,1,1.09-.74.77.77,0,0,1,.81.4.79.79,0,0,1-.21.89c-.26.2-.55.08-.71.39,0-.71-.81.16-.65-.47l-.28,0A.26.26,0,0,0,39.1,10.94Z" transform="translate(25.62 29.12)"/><path class="cls-8" d="M43.65,20.11,43.7,20l0,0,.15-.06v.14l-.34-.06S43.62,20.16,43.65,20.11Z" transform="translate(25.62 29.12)"/><path class="cls-8" d="M63.76,45.21,63.65,45c.46.08,1.16-.77,1.67-.16s-.17.8-.42,1.13c-.26-.15-.33.14-.53.22s0-.09,0-.16c-.37.12-.2-.18-.59-.15l0-.08-.34,0C63.86,45.53,63.3,45.3,63.76,45.21Z" transform="translate(25.62 29.12)"/><path class="cls-8" d="M45,19.5c.12.23-.18.38-.22.46l-.64.18.08-.25c0,.39.37.12.45.12s.07-.25,0-.36c-.34-.3-.53.13-.69.19l0-.07-.41.08C43.94,19.55,44.45,19.07,45,19.5Z" transform="translate(25.62 29.12)"/><path class="cls-8" d="M56.08,21.67c0-.05.12,0,.16,0l.09.2-.25,0C56.08,21.76,56.13,21.71,56.08,21.67Z" transform="translate(25.62 29.12)"/><path class="cls-8" d="M67.6,36.43c0,.07.07.08.12.12l-.14.22c.11,0,0-.27-.28-.28C67.4,36.58,67.51,36.44,67.6,36.43Z" transform="translate(25.62 29.12)"/><path class="cls-8" d="M62.94,17.29l.06,0,.08.2A.11.11,0,0,1,62.94,17.29Z" transform="translate(25.62 29.12)"/><path class="cls-8" d="M63.4,17.27c.1-.24,0,0,0,.08l.18.1.2-.31-.09-.07.09.07c.09-.11-.05-.22-.05-.31-.23,0-.35.2-.47.42l-.08,0c.2-.34.57-.39,1-.5a.45.45,0,0,1,.29.28,1.13,1.13,0,0,1-1.18.47Z" transform="translate(25.62 29.12)"/><polygon class="cls-7" points="89.53 46.49 89.45 46.46 89.53 46.26 89.53 46.49"/><path class="cls-8" d="M81.27,31.8c.42,0,.53.35.49.67-.21.11-.26.39-.48.51,0,0-.16-.49-.41-.23.3,0,0,.37-.21.48L80.8,33c-.22-.15-.36.07-.61,0l.14-.22L80,32.7C80.39,32.38,80.67,31.91,81.27,31.8Z" transform="translate(25.62 29.12)"/><path class="cls-8" d="M70.74,20.86c.49-.26.81-.71,1.36-.31.19.29-.11.64-.3.81l-.69.27,0-.08-.37-.18,0-.08-.26-.06C70.76,21.15,70.92,20.89,70.74,20.86Z" transform="translate(25.62 29.12)"/><path class="cls-7" d="M71.47,20.7c-.13-.07-.27.08-.37.08a.53.53,0,0,1,.2-.24c.28,0,.22.37.3.5-.1.24-.52.18-.59.34C71.4,21.1,70.92,20.89,71.47,20.7Z" transform="translate(25.62 29.12)"/><path class="cls-8" d="M71.56,20.93c0,.05-.09.1,0,.15l0,.08-.14.06,0-.09.09,0L71.24,21Z" transform="translate(25.62 29.12)"/><path class="cls-8" d="M79,34.77c.14,0,.12.22.19.32-.09.33-.42.4-.74.52.13-.18.3-.09.35-.37L78.58,35c0,.15-.18.3-.31.22C78.44,35,78.68,34.71,79,34.77Z" transform="translate(25.62 29.12)"/><path class="cls-8" d="M72.61,17.59l.2.16-.27.33s.09-.1,0-.15l-.12-.05-.14.39c-.12-.12-.23,0-.32,0l.2-.07,0-.12.11,0,0-.34-.68.27C71.94,17.89,72.2,17.56,72.61,17.59Z" transform="translate(25.62 29.12)"/><path class="cls-8" d="M116,28.11c0-.51-.46,0-.66-.15.08-.19.48,0,.48-.34a.54.54,0,0,0-.67.08l-.07,0c.22-.37,1.07-.35,1-1-.14.05-.37-.13-.27-.29.47-.2.49-.7.91-.95l-.25-.07a6.27,6.27,0,0,1,1.26-.52c-.49-.37.68-.31.44-.71.35.23.75.28.85,0,.58.12,1.39.41,1.62,1,.32.28.06.43.16.89l-.12-.06c0,.16-.12.37.1.45a.78.78,0,0,0-.39.6c.1.29,0,.67-.31.67-.06.09,0,.16,0,.21a.44.44,0,0,0-.29.27c-.49.41-1.13.67-1.51,1.39l.16-.18-.2-.19L118,30c0-.28.24-.64,0-.84s-.39.17-.57.28l.14-.22c-.28-.16-.48.36-.84.24.19-.52-.17-.65-.56-.74l-.68.25A.8.8,0,0,0,116,28.11Z" transform="translate(25.62 29.12)"/><path class="cls-8" d="M76.76,18.49c-.07.06,0,.15,0,.23.2.16.37,0,.57,0V18.5c-.21-.14-.21.21-.39,0,0-.37.48-.19.74-.29.33.33-.14.55-.39.61-.26.24-.52,0-.78,0C76.54,18.77,76.56,18.47,76.76,18.49Z" transform="translate(25.62 29.12)"/><path class="cls-8" d="M81.78,17.76c.4,0,.87.28.83.53.12.15,0,.3,0,.4.37-.08.88.08.78.58-.88.93-2.17.49-2.83.39l.12-.28-.34,0A2.19,2.19,0,0,1,81.78,17.76Z" transform="translate(25.62 29.12)"/><path class="cls-8" d="M132.91,2.54l-.14,0c.18-.12.23-.36.35-.57-.12-.06-.2-.12-.34,0l0,.08c0-.13.5-.16.23-.46l-.1,0c.67-.13.58-.75,1.19-.86.27-.71,1.07-.27,1.47-.43.05.24.34.24.51.37l.41,1.18a2,2,0,0,0-.35.8,1.79,1.79,0,0,1,1.13.55c.48.58-.22.88-.23,1.4-.35-.07-.64.22-.85.45l-.11.17c.09-.61-.69-.15-1-.16l-.2.07c.08-.15.32-.2.25-.4l-.5.16c.08,0,.2-.09.24-.24l-.21-.16c.13,0,.12-.13.16-.21s-.14-.11-.22-.15l.18-.22c-.23-.12-.44-.08-.45-.4l-.74.12.16-.21a.33.33,0,0,0-.4,0l0,.07.08-.25-.52.11C132.76,3,133.4,2.72,132.91,2.54Z" transform="translate(25.62 29.12)"/><path class="cls-8" d="M99.85,29.15l-.2-.09c.31-.38.38-1.22,1.17-1.45a2.51,2.51,0,0,1,1.31,0c.5.63.32,1.12.05,1.77-.39,0-.86.62-1.28.71l-.05.12.12-.28-1,.07C100,29.72,99.82,29.42,99.85,29.15Z" transform="translate(25.62 29.12)"/><polygon class="cls-7" points="110.67 52.69 110.65 52.63 110.85 52.55 110.88 52.61 110.67 52.69"/><path class="cls-8" d="M88.24,20.22c0,.06,0,.13,0,.17,0-.14-.26-.32-.33-.1C87.93,20.17,88.17,20,88.24,20.22Z" transform="translate(25.62 29.12)"/><path class="cls-8" d="M90.8,19.56l-.09-.06c-.08,0,.29-.27.07-.42.57-.74,1.36.56,1.77-.51.55.25,1.1-.2,1.48.38.21.47-.14.91-.49,1.2l-.57.38c0-.12-.18-.13-.25-.06l-.29.11c0-.48-.45,0-.69-.2l.08,0c-.22-.41-.58,0-.89-.28h-.26C90.57,19.88,90.77,19.74,90.8,19.56Z" transform="translate(25.62 29.12)"/><path class="cls-8" d="M109.35,14c-.23,0,.32-.21,0-.31.32-.11.14-.43.34-.57l-.07,0c.56,0,.11-.85,1-.7.2-.53.73.12,1-.13a1.21,1.21,0,0,1,.76,1.28c-.12.57-.15.22-.37.85l-.16.28c-.31-.4-.19.63-.6.22-.22.11-.3.34-.57.37a.24.24,0,0,0,0-.23c-.2-.09-.37.07-.52.09l0-.22-.4,0c.08-.05,0-.14,0-.23l-.24,0C109.23,14.4,109.87,14.2,109.35,14Z" transform="translate(25.62 29.12)"/><polygon class="cls-7" points="136.78 46.12 136.31 46.35 136.58 46.19 136.78 46.12"/><path class="cls-8" d="M125.87,22.88l-.07-.2c.25,0,.1-.26.18-.38.41-.12,1-.4,1.21,0l.08.68c-.24,0-.34.32-.51.47-.05-.24-.4.05-.38,0l0-.1a1.21,1.21,0,0,1-.66-.16A.16.16,0,0,0,125.87,22.88Z" transform="translate(25.62 29.12)"/><polygon class="cls-7" points="151.75 52.3 151.74 52.24 152.02 52.15 152.04 52.2 151.75 52.3"/><path class="cls-8" d="M133.23,37.85a.55.55,0,0,1,.75.61.71.71,0,0,1-.71.41C132.88,38.82,132.6,37.94,133.23,37.85Z" transform="translate(25.62 29.12)"/><path class="cls-8" d="M132.44,12.81c-.1-.2,0-.16-.08-.43.2-.16.57-.39.85-.23a.66.66,0,0,1,.24.69c-.19.3-.17.16-.42.38-.26-.11-.59-.05-.68-.38Z" transform="translate(25.62 29.12)"/><path class="cls-8" d="M133.82,11.23c.08.14,0,.23,0,.34s-.33,0-.3-.22Z" transform="translate(25.62 29.12)"/><path class="cls-8" d="M130.87,25.1a.69.69,0,0,1,.55-.42c.08.13.35.17.2.38a.92.92,0,0,1-.52.41c-.1-.09-.31-.15-.12-.34Z" transform="translate(25.62 29.12)"/><path class="cls-7" d="M131.26,25.13l.11,0c.1-.16-.19.4-.31.05S131.19,25.09,131.26,25.13Z" transform="translate(25.62 29.12)"/><path class="cls-8" d="M140,27.14l-.39,0c.28,0,.36-.25.47-.48a.24.24,0,0,0-.16-.18c.22,0,.29-.19.44-.3l-.23-.22c.75-.12,1.77-1,2.62-.11L143,27l-.07,0c0,.59-.44.77-.56,1.25l.05.15-.43-.14c-.1.25-.12-.09-.31,0l-.44.47c-.06-.11,0-.18.07-.25-.2-.22-.3,0-.42.14,0-.27-.33-.4-.74-.68,0,.11-.12.1-.21.13.14,0,.15-.21.22-.29l0-.06-.52.07C139.58,27.46,140.17,27.52,140,27.14Z" transform="translate(25.62 29.12)"/><path class="cls-8" d="M137.93,16.28c.15-.22.12-.3-.05-.44l-.12-.05c-.11.07.21-.14.32,0,.13-.18-.1-.49.28-.49.16-.28-.22-.28-.31-.44.33-.14.43.24.75,0,.11-.81,1-.14,1.22-.58,0,0,.39-.16.47.1.13,0,.11-.16.16-.21.39,0,.69.63.94.51.24,0,.28.27.49.32a.33.33,0,0,0,.26.3c-.37.42.63.27.15.63,0,.23.3.22.37.26-.13.07-.36,0-.48.16.7.28-.25.61.15,1.11-.16-.1-.31.11-.29.26l0,.14c-.41-.17-.43.44-.66.52s-.85-.26-1,.44c-.21.23-.59-.68-.9-.09l-.12.28c-.27-.21.26-.45-.11-.58s-.16.27-.34.4c0-.1.33-.82-.31-.73l-.44.31a2.05,2.05,0,0,0,.1-.65c-.24-.33-.45.29-.47,0,.11-.13.32-.24.16-.44l-.59-.12C138,17,137.62,16.48,137.93,16.28Z" transform="translate(25.62 29.12)"/><path class="cls-8" d="M153.53,20.23s-.09-.07-.14,0c-.06-.3.28-.7,0-1,.49-.16.1-.93.68-.9.21-.13-.06-.49.34-.34a.28.28,0,0,0,0-.25c.63,0,1.1-.5,1.72-.25.32-.08.42.44.76.2l-.1.19c.22.28.81.25.64.79l.26.3a1.56,1.56,0,0,0-.12,1.07c-.13.2-.6.29-.4.64-.45,0-.22.46-.37.68l-.19-.1-.13.29c-.06-.1,0-.25-.15-.27-.31.11-.42.37-.55.64,0-.06-.07-.14,0-.23-.24-.17-.23.24-.46.24l0-.14-.26.09,0-.11c-.26-.23-.43.14-.63.21,0-.13.17-.35,0-.43l-.39-.2c0,.09-.08.12-.16.15l0-.5c-.31-.16-.31.39-.57.29C153.84,20.89,153.28,20.63,153.53,20.23Z" transform="translate(25.62 29.12)"/><path class="cls-8" d="M142.9,2.75c.07.13.28.16.28.35s-.46.25-.6.14C142.77,3,142.48,2.85,142.9,2.75Z" transform="translate(25.62 29.12)"/><path class="cls-8" d="M142.34-10.26c.13-.11.22,0,.34,0s-.08.44-.2.58c-.34,0,0-.12-.38-.17A.45.45,0,0,1,142.34-10.26Z" transform="translate(25.62 29.12)"/><path class="cls-8" d="M154.73,14c.2,0,.37-.12.56.07,0,.14,0,.41-.15.5l-.2.07c-.19-.1.33-.36-.13-.41l-.08.25C154.7,14.26,154.59,14.1,154.73,14Z" transform="translate(25.62 29.12)"/><path class="cls-8" d="M152.33,3.33a1.8,1.8,0,0,1,0-.6,1.7,1.7,0,0,1,1.07-.67c.59.26.94.24,1,.82.32.08-.21.45.25.46-.15.15-.57.32-.21.55,0-.22-.45.09-.54.18l0,.12c-.09,0-.2-.16-.32,0,0,.4-.37,0-.55.18.07-.09,0-.17,0-.25s-.24,0-.37.06l0,.07.1-.16-.4-.26.1-.19-.23,0Z" transform="translate(25.62 29.12)"/><path class="cls-8" d="M154.33,4.76c0-.15.55-.18.38-.51.14,0,.18-.12.21-.23l0-.15c.11.13.22,0,.32,0s0-.19,0-.31c.12.08.23,0,.35.1l.22-.19c0,.08.15.07.22.15.34-.4.67.14,1,.12s.21.64.72.54c-.35.69.52.83.15,1.66-.06,0-.13.07-.22,0-.18.13,0,.4.09.49-.14,0-.24-.06-.35-.12,0,.61-.71.39-.87.67-.06-.27-.32.07-.47-.07l-.1.19V6.78c-.13.11-.33,0-.39.29-.24-.28-.2-.8-.63-.57.15-.14,0-.29,0-.45C154.12,6,154.87,5,154.33,4.76Z" transform="translate(25.62 29.12)"/><path class="cls-8" d="M162.48,6.6c.07-.28-.3-.32-.39-.32a.41.41,0,0,0,0-.4c-.1-.13-.22,0-.31,0,.06-.21.61-.06.4-.41l-.19-.1.3-.25L162,4.91c.2,0,.58-.28.41-.61l-.25-.3s.12,0,.17,0c.3-.16-.28-.58.21-.55-.26-.4-.07-.91-.21-1.15.26,0,.11-.26.16-.38s.22.07.33,0c-.13-.38.26,0,.29-.25.26,0,.58.29.76,0-.13.46.42.41.53.66.45-.21-.22-.5,0-.78.31.28.11.83.7.7l.14-.27c.15.09.32.51.49.17l.34.34.21-.14c.06.09,0,.23.14.26s.12-.14.16-.21a.63.63,0,0,0,.38.51l.21-.16.17.55c.42-.19.08.46.56.37-.31.42.32.51.49.55-.09.09-.28.12-.22.29,0,.43.35.12.51.22l-.38.19c0,.21.13.41.24.57l.09,0c.05.17-.43.58,0,.66-.07,0-.08.05-.12.13,0,.27.3.23.36.4s-.71-.42-.61.19l.26.63-.41-.41c-.71.48.24,1.39-.6,1.73-.07-.34-.43-.28-.6-.2-.4.13-.07.67-.53.72-.09-.58-.85-.47-1.05-.21s0,.48-.19.6c-.12-.18.16-.69-.26-.84l-.29.31c.07-.18-.1-.42-.26-.52l-.21.22c0-.15.16-.4-.13-.4l-.31.23c-.08-.14.17-.25,0-.39s-.36-.24-.44,0c-.12.1.13-.39-.28-.39l-.26.08c.07-.18.3-.35.08-.63l-.49.15c0-.14.23-.26.12-.42H162C162.22,7,162.54,6.9,162.48,6.6Z" transform="translate(25.62 29.12)"/><path class="cls-8" d="M119.21,4.94c.34-.06.68-.4,1,0,.11.38.26,1.17-.39,1.07l-.1.2-.53-.2c.15-.34-.43-.33-.24-.69C119.1,5.27,119.35,5.15,119.21,4.94Z" transform="translate(25.62 29.12)"/><path class="cls-8" d="M121.24,5.16l.36-.28Z" transform="translate(25.62 29.12)"/><polygon class="cls-8" points="147.96 33.45 147.49 33.84 147.46 33.76 147.34 33.89 147.29 33.75 147.96 33.45"/><path class="cls-8" d="M122.87,3.43c-.05,0-.09,0-.16,0,.09-.1.18-.13.23-.25l-.39,0c.27-.15.31-.4.37-.68l-.07,0a2,2,0,0,1,1.54-.86c.43.11.94.44,1.38.12.23.19-.26.29.06.37s.55.55.84.81c-.35.42-.14.63-.12,1-.07.18-.45.29-.2.55l-.28-.16c-.21.24.06.47.07.69l-.44-.17c-.07.38-.64.49-.83.68-.46-.29-.71.38-.86.69-.24-.21.22-.85-.31-1.06,0,.08,0,.2-.15.22-.46-.2.25-.67-.26-.75l-.5.79C123,4.62,123.44,4.1,122.87,3.43Z" transform="translate(25.62 29.12)"/><path class="cls-8" d="M122.57,4.15l.24-.25Z" transform="translate(25.62 29.12)"/><polygon class="cls-8" points="152.11 35.1 152.06 35.12 151.97 34.89 152.11 35.1"/></g><g class="cls-6"><polygon class="cls-7" points="110.45 77.29 110.11 77.28 110.37 77.25 110.45 77.29"/><polygon class="cls-7" points="111.06 77.25 110.76 77.37 110.72 77.11 111.06 77.25"/><path class="cls-8" d="M68.12-20.61c.12-.22.35-.14.5-.37a.73.73,0,0,1,.5.83.74.74,0,0,1-.85.34A.72.72,0,0,1,68.12-20.61Z" transform="translate(25.62 29.12)"/><path class="cls-8" d="M68.17-23.1c.27,0,.24.26.34.42a.63.63,0,0,1-.47.42C67.66-22.37,67.53-23.17,68.17-23.1Z" transform="translate(25.62 29.12)"/><path class="cls-8" d="M.82,44.18c.12.18.05.54-.25.48l-.22-.1C.3,44.31.58,44,.82,44.18Z" transform="translate(25.62 29.12)"/><rect class="cls-8" x="50.72" y="14.69" width="0.24" height="0.08" transform="translate(23.92 50.27) rotate(-23.13)"/><path class="cls-8" d="M1.47,42.65c.09,0,.1.07.14.14s-.28.28-.35.11S1.31,42.67,1.47,42.65Z" transform="translate(25.62 29.12)"/><path class="cls-8" d="M54.12,14.19l.11.26a1,1,0,0,1-1.3,0C53.24,14.41,53.7,14,54.12,14.19Z" transform="translate(25.62 29.12)"/><path class="cls-8" d="M5.86,43.34c.25.24.41.58,0,.78a.67.67,0,0,1-.64-.26C5.19,43.57,5.55,43.34,5.86,43.34Z" transform="translate(25.62 29.12)"/><path class="cls-8" d="M-16.94,28.09l-.09.05c.52-.41,1.29-1,2-.67.1.31-.28.43-.55.56-.49.3-1,0-1.48.28C-17.12,28.21-16.85,28.22-16.94,28.09Z" transform="translate(25.62 29.12)"/><path class="cls-8" d="M101.27-12.37c-.07,0-.16-.1-.24-.05l.24-.41c-.49-.43.42-.55.29-.89a1.75,1.75,0,0,1,1.62,0c.38.48.21.55.55,1-.4.23.43,1.05-.43,1.11-.22.47-.69.09-1,.45.24-.16-.25-.24-.44-.3l-.28,0c.16-.35-.18-.49-.49-.6C101.3-12,101.22-12.25,101.27-12.37Z" transform="translate(25.62 29.12)"/><path class="cls-8" d="M-11.89,27.41c.2,0,.45-.07.6,0,0,.35-.55.46-.83.57l-.55-.09A2,2,0,0,1-11.89,27.41Z" transform="translate(25.62 29.12)"/><path class="cls-8" d="M-10.5,25.14c.09,0,.17.06.25,0l.06.12c-.4.42-.91.27-1.37.41A1.83,1.83,0,0,1-10.5,25.14Z" transform="translate(25.62 29.12)"/><path class="cls-7" d="M-10.66,25.4c0-.08-.17.25-.29.1Z" transform="translate(25.62 29.12)"/><path class="cls-8" d="M-10.62,24l0,.06,0-.06-.22.05C-10.75,24.07-10.7,24-10.62,24Z" transform="translate(25.62 29.12)"/><path class="cls-8" d="M1.21,15.86c.07,0,.09.05.12.11l-.2,0C1.2,15.94,1.2,15.89,1.21,15.86Z" transform="translate(25.62 29.12)"/><path class="cls-8" d="M19.27,22.35a.3.3,0,0,1,.3.26c-.12.19-.18.22-.4.18C19.19,22.62,19,22.42,19.27,22.35Z" transform="translate(25.62 29.12)"/><path class="cls-8" d="M19.91,12.4a.37.37,0,0,1,.39-.05c-.06.17.07.37-.13.46S19.82,12.57,19.91,12.4Z" transform="translate(25.62 29.12)"/><path class="cls-8" d="M18.44,7.56c.28,0,.73,0,.79.32a.52.52,0,0,1-.29.77c-.27.32-.47-.13-.69-.1C18,8.18,18.29,7.9,18.44,7.56Z" transform="translate(25.62 29.12)"/><path class="cls-8" d="M19.91,11.19c.09,0,.16-.1.25,0a.38.38,0,0,1,0,.4C20,11.63,19.71,11.35,19.91,11.19Z" transform="translate(25.62 29.12)"/><path class="cls-8" d="M25.43,19.23c.14,0,.28-.06.43,0,0,.22.19.35,0,.57A.37.37,0,0,1,25.43,19.23Z" transform="translate(25.62 29.12)"/><polygon class="cls-8" points="29.25 58.64 28.91 58.95 28.95 58.72 29.25 58.64"/><path class="cls-8" d="M6.13,29.28c.31,0,.71-.09.71.29-.09.73-1,.71-1.5.85l-.11.06c.08-.13-.14-.17-.08-.32-.44.36-.4-.34-.83,0A3.28,3.28,0,0,1,6.13,29.28Z" transform="translate(25.62 29.12)"/><path class="cls-8" d="M23.28,11.18c.18-.18.25.12.38.17a.25.25,0,0,1-.4.18C23.17,11.4,23.23,11.31,23.28,11.18Z" transform="translate(25.62 29.12)"/><path class="cls-8" d="M27.8,17.12c.17,0,.15.2.2.31s-.21.13-.31.22A.28.28,0,0,1,27.8,17.12Z" transform="translate(25.62 29.12)"/><path class="cls-8" d="M26.81,13.85a.29.29,0,0,1,.27.38c-.15,0-.28.2-.4,0S26.77,14,26.81,13.85Z" transform="translate(25.62 29.12)"/><path class="cls-8" d="M28.15,16.47c.28.1.76-.48.8.14-.3,0-.48.51-.85.28C28.12,16.78,28,16.61,28.15,16.47Z" transform="translate(25.62 29.12)"/><path class="cls-8" d="M10.33,26.4c.22-.1.41-.19.42-.47-.1-.08-.35,0-.35-.24,1-.2,2.12-.94,3.07-.27a.65.65,0,0,1,0,.66,1.15,1.15,0,0,0-.58.5c-.5-.2-.9.62-1.48.45.09,0,.07-.13.13-.22a5.86,5.86,0,0,1-1.32-.21Z" transform="translate(25.62 29.12)"/><path class="cls-8" d="M14.28,29.8c.44.67-.66.7-1,.85l-.79-.1A1.77,1.77,0,0,1,14.28,29.8Z" transform="translate(25.62 29.12)"/><polygon class="cls-7" points="39.42 59.14 39.36 59.5 38.98 59.27 39.33 59.45 39.42 59.14"/><path class="cls-8" d="M73.12,11.06l.26.23c-.49,1-2,1-2.92,1l-.67-.11A4,4,0,0,1,73.12,11.06Z" transform="translate(25.62 29.12)"/><polygon class="cls-8" points="41.92 59.13 41.66 59.08 41.83 58.94 41.92 59.13"/><path class="cls-8" d="M18.76,29.35a1.43,1.43,0,0,1,.46.12c.12.18,0,.43-.15.54a1.85,1.85,0,0,1-1.44.26v.1c-.06.1.1-.14.13-.22s-.27,0-.4,0A1.77,1.77,0,0,1,18.76,29.35Z" transform="translate(25.62 29.12)"/><path class="cls-7" d="M18.44,29.9l-.19,0c0,.29,0,0-.2.09C18.41,30,18.05,29.71,18.44,29.9Z" transform="translate(25.62 29.12)"/><path class="cls-8" d="M20.42,30a1.76,1.76,0,0,1,1.43-.72c.23.06.58.17.38.46a2.1,2.1,0,0,1-1.19.72c-.25-.26-.6,0-.91,0C20.11,30.24,20.81,30.22,20.42,30Z" transform="translate(25.62 29.12)"/><polygon class="cls-7" points="46.58 58.84 46.67 58.9 46.61 58.92 46.58 58.84"/><path class="cls-8" d="M31.54,41.74c.17,0,.13.14.2.22-.09.47-.71.55-1.07.64-.23-.23-.32.25-.58.1C30.53,42.36,30.85,41.75,31.54,41.74Z" transform="translate(25.62 29.12)"/><path class="cls-8" d="M18.22-8.54c.45.53-.33.72-.61,1-.88.49-1.73-.16-2.55.08l-.52-.08C15.71-7.68,16.86-9.36,18.22-8.54Z" transform="translate(25.62 29.12)"/><path class="cls-8" d="M40.16,27.69c.09.06.23,0,.33.09a.44.44,0,0,1,0,.64l-.81.35c-.06,0,0-.09,0-.16l-.42-.05C39.16,28,39.76,27.86,40.16,27.69Z" transform="translate(25.62 29.12)"/><polygon class="cls-7" points="59.6 59.56 59.35 59.74 59.41 59.64 59.6 59.56"/><path class="cls-8" d="M46.93,25.4l0-.18c-.11-.08-.18.05-.28.06.1-.48.51-.63.87-1,.32,0,.71,0,1,.32s-.1.51-.17.77c-.24.29-.74,0-1,.35l0-.09-.77-.2C46.73,25.42,46.83,25.28,46.93,25.4Z" transform="translate(25.62 29.12)"/><polygon class="cls-8" points="51.27 26.18 50.94 26.19 51.22 26.07 51.27 26.18"/><path class="cls-8" d="M26.59-1.35c.13-.16-.06.32-.19.25L27-1h-.72Z" transform="translate(25.62 29.12)"/><path class="cls-8" d="M26.82-1.36c0-.15.24-.17.31-.23.18.09.38.09.41.32s-.18.11-.26.18c0-.13.17-.17.2-.32a.52.52,0,0,0-.57,0c0,.08.07.07.12.11l-.23.18.14-.23Z" transform="translate(25.62 29.12)"/><path class="cls-8" d="M27.22-4l-.08,0,.08,0L27-3.77C27.16-3.78,27.17-3.91,27.22-4Z" transform="translate(25.62 29.12)"/><path class="cls-8" d="M40.55,15.09c.74-.17,1.3-1.19,2.22-.88a.56.56,0,0,1-.19.9c-.63.37-1.31,0-2,.11Z" transform="translate(25.62 29.12)"/><path class="cls-8" d="M52.86,25.52c.32-.11.68-.36,1-.05s-.1.44-.16.66c-.23.19-.52.13-.77.2,0-.11,0-.23-.15-.18C52.77,25.8,52.64,25.85,52.86,25.52Z" transform="translate(25.62 29.12)"/><path class="cls-8" d="M39,4.33a.87.87,0,0,1,.85.07.42.42,0,0,1-.19.61c-.33.14-.7.34-1,.16C38.38,4.75,38.82,4.62,39,4.33Z" transform="translate(25.62 29.12)"/><path class="cls-8" d="M54.71,26.81c.13-.25-.25-.22-.18-.3s.22,0,.26,0l.09.05a.43.43,0,0,1-.59.25C54.4,26.81,54.57,27,54.71,26.81Z" transform="translate(25.62 29.12)"/><path class="cls-8" d="M33-11.15a.9.9,0,0,1,.91,0c.14.28.27.69-.07.77S32.64-10.63,33-11.15Z" transform="translate(25.62 29.12)"/><path class="cls-8" d="M36.87-4.68c0-.12-.12-.1-.19-.14,0-.33.31-.16.41-.11.65-.4,1.33-1.06,2.23-.64a.72.72,0,0,1,0,.88l-1.21.46.05-.08a5,5,0,0,1-1.62-.16C36.64-4.55,36.83-4.54,36.87-4.68Z" transform="translate(25.62 29.12)"/><path class="cls-8" d="M43.3,7.26c0,.15.16.18.25.27l0-.08.11,0,0,.09c-.08,0-.08.06-.09.09.21.13.43.1.42-.18-.57.16-.25-.51-.6-.54.3-.22,1-.7,1.38-.16a.9.9,0,0,1-.16.66,2.83,2.83,0,0,0-.8.49s.13,0,.14-.12l0-.08-.44.13c0-.1-.17-.2,0-.35h-.37C43.13,7.37,43.3,7.39,43.3,7.26Z" transform="translate(25.62 29.12)"/><path class="cls-8" d="M62,34.11c.34.08.17.46.07.6-.3.44-.93,0-1.15.49C61.21,34.78,61.48,34.16,62,34.11Z" transform="translate(25.62 29.12)"/><path class="cls-7" d="M43.77,7.19c.11-.05-.06.18-.08.12l0-.07Z" transform="translate(25.62 29.12)"/><path class="cls-7" d="M43.89,6.86a1.55,1.55,0,0,0,.34.23l0,.17c.08,0,.09.08.13.16L44,7.25c0-.18.14-.28-.09-.39l0,.23C43.79,7,43.87,6.93,43.89,6.86Z" transform="translate(25.62 29.12)"/><path class="cls-8" d="M97,12.52l-.37-.18c0-.15,1.31,0,.69-.66.9.05,1.93-.57,2.67.09.08-.06.25,0,.26-.16l-.37-.13c.51-.28,1-.89,1.66-.76.12.08.34.23.25.43-.42,1.24-2.33.17-2.3,1.92a2.59,2.59,0,0,1-1.88.79l-.53.44c.44-.28-.11-.52-.08-.76l-.39.15.18-.37-.55-.17C96.41,13.07,96.9,12.91,97,12.52Z" transform="translate(25.62 29.12)"/><path class="cls-8" d="M59,25.27c.34,0,.7-.36,1,.1s-.31.44-.4.76c-.18.13-.37-.13-.54.07l0-.07C59,26,58.57,25.41,59,25.27Z" transform="translate(25.62 29.12)"/><path class="cls-8" d="M42.13-3.72a1.13,1.13,0,0,1,1-.45c.08.13.32.18.2.35-.12.52-.74.44-1.12.48C42.42-3.47,42.1-3.59,42.13-3.72Z" transform="translate(25.62 29.12)"/><polygon class="cls-7" points="68.28 25.39 67.94 25.53 67.92 25.48 68.28 25.39"/><path class="cls-8" d="M64,27.18c-.28.08,0-.27-.18-.3.2-.14.52-.47.84-.22s-.11.35-.19.6l-.53.07Z" transform="translate(25.62 29.12)"/><polygon class="cls-7" points="89.74 56.18 90 56.07 89.92 56.32 89.94 56.24 89.63 56.23 89.68 56.05 89.74 56.18"/><path class="cls-8" d="M69.28,23.84c.11-.27.39-.72.81-.67a1.14,1.14,0,0,1,.81.23c.16.7-.62.79-.92,1.18l0-.08c-.17-.26-.45-.07-.67-.12A.73.73,0,0,0,69.28,23.84Z" transform="translate(25.62 29.12)"/><path class="cls-8" d="M74.24,33.93c0-.1-.17-.1-.22-.14l-.14.05c.55-.26.9-1,1.61-.83.25.19.05.74-.25.9a2.61,2.61,0,0,1-1.27.3Z" transform="translate(25.62 29.12)"/><path class="cls-8" d="M47.64-7.88a1.28,1.28,0,0,1,1.09-.74.78.78,0,0,1,.81.41.78.78,0,0,1-.21.89c-.26.2-.55.07-.71.39,0-.71-.81.16-.64-.47l-.29,0A.26.26,0,0,0,47.64-7.88Z" transform="translate(25.62 29.12)"/><path class="cls-8" d="M52.19,1.3l.05-.08,0,.05.15-.07,0,.15-.35-.06S52.16,1.34,52.19,1.3Z" transform="translate(25.62 29.12)"/><path class="cls-8" d="M72.3,26.39l-.1-.25c.45.08,1.15-.78,1.66-.16.36.48-.16.79-.41,1.13-.27-.16-.34.14-.53.22s0-.1,0-.17c-.37.13-.2-.17-.58-.15l0-.08-.34,0C72.4,26.72,71.85,26.48,72.3,26.39Z" transform="translate(25.62 29.12)"/><path class="cls-8" d="M53.52.69c.12.22-.18.38-.23.46l-.64.17.08-.25c0,.39.37.13.45.13s.08-.25,0-.36c-.33-.3-.53.12-.69.19l0-.08L52.08,1C52.49.74,53,.25,53.52.69Z" transform="translate(25.62 29.12)"/><path class="cls-8" d="M64.62,2.85c0-.05.13,0,.17,0l.08.2-.25,0C64.63,3,64.67,2.9,64.62,2.85Z" transform="translate(25.62 29.12)"/><path class="cls-8" d="M76.15,17.62c0,.07.06.07.11.12l-.14.22c.11,0-.05-.28-.28-.28C75.94,17.76,76.05,17.63,76.15,17.62Z" transform="translate(25.62 29.12)"/><path class="cls-8" d="M71.49-1.52l.06,0,.07.2C71.52-1.28,71.36-1.41,71.49-1.52Z" transform="translate(25.62 29.12)"/><path class="cls-8" d="M71.94-1.54c.11-.24,0,0,0,.08l.17.09.21-.31-.1-.06.1.06c.09-.11-.06-.21-.06-.31-.22,0-.35.21-.46.42l-.08,0c.19-.34.57-.4,1-.5a.42.42,0,0,1,.28.27,1.11,1.11,0,0,1-1.17.48Z" transform="translate(25.62 29.12)"/><polygon class="cls-7" points="98.07 27.67 97.99 27.64 98.07 27.44 98.07 27.67"/><path class="cls-8" d="M89.82,13c.41,0,.53.35.49.66-.22.12-.27.4-.49.52,0-.06-.16-.5-.41-.24.31.05,0,.37-.2.48l.14-.22c-.22-.14-.37.07-.62,0l.14-.22-.33-.09C88.94,13.56,89.21,13.1,89.82,13Z" transform="translate(25.62 29.12)"/><path class="cls-8" d="M79.28,2.05c.49-.26.81-.71,1.37-.31.18.29-.11.64-.31.81l-.68.27,0-.08-.37-.18,0-.08-.26-.06C79.3,2.34,79.46,2.07,79.28,2.05Z" transform="translate(25.62 29.12)"/><path class="cls-7" d="M80,1.89c-.13-.08-.27.07-.36.08s.12-.18.2-.25c.27,0,.22.38.3.51-.11.24-.52.18-.59.33C79.94,2.28,79.46,2.07,80,1.89Z" transform="translate(25.62 29.12)"/><path class="cls-8" d="M80.1,2.11c0,.06-.09.11,0,.15l0,.09L80,2.41l0-.09.08,0-.21-.15Z" transform="translate(25.62 29.12)"/><path class="cls-8" d="M87.57,16c.14,0,.12.22.2.32-.1.33-.43.4-.74.52.12-.18.29-.08.34-.36l-.25-.23c0,.15-.18.3-.31.21C87,16.19,87.22,15.89,87.57,16Z" transform="translate(25.62 29.12)"/><path class="cls-8" d="M81.16-1.22l.19.15-.26.34c0-.05.09-.11,0-.15L81-.93l-.15.39c-.11-.13-.22,0-.32,0l.2-.08,0-.11.1,0,0-.34-.68.27C80.48-.92,80.74-1.25,81.16-1.22Z" transform="translate(25.62 29.12)"/><path class="cls-8" d="M124.57,9.3c0-.51-.46,0-.66-.15.09-.2.48,0,.49-.34a.55.55,0,0,0-.68.08l-.06,0c.22-.37,1.06-.35,1-1-.14.05-.36-.13-.26-.3.47-.2.48-.69.9-.94l-.25-.08a7.2,7.2,0,0,1,1.26-.51c-.49-.38.69-.32.45-.72.34.24.74.28.84,0,.59.11,1.4.41,1.62,1,.33.27.07.43.17.89l-.12-.07c0,.16-.13.38.1.46a.75.75,0,0,0-.4.6c.11.28,0,.67-.3.66-.07.09,0,.16,0,.22a.41.41,0,0,0-.29.27,4.58,4.58,0,0,0-1.51,1.39l.16-.19-.2-.19-.3.66c0-.27.25-.64,0-.83s-.38.17-.57.27l.14-.22c-.28-.15-.47.37-.84.24.2-.52-.17-.65-.56-.73l-.68.24A.78.78,0,0,0,124.57,9.3Z" transform="translate(25.62 29.12)"/><path class="cls-8" d="M85.31-.33c-.08.07,0,.15,0,.23.19.16.37,0,.56,0V-.32c-.22-.14-.21.22-.4,0,0-.36.49-.19.74-.29.33.33-.14.55-.38.61-.27.24-.53,0-.79,0C85.09,0,85.1-.35,85.31-.33Z" transform="translate(25.62 29.12)"/><path class="cls-8" d="M90.33-1c.39,0,.86.28.82.53.13.14,0,.29,0,.4.37-.09.89.07.79.57-.89.94-2.18.49-2.84.39l.12-.27-.34,0A2.18,2.18,0,0,1,90.33-1Z" transform="translate(25.62 29.12)"/><path class="cls-8" d="M141.46-16.28l-.15.05c.18-.13.23-.37.35-.57-.11-.06-.2-.13-.33-.05l0,.08c0-.14.49-.17.23-.47l-.11,0c.67-.13.58-.75,1.19-.86.28-.71,1.08-.27,1.47-.44.05.24.34.24.52.37L145-17a2,2,0,0,0-.34.8,1.74,1.74,0,0,1,1.12.55c.49.58-.21.88-.23,1.4-.35-.07-.64.21-.85.45l-.1.17c.08-.61-.7-.15-1.05-.16l-.21.06c.08-.15.32-.2.25-.4l-.49.17c.08-.06.19-.1.24-.25l-.21-.15c.12,0,.11-.14.15-.21s-.14-.12-.22-.16l.19-.22c-.24-.11-.45-.07-.46-.39l-.73.12.15-.22a.36.36,0,0,0-.4,0l0,.08.08-.25-.51.1C141.31-15.77,141.94-16.09,141.46-16.28Z" transform="translate(25.62 29.12)"/><path class="cls-8" d="M108.39,10.33l-.2-.08c.32-.38.38-1.22,1.18-1.45a2.47,2.47,0,0,1,1.3,0c.5.63.33,1.12.06,1.77-.39,0-.87.62-1.28.71l-.06.12.13-.27-1,.06C108.54,10.9,108.36,10.6,108.39,10.33Z" transform="translate(25.62 29.12)"/><polygon class="cls-7" points="119.22 33.87 119.2 33.82 119.4 33.74 119.42 33.8 119.22 33.87"/><path class="cls-8" d="M96.79,1.4c0,.06,0,.14,0,.18,0-.15-.26-.33-.34-.1C96.47,1.36,96.71,1.2,96.79,1.4Z" transform="translate(25.62 29.12)"/><path class="cls-8" d="M99.34.75,99.26.69c-.09,0,.29-.28.07-.42.56-.75,1.35.55,1.77-.52.55.25,1.1-.19,1.47.38s-.14.91-.48,1.21l-.58.38c0-.13-.17-.13-.25-.07l-.28.11c0-.47-.45,0-.7-.19l.09,0c-.22-.41-.59,0-.9-.28h-.25C99.11,1.07,99.32.93,99.34.75Z" transform="translate(25.62 29.12)"/><path class="cls-8" d="M117.89-4.78c-.23,0,.32-.21,0-.31.31-.12.13-.44.34-.58l-.08,0c.56,0,.11-.86,1-.71.2-.52.73.13,1-.13a1.23,1.23,0,0,1,.76,1.29c-.12.56-.15.21-.38.85l-.15.28c-.31-.41-.2.62-.61.22-.21.11-.29.34-.57.37a.24.24,0,0,0,0-.23c-.19-.1-.37.07-.52.09v-.22l-.4,0c.07-.06,0-.15,0-.24l-.25,0C117.77-4.41,118.41-4.61,117.89-4.78Z" transform="translate(25.62 29.12)"/><polygon class="cls-7" points="145.32 27.3 144.85 27.53 145.12 27.38 145.32 27.3"/><path class="cls-8" d="M134.41,4.07l-.07-.2c.26,0,.1-.26.18-.39.41-.11.95-.4,1.21,0l.08.68c-.24,0-.34.31-.51.47-.05-.24-.4,0-.38,0l0-.1a1.11,1.11,0,0,1-.66-.16A.15.15,0,0,0,134.41,4.07Z" transform="translate(25.62 29.12)"/><polygon class="cls-7" points="160.3 33.49 160.28 33.43 160.56 33.33 160.58 33.39 160.3 33.49"/><path class="cls-8" d="M141.77,19a.54.54,0,0,1,.75.61.73.73,0,0,1-.7.41C141.42,20,141.14,19.13,141.77,19Z" transform="translate(25.62 29.12)"/><path class="cls-8" d="M141-6c-.1-.19,0-.15-.08-.42.2-.17.57-.39.85-.23A.62.62,0,0,1,142-6c-.19.29-.17.15-.42.37-.26-.1-.59-.05-.67-.38Z" transform="translate(25.62 29.12)"/><path class="cls-8" d="M142.37-7.58c.08.13,0,.22-.05.34s-.33,0-.29-.23Z" transform="translate(25.62 29.12)"/><path class="cls-8" d="M139.41,6.29a.69.69,0,0,1,.55-.42c.09.13.35.17.21.38a.94.94,0,0,1-.53.41c-.1-.09-.31-.15-.12-.35Z" transform="translate(25.62 29.12)"/><path class="cls-7" d="M139.8,6.31l.11,0c.1-.17-.19.39-.31,0S139.73,6.27,139.8,6.31Z" transform="translate(25.62 29.12)"/><path class="cls-8" d="M148.52,8.33l-.39,0c.27,0,.35-.26.46-.49a.24.24,0,0,0-.15-.17c.22,0,.28-.19.43-.31l-.23-.21c.75-.12,1.78-1,2.62-.12l.24,1.15-.08,0c0,.59-.43.76-.55,1.25l0,.15-.43-.15c-.1.26-.13-.08-.31,0l-.45.47c-.06-.1,0-.17.08-.25-.21-.22-.31,0-.43.15,0-.27-.33-.41-.74-.68,0,.1-.12.1-.21.13.14,0,.15-.21.22-.3l0-.06-.52.08C148.12,8.65,148.71,8.71,148.52,8.33Z" transform="translate(25.62 29.12)"/><path class="cls-8" d="M146.47-2.54c.15-.21.12-.3-.05-.43L146.3-3c-.1.07.21-.13.32,0,.13-.17-.1-.48.28-.48.16-.28-.22-.28-.31-.44.34-.15.43.23.76,0,.1-.82,1-.15,1.21-.58.06,0,.39-.16.48.1.12,0,.1-.17.15-.22.39,0,.7.64.94.52.24,0,.28.26.49.32a.33.33,0,0,0,.26.3c-.36.41.64.26.15.62,0,.23.3.22.38.26-.13.08-.36,0-.49.17.7.28-.24.6.16,1.11-.17-.11-.32.11-.3.26l.05.14c-.41-.18-.43.44-.65.52s-.86-.26-1,.43c-.21.23-.58-.67-.89-.09l-.13.28c-.26-.2.26-.44-.1-.58s-.16.28-.34.41c0-.1.32-.83-.32-.73L147-.44a2.37,2.37,0,0,0,.09-.65c-.24-.33-.45.28-.47,0s.33-.24.16-.44l-.58-.12C146.56-1.82,146.16-2.34,146.47-2.54Z" transform="translate(25.62 29.12)"/><path class="cls-8" d="M162.07,1.41s-.08-.07-.13,0c-.07-.29.27-.69,0-1,.49-.16.1-.94.68-.9.21-.14-.06-.49.34-.34.07-.08,0-.17,0-.26.64,0,1.1-.5,1.72-.25.33-.07.43.44.76.21l-.09.19c.22.28.81.24.63.78l.26.3a1.56,1.56,0,0,0-.12,1.07c-.12.2-.6.3-.39.65-.46-.05-.23.46-.38.67l-.19-.1-.12.29c-.07-.1,0-.24-.16-.26-.31.1-.41.36-.54.63,0-.06-.08-.14,0-.22-.25-.18-.24.24-.46.24l0-.14-.25.08,0-.1c-.26-.24-.42.14-.62.21,0-.13.17-.35,0-.44l-.38-.2c0,.1-.08.13-.17.15l.05-.49c-.3-.16-.31.39-.57.28C162.39,2.08,161.82,1.81,162.07,1.41Z" transform="translate(25.62 29.12)"/><path class="cls-8" d="M151.44-16.07c.08.14.28.16.28.35-.05.35-.46.26-.6.14C151.32-15.87,151-16,151.44-16.07Z" transform="translate(25.62 29.12)"/><path class="cls-8" d="M150.88-29.08c.13-.1.23,0,.34,0s-.08.45-.19.58c-.34.05,0-.12-.38-.16A.46.46,0,0,1,150.88-29.08Z" transform="translate(25.62 29.12)"/><path class="cls-8" d="M163.28-4.86c.2,0,.37-.12.56.08-.05.14,0,.4-.15.5l-.2.06c-.2-.1.32-.36-.14-.4l-.07.25C163.25-4.56,163.14-4.71,163.28-4.86Z" transform="translate(25.62 29.12)"/><path class="cls-8" d="M160.87-15.48a1.88,1.88,0,0,1,0-.6,1.64,1.64,0,0,1,1.06-.67c.6.25.94.23,1,.81.32.09-.2.46.25.47-.14.14-.57.31-.2.55,0-.23-.45.08-.55.18l0,.11c-.09,0-.21-.15-.33,0,0,.39-.37,0-.55.18.07-.09,0-.17,0-.26s-.25.05-.37.06l0,.08.11-.17-.41-.25.1-.19-.23,0Z" transform="translate(25.62 29.12)"/><path class="cls-8" d="M162.88-14c0-.15.55-.18.38-.51.13,0,.18-.13.21-.24l-.05-.14c.1.13.22,0,.31,0s0-.19,0-.31c.12.09.23,0,.35.11l.23-.2c0,.09.15.08.21.16.35-.4.68.13,1,.11s.2.64.71.55c-.35.69.53.83.16,1.65-.06,0-.14.07-.23,0-.18.12,0,.39.1.48-.15.05-.25,0-.36-.11,0,.61-.7.38-.87.67-.05-.28-.32.07-.46-.08l-.1.19V-12c-.12.1-.33,0-.38.28-.25-.27-.2-.8-.63-.56.14-.14,0-.3,0-.46C162.66-12.86,163.41-13.78,162.88-14Z" transform="translate(25.62 29.12)"/><path class="cls-8" d="M171-12.21c.07-.28-.29-.33-.39-.33a.4.4,0,0,0,0-.4c-.1-.12-.22,0-.31,0,.06-.21.61-.07.4-.42l-.19-.1.3-.25-.28-.2c.19,0,.58-.28.41-.61l-.26-.3c.05,0,.13,0,.17,0,.3-.15-.28-.58.21-.54-.26-.4-.07-.91-.21-1.15.26,0,.11-.26.17-.38s.21.06.32,0c-.12-.38.27,0,.3-.26.25,0,.57.3.76,0-.14.47.41.41.53.67.44-.21-.23-.51,0-.78.32.28.11.83.71.7l.13-.27c.15.08.32.51.5.16l.33.35.21-.14c.06.08,0,.23.15.25s.11-.13.15-.21a.65.65,0,0,0,.39.52l.2-.16.18.55c.41-.2.08.45.56.36-.32.42.32.51.49.56-.1.09-.28.12-.23.29,0,.43.35.11.52.22l-.39.19a.86.86,0,0,0,.24.56l.09,0c0,.17-.42.58,0,.65-.07,0-.08.06-.12.13,0,.27.29.23.35.4s-.7-.41-.61.2l.26.62-.41-.41c-.71.48.25,1.4-.59,1.73-.08-.33-.44-.28-.61-.19-.4.13-.07.66-.53.71-.09-.58-.85-.46-1.05-.21s0,.49-.18.61c-.13-.19.16-.69-.27-.85l-.29.32c.08-.18-.1-.42-.26-.53l-.21.23c0-.15.16-.4-.13-.41l-.31.23c-.07-.14.18-.25,0-.39s-.36-.23-.44,0,.12-.39-.29-.39l-.26.08c.07-.19.31-.35.09-.64l-.49.16c.05-.14.23-.27.11-.43h-.47C170.76-11.84,171.09-11.91,171-12.21Z" transform="translate(25.62 29.12)"/><path class="cls-8" d="M127.76-13.88c.33,0,.67-.4,1,0,.1.39.25,1.18-.4,1.08l-.09.2-.53-.21c.14-.34-.44-.32-.25-.69C127.65-13.55,127.9-13.67,127.76-13.88Z" transform="translate(25.62 29.12)"/><path class="cls-8" d="M129.79-13.65l.35-.29Z" transform="translate(25.62 29.12)"/><polygon class="cls-8" points="156.51 14.63 156.03 15.03 156 14.94 155.89 15.08 155.84 14.94 156.51 14.63"/><path class="cls-8" d="M131.41-15.39c0,.05-.09,0-.16,0,.09-.1.18-.13.24-.25l-.4,0c.27-.16.31-.4.38-.69l-.08,0a2,2,0,0,1,1.55-.86c.43.11.93.44,1.37.13.23.18-.25.29.07.37s.54.55.83.81c-.34.41-.14.63-.12,1-.07.19-.45.29-.2.55l-.28-.15c-.21.23.07.46.08.68l-.45-.16c-.06.37-.64.48-.83.68-.46-.3-.71.37-.86.69-.23-.21.22-.86-.31-1.06,0,.08,0,.2-.15.21-.45-.19.25-.67-.26-.75l-.5.8C131.51-14.19,132-14.71,131.41-15.39Z" transform="translate(25.62 29.12)"/><path class="cls-8" d="M131.11-14.67l.24-.24Z" transform="translate(25.62 29.12)"/><polygon class="cls-8" points="160.65 16.29 160.6 16.31 160.52 16.07 160.65 16.29"/></g><g class="cls-6"><polygon class="cls-7" points="133.62 90.1 133.28 90.1 133.54 90.06 133.62 90.1"/><polygon class="cls-7" points="134.22 90.06 133.93 90.19 133.88 89.92 134.22 90.06"/><path class="cls-8" d="M91.29-7.8c.12-.21.35-.14.49-.37a.72.72,0,0,1,.5.83.73.73,0,0,1-.84.34A.7.7,0,0,1,91.29-7.8Z" transform="translate(25.62 29.12)"/><path class="cls-8" d="M91.34-10.29c.27,0,.24.27.34.42a.61.61,0,0,1-.48.42C90.82-9.55,90.7-10.36,91.34-10.29Z" transform="translate(25.62 29.12)"/><path class="cls-8" d="M24,57c.13.17.06.53-.24.47l-.22-.1C23.47,57.12,23.74,56.84,24,57Z" transform="translate(25.62 29.12)"/><rect class="cls-8" x="73.89" y="27.5" width="0.24" height="0.08" transform="translate(20.75 60.41) rotate(-23.13)"/><path class="cls-8" d="M24.63,55.46c.1,0,.1.07.14.14s-.27.28-.35.11S24.47,55.48,24.63,55.46Z" transform="translate(25.62 29.12)"/><path class="cls-8" d="M77.28,27l.11.26a1,1,0,0,1-1.29,0C76.4,27.22,76.87,26.77,77.28,27Z" transform="translate(25.62 29.12)"/><path class="cls-8" d="M29,56.16c.25.23.41.57,0,.78a.7.7,0,0,1-.63-.26C28.36,56.38,28.72,56.15,29,56.16Z" transform="translate(25.62 29.12)"/><path class="cls-8" d="M6.23,40.91l-.1,0c.52-.41,1.29-1,2-.67.1.31-.27.43-.54.56-.49.3-1,0-1.49.28C6,41,6.31,41,6.23,40.91Z" transform="translate(25.62 29.12)"/><path class="cls-8" d="M124.44.44c-.07,0-.17-.1-.25,0l.24-.4c-.49-.44.42-.55.29-.9a1.8,1.8,0,0,1,1.63,0c.38.48.2.55.55,1-.41.23.43,1.05-.44,1.12-.21.47-.69.09-1,.44.24-.15-.25-.23-.43-.29l-.29,0c.17-.36-.18-.49-.49-.61C124.47.79,124.38.56,124.44.44Z" transform="translate(25.62 29.12)"/><path class="cls-8" d="M11.28,40.22c.19,0,.44-.07.6.05,0,.34-.55.45-.84.57l-.54-.1A1.84,1.84,0,0,1,11.28,40.22Z" transform="translate(25.62 29.12)"/><path class="cls-8" d="M12.66,38c.1,0,.17.06.26,0l.05.12c-.4.42-.9.27-1.37.41A1.87,1.87,0,0,1,12.66,38Z" transform="translate(25.62 29.12)"/><path class="cls-7" d="M12.5,38.21c0-.08-.17.25-.29.1Z" transform="translate(25.62 29.12)"/><path class="cls-8" d="M12.55,36.86l0,0,0,0-.23,0C12.42,36.88,12.47,36.79,12.55,36.86Z" transform="translate(25.62 29.12)"/><path class="cls-8" d="M24.37,28.67c.07,0,.1,0,.12.11l-.2,0C24.36,28.75,24.36,28.7,24.37,28.67Z" transform="translate(25.62 29.12)"/><path class="cls-8" d="M42.44,35.16a.3.3,0,0,1,.29.27c-.12.18-.18.21-.39.18C42.36,35.43,42.13,35.23,42.44,35.16Z" transform="translate(25.62 29.12)"/><path class="cls-8" d="M43.08,25.21a.35.35,0,0,1,.38-.05c-.06.17.07.38-.12.46S43,25.38,43.08,25.21Z" transform="translate(25.62 29.12)"/><path class="cls-8" d="M41.61,20.37c.28,0,.72-.05.79.32a.52.52,0,0,1-.3.77c-.26.32-.47-.13-.69-.1C41.21,21,41.46,20.71,41.61,20.37Z" transform="translate(25.62 29.12)"/><path class="cls-8" d="M43.08,24c.08,0,.16-.1.25,0a.42.42,0,0,1,0,.39C43.14,24.44,42.88,24.16,43.08,24Z" transform="translate(25.62 29.12)"/><path class="cls-8" d="M48.6,32c.13,0,.28-.06.42,0,0,.22.19.35,0,.58A.37.37,0,0,1,48.6,32Z" transform="translate(25.62 29.12)"/><polygon class="cls-8" points="52.41 71.45 52.08 71.76 52.11 71.53 52.41 71.45"/><path class="cls-8" d="M29.3,42.09c.3,0,.7-.09.71.29-.1.73-1.06.71-1.5.86l-.11,0c.07-.12-.15-.17-.08-.32-.45.36-.4-.34-.83,0A3.23,3.23,0,0,1,29.3,42.09Z" transform="translate(25.62 29.12)"/><path class="cls-8" d="M46.44,24c.19-.18.26.13.38.17a.24.24,0,0,1-.4.18C46.33,24.22,46.4,24.12,46.44,24Z" transform="translate(25.62 29.12)"/><path class="cls-8" d="M51,29.94c.17,0,.16.2.21.31s-.21.12-.31.21A.27.27,0,0,1,51,29.94Z" transform="translate(25.62 29.12)"/><path class="cls-8" d="M50,26.67a.29.29,0,0,1,.28.38c-.16,0-.29.19-.4,0S49.94,26.81,50,26.67Z" transform="translate(25.62 29.12)"/><path class="cls-8" d="M51.31,29.28c.29.1.77-.48.8.14-.3,0-.47.52-.85.29C51.28,29.6,51.21,29.43,51.31,29.28Z" transform="translate(25.62 29.12)"/><path class="cls-8" d="M33.49,39.21c.22-.1.42-.19.43-.47-.11-.08-.36,0-.35-.23,1-.21,2.11-.95,3.06-.27a.66.66,0,0,1,0,.65,1.16,1.16,0,0,0-.58.5c-.51-.2-.9.62-1.49.45.1,0,.07-.13.13-.22a5,5,0,0,1-1.32-.21Z" transform="translate(25.62 29.12)"/><path class="cls-8" d="M37.44,42.61c.44.67-.66.7-1,.86l-.79-.11A1.78,1.78,0,0,1,37.44,42.61Z" transform="translate(25.62 29.12)"/><polygon class="cls-7" points="62.59 71.95 62.52 72.31 62.14 72.09 62.5 72.26 62.59 71.95"/><path class="cls-8" d="M96.29,23.87l.25.23c-.49,1-2,1-2.92,1L93,25A4,4,0,0,1,96.29,23.87Z" transform="translate(25.62 29.12)"/><polygon class="cls-8" points="65.08 71.94 64.83 71.9 65 71.75 65.08 71.94"/><path class="cls-8" d="M41.93,42.16a2.62,2.62,0,0,1,.46.12c.11.19,0,.43-.16.55a1.83,1.83,0,0,1-1.43.25l0,.11a1.54,1.54,0,0,0,.13-.23c-.06-.21-.27,0-.4,0A1.78,1.78,0,0,1,41.93,42.16Z" transform="translate(25.62 29.12)"/><path class="cls-7" d="M41.61,42.71l-.19-.05c0,.29,0,0-.2.09C41.57,42.79,41.21,42.52,41.61,42.71Z" transform="translate(25.62 29.12)"/><path class="cls-8" d="M43.59,42.77A1.72,1.72,0,0,1,45,42.05c.23.07.58.17.38.46a2,2,0,0,1-1.19.72c-.25-.25-.6,0-.9,0C43.28,43.05,44,43,43.59,42.77Z" transform="translate(25.62 29.12)"/><polygon class="cls-7" points="69.74 71.65 69.83 71.71 69.78 71.74 69.74 71.65"/><path class="cls-8" d="M54.71,54.55c.16,0,.13.15.2.22-.09.47-.72.55-1.07.64-.24-.22-.32.25-.59.1C53.69,55.17,54,54.57,54.71,54.55Z" transform="translate(25.62 29.12)"/><path class="cls-8" d="M41.39,4.27c.45.54-.33.72-.62,1-.88.5-1.72-.16-2.55.08l-.52-.08C38.88,5.13,40,3.45,41.39,4.27Z" transform="translate(25.62 29.12)"/><path class="cls-8" d="M63.32,40.5c.1.06.23,0,.34.09a.45.45,0,0,1,0,.64l-.81.36c0-.05,0-.1,0-.17l-.42-.05C62.32,40.81,62.93,40.68,63.32,40.5Z" transform="translate(25.62 29.12)"/><polygon class="cls-7" points="82.77 72.37 82.52 72.55 82.58 72.45 82.77 72.37"/><path class="cls-8" d="M70.09,38.21l.06-.18c-.11-.08-.19,0-.29.06.11-.48.51-.63.87-1,.33,0,.72,0,1,.33s-.09.51-.17.76c-.24.29-.74,0-1,.36v-.1l-.76-.2C69.9,38.23,70,38.1,70.09,38.21Z" transform="translate(25.62 29.12)"/><polygon class="cls-8" points="74.43 38.99 74.1 39.01 74.38 38.88 74.43 38.99"/><path class="cls-8" d="M49.76,11.46c.13-.16-.07.32-.2.25l.6.14h-.71Z" transform="translate(25.62 29.12)"/><path class="cls-8" d="M50,11.45c0-.15.23-.16.31-.23.17.09.38.09.41.32s-.19.11-.26.18c0-.12.16-.17.2-.32a.54.54,0,0,0-.58,0c0,.08.07.08.13.12L50,11.7l.14-.22Z" transform="translate(25.62 29.12)"/><path class="cls-8" d="M50.38,8.78l-.08,0,.08,0-.22.27C50.32,9,50.33,8.9,50.38,8.78Z" transform="translate(25.62 29.12)"/><path class="cls-8" d="M63.71,27.9c.75-.17,1.31-1.18,2.22-.87a.55.55,0,0,1-.18.89c-.63.37-1.32,0-2,.11Z" transform="translate(25.62 29.12)"/><path class="cls-8" d="M76,38.33c.32-.11.68-.35,1,0s-.09.45-.16.66c-.23.19-.51.13-.77.21,0-.12,0-.24-.15-.19C75.94,38.61,75.8,38.67,76,38.33Z" transform="translate(25.62 29.12)"/><path class="cls-8" d="M62.15,17.14a.89.89,0,0,1,.86.07.43.43,0,0,1-.19.61c-.34.14-.71.34-1,.16C61.54,17.57,62,17.43,62.15,17.14Z" transform="translate(25.62 29.12)"/><path class="cls-8" d="M77.87,39.62c.14-.24-.24-.21-.17-.3s.21,0,.25,0l.1.05a.42.42,0,0,1-.59.25C77.57,39.63,77.73,39.77,77.87,39.62Z" transform="translate(25.62 29.12)"/><path class="cls-8" d="M56.14,1.66a.9.9,0,0,1,.91,0c.15.28.27.69-.07.78S55.81,2.18,56.14,1.66Z" transform="translate(25.62 29.12)"/><path class="cls-8" d="M60,8.13c0-.11-.13-.1-.2-.13,0-.34.31-.17.41-.12.65-.4,1.33-1.06,2.23-.64a.72.72,0,0,1,0,.88l-1.21.46,0-.08a4.63,4.63,0,0,1-1.61-.16C59.8,8.26,60,8.27,60,8.13Z" transform="translate(25.62 29.12)"/><path class="cls-8" d="M66.46,20.08c0,.15.16.18.25.27l0-.08.11-.05,0,.08c-.08,0-.08.06-.09.1.21.12.44.09.43-.18-.57.15-.25-.52-.61-.55.3-.22,1-.7,1.38-.16a.86.86,0,0,1-.16.66,2.88,2.88,0,0,0-.79.49s.12,0,.13-.11l0-.08-.45.13c0-.11-.17-.21,0-.36h-.37C66.29,20.18,66.46,20.2,66.46,20.08Z" transform="translate(25.62 29.12)"/><path class="cls-8" d="M85.19,46.93c.34.07.17.45.08.59-.3.44-.93,0-1.15.49C84.37,47.59,84.65,47,85.19,46.93Z" transform="translate(25.62 29.12)"/><path class="cls-7" d="M66.93,20c.11-.05-.06.18-.08.13l0-.08Z" transform="translate(25.62 29.12)"/><path class="cls-7" d="M67.05,19.67c.07.1.23.15.34.23l0,.17c.07,0,.09.09.12.17l-.34-.17c0-.19.15-.28-.09-.4l0,.23C67,19.81,67,19.75,67.05,19.67Z" transform="translate(25.62 29.12)"/><path class="cls-8" d="M120.15,25.33l-.37-.18c-.06-.14,1.31,0,.69-.66.89.05,1.92-.57,2.66.09.08-.06.25,0,.27-.16L123,24.3c.51-.29,1-.9,1.66-.77.13.08.34.23.26.43-.43,1.24-2.34.17-2.31,1.93a2.57,2.57,0,0,1-1.87.78l-.54.44c.44-.27-.1-.52-.07-.76l-.4.15.19-.36-.56-.18C119.58,25.89,120.07,25.72,120.15,25.33Z" transform="translate(25.62 29.12)"/><path class="cls-8" d="M82.19,38.08c.34,0,.7-.35,1,.1s-.3.44-.4.76c-.18.13-.36-.12-.54.08l0-.08C82.21,38.79,81.73,38.22,82.19,38.08Z" transform="translate(25.62 29.12)"/><path class="cls-8" d="M65.29,9.09a1.13,1.13,0,0,1,1-.44c.08.12.31.17.2.34-.12.52-.74.44-1.13.48C65.58,9.34,65.27,9.22,65.29,9.09Z" transform="translate(25.62 29.12)"/><polygon class="cls-7" points="91.44 38.2 91.11 38.34 91.09 38.29 91.44 38.2"/><path class="cls-8" d="M87.2,40c-.27.08,0-.26-.17-.29.19-.15.52-.47.83-.23s-.11.36-.18.6l-.54.07Z" transform="translate(25.62 29.12)"/><polygon class="cls-7" points="112.9 68.99 113.17 68.88 113.09 69.13 113.11 69.06 112.79 69.04 112.85 68.86 112.9 68.99"/><path class="cls-8" d="M92.44,36.66c.12-.28.39-.73.81-.67a1.17,1.17,0,0,1,.82.22c.16.7-.63.8-.92,1.18l0-.08c-.18-.26-.46-.07-.67-.11A.72.72,0,0,0,92.44,36.66Z" transform="translate(25.62 29.12)"/><path class="cls-8" d="M97.41,46.74c0-.1-.17-.1-.23-.14l-.13,0c.54-.25.9-1,1.6-.83.25.2,0,.74-.24.9a2.64,2.64,0,0,1-1.27.3Z" transform="translate(25.62 29.12)"/><path class="cls-8" d="M70.81,4.93a1.28,1.28,0,0,1,1.09-.74.77.77,0,0,1,.8.41.78.78,0,0,1-.2.89c-.26.2-.56.08-.71.39,0-.71-.81.16-.65-.47l-.28,0C71,5.29,71,5,70.81,4.93Z" transform="translate(25.62 29.12)"/><path class="cls-8" d="M75.36,14.11l0-.08,0,.05.16-.06v.14l-.34-.06S75.33,14.16,75.36,14.11Z" transform="translate(25.62 29.12)"/><path class="cls-8" d="M95.47,39.21,95.36,39c.46.08,1.15-.77,1.67-.16.36.48-.17.8-.42,1.13-.26-.15-.34.14-.53.22s0-.09,0-.16c-.38.12-.21-.18-.59-.16l0-.07-.34,0C95.57,39.53,95,39.29,95.47,39.21Z" transform="translate(25.62 29.12)"/><path class="cls-8" d="M76.68,13.5c.12.23-.18.38-.22.46l-.64.18.08-.26c0,.39.37.13.44.13s.08-.25,0-.36c-.33-.3-.52.12-.68.19l0-.08-.41.09C75.65,13.55,76.16,13.07,76.68,13.5Z" transform="translate(25.62 29.12)"/><path class="cls-8" d="M87.79,15.66c0-.05.12,0,.16,0l.08.2-.24,0C87.79,15.76,87.84,15.71,87.79,15.66Z" transform="translate(25.62 29.12)"/><path class="cls-8" d="M99.31,30.43c0,.07.06.07.12.12l-.14.22c.1,0-.05-.27-.28-.28C99.11,30.58,99.21,30.44,99.31,30.43Z" transform="translate(25.62 29.12)"/><path class="cls-8" d="M94.65,11.29l.06,0,.08.19A.11.11,0,1,1,94.65,11.29Z" transform="translate(25.62 29.12)"/><path class="cls-8" d="M95.11,11.27c.1-.24,0,0,0,.08l.17.1.21-.32-.09-.06.09.06c.09-.1,0-.21-.06-.3-.22-.05-.35.2-.46.41l-.08,0c.19-.34.57-.4,1-.5a.44.44,0,0,1,.28.27,1.11,1.11,0,0,1-1.17.48Z" transform="translate(25.62 29.12)"/><polygon class="cls-7" points="121.23 40.49 121.15 40.45 121.24 40.25 121.23 40.49"/><path class="cls-8" d="M113,25.8c.41,0,.53.35.49.67-.21.11-.26.39-.48.51,0-.06-.16-.49-.42-.23.31,0,0,.37-.2.47l.14-.21c-.22-.15-.36.07-.61,0l.14-.21-.34-.1C112.1,26.38,112.37,25.91,113,25.8Z" transform="translate(25.62 29.12)"/><path class="cls-8" d="M102.45,14.86c.49-.26.8-.71,1.36-.31.18.29-.11.64-.3.81l-.69.27,0-.08-.37-.18,0-.08-.26-.06C102.47,15.15,102.62,14.89,102.45,14.86Z" transform="translate(25.62 29.12)"/><path class="cls-7" d="M103.18,14.7c-.13-.08-.27.08-.37.08a.53.53,0,0,1,.2-.24c.28,0,.22.37.3.5-.1.24-.52.18-.59.34C103.11,15.09,102.62,14.89,103.18,14.7Z" transform="translate(25.62 29.12)"/><path class="cls-8" d="M103.27,14.93c0,.05-.09.1,0,.15l0,.08-.14.06,0-.09.09,0L103,15Z" transform="translate(25.62 29.12)"/><path class="cls-8" d="M110.74,28.76c.14,0,.12.22.19.33-.09.33-.43.39-.74.52.12-.18.3-.09.35-.37l-.26-.23c0,.15-.17.3-.3.22C110.14,29,110.39,28.71,110.74,28.76Z" transform="translate(25.62 29.12)"/><path class="cls-8" d="M104.32,11.59l.19.16-.26.33c0-.05.09-.1,0-.15l-.12,0-.14.39c-.12-.12-.23,0-.32,0l.2-.08,0-.11.11,0,0-.33-.69.27C103.65,11.89,103.91,11.56,104.32,11.59Z" transform="translate(25.62 29.12)"/><path class="cls-8" d="M147.74,22.11c0-.51-.46,0-.67-.15.09-.2.49,0,.49-.34a.55.55,0,0,0-.68.08l-.06,0c.22-.36,1.06-.34,1-1-.14.05-.37-.13-.27-.29.47-.21.49-.7.91-.95l-.25-.07a6.17,6.17,0,0,1,1.25-.52c-.49-.38.69-.32.45-.72.35.24.75.29.84,0a2.09,2.09,0,0,1,1.63,1c.32.28.06.43.16.89l-.12-.06c0,.16-.12.37.1.45a.75.75,0,0,0-.39.6c.1.29,0,.67-.31.66-.06.09,0,.17,0,.22a.4.4,0,0,0-.29.27c-.49.41-1.13.67-1.51,1.39l.15-.19L150,23.3l-.31.66c0-.28.25-.64,0-.84s-.39.17-.58.27l.15-.21c-.28-.16-.48.36-.84.24.19-.52-.18-.66-.56-.74l-.68.24A.79.79,0,0,0,147.74,22.11Z" transform="translate(25.62 29.12)"/><path class="cls-8" d="M108.47,12.49c-.07.06,0,.14,0,.23.2.16.37,0,.57,0v-.24c-.22-.14-.21.22-.4,0,0-.37.49-.2.75-.3.32.34-.15.56-.39.62-.27.24-.52,0-.78,0C108.25,12.77,108.27,12.47,108.47,12.49Z" transform="translate(25.62 29.12)"/><path class="cls-8" d="M113.49,11.76c.4,0,.86.28.83.53.12.15,0,.3,0,.4.36-.08.88.07.78.58-.88.93-2.17.49-2.83.39l.12-.28-.34,0A2.17,2.17,0,0,1,113.49,11.76Z" transform="translate(25.62 29.12)"/><path class="cls-8" d="M164.62-3.47l-.14.05c.18-.12.23-.37.35-.57-.12-.06-.2-.12-.34,0l0,.08c0-.13.5-.17.23-.46l-.11,0c.67-.13.59-.75,1.2-.86.27-.71,1.07-.27,1.47-.44,0,.24.34.25.51.38l.4,1.18a2.19,2.19,0,0,0-.34.8,1.77,1.77,0,0,1,1.13.55c.48.58-.22.88-.24,1.4-.34-.07-.63.22-.84.45l-.11.17c.09-.61-.69-.15-1.05-.16l-.2.07c.07-.15.31-.21.25-.41l-.5.17c.08-.06.2-.1.24-.25l-.21-.15c.12,0,.11-.13.15-.21s-.13-.11-.21-.15l.18-.23c-.23-.11-.45-.07-.45-.39l-.74.12.15-.21a.33.33,0,0,0-.39,0l0,.08.07-.25-.51.11C164.47-3,165.11-3.28,164.62-3.47Z" transform="translate(25.62 29.12)"/><path class="cls-8" d="M131.55,23.15l-.19-.09c.31-.38.38-1.22,1.17-1.45.44-.2.78-.06,1.31,0,.5.63.32,1.12,0,1.77-.39,0-.86.61-1.28.71l-.06.11.13-.27-1,.07C131.7,23.71,131.53,23.42,131.55,23.15Z" transform="translate(25.62 29.12)"/><polygon class="cls-7" points="142.38 46.69 142.36 46.63 142.56 46.55 142.58 46.61 142.38 46.69"/><path class="cls-8" d="M120,14.22a.25.25,0,0,1,0,.17c0-.15-.26-.32-.33-.1C119.64,14.17,119.87,14,120,14.22Z" transform="translate(25.62 29.12)"/><path class="cls-8" d="M122.51,13.56l-.09-.06c-.08,0,.29-.27.07-.42.57-.74,1.36.56,1.77-.51.55.25,1.1-.2,1.48.38.21.47-.14.91-.49,1.2l-.57.38c0-.12-.18-.13-.25-.06l-.29.11c0-.48-.45,0-.69-.2l.08,0c-.22-.41-.59,0-.89-.28h-.26C122.27,13.88,122.48,13.74,122.51,13.56Z" transform="translate(25.62 29.12)"/><path class="cls-8" d="M141.06,8c-.23,0,.31-.21-.05-.31.32-.11.14-.44.34-.58l-.08,0c.57,0,.12-.85,1-.7.2-.53.73.12,1-.13a1.21,1.21,0,0,1,.76,1.28c-.12.56-.15.21-.37.85l-.16.28c-.31-.4-.19.63-.6.22-.22.11-.3.34-.58.37a.21.21,0,0,0,0-.23c-.19-.09-.36.07-.51.09l0-.22-.4,0c.08-.06,0-.14,0-.23l-.24,0C140.94,8.4,141.58,8.2,141.06,8Z" transform="translate(25.62 29.12)"/><polygon class="cls-7" points="168.49 40.12 168.02 40.35 168.28 40.19 168.49 40.12"/><path class="cls-8" d="M157.58,16.88l-.08-.2c.26,0,.1-.26.19-.39.41-.11.94-.39,1.2,0l.08.68c-.23,0-.33.32-.5.47-.06-.24-.4.05-.39,0l0-.11a1,1,0,0,1-.66-.16C157.61,17.16,157.68,17,157.58,16.88Z" transform="translate(25.62 29.12)"/><polygon class="cls-7" points="183.46 46.3 183.44 46.24 183.72 46.14 183.75 46.2 183.46 46.3"/><path class="cls-8" d="M164.94,31.85a.55.55,0,0,1,.75.61.72.72,0,0,1-.71.41C164.58,32.82,164.3,31.94,164.94,31.85Z" transform="translate(25.62 29.12)"/><path class="cls-8" d="M164.15,6.81c-.1-.2,0-.16-.08-.43.19-.17.57-.39.85-.23a.66.66,0,0,1,.24.69c-.19.29-.18.16-.42.37-.27-.1-.6,0-.68-.37Z" transform="translate(25.62 29.12)"/><path class="cls-8" d="M165.53,5.23c.08.13,0,.22,0,.34s-.33,0-.3-.22Z" transform="translate(25.62 29.12)"/><path class="cls-8" d="M162.58,19.1a.69.69,0,0,1,.55-.42c.08.13.35.17.2.38a.91.91,0,0,1-.53.41c-.09-.09-.3-.15-.12-.34Z" transform="translate(25.62 29.12)"/><path class="cls-7" d="M163,19.12l.1,0c.11-.16-.18.39-.3,0S162.89,19.09,163,19.12Z" transform="translate(25.62 29.12)"/><path class="cls-8" d="M171.68,21.14l-.39,0c.27,0,.36-.26.47-.49a.24.24,0,0,0-.16-.17c.22,0,.29-.19.44-.3l-.24-.22c.76-.12,1.78-1,2.63-.12l.23,1.15-.08,0c0,.59-.43.77-.55,1.25l.05.15-.43-.15c-.1.26-.12-.08-.31,0l-.44.47c-.07-.1,0-.17.07-.24-.2-.22-.3,0-.42.14,0-.27-.33-.4-.75-.68,0,.11-.11.1-.2.13.14-.05.15-.21.21-.29l0-.06-.51.07C171.29,21.46,171.87,21.52,171.68,21.14Z" transform="translate(25.62 29.12)"/><path class="cls-8" d="M169.64,10.28c.15-.22.12-.3-.06-.44l-.11-.06c-.11.07.21-.13.31,0,.13-.17-.1-.48.29-.48.16-.28-.23-.28-.31-.44.33-.15.43.24.75,0,.11-.81,1-.14,1.21-.58.06,0,.39-.16.48.1.13,0,.11-.17.16-.22.39,0,.69.64.94.52.24,0,.28.26.49.32a.33.33,0,0,0,.26.3c-.37.42.63.27.15.63,0,.23.3.22.37.26-.13.07-.36,0-.48.16.7.28-.25.6.15,1.11-.17-.11-.31.11-.29.26l0,.14c-.41-.18-.42.44-.65.52s-.85-.26-1,.44c-.2.23-.58-.68-.89-.09l-.13.27c-.26-.2.27-.44-.1-.57s-.16.27-.34.4c0-.1.33-.82-.31-.73l-.44.31a2.05,2.05,0,0,0,.1-.65c-.24-.33-.45.28-.48,0s.33-.24.17-.44l-.59-.12C169.72,11,169.33,10.48,169.64,10.28Z" transform="translate(25.62 29.12)"/><path class="cls-8" d="M185.23,14.22s-.08-.07-.13,0c-.07-.3.28-.7,0-1,.48-.16.1-.93.68-.9.21-.13-.07-.49.34-.34.06-.08,0-.17,0-.26.64,0,1.11-.49,1.73-.24.32-.08.42.44.76.2l-.1.19c.22.28.81.24.64.78l.26.31a1.58,1.58,0,0,0-.13,1.06c-.12.21-.59.3-.39.65-.45,0-.22.46-.38.68l-.18-.11-.13.3c-.06-.1,0-.25-.15-.27-.31.1-.42.37-.55.63,0-.06-.08-.13,0-.22-.25-.18-.23.24-.46.24l0-.14-.26.08,0-.1c-.27-.23-.43.14-.63.21,0-.13.17-.35,0-.44l-.38-.19c0,.09-.08.12-.17.15l.06-.5c-.31-.16-.31.39-.57.28C185.55,14.89,185,14.62,185.23,14.22Z" transform="translate(25.62 29.12)"/><path class="cls-8" d="M174.61-3.26c.07.14.27.17.28.36s-.47.25-.6.14C174.48-3.06,174.19-3.15,174.61-3.26Z" transform="translate(25.62 29.12)"/><path class="cls-8" d="M174.05-16.26c.12-.11.22,0,.34.05s-.08.44-.2.57c-.34.05,0-.11-.38-.16A.44.44,0,0,1,174.05-16.26Z" transform="translate(25.62 29.12)"/><path class="cls-8" d="M186.44,8c.2,0,.37-.13.56.07,0,.14,0,.4-.15.5l-.2.07c-.19-.11.33-.37-.13-.41l-.08.25C186.41,8.26,186.3,8.1,186.44,8Z" transform="translate(25.62 29.12)"/><path class="cls-8" d="M184-2.67a1.59,1.59,0,0,1,0-.6,1.67,1.67,0,0,1,1.06-.67c.6.25.95.24,1,.81.31.09-.21.46.25.47-.15.15-.57.32-.21.55,0-.22-.45.09-.55.18l0,.12c-.09,0-.21-.16-.33,0,0,.39-.36,0-.54.18.07-.09,0-.17,0-.25s-.24,0-.37,0l0,.08.11-.16-.4-.26.09-.19-.23,0Z" transform="translate(25.62 29.12)"/><path class="cls-8" d="M186-1.24c.05-.15.55-.18.38-.51.13,0,.18-.12.21-.23l0-.15c.11.13.22,0,.32,0s0-.19,0-.31c.13.08.23,0,.36.1l.22-.2c0,.09.15.08.21.16.35-.4.68.13,1,.12s.21.64.72.54c-.36.69.52.83.15,1.65-.06,0-.13.08-.22,0-.19.12,0,.39.09.48-.14,0-.24,0-.35-.11,0,.61-.71.38-.87.67-.06-.28-.33.07-.47-.08l-.1.2V.78c-.12.11-.32,0-.38.29-.24-.28-.2-.81-.63-.57.14-.14,0-.3,0-.46C185.82,0,186.58-1,186-1.24Z" transform="translate(25.62 29.12)"/><path class="cls-8" d="M194.19.6c.06-.28-.3-.32-.39-.32a.43.43,0,0,0,0-.4c-.11-.13-.22,0-.31,0,0-.21.6-.07.4-.42l-.19-.09.3-.26-.29-.2c.2,0,.58-.28.41-.61L193.9-2s.12,0,.17,0c.29-.16-.29-.59.2-.55-.25-.4-.06-.91-.2-1.15.26,0,.1-.26.16-.38s.21.07.32,0c-.12-.38.27,0,.3-.26.26,0,.58.3.76,0-.14.46.41.41.53.66.44-.21-.22-.51,0-.78.31.28.1.83.7.7L197-4c.15.08.32.51.49.17l.34.34.21-.14c.06.09,0,.23.14.25s.11-.13.15-.21a.67.67,0,0,0,.39.52l.21-.16.17.55c.41-.2.08.46.56.37-.31.42.32.5.49.55-.1.09-.28.12-.22.29,0,.43.35.12.51.22l-.39.19a.85.85,0,0,0,.25.57l.08,0c.06.17-.42.58,0,.66-.07,0-.08,0-.12.13,0,.27.3.23.35.4s-.7-.42-.6.19l.26.62-.42-.4c-.7.48.25,1.39-.59,1.72-.07-.33-.44-.27-.6-.19-.4.13-.07.67-.53.72-.09-.59-.85-.47-1-.21s0,.48-.19.6c-.12-.18.16-.69-.27-.84l-.28.31c.07-.18-.1-.42-.26-.53l-.22.23c0-.15.16-.4-.13-.4l-.3.22c-.08-.13.17-.25,0-.39s-.36-.23-.44,0,.13-.39-.28-.39l-.26.08c.07-.18.3-.35.08-.63l-.49.15c0-.14.23-.26.12-.42h-.48C193.93,1,194.25.9,194.19.6Z" transform="translate(25.62 29.12)"/><path class="cls-8" d="M150.92-1.06c.34-.06.67-.41,1,0,.1.38.25,1.17-.4,1.07l-.09.2-.53-.2c.14-.34-.44-.33-.24-.7C150.81-.73,151.06-.85,150.92-1.06Z" transform="translate(25.62 29.12)"/><path class="cls-8" d="M153-.84l.35-.28Z" transform="translate(25.62 29.12)"/><polygon class="cls-8" points="179.67 27.44 179.19 27.84 179.17 27.76 179.05 27.89 179 27.75 179.67 27.44"/><path class="cls-8" d="M154.58-2.58c-.05.05-.1,0-.17,0,.1-.1.19-.13.24-.25l-.4,0a.88.88,0,0,0,.38-.68l-.07,0a2,2,0,0,1,1.54-.87c.43.11.94.45,1.38.13.22.19-.26.29.06.37s.55.55.83.81c-.34.41-.13.63-.12,1-.06.18-.45.28-.19.55l-.28-.16c-.21.24.06.46.07.69l-.44-.17c-.07.38-.64.48-.83.68-.46-.29-.72.38-.86.69-.24-.21.21-.85-.31-1.06,0,.08,0,.2-.15.22-.46-.2.25-.67-.27-.75l-.49.79C154.68-1.38,155.14-1.9,154.58-2.58Z" transform="translate(25.62 29.12)"/><path class="cls-8" d="M154.28-1.86l.24-.24Z" transform="translate(25.62 29.12)"/><polygon class="cls-8" points="183.81 29.1 183.76 29.12 183.68 28.89 183.81 29.1"/></g><g class="cls-6"><polygon class="cls-7" points="127.32 111.34 126.98 111.33 127.24 111.3 127.32 111.34"/><polygon class="cls-7" points="127.92 111.3 127.63 111.42 127.59 111.15 127.92 111.3"/><path class="cls-8" d="M85,13.43c.12-.21.35-.14.49-.36a.71.71,0,0,1,.5.82.71.71,0,0,1-.84.34A.71.71,0,0,1,85,13.43Z" transform="translate(25.62 29.12)"/><path class="cls-8" d="M85,11c.27,0,.24.26.34.42a.63.63,0,0,1-.48.42C84.52,11.68,84.4,10.87,85,11Z" transform="translate(25.62 29.12)"/><path class="cls-8" d="M17.68,78.23c.13.18.06.53-.24.47l-.22-.1C17.17,78.36,17.44,78.08,17.68,78.23Z" transform="translate(25.62 29.12)"/><rect class="cls-8" x="67.59" y="48.74" width="0.24" height="0.08" transform="translate(11.9 59.65) rotate(-23.13)"/><path class="cls-8" d="M18.33,76.69c.1,0,.11.07.14.15s-.27.27-.35.11S18.17,76.71,18.33,76.69Z" transform="translate(25.62 29.12)"/><path class="cls-8" d="M71,48.23l.11.27a1,1,0,0,1-1.29,0C70.11,48.45,70.57,48,71,48.23Z" transform="translate(25.62 29.12)"/><path class="cls-8" d="M22.72,77.39c.25.23.41.57,0,.78a.68.68,0,0,1-.63-.26C22.06,77.62,22.42,77.38,22.72,77.39Z" transform="translate(25.62 29.12)"/><path class="cls-8" d="M-.07,62.14l-.1,0c.52-.42,1.29-1,2-.67.1.3-.28.43-.55.56-.49.29-1,0-1.49.28C-.26,62.26,0,62.27-.07,62.14Z" transform="translate(25.62 29.12)"/><path class="cls-8" d="M118.14,21.67c-.07,0-.17-.1-.25,0l.24-.41c-.49-.44.42-.55.29-.89a1.74,1.74,0,0,1,1.63,0c.38.48.2.54.55,1-.41.22.43,1.05-.44,1.11-.21.47-.69.09-1,.44.24-.15-.25-.23-.43-.29l-.29,0c.17-.35-.18-.49-.49-.6C118.17,22,118.08,21.79,118.14,21.67Z" transform="translate(25.62 29.12)"/><path class="cls-8" d="M5,61.45c.2,0,.45-.07.6,0,0,.35-.55.45-.84.57L4.2,62A1.77,1.77,0,0,1,5,61.45Z" transform="translate(25.62 29.12)"/><path class="cls-8" d="M6.36,59.18c.1,0,.18.06.26,0l0,.12c-.4.43-.9.27-1.37.42A1.88,1.88,0,0,1,6.36,59.18Z" transform="translate(25.62 29.12)"/><path class="cls-7" d="M6.2,59.45c0-.08-.17.24-.29.09Z" transform="translate(25.62 29.12)"/><path class="cls-8" d="M6.25,58.09l0,.06,0-.06-.22,0C6.12,58.11,6.17,58,6.25,58.09Z" transform="translate(25.62 29.12)"/><path class="cls-8" d="M18.07,49.9c.07,0,.1.06.13.11L18,50C18.06,50,18.06,49.94,18.07,49.9Z" transform="translate(25.62 29.12)"/><path class="cls-8" d="M36.14,56.39a.31.31,0,0,1,.29.27c-.12.19-.17.21-.39.18C36.06,56.66,35.83,56.46,36.14,56.39Z" transform="translate(25.62 29.12)"/><path class="cls-8" d="M36.78,46.44a.36.36,0,0,1,.39,0c-.07.16.06.37-.13.46S36.68,46.61,36.78,46.44Z" transform="translate(25.62 29.12)"/><path class="cls-8" d="M35.31,41.61c.28,0,.73-.06.79.31a.52.52,0,0,1-.3.77c-.26.32-.46-.12-.69-.09C34.91,42.22,35.16,42,35.31,41.61Z" transform="translate(25.62 29.12)"/><path class="cls-8" d="M36.78,45.24c.08,0,.16-.11.25-.05a.42.42,0,0,1,0,.39C36.84,45.67,36.58,45.39,36.78,45.24Z" transform="translate(25.62 29.12)"/><path class="cls-8" d="M42.3,53.27c.13,0,.28-.06.42,0,0,.23.19.35,0,.58C42.27,54.12,42,53.59,42.3,53.27Z" transform="translate(25.62 29.12)"/><polygon class="cls-8" points="46.12 92.69 45.78 92.99 45.81 92.77 46.12 92.69"/><path class="cls-8" d="M23,63.33c.31,0,.7-.1.71.29-.1.72-1.06.7-1.5.85l-.11,0c.08-.12-.15-.16-.08-.32-.45.36-.4-.34-.83,0A3.18,3.18,0,0,1,23,63.33Z" transform="translate(25.62 29.12)"/><path class="cls-8" d="M40.14,45.23c.19-.18.26.12.38.17a.23.23,0,0,1-.39.17C40,45.45,40.1,45.35,40.14,45.23Z" transform="translate(25.62 29.12)"/><path class="cls-8" d="M44.66,51.17c.17,0,.16.2.21.31s-.21.13-.31.21A.27.27,0,0,1,44.66,51.17Z" transform="translate(25.62 29.12)"/><path class="cls-8" d="M43.68,47.9a.29.29,0,0,1,.27.38c-.16,0-.29.2-.4,0S43.64,48.05,43.68,47.9Z" transform="translate(25.62 29.12)"/><path class="cls-8" d="M45,50.51c.29.11.77-.47.81.14-.31,0-.48.52-.86.29C45,50.83,44.91,50.66,45,50.51Z" transform="translate(25.62 29.12)"/><path class="cls-8" d="M27.19,60.45c.22-.11.42-.2.43-.47-.11-.08-.36,0-.35-.24,1-.2,2.11-.94,3.06-.27a.63.63,0,0,1,0,.65,1.18,1.18,0,0,0-.58.51c-.51-.21-.9.62-1.49.44.1,0,.07-.13.13-.22a5.41,5.41,0,0,1-1.32-.2Z" transform="translate(25.62 29.12)"/><path class="cls-8" d="M31.14,63.84c.44.67-.66.71-1,.86l-.79-.11A1.78,1.78,0,0,1,31.14,63.84Z" transform="translate(25.62 29.12)"/><polygon class="cls-7" points="56.29 93.18 56.22 93.55 55.84 93.32 56.2 93.5 56.29 93.18"/><path class="cls-8" d="M90,45.11l.25.22c-.49,1-1.95,1-2.92,1l-.67-.12A4,4,0,0,1,90,45.11Z" transform="translate(25.62 29.12)"/><polygon class="cls-8" points="58.78 93.18 58.53 93.13 58.7 92.98 58.78 93.18"/><path class="cls-8" d="M35.63,63.39a2,2,0,0,1,.46.13c.11.18,0,.42-.16.54a1.87,1.87,0,0,1-1.43.26l0,.1a1,1,0,0,0,.13-.23c-.06-.2-.27,0-.4,0A1.84,1.84,0,0,1,35.63,63.39Z" transform="translate(25.62 29.12)"/><path class="cls-7" d="M35.31,64l-.19-.06c0,.29,0,0-.2.1C35.27,64,34.91,63.76,35.31,64Z" transform="translate(25.62 29.12)"/><path class="cls-8" d="M37.29,64a1.67,1.67,0,0,1,1.42-.72c.23.06.58.16.38.46a2.16,2.16,0,0,1-1.19.72c-.25-.26-.6,0-.9,0C37,64.28,37.68,64.26,37.29,64Z" transform="translate(25.62 29.12)"/><polygon class="cls-7" points="63.44 92.89 63.53 92.94 63.48 92.97 63.44 92.89"/><path class="cls-8" d="M48.41,75.79c.16,0,.13.14.2.21-.09.47-.71.56-1.07.65-.24-.23-.32.24-.59.1C47.4,76.41,47.72,75.8,48.41,75.79Z" transform="translate(25.62 29.12)"/><path class="cls-8" d="M35.09,25.5c.45.54-.33.72-.62,1-.88.49-1.72-.16-2.55.07l-.51-.07C32.58,26.36,33.72,24.68,35.09,25.5Z" transform="translate(25.62 29.12)"/><path class="cls-8" d="M57,61.74c.1.06.23,0,.34.08a.46.46,0,0,1,0,.65l-.81.35c-.05,0,0-.1,0-.17l-.41,0C56,62,56.63,61.91,57,61.74Z" transform="translate(25.62 29.12)"/><polygon class="cls-7" points="76.47 93.6 76.22 93.78 76.28 93.69 76.47 93.6"/><path class="cls-8" d="M63.8,59.44l.05-.18c-.11-.08-.19.05-.29.07.11-.49.51-.63.87-1,.33,0,.72,0,.95.33s-.09.51-.17.76c-.24.29-.74,0-1,.36l0-.1-.77-.19C63.6,59.47,63.7,59.33,63.8,59.44Z" transform="translate(25.62 29.12)"/><polygon class="cls-8" points="68.13 60.23 67.8 60.24 68.08 60.12 68.13 60.23"/><path class="cls-8" d="M43.46,32.69c.13-.16-.07.32-.2.26l.6.13h-.71Z" transform="translate(25.62 29.12)"/><path class="cls-8" d="M43.69,32.69c0-.16.23-.17.31-.24.18.1.38.1.41.32s-.19.12-.26.18c.05-.12.16-.17.2-.32a.5.5,0,0,0-.57,0c0,.07.06.07.12.11l-.24.18.14-.23Z" transform="translate(25.62 29.12)"/><path class="cls-8" d="M44.08,30,44,30l.08,0-.22.27C44,30.27,44,30.13,44.08,30Z" transform="translate(25.62 29.12)"/><path class="cls-8" d="M57.41,49.14c.75-.17,1.31-1.19,2.22-.88a.55.55,0,0,1-.18.89c-.63.37-1.32,0-2,.12Z" transform="translate(25.62 29.12)"/><path class="cls-8" d="M69.72,59.56c.32-.11.68-.35,1,0s-.09.44-.16.66c-.22.19-.51.12-.77.2,0-.11,0-.24-.15-.18C69.64,59.85,69.51,59.9,69.72,59.56Z" transform="translate(25.62 29.12)"/><path class="cls-8" d="M55.85,38.38a.92.92,0,0,1,.86.06.43.43,0,0,1-.19.61c-.34.15-.7.34-1,.17C55.25,38.8,55.69,38.67,55.85,38.38Z" transform="translate(25.62 29.12)"/><path class="cls-8" d="M71.58,60.85c.13-.24-.25-.21-.18-.3s.22,0,.25.05l.1,0a.43.43,0,0,1-.59.26C71.27,60.86,71.43,61,71.58,60.85Z" transform="translate(25.62 29.12)"/><path class="cls-8" d="M49.85,22.9a.88.88,0,0,1,.9,0c.15.28.27.7-.07.78S49.51,23.41,49.85,22.9Z" transform="translate(25.62 29.12)"/><path class="cls-8" d="M53.74,29.36c0-.11-.13-.1-.2-.13,0-.34.31-.16.41-.11.65-.41,1.33-1.07,2.23-.64a.72.72,0,0,1,0,.88L55,29.81l0-.08a4.9,4.9,0,0,1-1.61-.15C53.5,29.5,53.7,29.51,53.74,29.36Z" transform="translate(25.62 29.12)"/><path class="cls-8" d="M60.16,41.31c0,.15.16.18.25.27l0-.08.11,0,0,.08c-.07,0-.08.06-.09.1.22.13.44.1.43-.18-.57.15-.25-.51-.61-.55.3-.22,1-.69,1.38-.15a.83.83,0,0,1-.16.65,2.69,2.69,0,0,0-.79.5s.12,0,.13-.12l0-.08-.45.13c0-.11-.17-.21,0-.36h-.37C60,41.41,60.16,41.44,60.16,41.31Z" transform="translate(25.62 29.12)"/><path class="cls-8" d="M78.89,68.16c.34.08.17.46.08.6-.3.43-.93,0-1.15.49C78.07,68.82,78.35,68.21,78.89,68.16Z" transform="translate(25.62 29.12)"/><path class="cls-7" d="M60.63,41.24c.11-.05-.06.17-.08.12l0-.08Z" transform="translate(25.62 29.12)"/><path class="cls-7" d="M60.75,40.9a1.2,1.2,0,0,0,.34.23l0,.17c.07,0,.09.09.12.17l-.34-.17c0-.19.15-.28-.09-.4l0,.23C60.65,41,60.73,41,60.75,40.9Z" transform="translate(25.62 29.12)"/><path class="cls-8" d="M113.85,46.57l-.37-.19c-.06-.14,1.31,0,.69-.65.9.05,1.92-.58,2.67.09.07-.06.24,0,.26-.17l-.38-.12c.51-.29,1-.9,1.66-.76.13.08.34.23.26.42-.43,1.24-2.34.18-2.31,1.93a2.57,2.57,0,0,1-1.87.78l-.54.44c.44-.27-.1-.51-.07-.76l-.4.16.19-.37-.56-.17C113.28,47.12,113.77,47,113.85,46.57Z" transform="translate(25.62 29.12)"/><path class="cls-8" d="M75.89,59.32c.34,0,.7-.36,1,.09s-.3.44-.4.76c-.18.14-.36-.12-.53.08l0-.07C75.91,60,75.43,59.45,75.89,59.32Z" transform="translate(25.62 29.12)"/><path class="cls-8" d="M59,30.32a1.14,1.14,0,0,1,1-.44c.08.12.31.18.2.35-.12.52-.74.44-1.12.48C59.29,30.57,59,30.45,59,30.32Z" transform="translate(25.62 29.12)"/><polygon class="cls-7" points="85.14 59.44 84.81 59.58 84.79 59.53 85.14 59.44"/><path class="cls-8" d="M80.9,61.22c-.27.09,0-.26-.17-.29.19-.15.52-.47.83-.22s-.11.35-.18.6l-.54.07Z" transform="translate(25.62 29.12)"/><polygon class="cls-7" points="106.6 90.23 106.87 90.12 106.79 90.36 106.81 90.29 106.49 90.27 106.55 90.09 106.6 90.23"/><path class="cls-8" d="M86.15,57.89c.11-.28.39-.72.8-.67a1.13,1.13,0,0,1,.82.23c.16.7-.63.79-.92,1.18l0-.08c-.17-.26-.46-.08-.67-.12A.78.78,0,0,0,86.15,57.89Z" transform="translate(25.62 29.12)"/><path class="cls-8" d="M91.11,68c0-.1-.17-.09-.22-.14l-.14.06c.54-.26.9-1,1.6-.83.25.19.05.74-.24.89a2.64,2.64,0,0,1-1.27.3Z" transform="translate(25.62 29.12)"/><path class="cls-8" d="M64.51,26.17a1.26,1.26,0,0,1,1.09-.74.75.75,0,0,1,.8.4.8.8,0,0,1-.2.9c-.26.19-.56.07-.71.39,0-.72-.81.16-.65-.47l-.28,0A.27.27,0,0,0,64.51,26.17Z" transform="translate(25.62 29.12)"/><path class="cls-8" d="M69.06,35.34l0-.07,0,0,.15-.06v.15L69,35.33S69,35.39,69.06,35.34Z" transform="translate(25.62 29.12)"/><path class="cls-8" d="M89.17,60.44l-.11-.26c.46.08,1.15-.77,1.67-.16.36.48-.17.8-.42,1.14-.26-.16-.33.13-.53.21,0,0,0-.09,0-.16-.37.12-.2-.18-.59-.15l0-.08-.34,0C89.27,60.76,88.71,60.53,89.17,60.44Z" transform="translate(25.62 29.12)"/><path class="cls-8" d="M70.38,34.73c.12.23-.18.39-.22.47l-.64.17.08-.25c0,.39.37.12.45.12s.07-.25,0-.36c-.34-.3-.53.13-.69.19l0-.07-.41.08C69.35,34.78,69.86,34.3,70.38,34.73Z" transform="translate(25.62 29.12)"/><path class="cls-8" d="M81.49,36.9s.12,0,.16,0l.08.2-.24,0C81.49,37,81.54,36.94,81.49,36.9Z" transform="translate(25.62 29.12)"/><path class="cls-8" d="M93,51.67c0,.06.07.07.12.11L93,52c.1,0,0-.27-.28-.28C92.81,51.81,92.92,51.67,93,51.67Z" transform="translate(25.62 29.12)"/><path class="cls-8" d="M88.35,32.52l.06,0,.08.2A.11.11,0,0,1,88.35,32.52Z" transform="translate(25.62 29.12)"/><path class="cls-8" d="M88.81,32.51c.1-.25,0,0,0,.07l.18.1.2-.31-.09-.07.09.07c.09-.11-.05-.22-.06-.31-.22-.05-.35.21-.46.42l-.08,0c.19-.34.57-.39,1-.5a.45.45,0,0,1,.29.28,1.1,1.1,0,0,1-1.18.47Z" transform="translate(25.62 29.12)"/><polygon class="cls-7" points="114.94 61.72 114.86 61.69 114.94 61.49 114.94 61.72"/><path class="cls-8" d="M106.68,47c.42,0,.53.35.49.67-.21.11-.26.39-.48.51,0-.05-.16-.49-.41-.23.3,0,0,.37-.21.48l.14-.22c-.22-.15-.36.07-.61,0l.14-.22-.34-.1C105.8,47.61,106.07,47.14,106.68,47Z" transform="translate(25.62 29.12)"/><path class="cls-8" d="M96.15,36.09c.49-.26.81-.71,1.36-.31.18.3-.11.64-.3.81l-.69.27,0-.07-.37-.19,0-.07L96,36.46C96.17,36.38,96.33,36.12,96.15,36.09Z" transform="translate(25.62 29.12)"/><path class="cls-7" d="M96.88,35.94c-.13-.08-.27.07-.37.07a.53.53,0,0,1,.2-.24c.28,0,.22.38.3.51-.1.23-.52.17-.59.33C96.81,36.33,96.33,36.12,96.88,35.94Z" transform="translate(25.62 29.12)"/><path class="cls-8" d="M97,36.16c0,.06-.09.11,0,.15l0,.08-.14.06,0-.08.09,0-.22-.14Z" transform="translate(25.62 29.12)"/><path class="cls-8" d="M104.44,50c.14,0,.12.22.19.32-.09.33-.42.4-.74.52.13-.18.3-.09.35-.37l-.26-.22c0,.14-.17.29-.3.21C103.85,50.23,104.09,49.94,104.44,50Z" transform="translate(25.62 29.12)"/><path class="cls-8" d="M98,32.83l.19.15-.26.33c0-.05.09-.1,0-.14l-.12-.06-.14.39c-.12-.12-.23,0-.32,0l.2-.08,0-.11.11,0,0-.34-.69.27C97.35,33.13,97.61,32.79,98,32.83Z" transform="translate(25.62 29.12)"/><path class="cls-8" d="M141.44,43.34c0-.51-.46,0-.67-.15.09-.19.49,0,.49-.34a.54.54,0,0,0-.67.08l-.07,0c.22-.37,1.07-.35,1-1-.14.05-.37-.12-.27-.29.47-.2.49-.7.91-1l-.25-.07a6.42,6.42,0,0,1,1.25-.52c-.48-.37.69-.31.45-.71.35.23.75.28.85,0a2.08,2.08,0,0,1,1.62,1c.32.28.06.44.16.89l-.12-.06c0,.16-.12.37.1.45a.78.78,0,0,0-.39.6c.1.29-.05.67-.31.67-.06.09,0,.16,0,.21a.44.44,0,0,0-.29.27c-.49.41-1.13.67-1.51,1.4l.15-.19-.19-.19-.31.66c0-.28.25-.64,0-.84s-.39.18-.57.28l.14-.22c-.28-.16-.48.37-.84.24.19-.52-.18-.65-.56-.74l-.68.25A.8.8,0,0,0,141.44,43.34Z" transform="translate(25.62 29.12)"/><path class="cls-8" d="M102.17,33.72c-.07.06,0,.15,0,.23.2.16.37,0,.57,0v-.23c-.22-.14-.21.21-.39,0,0-.37.48-.19.74-.29.32.33-.14.55-.39.61-.26.24-.52,0-.78,0C102,34,102,33.7,102.17,33.72Z" transform="translate(25.62 29.12)"/><path class="cls-8" d="M107.19,33c.4,0,.87.29.83.53.12.15,0,.3,0,.4.36-.08.88.08.78.58-.88.93-2.17.49-2.83.39l.12-.28-.34,0A2.19,2.19,0,0,1,107.19,33Z" transform="translate(25.62 29.12)"/><path class="cls-8" d="M158.32,17.77l-.14.05c.18-.13.23-.37.35-.58-.12,0-.2-.12-.34,0l0,.07c0-.13.5-.16.23-.46l-.11,0c.67-.13.59-.75,1.2-.86.27-.7,1.07-.26,1.47-.43.05.24.34.24.51.37l.41,1.19a1.93,1.93,0,0,0-.35.79,1.83,1.83,0,0,1,1.13.56c.48.57-.22.87-.24,1.39-.34-.07-.63.22-.84.45l-.11.17c.09-.61-.69-.15-1-.16l-.2.07c.07-.15.32-.2.25-.4l-.5.16c.08,0,.2-.09.24-.24l-.21-.15c.13,0,.11-.14.15-.22s-.13-.11-.21-.15l.18-.22c-.23-.12-.44-.08-.45-.4l-.74.12.16-.21a.33.33,0,0,0-.4,0l0,.07.07-.25-.51.11C158.17,18.27,158.81,18,158.32,17.77Z" transform="translate(25.62 29.12)"/><path class="cls-8" d="M125.26,44.38l-.2-.09c.31-.38.38-1.22,1.17-1.45.44-.2.78-.06,1.31,0,.5.63.32,1.12,0,1.77-.39,0-.86.62-1.28.71l-.06.12.13-.28-1,.07C125.4,45,125.23,44.65,125.26,44.38Z" transform="translate(25.62 29.12)"/><polygon class="cls-7" points="136.08 67.92 136.06 67.86 136.26 67.79 136.28 67.84 136.08 67.92"/><path class="cls-8" d="M113.65,35.45a.24.24,0,0,1,0,.17c0-.14-.26-.32-.33-.1C113.34,35.41,113.57,35.25,113.65,35.45Z" transform="translate(25.62 29.12)"/><path class="cls-8" d="M116.21,34.79l-.09-.06c-.08,0,.29-.27.07-.42.57-.74,1.36.56,1.77-.51.55.25,1.1-.19,1.48.38.21.48-.14.91-.49,1.2l-.57.39c0-.13-.18-.13-.25-.07l-.29.11c0-.48-.45,0-.69-.19l.08,0c-.22-.41-.58,0-.89-.28h-.26C116,35.12,116.18,35,116.21,34.79Z" transform="translate(25.62 29.12)"/><path class="cls-8" d="M134.76,29.26c-.23,0,.31-.21,0-.31.32-.11.14-.43.34-.57l-.08,0c.57,0,.12-.85,1.05-.7.2-.53.73.12,1-.13a1.22,1.22,0,0,1,.76,1.28c-.12.57-.15.22-.37.85l-.16.29c-.31-.41-.19.62-.6.21-.22.12-.3.34-.58.38a.24.24,0,0,0,0-.24c-.2-.09-.37.07-.52.1l0-.23-.4,0c.08-.05.05-.14,0-.23l-.24,0C134.64,29.63,135.28,29.44,134.76,29.26Z" transform="translate(25.62 29.12)"/><polygon class="cls-7" points="162.19 61.35 161.72 61.58 161.99 61.42 162.19 61.35"/><path class="cls-8" d="M151.28,38.12l-.08-.21c.26,0,.11-.26.19-.38.41-.11,1-.4,1.2,0l.08.68c-.23,0-.33.32-.5.48,0-.25-.4,0-.39,0l0-.1a1.19,1.19,0,0,1-.66-.16A.16.16,0,0,0,151.28,38.12Z" transform="translate(25.62 29.12)"/><polygon class="cls-7" points="177.16 67.53 177.14 67.48 177.43 67.38 177.45 67.44 177.16 67.53"/><path class="cls-8" d="M158.64,53.08a.55.55,0,0,1,.75.61.72.72,0,0,1-.71.41C158.28,54.05,158,53.17,158.64,53.08Z" transform="translate(25.62 29.12)"/><path class="cls-8" d="M157.85,28c-.1-.19,0-.16-.08-.43.19-.16.57-.39.85-.23a.67.67,0,0,1,.24.7c-.19.29-.17.15-.42.37-.27-.11-.6-.05-.68-.38Z" transform="translate(25.62 29.12)"/><path class="cls-8" d="M159.23,26.46c.08.14,0,.23,0,.34s-.33,0-.3-.22Z" transform="translate(25.62 29.12)"/><path class="cls-8" d="M156.28,40.33a.66.66,0,0,1,.55-.41c.08.13.35.16.2.37a.94.94,0,0,1-.52.42c-.1-.1-.31-.15-.13-.35Z" transform="translate(25.62 29.12)"/><path class="cls-7" d="M156.67,40.36l.1,0c.11-.16-.18.4-.3,0S156.59,40.32,156.67,40.36Z" transform="translate(25.62 29.12)"/><path class="cls-8" d="M165.38,42.37l-.39,0c.28,0,.36-.25.47-.48a.21.21,0,0,0-.16-.17c.22,0,.29-.2.44-.31l-.24-.22c.76-.12,1.78-1,2.63-.11l.23,1.14-.07,0c0,.6-.44.77-.56,1.26l.05.14-.43-.14c-.1.26-.12-.09-.31,0l-.44.47c-.07-.11,0-.17.07-.25-.2-.22-.3,0-.42.14,0-.26-.33-.4-.75-.68,0,.11-.11.11-.2.14.14-.05.15-.22.21-.3l0-.06L165,43C165,42.7,165.58,42.75,165.38,42.37Z" transform="translate(25.62 29.12)"/><path class="cls-8" d="M163.34,31.51c.15-.21.12-.3-.05-.44l-.12-.05c-.11.07.21-.14.31,0,.14-.17-.09-.49.29-.49.16-.28-.22-.27-.31-.44.33-.14.43.24.75,0,.11-.81,1-.14,1.22-.58,0,0,.38-.16.47.1.13,0,.11-.16.16-.21.39,0,.69.63.94.52.24,0,.28.26.49.31a.32.32,0,0,0,.26.3c-.37.42.63.27.15.63,0,.23.3.22.37.26-.13.07-.36,0-.48.16.7.29-.25.61.15,1.11-.17-.1-.31.11-.29.26l0,.15c-.42-.18-.43.43-.66.51s-.85-.26-1,.44c-.21.23-.59-.68-.9-.09l-.13.28c-.26-.21.27-.44-.1-.58s-.16.27-.34.4c0-.1.33-.82-.31-.73l-.44.31a2,2,0,0,0,.1-.64c-.24-.34-.45.28-.48,0s.33-.25.17-.45l-.59-.12C163.42,32.23,163,31.71,163.34,31.51Z" transform="translate(25.62 29.12)"/><path class="cls-8" d="M178.94,35.46c-.05,0-.09-.07-.14,0-.07-.29.28-.7,0-1,.48-.16.1-.93.68-.9.21-.13-.07-.49.34-.33a.27.27,0,0,0,0-.26c.64,0,1.11-.5,1.73-.25.32-.08.42.44.76.2l-.1.19c.22.28.81.25.64.79l.26.3A1.62,1.62,0,0,0,183,35.2c-.12.2-.59.3-.39.64-.45,0-.22.47-.38.68l-.18-.1-.13.29c-.06-.1,0-.25-.15-.27-.31.11-.42.37-.55.64,0-.06-.07-.14,0-.22-.25-.18-.23.23-.46.24l0-.15-.26.09,0-.11c-.26-.23-.43.15-.63.21,0-.12.17-.35,0-.43l-.39-.2c0,.1-.08.12-.16.15l.05-.5c-.31-.16-.31.39-.57.29C179.25,36.12,178.69,35.86,178.94,35.46Z" transform="translate(25.62 29.12)"/><path class="cls-8" d="M168.31,18c.07.13.28.16.28.35-.05.34-.47.26-.6.14C168.18,18.18,167.89,18.08,168.31,18Z" transform="translate(25.62 29.12)"/><path class="cls-8" d="M167.75,5c.13-.1.22,0,.34,0s-.08.44-.2.58c-.34.05,0-.12-.38-.17A.45.45,0,0,1,167.75,5Z" transform="translate(25.62 29.12)"/><path class="cls-8" d="M180.14,29.19c.2,0,.37-.12.56.07,0,.14,0,.41-.15.5l-.2.07c-.19-.1.33-.36-.13-.41l-.08.25C180.11,29.49,180,29.33,180.14,29.19Z" transform="translate(25.62 29.12)"/><path class="cls-8" d="M177.74,18.56a1.57,1.57,0,0,1,0-.6,1.74,1.74,0,0,1,1.07-.67c.59.26.94.24,1,.82.31.08-.21.45.25.46-.15.15-.57.32-.21.55,0-.22-.45.09-.55.19l0,.11c-.09,0-.21-.16-.32,0,0,.4-.37,0-.55.18.07-.09,0-.16,0-.25s-.24.05-.37.06l0,.08.11-.17-.4-.26.09-.19-.23,0Z" transform="translate(25.62 29.12)"/><path class="cls-8" d="M179.74,20c0-.14.55-.18.38-.51.13,0,.18-.12.21-.23l-.05-.14c.11.12.22,0,.32,0s0-.19,0-.31c.13.08.23,0,.36.11l.22-.2c0,.08.15.07.21.15.35-.4.68.14,1,.12s.21.64.72.54c-.36.69.52.83.15,1.66-.06,0-.13.07-.22,0-.19.13,0,.4.09.49-.14,0-.24-.06-.35-.11,0,.6-.71.38-.87.66-.06-.27-.32.07-.47-.07l-.1.19V22c-.13.11-.33,0-.39.29-.24-.27-.2-.8-.63-.56.15-.15,0-.3,0-.46C179.53,21.19,180.28,20.27,179.74,20Z" transform="translate(25.62 29.12)"/><path class="cls-8" d="M187.89,21.83c.07-.28-.3-.32-.39-.32a.43.43,0,0,0,0-.4c-.11-.13-.22,0-.31,0,.05-.21.61-.06.4-.41l-.19-.1.3-.25-.29-.2c.2,0,.58-.29.41-.62l-.25-.3c0-.05.12,0,.17,0,.3-.16-.29-.58.21-.55-.26-.39-.07-.91-.21-1.15.26,0,.1-.26.16-.38s.22.07.32,0c-.12-.38.27,0,.3-.25.26,0,.58.29.76,0-.14.46.42.41.53.66.45-.2-.22-.5,0-.78.31.28.1.83.7.71l.14-.27c.15.08.32.5.49.16l.34.34.21-.13c.06.08,0,.22.14.25s.12-.14.16-.21a.62.62,0,0,0,.38.51l.21-.16.17.56c.42-.2.08.45.56.36-.31.42.32.51.49.55-.1.1-.28.12-.22.29,0,.43.35.12.51.23l-.38.18c0,.21.12.41.24.57l.09,0c0,.17-.43.58,0,.66-.07,0-.08.06-.12.13,0,.27.3.23.35.4s-.7-.41-.6.19l.26.63-.41-.41c-.71.48.24,1.39-.6,1.73-.07-.33-.44-.28-.6-.2-.4.13-.07.67-.53.72-.09-.58-.85-.47-1.05-.21s0,.48-.19.6c-.12-.18.16-.69-.27-.84l-.28.32c.07-.19-.1-.42-.26-.53l-.22.23c0-.16.16-.41-.12-.41l-.31.23c-.08-.14.17-.25,0-.39s-.36-.24-.44,0,.13-.39-.28-.39l-.26.09c.07-.19.3-.36.08-.64l-.49.16c.05-.15.23-.27.12-.43h-.48C187.63,22.2,188,22.13,187.89,21.83Z" transform="translate(25.62 29.12)"/><path class="cls-8" d="M144.62,20.17c.34-.06.67-.4,1,0,.1.39.25,1.17-.4,1.07l-.09.2-.53-.2c.14-.34-.44-.33-.24-.69C144.51,20.5,144.76,20.38,144.62,20.17Z" transform="translate(25.62 29.12)"/><path class="cls-8" d="M146.65,20.39l.35-.28Z" transform="translate(25.62 29.12)"/><polygon class="cls-8" points="173.37 48.68 172.9 49.07 172.87 48.99 172.75 49.12 172.7 48.98 173.37 48.68"/><path class="cls-8" d="M148.28,18.66c-.05.05-.09,0-.16,0,.09-.1.18-.13.23-.25l-.4,0a.87.87,0,0,0,.38-.68l-.07,0a2,2,0,0,1,1.54-.86c.43.11.94.44,1.38.13.22.18-.26.28.06.36s.55.56.83.81c-.34.42-.13.63-.12,1-.06.19-.44.29-.19.55l-.28-.16c-.21.24.06.47.07.69l-.44-.17c-.07.38-.64.49-.83.68-.46-.29-.71.38-.86.69-.24-.21.21-.85-.31-1.05,0,.07,0,.2-.15.21-.46-.2.25-.67-.27-.75l-.49.79C148.38,19.85,148.84,19.33,148.28,18.66Z" transform="translate(25.62 29.12)"/><path class="cls-8" d="M148,19.38l.24-.25Z" transform="translate(25.62 29.12)"/><polygon class="cls-8" points="177.52 50.34 177.46 50.35 177.38 50.12 177.52 50.34"/></g></g></g></g></svg>