<svg xmlns="http://www.w3.org/2000/svg" viewBox="0 0 249.39 216.82"><defs><style>.cls-1{fill:#666;stroke:#4d4d4d;}.cls-1,.cls-2,.cls-3,.cls-5{stroke-miterlimit:10;}.cls-1,.cls-2,.cls-3{stroke-width:2px;}.cls-2{fill:#dcc992;}.cls-2,.cls-3,.cls-5{stroke:gray;}.cls-3,.cls-6{fill:#b3b3b3;}.cls-4{fill:gray;}.cls-5{fill:#8c6239;}.cls-7{opacity:0.63;}.cls-8{fill:#f2f2f2;}</style></defs><title>Монтажная область 61</title><g id="Слои"><path class="cls-1" d="M5.52,200.45c-3.17,3-4.53,4.16-4.52,6.86s3,6.9,4.46,7.51,4.07,2.3,9.85-.89"/><path class="cls-2" d="M162.31,131.07h0l17-9.6a68.33,68.33,0,0,0,23.12-21c8.33-12.26,14.29-29.84-.35-47.46-29.12-35-62.58-8.6-74.67,5.69L112.28,76.38,5.52,200.45c1.6,6.37,7.89,12.88,9.79,13.48Z"/><path class="cls-3" d="M199.48,50.08c14.8,14.27,34.55,14.11,45.93,12.46a3.45,3.45,0,0,0,1.22-6.43l-4.5-2.54a5.16,5.16,0,0,1-2.36-2.91l-2.36-7.52a5.11,5.11,0,0,0-3.18-3.29l-11.5-4.06a5.07,5.07,0,0,1-3.31-3.8l-2.25-11.12A5.13,5.13,0,0,0,213.61,17l-13.22-3.92a5.14,5.14,0,0,1-3.52-3.71l-1.35-5.69A3.45,3.45,0,0,0,189,3C184.5,13.22,180.6,31.89,199.48,50.08Z"/><path class="cls-4" d="M194.73,11.23l-.11,9.05c0,3-.1,6,0,9a20.14,20.14,0,0,0,.18,2.22,3.69,3.69,0,0,0,.1.52c0,.06.07.17,0,.13a.17.17,0,0,0-.16-.05.14.14,0,0,0-.11,0s0,0,0,0a5.75,5.75,0,0,0,.31-1c.33-1.45.57-2.95.9-4.42s.65-3,1.07-4.41a13.47,13.47,0,0,1,1.82-4.14,14.23,14.23,0,0,0-1.53,4.22c-.35,1.46-.63,2.94-.89,4.42s-.51,3-.82,4.46a6.47,6.47,0,0,1-.35,1.15.61.61,0,0,1-.14.2.38.38,0,0,1-.23.1.37.37,0,0,1-.29-.1.93.93,0,0,1-.2-.38,3.25,3.25,0,0,1-.12-.59,19.92,19.92,0,0,1-.22-2.29c-.1-3,0-6,.09-9.07S194.45,14.23,194.73,11.23Z"/><path class="cls-4" d="M225.67,47.75A39.39,39.39,0,0,1,214,50.63a31.36,31.36,0,0,1-6.05,0,30.3,30.3,0,0,1-6-1.14l.21-.56c4.11,1.72,8.25,3.38,12.44,4.91,2.09.77,4.19,1.51,6.32,2.16,1.06.33,2.13.63,3.22.88a8.77,8.77,0,0,0,3.3.29,8.89,8.89,0,0,1-3.33-.13c-1.1-.2-2.2-.45-3.28-.74-2.15-.59-4.28-1.28-6.4-2s-4.2-1.51-6.29-2.31S204,50.38,202,49.49l.21-.56A29.52,29.52,0,0,0,208,50.09a35,35,0,0,0,6,.08,44,44,0,0,0,5.93-.81A38.71,38.71,0,0,0,225.67,47.75Z"/><path class="cls-4" d="M208.76,32c-.46,1.24-.9,2.47-1.32,3.71s-.81,2.49-1.17,3.75-.74,2.51-1.11,3.77-.72,2.52-1.11,3.79a39.35,39.35,0,0,1,.65-3.91c.28-1.28.63-2.56,1-3.83s.81-2.51,1.32-3.73A26,26,0,0,1,208.76,32Z"/><path class="cls-4" d="M162.31,41.5a17.05,17.05,0,0,1,4.51-.43,43.05,43.05,0,0,1,4.54.28,79.58,79.58,0,0,1,8.95,1.5c3,.68,5.89,1.46,8.77,2.41a90,90,0,0,1,8.47,3.31l-.19.51c-1.48-.43-3-.78-4.51-1.09a44.68,44.68,0,0,0-4.59-.72,31.25,31.25,0,0,0-4.64-.15,14.15,14.15,0,0,0-4.54.9,14.4,14.4,0,0,1,4.53-1.11,26.13,26.13,0,0,1,4.68,0,48.19,48.19,0,0,1,9.22,1.65l-.19.51c-2.75-1.22-5.57-2.28-8.43-3.23s-5.77-1.76-8.7-2.46-5.89-1.29-8.88-1.68c-1.49-.18-3-.36-4.5-.43A17,17,0,0,0,162.31,41.5Z"/><path class="cls-4" d="M199.65,52.78a19,19,0,0,1,1,6,56,56,0,0,1-.15,6.08,50.9,50.9,0,0,1-.88,6,21.31,21.31,0,0,1-2,5.73,29.36,29.36,0,0,0,1.53-5.82,60,60,0,0,0,.73-6c.2-2,.28-4,.3-6,0-1,0-2-.08-3A14.38,14.38,0,0,0,199.65,52.78Z"/><polygon class="cls-5" points="193.1 42.82 192.28 43.56 204.26 55.92 205.48 54.95 193.1 42.82"/><path class="cls-6" d="M6.63,203.52a30.75,30.75,0,0,1,3.25-4.81,39.8,39.8,0,0,1,3.92-4.29c-1.06,1.64-2.24,3.16-3.44,4.68S7.91,202.07,6.63,203.52Z"/><path class="cls-6" d="M11.78,211.06a55.15,55.15,0,0,1,5.67-2.79A57,57,0,0,1,23.37,206a56.42,56.42,0,0,1-5.68,2.8A57.37,57.37,0,0,1,11.78,211.06Z"/><g class="cls-7"><path class="cls-8" d="M195.73,16l-.14,5.93c0,2-.09,4,0,5.93a8.31,8.31,0,0,0,.12,1.44l0,0s0,0-.09,0-.09,0-.08,0a.78.78,0,0,1,.05-.12,3.59,3.59,0,0,0,.08-.35l.13-.72.47-2.94c.16-1,.33-2,.55-2.92a9.22,9.22,0,0,1,1-2.79A8.94,8.94,0,0,0,197,22.3c-.18,1-.33,1.95-.47,2.93l-.41,2.94-.13.74c0,.12,0,.25-.09.37a.8.8,0,0,1-.1.22.17.17,0,0,1-.15.08.18.18,0,0,1-.16-.09s0-.09-.06-.12a9,9,0,0,1-.14-1.52c0-2,0-4,.1-5.94S195.57,18,195.73,16Z"/></g><g class="cls-7"><path class="cls-8" d="M226.05,46.78a31,31,0,0,1-5.7,2,37.67,37.67,0,0,1-6,1,31.37,31.37,0,0,1-6.05-.1,25.69,25.69,0,0,1-5.88-1.39c1,.16,1.95.48,2.95.57l1.48.22,1.49.12a36.07,36.07,0,0,0,6,0,45.4,45.4,0,0,0,5.91-.82A49.15,49.15,0,0,0,226.05,46.78Z"/></g><g class="cls-7"><path class="cls-8" d="M207.74,31.75c-.65,1.74-1.24,3.48-1.75,5.25s-1,3.54-1.56,5.31a32.89,32.89,0,0,1,1.14-5.44A22.84,22.84,0,0,1,207.74,31.75Z"/></g><g class="cls-7"><path class="cls-8" d="M169.48,43.34a11.9,11.9,0,0,1,2.6-.2c.87,0,1.74,0,2.61.12,1.73.14,3.46.36,5.18.64a39.91,39.91,0,0,1,10,2.78l.84.37-.9-.15c-2.07-.36-4.16-.65-6.25-.81-1.05-.08-2.09-.14-3.14-.13a9,9,0,0,0-3.1.45,9.27,9.27,0,0,1,3.09-.55,27.73,27.73,0,0,1,3.16.07c2.11.14,4.2.4,6.28.74l-.07.22a32.68,32.68,0,0,0-4.92-1.65c-1.67-.45-3.37-.83-5.08-1.12s-3.43-.54-5.16-.7c-.86-.08-1.72-.15-2.59-.18A11.31,11.31,0,0,0,169.48,43.34Z"/></g><g class="cls-7"><path class="cls-8" d="M198.35,56.28a15.46,15.46,0,0,1,.8,4.92,43.76,43.76,0,0,1-.12,5,39.38,39.38,0,0,1-.73,5,17.8,17.8,0,0,1-1.64,4.71,24.06,24.06,0,0,0,1.26-4.78q.42-2.44.6-4.92c.16-1.64.23-3.3.24-5,0-.82,0-1.65-.06-2.47A12.69,12.69,0,0,0,198.35,56.28Z"/></g><g class="cls-7"><path class="cls-8" d="M77.79,121.48c2.53-3.28,5.14-6.49,7.76-9.68s5.32-6.34,8-9.52,5.4-6.27,8.14-9.36l4.14-4.63c1.41-1.52,2.79-3.06,4.21-4.56-1.25,1.65-2.56,3.25-3.84,4.88l-3.92,4.81c-2.63,3.2-5.31,6.34-8,9.51s-5.4,6.27-8.15,9.36S80.63,118.47,77.79,121.48Z"/></g></g></svg>