<svg xmlns="http://www.w3.org/2000/svg" viewBox="0 0 110.35 81.34"><defs><style>.cls-1{fill:#6f4b3d;}.cls-1,.cls-2,.cls-3{stroke:#9f796f;stroke-miterlimit:10;stroke-width:2px;}.cls-2{fill:#654538;}.cls-3{fill:#87574b;}.cls-4{opacity:0.5;}.cls-5{fill:#fff;}</style></defs><title>Монтажная область 16</title><g id="Слои"><path class="cls-1" d="M109.34,21.86v-19c0-.09-58.33,51.9-58.33,51.9s0,25.43,0,25.43a.1.1,0,0,0,.17.07l58.2-52S109.34,21.88,109.34,21.86Z"/><path class="cls-2" d="M50.88,56.9c0,8.11.09,19.48.09,23.17a.27.27,0,0,1-.35.26c-3.76-1-38.38-4-48.09-29.6A25.15,25.15,0,0,1,1,42.58L1,18.81c.67,7.14,6.12,28.9,48,35.9l1.88-.07Z"/><path class="cls-3" d="M108.1,1,2.7,16.25A2,2,0,0,0,1,18.37C1.49,25,6.36,47.5,49.43,54.59a3.26,3.26,0,0,0,2.7-.79L109,2.88A1.08,1.08,0,0,0,108.1,1Z"/><g class="cls-4"><path class="cls-5" d="M48.06,71.53c-.18-2.35-.28-4.71-.35-7.06s-.12-4.71-.14-7.07l.43.49c-3.37-.43-6.71-1-10-1.67-1.66-.37-3.32-.75-5-1.19a23.87,23.87,0,0,1-4.77-1.8,29.86,29.86,0,0,0,4.89,1.29c1.66.34,3.32.62,5,.89,3.33.54,6.68,1,10,1.5h0a.5.5,0,0,1,.42.49c0,2.36-.05,4.71-.14,7.07S48.25,69.18,48.06,71.53Z"/></g><g class="cls-4"><path class="cls-5" d="M72.09,31.87q-2.43,2.52-5,5c-1.68,1.63-3.36,3.26-5.06,4.85-3.42,3.2-6.87,6.35-10.39,9.43l0,0a3.07,3.07,0,0,1-1.32.65,6,6,0,0,1-1.32.19,13.22,13.22,0,0,1-2.6-.18A20.94,20.94,0,0,1,44,51.12c-.82-.25-1.61-.56-2.39-.88.82.22,1.63.44,2.46.62s1.65.3,2.48.39a12.11,12.11,0,0,0,2.48,0,5.64,5.64,0,0,0,1.17-.23,2.69,2.69,0,0,0,.93-.48v0h0C54.53,47.3,58,44.13,61.44,41q2.61-2.34,5.27-4.62C68.47,34.84,70.27,33.34,72.09,31.87Z"/></g><path class="cls-1" d="M109.34,21.86v-19c0-.09-58.33,51.9-58.33,51.9s0,25.43,0,25.43a.1.1,0,0,0,.17.07l58.2-52S109.34,21.88,109.34,21.86Z"/><path class="cls-2" d="M50.88,56.9c0,8.11.09,19.48.09,23.17a.27.27,0,0,1-.35.26c-3.76-1-38.38-4-48.09-29.6A25.15,25.15,0,0,1,1,42.58L1,18.81c.67,7.14,6.12,28.9,48,35.9l1.88-.07Z"/><path class="cls-3" d="M108.1,1,2.7,16.25A2,2,0,0,0,1,18.37C1.49,25,6.36,47.5,49.43,54.59a3.26,3.26,0,0,0,2.7-.79L109,2.88A1.08,1.08,0,0,0,108.1,1Z"/><g class="cls-4"><path class="cls-5" d="M48.06,71.53c-.18-2.35-.28-4.71-.35-7.06s-.12-4.71-.14-7.07l.43.49c-3.37-.43-6.71-1-10-1.67-1.66-.37-3.32-.75-5-1.19a23.87,23.87,0,0,1-4.77-1.8,29.86,29.86,0,0,0,4.89,1.29c1.66.34,3.32.62,5,.89,3.33.54,6.68,1,10,1.5h0a.5.5,0,0,1,.42.49c0,2.36-.05,4.71-.14,7.07S48.25,69.18,48.06,71.53Z"/></g><g class="cls-4"><path class="cls-5" d="M72.09,31.87q-2.43,2.52-5,5c-1.68,1.63-3.36,3.26-5.06,4.85-3.42,3.2-6.87,6.35-10.39,9.43l0,0a3.07,3.07,0,0,1-1.32.65,6,6,0,0,1-1.32.19,13.22,13.22,0,0,1-2.6-.18A20.94,20.94,0,0,1,44,51.12c-.82-.25-1.61-.56-2.39-.88.82.22,1.63.44,2.46.62s1.65.3,2.48.39a12.11,12.11,0,0,0,2.48,0,5.64,5.64,0,0,0,1.17-.23,2.69,2.69,0,0,0,.93-.48v0h0C54.53,47.3,58,44.13,61.44,41q2.61-2.34,5.27-4.62C68.47,34.84,70.27,33.34,72.09,31.87Z"/></g></g></svg>