<svg xmlns="http://www.w3.org/2000/svg" viewBox="0 0 176.4 162.87"><defs><style>.cls-1{fill:#8abfb5;stroke-linecap:round;stroke-linejoin:round;}.cls-1,.cls-2{stroke:#000;stroke-width:7px;}.cls-2{fill:none;stroke-miterlimit:10;}.cls-3{opacity:0.6;}.cls-4{fill:#f2f2f2;}</style></defs><title>NewМонтажная область 66</title><g id="Слои"><path class="cls-1" d="M82.45,3.5s86.72,68.16,90.09,99.88S154.66,153,136.77,140.5c0,0-15.18,36.1-47.58,8.43,0,0-46.22,19.91-53.65-8.77,0,0-28,9.11-31.38-11.13s6.41-45.56,23.62-60.41S89.87,25.77,82.45,3.5Z"/><path class="cls-2" d="M35.54,140.16S35.21,96.61,51.4,79.07,94.59,34.21,82.45,3.5"/><path class="cls-2" d="M89.19,148.93c-4.38-34.41,1.75-59.37,4-65.12,2.06-5.14,20-51,7.32-65.34"/><path class="cls-2" d="M136.77,140.5s.34-39.14-5.4-63.44-9.46-39.76-16.62-46.13"/><g class="cls-3"><path class="cls-4" d="M73.25,36.46a39.19,39.19,0,0,1-4.43,16.25,67,67,0,0,1-9.5,13.89A106.21,106.21,0,0,1,47.43,78.07c-2.09,1.76-4.2,3.44-6.29,5.13s-4.22,3.28-5.6,5.7a9.3,9.3,0,0,1,1-4.21,31,31,0,0,1,2.06-3.76,79,79,0,0,1,4.94-6.71C47,70,50.56,66,54.05,62S61,54,64.15,49.82A146,146,0,0,0,73.25,36.46Z"/></g><g class="cls-3"><path class="cls-4" d="M91.24,21.12c.94.88,1.81,1.74,2.71,2.64a28.37,28.37,0,0,1,2.54,2.89,21.57,21.57,0,0,1,3.56,7.22l.27,1,.2,1a19.8,19.8,0,0,1,.32,2c.06.66.15,1.33.18,2l0,2a18.36,18.36,0,0,1-.06,2l-.13,2c-.18,1.27-.32,2.57-.55,3.82s-.51,2.53-.81,3.73-.61,2.41-1,3.6A73.35,73.35,0,0,1,96.08,64a56,56,0,0,1-3.28,6.81A35.22,35.22,0,0,1,90.73,74a17.36,17.36,0,0,1-2.53,2.89c.58-2.47,1-4.88,1.37-7.28l1.22-7.17,1.29-7.12,1.35-7c.24-1.14.38-2.28.59-3.42s.32-2.28.43-3.4a40.28,40.28,0,0,0,.2-6.66,27.41,27.41,0,0,0-1.19-6.62C92.81,26,91.77,23.64,91.24,21.12Z"/></g><g class="cls-3"><path class="cls-4" d="M123.41,82a21.53,21.53,0,0,1,4.48,8.53,36.28,36.28,0,0,1,1.31,9.28,38.69,38.69,0,0,1-1,9.22,27.18,27.18,0,0,1-3.55,8.84,44.6,44.6,0,0,1-1.94-9.15,82.61,82.61,0,0,1-.53-8.82c0-2.91.05-5.81.23-8.74A91.15,91.15,0,0,1,123.41,82Z"/></g><g class="cls-3"><path class="cls-4" d="M43.91,135.42c2.25,1.28,4,2.33,5.65,3.21s3.22,1.63,4.82,2.36,3.24,1.41,5,2.14,3.77,1.49,6.08,2.69a11.82,11.82,0,0,1-6.74,2.78,14.45,14.45,0,0,1-7.27-1.24,13.91,13.91,0,0,1-5.76-4.79A10.25,10.25,0,0,1,43.91,135.42Z"/></g></g></svg>