<svg xmlns="http://www.w3.org/2000/svg" viewBox="0 0 154.67 154.63"><defs><style>.cls-1{fill:#bb3c41;}.cls-2{fill:#d75958;}.cls-3{fill:#67a760;}</style></defs><title>NewМонтажная область 75</title><g id="Слои"><path class="cls-1" d="M108,151.59h0a43.8,43.8,0,0,1-43.8-43.8h0A43.81,43.81,0,0,1,108,64h0a43.82,43.82,0,0,1,43.81,43.81h0A43.81,43.81,0,0,1,108,151.59Z"/><path class="cls-2" d="M46.82,151.59h0A43.8,43.8,0,0,1,3,107.79H3A43.81,43.81,0,0,1,46.82,64h0a43.82,43.82,0,0,1,43.81,43.81h0A43.81,43.81,0,0,1,46.82,151.59Z"/><path class="cls-3" d="M151.65,34.65S135.82,6.21,115.72,3.79C96.13,1.44,91.55,9.16,81.17,3c-1.08,8.78,4.68,35.76,30.75,38.9C131.71,44.3,135,33,151.65,34.65Z"/><path d="M13.72,136.63l0,0A3,3,0,1,0,18,140.93l0,0a3,3,0,1,0-4.27-4.27Z"/><path d="M76.34,116.65A31,31,0,0,1,46.82,138.6a3,3,0,0,0,0,6A36.53,36.53,0,0,0,69,137.21a37.14,37.14,0,0,0,13.11-18.83,3,3,0,1,0-5.79-1.73Z"/><path d="M80.68,110.81a3,3,0,1,0,0-6h0a3,3,0,0,0,0,6Z"/><path d="M141.32,114.62a3,3,0,0,0-3.76,2,31,31,0,0,1-29.52,22,3,3,0,0,0,0,6,36.48,36.48,0,0,0,22.2-7.44,37.12,37.12,0,0,0,13.11-18.82A3,3,0,0,0,141.32,114.62Z"/><path d="M141.9,104.76h0a3,3,0,0,0,0,6h0a3,3,0,1,0,0-6Z"/><path d="M121.74,27.71h.14a3,3,0,1,0,0-6.05h-.14a3,3,0,0,0,0,6.05Z"/><path d="M107.82,60.93a47.47,47.47,0,0,0-5.61.33c-11.28-8-20.7-24-22.52-38.38a34.62,34.62,0,0,1-.18-7.35,44.62,44.62,0,0,0,7.76,15.9,35.07,35.07,0,0,0,24.29,13.49,46.66,46.66,0,0,0,5.58.34c7.92,0,13.14-2.26,17.84-4.31,5-2.16,9.24-4,16.36-3.29a3,3,0,0,0,2.95-4.47C153.61,32,137.47,3.36,116.08.79a61.84,61.84,0,0,0-20.49.86c-5.33,1-8.27,1.5-12.88-1.23h0A3,3,0,0,0,81.21,0C73.32-.11,65.3,4.09,58.05,12.16c-11.59,12.9-18.59,32.72-17.6,49.22a47.12,47.12,0,0,0-9.52,2.34l-.24.08A46.89,46.89,0,0,0,.44,101.29,47.27,47.27,0,0,0,5.58,130a3,3,0,1,0,5.32-2.87A41.06,41.06,0,0,1,18,78.92a40.65,40.65,0,0,1,14.54-9.36l.09,0h0c.16-.06.33-.13.5-.18,1.46-.46,4.53-.64,10.31,5.28,5.39,5.53,15.23,5.69,16.34,5.69a3,3,0,0,0,0-6c-2.3,0-8.92-.69-12-3.87a36.17,36.17,0,0,0-3.66-3.32A40.8,40.8,0,1,1,27.5,143.72,3,3,0,1,0,24.63,149a47.17,47.17,0,0,0,22.29,5.58,46.61,46.61,0,0,0,30.41-11.26,46.85,46.85,0,1,0,30.49-82.43Zm3.92-35.19a2.87,2.87,0,0,0,.71.08,3,3,0,0,0,.7-5.95A63.8,63.8,0,0,1,91.29,8.39a53,53,0,0,0,5.38-.8,56.83,56.83,0,0,1,18.69-.8c13.62,1.64,25.5,16.9,30.77,24.74-5.51.38-9.59,2.15-13.56,3.88-5.51,2.4-10.71,4.66-20.29,3.51A29.22,29.22,0,0,1,92,27.7a39.12,39.12,0,0,1-7.43-17A69,69,0,0,0,111.74,25.74ZM46.48,61c-.85-14.79,5.66-33.17,16.06-44.75C66.63,11.66,71,8.53,75.3,7c-1.85,4.59-2.41,10.21-1.6,16.59C75.51,38,83.77,53.28,94.52,62.84A46.79,46.79,0,0,0,77.34,72.2,46.76,46.76,0,0,0,46.48,61Zm61.34,87.64a40.62,40.62,0,0,1-26.15-9.48,46.92,46.92,0,0,0,0-62.67A40.78,40.78,0,0,1,93.37,69.6l.2-.07.18-.07.25-.09c1.41-.47,4.49-.83,10.41,5.25,5.4,5.53,15.24,5.69,16.34,5.69a3,3,0,0,0,0-6c-2.3,0-9-.72-12-3.87a37.55,37.55,0,0,0-3.68-3.33c.92-.06,1.83-.1,2.76-.1a40.81,40.81,0,0,1,0,81.62Z"/></g></svg>