<svg xmlns="http://www.w3.org/2000/svg" viewBox="0 0 168.89 259.57"><defs><style>.cls-1{fill:#d05950;}.cls-2{fill:#6ba563;}.cls-3{fill:#272425;}</style></defs><title>NewМонтажная область 79</title><g id="Слои"><path class="cls-1" d="M129.82,105.48a44.09,44.09,0,0,1-88.17,0A597,597,0,0,0,37.36,33q8.19,2.1,15.74,4.65A187.18,187.18,0,0,1,83,50.65c20.6,11.28,35,24.9,41.95,37.84A40.9,40.9,0,0,1,129.27,100,28.62,28.62,0,0,1,129.82,105.48Z"/><path class="cls-1" d="M129.27,100A40.9,40.9,0,0,0,125,88.49,68.66,68.66,0,0,0,115.16,75C107.34,66.42,96.53,58,83,50.65a165.86,165.86,0,0,1,22.75-11.46q7-2.92,14.76-5.44c4.15-1.34,8.45-2.59,12.89-3.72A579.06,579.06,0,0,0,129.27,100Z"/><path class="cls-1" d="M105.79,39.19A165.15,165.15,0,0,0,83.05,50.65,181.81,181.81,0,0,0,62,40.87q-4.3-1.68-8.86-3.22C52,22.33,50.66,13.32,50.78,13.35A170.64,170.64,0,0,1,80.27,23.73,125.86,125.86,0,0,1,105.79,39.19Z"/><path class="cls-1" d="M120.55,33.75q-7.72,2.51-14.76,5.44A125.86,125.86,0,0,0,80.27,23.73c11-7.55,25.46-14.21,42.77-18.64C123.16,5.06,121.5,15.9,120.55,33.75Z"/><path class="cls-2" d="M142.51,210.06c-17.38,8.85-41.63-3.94-41.63-3.94s3.91-27.14,21.28-36,41.64,3.94,41.64,3.94S159.89,201.2,142.51,210.06Z"/><path class="cls-2" d="M26.38,238.07C43.76,246.92,68,234.13,68,234.13s-3.91-27.14-21.28-36-41.64,3.93-41.64,3.93S9,229.21,26.38,238.07Z"/><path class="cls-3" d="M61.69,89.71a5.09,5.09,0,0,1-5.09-4.92c0-.06,0-.1,0-.14a11.86,11.86,0,0,1-.12-1.36,5.09,5.09,0,0,1,10.18-.39c0,.06,0,.1,0,.14a10.49,10.49,0,0,1,.12,1.42,5.09,5.09,0,0,1-4.93,5.25Z"/><path class="cls-3" d="M85.73,134.28a28.83,28.83,0,0,1-28.8-28.8,5.1,5.1,0,0,1,10.19,0A18.64,18.64,0,0,0,85.73,124.1a5.09,5.09,0,1,1,0,10.18Z"/><path class="cls-3" d="M166.17,169.56c-1.08-.58-26.81-13.91-46.32-4-16,8.13-21.77,28.81-23.44,36.71l-5.91,3V154.42a49.23,49.23,0,0,0,44.41-48.94,34,34,0,0,0-.54-5.87A571.6,571.6,0,0,1,138.26,33c.37-3.12.59-5-1.49-6.8a5.11,5.11,0,0,0-4.6-1.08c-2,.52-4.06,1.08-6.08,1.66.67-9.59,1.48-16.37,1.82-19.27.3-2.47.53-4.42-1.5-6.21A5.1,5.1,0,0,0,121.78.16c-15.72,4-30.17,10.14-42,17.77A178.6,178.6,0,0,0,52.07,8.42a5.11,5.11,0,0,0-4.64,1.09c-2.06,1.79-1.83,3.75-1.5,6.45.3,2.5.9,7.54,1.5,14.55-2.91-.87-5.85-1.69-8.8-2.44A5.11,5.11,0,0,0,34,29.15C32,31,32.16,32.74,32.55,36a588.45,588.45,0,0,1,4,69.48,49.24,49.24,0,0,0,43.76,48.87v80l-7.84-4C70.81,222.41,65,201.73,49,193.6c-19.5-9.94-45.24,3.39-46.32,4A5.1,5.1,0,0,0,.05,202.8c.18,1.21,4.52,29.87,24,39.81a36.18,36.18,0,0,0,16.55,3.66c12,0,23.21-4.56,27.72-6.64l12,6.1v8.74a5.09,5.09,0,1,0,10.18,0V216.74l10-5.12c4.51,2.08,15.76,6.64,27.73,6.64a36.05,36.05,0,0,0,16.54-3.67c19.51-9.93,23.85-38.59,24-39.8A5.08,5.08,0,0,0,166.17,169.56Zm-137.48,64C17.4,227.78,12.55,212.17,10.87,205c6.78-2.85,22.26-8.1,33.54-2.35C52.7,206.9,57.52,216.43,60.16,224l-17.51-8.92A5.09,5.09,0,0,0,38,224.19l18.15,9.24C48,236,36.94,237.73,28.69,233.53ZM122.12,38.6c1.79-.58,3.61-1.14,5.43-1.68-1.47,13.5-2.47,27.37-3,41.47h0c-7.27-9.88-18-19.4-31.34-27.68,4.6-2.44,9.45-4.72,14.5-6.82C112.34,42,117.18,40.2,122.12,38.6ZM90.68,23.24A133.91,133.91,0,0,1,117.15,12c-.46,4.35-1,10.47-1.49,18h0c-3.09,1.05-6.12,2.18-9.08,3.35A128.09,128.09,0,0,0,90.68,23.24ZM78.13,28.35a128,128,0,0,1,17.53,9.76h0Q89,41.26,82.91,44.81a193.33,193.33,0,0,0-25-10.87h0c-.43-5.56-.88-10.18-1.26-13.66A162.32,162.32,0,0,1,78.13,28.35ZM46.74,105.48a603.24,603.24,0,0,0-3.49-65.59c2.78.81,5.53,1.68,8.22,2.59A182.32,182.32,0,0,1,80.6,55.12c18.85,10.32,33,23,39.91,35.79A35.67,35.67,0,0,1,124.27,101a23.47,23.47,0,0,1,.45,4.48,39,39,0,0,1-78,0Zm93.46,100c-8.63,4.4-19.7,2.37-27.47-.11l18.13-9.23a5.09,5.09,0,1,0-4.62-9.08L108.72,196c2.82-8,7.82-17.32,15.76-21.37,11.3-5.76,26.81-.49,33.57,2.36C156.09,185.45,150.73,200.15,140.2,205.52Z"/></g></svg>