<svg xmlns="http://www.w3.org/2000/svg" viewBox="0 0 115.68 73.01"><defs><style>.cls-1{fill:#cc742a;stroke:#b96e16;stroke-width:2px;}.cls-1,.cls-7{stroke-linecap:round;stroke-linejoin:round;}.cls-2{fill:#999;}.cls-3,.cls-7{fill:gray;stroke:#4d4d4d;stroke-width:0.5px;}.cls-3{stroke-miterlimit:10;}.cls-4{fill:#ccc;}.cls-5{fill:#b3b3b3;}.cls-6{fill:#b96e16;}</style></defs><title>Монтажная область 21</title><g id="Слои"><path class="cls-1" d="M114.15,20.89a9.64,9.64,0,0,1-.57.78l-.28.32a14.36,14.36,0,0,1-1.58,1.51l-.47.36c-.35.27-.71.52-1.1.78l-.59.38c-.81.5-1.69,1-2.66,1.47l-.73.35-.78.36c-.52.23-1,.45-1.59.67-1,.41-2.1.8-3.24,1.18-.27.1-.54.19-.82.27-1.1.36-2.26.7-3.46,1s-2.45.65-3.74.94L91,31.62l-.54.11c-1,.21-2,.4-3,.59s-2.08.36-3.14.53l-.43.07-1.77.26-1.95.26c-1.75.22-3.54.42-5.37.59-1.35.13-2.73.24-4.12.34s-2.81.18-4.24.24L65,34.67l-2.25.07c-.82,0-1.65,0-2.48,0l-2.61,0-2.61,0c-.83,0-1.66,0-2.48,0l-2.24-.07-1.44-.06c-1.43-.06-2.84-.15-4.23-.24s-2.77-.21-4.12-.34c-1.88-.17-3.71-.38-5.5-.61q-.93-.11-1.83-.24l-1.77-.26L31,32.85c-.73-.12-1.44-.23-2.15-.36-1.37-.23-2.7-.49-4-.76l-.54-.11-1.55-.34c-1.29-.29-2.54-.61-3.74-.94s-2.35-.66-3.46-1c-.28-.08-.55-.17-.82-.27-1.14-.38-2.23-.78-3.26-1.19-.54-.22-1.07-.44-1.58-.67L9.54,27,8.4,26.49c-1-.48-1.85-1-2.66-1.47l-.59-.38c-.39-.26-.75-.51-1.09-.78-.18-.13-.34-.26-.5-.39s-.32-.27-.47-.4A12.38,12.38,0,0,1,2,22l-.23-.27a7.78,7.78,0,0,1-.62-.83c2.64-4,10-7.56,20.17-10,3.1-.76,6.46-1.42,10-2h0A174.7,174.7,0,0,1,57.65,7C85.63,7,109,13,114.15,20.89Z"/><path class="cls-2" d="M21.51,10.84C11.29,13.33,4,16.86,1.34,20.89a6.47,6.47,0,0,1-1-2.51c.81-5.07,8.9-9.56,21.19-12.56C20.33,7.88,21.51,10.84,21.51,10.84Z"/><path class="cls-2" d="M115.36,18.38a6.47,6.47,0,0,1-1,2.51C109.14,13,85.82,7,57.84,7A174.7,174.7,0,0,0,31.59,8.86c-.91-.6,0-5,0-5A173.33,173.33,0,0,1,57.84,2C88.7,2,113.89,9.23,115.36,18.38Z"/><path class="cls-3" d="M115.43,17.53c0,25.64-20,55.23-57.59,55.23a62.94,62.94,0,0,1-18.32-2.61C13.79,62.39.25,38.62.25,17.53a4.88,4.88,0,0,0,.07.85,6.47,6.47,0,0,0,1,2.51,7.78,7.78,0,0,0,.62.83l.23.27a12.38,12.38,0,0,0,1.09,1.08c.15.13.3.27.47.4s.32.26.5.39c.34.27.7.52,1.09.78l.59.38c.81.5,1.7,1,2.66,1.47L9.73,27l.36.16c.51.23,1,.45,1.58.67,1,.41,2.12.81,3.26,1.19.27.1.54.19.82.27,1.11.36,2.26.7,3.46,1s2.45.65,3.74.94l1.55.34.54.11,1.25.26c.9.18,1.81.35,2.75.5.7.13,1.42.25,2.15.36l.43.07,1.77.26q.9.14,1.83.24c1.79.23,3.62.44,5.5.61,1.35.13,2.72.24,4.12.34s2.8.18,4.23.24l1.44.06,2.24.07c.82,0,1.65,0,2.48,0l2.61,0,2.61,0c.83,0,1.66,0,2.48,0l2.25-.07,1.43-.06c1.43-.06,2.84-.15,4.24-.24S73.62,34.16,75,34c1.83-.17,3.62-.37,5.37-.59l2-.26,1.77-.26.43-.07c1.06-.17,2.11-.34,3.14-.53s2-.38,3-.59l.54-.11,1.55-.34c1.29-.29,2.54-.61,3.74-.94s2.36-.66,3.46-1c.28-.08.55-.17.82-.27,1.14-.38,2.22-.77,3.24-1.18.55-.22,1.07-.44,1.59-.67l.78-.36.73-.35c1-.48,1.85-1,2.66-1.47l.59-.38c.39-.26.75-.51,1.1-.78l.47-.36A14.36,14.36,0,0,0,113.49,22l.28-.32a9.64,9.64,0,0,0,.57-.78,6.47,6.47,0,0,0,1-2.51A4.88,4.88,0,0,0,115.43,17.53Z"/><path class="cls-4" d="M31.59,8.86h0l-10,2s-1.18-3,0-5l10.08-2S30.68,8.26,31.59,8.86Z"/><path class="cls-5" d="M26.29,32.27S27.63,64,39.52,70.15C30.44,63,29.71,32.93,29.71,32.93Z"/><path class="cls-6" d="M103.55,21.53a4.55,4.55,0,0,1-1.44,2.22,11.17,11.17,0,0,1-2.21,1.53,28.07,28.07,0,0,1-5,2,82,82,0,0,1-10.48,2.41A187.32,187.32,0,0,1,63,32c-1.8.09-3.59.14-5.39.15S54,32,52.24,31.89c-3.59-.26-7.15-.68-10.71-1.18s-7.1-1.11-10.62-1.87a74.33,74.33,0,0,1-10.44-2.92,19.91,19.91,0,0,1-5-2.58,4.68,4.68,0,0,1-1.83-2.61l-.06-.46a1.88,1.88,0,0,1,.06-.57,2.44,2.44,0,0,1,.48-.89,4.82,4.82,0,0,1,1.23-1,21.56,21.56,0,0,1,5.18-2.07c1.75-.51,3.51-.92,5.28-1.3a213.79,213.79,0,0,1,21.33-3.16c3.58-.35,7.13-.71,10.8-.76s7.22.43,10.81.8c7.14.79,14.25,1.76,21.32,3.25,1.77.38,3.53.81,5.28,1.35a24.49,24.49,0,0,1,2.63,1,10,10,0,0,1,1.33.69,4.76,4.76,0,0,1,.67.51,2.39,2.39,0,0,1,.64.91,1.53,1.53,0,0,1,.11.77,1.66,1.66,0,0,1-.3.77,2.58,2.58,0,0,1-.75.69,7.66,7.66,0,0,1-1.36.7,25.16,25.16,0,0,1-2.66.89c-1.76.49-3.52.89-5.29,1.25-7.07,1.42-14.17,2.41-21.3,3.28-3.57.42-7.1.84-10.75,1.06a18,18,0,0,1-2.81-.17l-2.69-.34q-2.67-.36-5.33-.79c-3.55-.57-7.08-1.19-10.6-1.94-1.76-.38-3.52-.79-5.27-1.26-.87-.23-1.75-.49-2.62-.78a12.34,12.34,0,0,1-2.63-1.18,2.17,2.17,0,0,1-.72-.73,1.06,1.06,0,0,1-.14-.39,1,1,0,0,1,0-.25,1.37,1.37,0,0,1,.07-.34,1.31,1.31,0,0,1,.49-.57A5.38,5.38,0,0,1,27.54,19a27.52,27.52,0,0,1,2.69-.64c1.78-.35,3.56-.61,5.34-.86,3.56-.49,7.12-.89,10.69-1.25s7.13-.68,10.72-.9a11,11,0,0,1,1.41,0l1.35.1,2.69.26c1.78.19,3.56.39,5.34.63s3.56.51,5.33.84c.88.16,1.77.33,2.65.54a10.93,10.93,0,0,1,2.65.9l.17.11a1.7,1.7,0,0,1,.19.19.69.69,0,0,1,.15.31.53.53,0,0,1-.11.45,1.93,1.93,0,0,1-.74.44,12.62,12.62,0,0,1-1.33.39c-.88.21-1.76.38-2.65.54-1.77.32-3.54.58-5.31.82-3.56.48-7.11.93-10.69,1.2a41.29,41.29,0,0,1-5.36-.64c-.88-.15-1.76-.33-2.63-.56a8.77,8.77,0,0,1-2.49-1,8.67,8.67,0,0,0,2.51.9c.87.2,1.75.35,2.64.48a39.84,39.84,0,0,0,5.31.48c3.55-.34,7.1-.86,10.63-1.41,1.76-.28,3.53-.58,5.27-.93.88-.18,1.75-.36,2.6-.59a11.24,11.24,0,0,0,1.24-.39,1.82,1.82,0,0,0,.42-.22s0,.15,0,.14,0,0,0,0a.12.12,0,0,1,0-.05L78,19.25a10.64,10.64,0,0,0-2.43-.75c-.87-.18-1.74-.34-2.62-.48-1.76-.28-3.53-.51-5.3-.71s-3.55-.4-5.33-.56l-2.66-.22-1.33-.08a7.78,7.78,0,0,0-1.27,0c-3.55.27-7.12.65-10.67,1s-7.1.84-10.62,1.37c-1.76.27-3.52.56-5.25.92-.86.18-1.73.38-2.53.63a4.11,4.11,0,0,0-1,.43c-.06,0,0,.05,0-.09a.28.28,0,0,0,0-.18c0-.05,0-.05,0-.08s0-.06,0-.08a1.18,1.18,0,0,0,.24.19,10.54,10.54,0,0,0,2.27,1c.83.27,1.68.51,2.53.73,1.72.44,3.45.82,5.2,1.17,3.49.71,7,1.32,10.53,1.87,1.76.28,3.53.53,5.29.77l2.65.32a17.43,17.43,0,0,0,2.54.15c3.5-.22,7.08-.67,10.61-1.09C76,24.61,83.06,23.59,90,22.16c1.74-.37,3.47-.76,5.15-1.24a24.07,24.07,0,0,0,2.44-.83,5.7,5.7,0,0,0,1-.51,2,2,0,0,0,.24-.2.3.3,0,0,0-.05.15c0,.09,0,.11,0,.12a1.71,1.71,0,0,0-.54-.46,8.07,8.07,0,0,0-1.06-.54,24.63,24.63,0,0,0-2.42-.87c-1.67-.5-3.39-.91-5.12-1.29-6.94-1.49-14-2.5-21.11-3.31-3.53-.37-7.12-.75-10.61-.83s-7.07.37-10.61.7c-7.1.72-14.19,1.63-21.16,3.05-1.73.36-3.46.76-5.16,1.24a21.42,21.42,0,0,0-4.77,1.86,3.28,3.28,0,0,0-.84.66.74.74,0,0,0-.16.27.16.16,0,0,0,0,.1l0,.2a3.21,3.21,0,0,0,1.22,1.66A18.3,18.3,0,0,0,21,24.49a73.22,73.22,0,0,0,10.19,3c3.47.79,7,1.44,10.5,2A106.37,106.37,0,0,0,63,31a186.28,186.28,0,0,0,21.35-1.8A82.92,82.92,0,0,0,94.83,27a28.68,28.68,0,0,0,5-1.88,11.43,11.43,0,0,0,2.23-1.46A4.52,4.52,0,0,0,103.55,21.53Z"/><path class="cls-7" d="M115.43,17.53a4.88,4.88,0,0,1-.07.85C113.89,9.23,88.7,2,57.84,2a173.33,173.33,0,0,0-26.25,1.9c-3.6.55-7,1.21-10.08,2C9.22,8.82,1.13,13.31.32,18.38a4.88,4.88,0,0,1-.07-.85C.25,8,26,.25,57.84.25S115.43,8,115.43,17.53Z"/></g></svg>