<svg xmlns="http://www.w3.org/2000/svg" viewBox="0 0 120.52 79.3"><defs><style>.cls-1{fill:#9a1517;stroke:#57090c;stroke-width:2px;}.cls-1,.cls-8{stroke-linecap:round;stroke-linejoin:round;}.cls-2{fill:#999;}.cls-3,.cls-8{fill:gray;stroke:#4d4d4d;stroke-width:0.5px;}.cls-3{stroke-miterlimit:10;}.cls-4{fill:#ccc;}.cls-5{fill:#b3b3b3;}.cls-6{opacity:0.41;}.cls-7{fill:#57090c;}</style></defs><title>Монтажная область 8</title><g id="Слои"><path class="cls-1" d="M116.44,24.7a9.64,9.64,0,0,1-.57.78l-.28.32A14.36,14.36,0,0,1,114,27.31l-.47.36c-.35.27-.71.52-1.1.78l-.59.38c-.81.5-1.69,1-2.66,1.47l-.73.35-.78.36c-.52.23-1,.45-1.59.67-1,.41-2.1.8-3.24,1.18-.27.1-.54.19-.82.27-1.1.36-2.26.7-3.46,1s-2.45.65-3.74.94l-1.55.34-.54.11c-1,.21-2,.4-3,.59s-2.08.36-3.14.53l-.43.07L84.39,37l-2,.26c-1.75.22-3.54.42-5.37.59-1.35.13-2.73.24-4.12.34s-2.81.18-4.24.24l-1.43.06L65,38.55c-.82,0-1.65,0-2.48.05l-2.61,0-2.61,0c-.83,0-1.66,0-2.48-.05l-2.24-.07-1.44-.06c-1.43-.06-2.84-.15-4.23-.24s-2.77-.21-4.12-.34c-1.88-.17-3.71-.38-5.5-.61q-.93-.1-1.83-.24l-1.77-.26-.43-.07c-.73-.12-1.44-.23-2.15-.36-1.37-.23-2.7-.49-4-.76l-.54-.11-1.55-.34c-1.29-.29-2.54-.61-3.74-.94s-2.35-.66-3.46-1c-.28-.08-.55-.17-.82-.27-1.14-.38-2.23-.78-3.26-1.19-.54-.22-1.07-.44-1.58-.67l-.36-.16-1.14-.54c-1-.48-1.85-1-2.66-1.47l-.59-.38c-.39-.26-.75-.51-1.09-.78-.18-.13-.34-.26-.5-.39s-.32-.27-.47-.4A12.38,12.38,0,0,1,4.29,25.8l-.23-.27a7.78,7.78,0,0,1-.62-.83c2.64-4,10-7.56,20.17-10,3.1-.76,6.46-1.42,10-2h0a174.7,174.7,0,0,1,26.25-1.89C87.92,10.78,111.24,16.76,116.44,24.7Z"/><path class="cls-2" d="M23.8,14.65c-10.22,2.49-17.53,6-20.17,10a6.47,6.47,0,0,1-1-2.51c.81-5.07,8.9-9.56,21.19-12.56C22.62,11.69,23.8,14.65,23.8,14.65Z"/><path class="cls-2" d="M117.65,22.19a6.47,6.47,0,0,1-1,2.51c-5.2-7.94-28.52-13.92-56.5-13.92a174.7,174.7,0,0,0-26.25,1.89c-.91-.6,0-5,0-5a173.33,173.33,0,0,1,26.25-1.9C91,5.76,116.18,13,117.65,22.19Z"/><path class="cls-3" d="M117.72,21.34c0,25.64-20,55.23-57.59,55.23A62.94,62.94,0,0,1,41.81,74C16.08,66.2,2.54,42.43,2.54,21.34a4.88,4.88,0,0,0,.07.85,6.47,6.47,0,0,0,1,2.51,7.78,7.78,0,0,0,.62.83l.23.27a12.38,12.38,0,0,0,1.09,1.08c.15.13.3.27.47.4s.32.26.5.39c.34.27.7.52,1.09.78l.59.38c.81.5,1.7,1,2.66,1.47l1.14.54.36.16c.51.23,1,.45,1.58.67,1,.41,2.12.81,3.26,1.19.27.1.54.19.82.27,1.11.36,2.26.7,3.46,1s2.45.65,3.74.94l1.55.34.54.11,1.25.26c.9.18,1.81.35,2.75.5.7.13,1.42.25,2.15.36l.43.07,1.77.26q.9.13,1.83.24c1.79.23,3.62.44,5.5.61,1.35.13,2.72.24,4.12.34s2.8.18,4.23.24l1.44.06,2.24.07c.82,0,1.65,0,2.48.05l2.61,0,2.61,0c.83,0,1.66,0,2.48-.05l2.25-.07,1.43-.06c1.43-.06,2.84-.15,4.24-.24s2.77-.21,4.12-.34c1.83-.17,3.62-.37,5.37-.59l2-.26,1.77-.26.43-.07c1.06-.17,2.11-.34,3.14-.53s2-.38,3-.59l.54-.11L95,35.09c1.29-.29,2.54-.61,3.74-.94s2.36-.66,3.46-1c.28-.08.55-.17.82-.27,1.14-.38,2.22-.77,3.24-1.18.55-.22,1.07-.44,1.59-.67l.78-.36.73-.35c1-.48,1.85-1,2.66-1.47l.59-.38c.39-.26.75-.51,1.1-.78l.47-.36a14.36,14.36,0,0,0,1.58-1.51l.28-.32a9.64,9.64,0,0,0,.57-.78,6.47,6.47,0,0,0,1-2.51A4.88,4.88,0,0,0,117.72,21.34Z"/><path class="cls-4" d="M33.88,12.67h0l-10,2s-1.18-3,0-5l10.08-2S33,12.07,33.88,12.67Z"/><path class="cls-5" d="M28.58,36.08S29.92,67.85,41.81,74C32.73,66.77,32,36.74,32,36.74Z"/><g class="cls-6"><path class="cls-7" d="M105.84,25.34a4.55,4.55,0,0,1-1.44,2.22,11,11,0,0,1-2.22,1.53,28,28,0,0,1-5,2,82,82,0,0,1-10.48,2.41,187.25,187.25,0,0,1-21.4,2.25c-1.79.09-3.58.14-5.39.15s-3.61-.1-5.4-.23c-3.59-.26-7.16-.68-10.71-1.18s-7.1-1.11-10.62-1.87a74.33,74.33,0,0,1-10.44-2.92,19.73,19.73,0,0,1-5-2.58A4.68,4.68,0,0,1,16,24.54l-.06-.46a1.88,1.88,0,0,1,.06-.57,2.43,2.43,0,0,1,.47-.89,5,5,0,0,1,1.24-1,21.4,21.4,0,0,1,5.18-2.07c1.75-.51,3.51-.92,5.28-1.3,7.06-1.47,14.18-2.41,21.33-3.17,3.58-.34,7.12-.7,10.8-.75s7.22.43,10.8.8c7.15.79,14.26,1.76,21.33,3.25,1.77.38,3.53.81,5.28,1.35a25.3,25.3,0,0,1,2.63,1,9.28,9.28,0,0,1,1.32.69,4.31,4.31,0,0,1,.68.51,2.39,2.39,0,0,1,.64.91,1.79,1.79,0,0,1,.11.77,1.66,1.66,0,0,1-.3.77A2.72,2.72,0,0,1,102,25a7.73,7.73,0,0,1-1.37.7,25.78,25.78,0,0,1-2.65.89c-1.76.49-3.52.89-5.29,1.25-7.07,1.42-14.18,2.41-21.3,3.28-3.57.42-7.1.84-10.75,1.06A18.11,18.11,0,0,1,57.83,32l-2.68-.34c-1.78-.24-3.56-.51-5.33-.79-3.55-.57-7.08-1.19-10.61-1.94-1.76-.38-3.51-.79-5.26-1.26-.87-.23-1.75-.49-2.62-.78a12.63,12.63,0,0,1-2.64-1.18A2.25,2.25,0,0,1,28,25a1.06,1.06,0,0,1-.14-.39,1,1,0,0,1,0-.25,1.4,1.4,0,0,1,.08-.34,1.31,1.31,0,0,1,.49-.57,5.25,5.25,0,0,1,1.45-.62,26.67,26.67,0,0,1,2.68-.64c1.79-.35,3.56-.61,5.34-.86,3.56-.49,7.13-.89,10.7-1.25s7.13-.68,10.72-.9a11,11,0,0,1,1.41,0l1.35.1,2.68.26c1.79.19,3.57.39,5.35.63s3.55.51,5.32.84c.89.16,1.77.33,2.66.54a10.93,10.93,0,0,1,2.65.9l.17.11a1.62,1.62,0,0,1,.18.19c.06,0,.12.19.15.31a.52.52,0,0,1-.1.45,1.93,1.93,0,0,1-.74.44c-.45.16-.89.28-1.33.39-.88.21-1.76.38-2.65.54-1.77.32-3.54.58-5.32.82-3.55.48-7.1.93-10.69,1.2A41.34,41.34,0,0,1,55,26.23c-.88-.15-1.76-.33-2.63-.56a9,9,0,0,1-2.5-1,8.62,8.62,0,0,0,2.52.9c.87.2,1.75.35,2.63.48a40,40,0,0,0,5.32.48c3.54-.34,7.1-.86,10.63-1.41,1.76-.28,3.52-.58,5.27-.93.87-.18,1.75-.36,2.6-.59a12,12,0,0,0,1.24-.39A1.49,1.49,0,0,0,80.5,23s0,.15,0,.14,0,.05,0,0l0-.05-.12-.07a10.8,10.8,0,0,0-2.43-.75c-.87-.18-1.74-.34-2.62-.48-1.76-.28-3.53-.51-5.3-.71s-3.55-.4-5.33-.56L62,20.34l-1.33-.08a7.87,7.87,0,0,0-1.28,0c-3.55.27-7.11.65-10.66,1s-7.1.84-10.62,1.37c-1.77.27-3.52.56-5.25.92-.87.18-1.73.38-2.53.63a4,4,0,0,0-1,.43c-.06,0,0,.05,0-.09a.37.37,0,0,0,0-.18v-.08c0-.06,0-.06,0-.08a1.53,1.53,0,0,0,.25.19,10.54,10.54,0,0,0,2.27,1c.83.27,1.68.51,2.53.73,1.71.44,3.45.82,5.2,1.17,3.49.71,7,1.32,10.53,1.87,1.76.28,3.53.53,5.29.77l2.65.32a17.35,17.35,0,0,0,2.54.15c3.49-.23,7.08-.67,10.61-1.09,7.08-.9,14.17-1.92,21.13-3.35,1.74-.37,3.47-.76,5.15-1.24a24.94,24.94,0,0,0,2.44-.83,6.06,6.06,0,0,0,1-.51,2,2,0,0,0,.24-.2.3.3,0,0,0,0,.15c0,.09,0,.11,0,.12a1.87,1.87,0,0,0-.54-.46,8.07,8.07,0,0,0-1.06-.54,24.63,24.63,0,0,0-2.42-.87c-1.67-.5-3.39-.91-5.12-1.29C85,18.81,78,17.8,70.87,17c-3.54-.37-7.12-.75-10.61-.83s-7.07.37-10.61.7c-7.1.72-14.19,1.63-21.16,3.05-1.74.36-3.46.76-5.16,1.24A21.7,21.7,0,0,0,18.55,23a3.21,3.21,0,0,0-.83.66,1,1,0,0,0-.17.27.28.28,0,0,0,0,.1,1.77,1.77,0,0,1,0,.2A3.1,3.1,0,0,0,18.8,25.9a18.3,18.3,0,0,0,4.51,2.4,72.82,72.82,0,0,0,10.19,3c3.47.79,7,1.44,10.5,2a106.37,106.37,0,0,0,21.29,1.53A186.11,186.11,0,0,0,86.63,33a82.92,82.92,0,0,0,10.48-2.17,28.08,28.08,0,0,0,5-1.88,11.5,11.5,0,0,0,2.24-1.46A4.52,4.52,0,0,0,105.84,25.34Z"/></g><path class="cls-8" d="M117.72,21.34a4.88,4.88,0,0,1-.07.85C116.18,13,91,5.76,60.13,5.76a173.33,173.33,0,0,0-26.25,1.9c-3.6.55-7,1.21-10.08,2-12.29,3-20.38,7.49-21.19,12.56a4.88,4.88,0,0,1-.07-.85c0-9.54,25.79-17.28,57.59-17.28S117.72,11.8,117.72,21.34Z"/></g></svg>