<svg xmlns="http://www.w3.org/2000/svg" xmlns:xlink="http://www.w3.org/1999/xlink" viewBox="0 0 115.96 107.22"><defs><style>.cls-1{fill:none;}.cls-1,.cls-3{stroke:#d69055;stroke-miterlimit:10;stroke-width:2px;}.cls-2{fill:#e2bc60;}.cls-3{fill:#dcc992;}.cls-4{fill:#fbb03b;}.cls-5{clip-path:url(#clip-path);}</style><clipPath id="clip-path"><path class="cls-1" d="M110.64,4.3,6.24,19.4a3,3,0,0,0-2.58,3.4c1,7.83,7.56,28.7,49.33,35.25a1.13,1.13,0,0,0,.9-.26L111.52,6.17A1.08,1.08,0,0,0,110.64,4.3Z"/></clipPath></defs><title>Монтажная область 3 копия 3</title><g id="Слой_4" data-name="Слой 4"><path class="cls-2" d="M112.47,48.85l-.59-43.22a0,0,0,0,0,0,0L55,56.75a4.59,4.59,0,0,0-1.53,3.43v42.89a.3.3,0,0,0,.51.21l57.26-51.55A4,4,0,0,0,112.47,48.85Z"/><path class="cls-3" d="M110.64,4.3,6.24,19.4a3,3,0,0,0-2.58,3.4c1,7.83,7.56,28.7,49.33,35.25a1.13,1.13,0,0,0,.9-.26L111.52,6.17A1.08,1.08,0,0,0,110.64,4.3Z"/><path class="cls-4" d="M53.51,60v42.51a1,1,0,0,1-1.23.93C45.78,101.64,14.19,98.19,5,74a25.15,25.15,0,0,1-1.53-8.15l.18-43.92c.67,7.14,6.12,28.9,48,35.9A2.23,2.23,0,0,1,53.51,60Z"/><path class="cls-1" d="M112.47,48.85l-.59-43.22a0,0,0,0,0,0,0L55,56.75a4.59,4.59,0,0,0-1.53,3.43v42.89a.3.3,0,0,0,.51.21l57.26-51.55A4,4,0,0,0,112.47,48.85Z"/><path class="cls-1" d="M53.51,60v42.51a1,1,0,0,1-1.23.93C45.78,101.64,14.19,98.35,5,74.17A25.15,25.15,0,0,1,3.49,66l.18-44.09c.67,7.14,6.12,28.9,48,35.9A2.23,2.23,0,0,1,53.51,60Z"/><path class="cls-1" d="M110.64,4.3,6.24,19.4a3,3,0,0,0-2.58,3.4c1,7.83,7.56,28.7,49.33,35.25a1.13,1.13,0,0,0,.9-.26L111.52,6.17A1.08,1.08,0,0,0,110.64,4.3Z"/></g></svg>