<svg xmlns="http://www.w3.org/2000/svg" viewBox="0 0 110.98 81.88"><defs><style>.cls-1{fill:#e2bc60;stroke-linecap:round;stroke-linejoin:round;}.cls-1,.cls-2,.cls-3{stroke:#d69055;stroke-width:2px;}.cls-2{fill:#dcc992;}.cls-2,.cls-3{stroke-miterlimit:10;}.cls-3{fill:#fbb03b;}.cls-4{opacity:0.5;}.cls-5{fill:#fff;}</style></defs><title>Монтажная область 17</title><g id="Слои"><path class="cls-1" d="M110,26.24l-.34-24.51S52.8,52.85,52.8,52.85a4.6,4.6,0,0,0-1.52,3.43L51,80.45a.3.3,0,0,0,.51.21l57.26-51.55A4.07,4.07,0,0,0,110,26.24Z"/><path class="cls-2" d="M108.15,1,3.75,16.11a3,3,0,0,0-2.58,3.4c1,7.83,7.56,28.7,49.33,35.25a1.13,1.13,0,0,0,.9-.26L109,2.88A1.08,1.08,0,0,0,108.15,1Z"/><path class="cls-3" d="M50.92,56.68c0,7.64.1,16.88.1,23.23a1,1,0,0,1-1.23.93C43.29,79,11.7,75.57,2.53,51.38A25.09,25.09,0,0,1,1,43.24l.09-24.65c.67,7.13,6.12,28.9,48,35.9A2.22,2.22,0,0,1,50.92,56.68Z"/><g class="cls-4"><path class="cls-5" d="M48.74,70.67c-.18-2.35-.29-4.71-.36-7.06s-.12-4.71-.13-7.07l.42.49c-3.37-.43-6.71-1-10-1.67-1.66-.36-3.31-.75-5-1.19a23.84,23.84,0,0,1-4.77-1.79,30.7,30.7,0,0,0,4.9,1.28c1.65.34,3.31.63,5,.89,3.33.54,6.68,1,10,1.51h0a.49.49,0,0,1,.42.48c0,2.36,0,4.71-.14,7.07S48.92,68.32,48.74,70.67Z"/></g><g class="cls-4"><path class="cls-5" d="M73.13,31.26c-1.63,1.68-3.27,3.35-5,5s-3.35,3.26-5.06,4.86c-3.41,3.19-6.86,6.35-10.38,9.42l0,0a3,3,0,0,1-1.32.64,6,6,0,0,1-1.32.19,12.5,12.5,0,0,1-2.6-.18A20.94,20.94,0,0,1,45,50.51a24.28,24.28,0,0,1-2.39-.87c.82.21,1.63.43,2.46.61a21,21,0,0,0,2.48.39,12,12,0,0,0,2.47,0,6.33,6.33,0,0,0,1.18-.24,2.69,2.69,0,0,0,.93-.48v0h0c3.37-3.24,6.81-6.41,10.28-9.54,1.74-1.56,3.5-3.09,5.27-4.62S71.31,32.73,73.13,31.26Z"/></g><path class="cls-1" d="M110,26.24l-.34-24.51S52.8,52.85,52.8,52.85a4.6,4.6,0,0,0-1.52,3.43L51,80.45a.3.3,0,0,0,.51.21l57.26-51.55A4.07,4.07,0,0,0,110,26.24Z"/><path class="cls-2" d="M108.15,1,3.75,16.11a3,3,0,0,0-2.58,3.4c1,7.83,7.56,28.7,49.33,35.25a1.13,1.13,0,0,0,.9-.26L109,2.88A1.08,1.08,0,0,0,108.15,1Z"/><path class="cls-3" d="M50.92,56.68c0,7.64.1,16.88.1,23.23a1,1,0,0,1-1.23.93C43.29,79,11.7,75.57,2.53,51.38A25.09,25.09,0,0,1,1,43.24l.09-24.65c.67,7.13,6.12,28.9,48,35.9A2.22,2.22,0,0,1,50.92,56.68Z"/><g class="cls-4"><path class="cls-5" d="M48.74,70.67c-.18-2.35-.29-4.71-.36-7.06s-.12-4.71-.13-7.07l.42.49c-3.37-.43-6.71-1-10-1.67-1.66-.36-3.31-.75-5-1.19a23.84,23.84,0,0,1-4.77-1.79,30.7,30.7,0,0,0,4.9,1.28c1.65.34,3.31.63,5,.89,3.33.54,6.68,1,10,1.51h0a.49.49,0,0,1,.42.48c0,2.36,0,4.71-.14,7.07S48.92,68.32,48.74,70.67Z"/></g><g class="cls-4"><path class="cls-5" d="M73.13,31.26c-1.63,1.68-3.27,3.35-5,5s-3.35,3.26-5.06,4.86c-3.41,3.19-6.86,6.35-10.38,9.42l0,0a3,3,0,0,1-1.32.64,6,6,0,0,1-1.32.19,12.5,12.5,0,0,1-2.6-.18A20.94,20.94,0,0,1,45,50.51a24.28,24.28,0,0,1-2.39-.87c.82.21,1.63.43,2.46.61a21,21,0,0,0,2.48.39,12,12,0,0,0,2.47,0,6.33,6.33,0,0,0,1.18-.24,2.69,2.69,0,0,0,.93-.48v0h0c3.37-3.24,6.81-6.41,10.28-9.54,1.74-1.56,3.5-3.09,5.27-4.62S71.31,32.73,73.13,31.26Z"/></g></g></svg>