<svg xmlns="http://www.w3.org/2000/svg" viewBox="0 0 110.44 81.36"><defs><style>.cls-1{fill:#4b1e0c;}.cls-1,.cls-2,.cls-3{stroke:#42210b;stroke-miterlimit:10;stroke-width:2px;}.cls-2{fill:#3e1706;}.cls-3{fill:#692d1e;}.cls-4{opacity:0.5;}.cls-5{fill:#fff;}</style></defs><title>Монтажная область 4</title><g id="Слои"><path class="cls-1" d="M109.44,27.83V2.32c0-.09,0-.59-.07-.53L51.17,53.84l-.1,26.34C51.22,80.7,109.26,27.79,109.44,27.83Z"/><path class="cls-2" d="M51.3,57.07c-.33,8.28.39,19.8-.58,23.27C46.9,80.91.65,70.42,1.05,42.17l.18-23.3C.66,25.23,11,50.83,51.3,54.38Z"/><path class="cls-3" d="M108.2,1,2.79,16.25A2,2,0,0,0,1.1,18.37C-.27,23.24,11.83,53.25,52.22,53.8L109.08,2.88A1.08,1.08,0,0,0,108.2,1Z"/><g class="cls-4"><path class="cls-5" d="M48,71.13c-.18-2.35-.28-4.71-.35-7.06s-.13-4.71-.14-7.07l.43.49q-5.05-.65-10-1.67c-1.66-.36-3.31-.75-5-1.19a23.61,23.61,0,0,1-4.77-1.79A30.31,30.31,0,0,0,33,54.12c1.65.34,3.32.63,5,.89q5,.81,10,1.51h0a.48.48,0,0,1,.42.48c0,2.36,0,4.71-.13,7.07S48.13,68.78,48,71.13Z"/></g><g class="cls-4"><path class="cls-5" d="M71.86,31.9c-1.63,1.68-3.27,3.35-5,5s-3.35,3.26-5.06,4.85q-5.12,4.8-10.38,9.43l0,0a3.07,3.07,0,0,1-1.32.65,6.1,6.1,0,0,1-1.33.19,12.4,12.4,0,0,1-2.59-.18,20.94,20.94,0,0,1-2.48-.63,25.51,25.51,0,0,1-2.4-.88c.83.22,1.64.44,2.47.62a23.24,23.24,0,0,0,2.48.39,12,12,0,0,0,2.47,0A6.33,6.33,0,0,0,50,51.08a2.69,2.69,0,0,0,.93-.48v0h0Q56,45.71,61.21,41q2.61-2.34,5.27-4.62C68.24,34.87,70,33.37,71.86,31.9Z"/></g></g></svg>