<svg xmlns="http://www.w3.org/2000/svg" viewBox="0 0 110.39 81.35"><defs><style>.cls-1,.cls-3{fill:#fff;}.cls-1{stroke:#000;stroke-linecap:round;stroke-linejoin:round;stroke-width:2px;}.cls-2{opacity:0.5;}</style></defs><title>EmptyМонтажная область 12</title><g id="Слои"><path class="cls-1" d="M109.39,27.83V2.32c0-.09,0-.59-.07-.53L51.12,53.84s0,0,0,0L51,80.18a.1.1,0,0,0,.17.07S109.39,27.86,109.39,27.83Z"/><path class="cls-1" d="M51.25,57.07c0,8.11-.23,19.31-.23,23a.28.28,0,0,1-.35.27c-3.76-1-38.43-4.43-48.14-30A25.15,25.15,0,0,1,1,42.17l.18-23.3C1.85,26,7.28,47.53,49.12,54.53l2.13-.15Z"/><path class="cls-1" d="M108.15,1,2.74,16.25a2,2,0,0,0-1.69,2.12C1.54,25,6.41,47.5,49.48,54.59a3.23,3.23,0,0,0,2.69-.79L109,2.88A1.08,1.08,0,0,0,108.15,1Z"/><g class="cls-2"><path class="cls-3" d="M47.9,71.13c-.18-2.35-.28-4.71-.35-7.06s-.13-4.71-.14-7.07l.43.49q-5.06-.65-10.05-1.67c-1.66-.36-3.31-.75-4.95-1.19a23.61,23.61,0,0,1-4.77-1.79A30.31,30.31,0,0,0,33,54.12c1.65.34,3.32.63,5,.89q5,.81,10,1.51h0a.48.48,0,0,1,.42.48c0,2.36,0,4.71-.13,7.07S48.08,68.78,47.9,71.13Z"/></g><g class="cls-2"><path class="cls-3" d="M71.81,31.9c-1.63,1.68-3.27,3.35-5,5s-3.35,3.26-5.06,4.85q-5.11,4.8-10.38,9.43l0,0a3.07,3.07,0,0,1-1.32.65,6.1,6.1,0,0,1-1.33.19,12.4,12.4,0,0,1-2.59-.18,20.94,20.94,0,0,1-2.48-.63,25.51,25.51,0,0,1-2.4-.88c.83.22,1.64.44,2.47.62a23.24,23.24,0,0,0,2.48.39,12,12,0,0,0,2.47,0,6.33,6.33,0,0,0,1.18-.24,2.69,2.69,0,0,0,.93-.48v0h0Q55.93,45.71,61.16,41q2.61-2.34,5.27-4.62C68.19,34.87,70,33.37,71.81,31.9Z"/></g></g></svg>