<svg xmlns="http://www.w3.org/2000/svg" viewBox="0 0 110.74 81.37"><defs><style>.cls-1{fill:#dcc992;stroke-linecap:round;stroke-linejoin:round;}.cls-1,.cls-2,.cls-3{stroke:#d69055;stroke-width:2px;}.cls-2{fill:#e8d9b9;}.cls-2,.cls-3{stroke-miterlimit:10;}.cls-3{fill:#e2bc60;}.cls-4{opacity:0.5;}.cls-5{fill:#fff;}</style></defs><title>Монтажная область 14</title><g id="Слои"><path class="cls-1" d="M109.74,25.89l-.35-23.51L52.54,53.5A4.62,4.62,0,0,0,51,56.93V80a.3.3,0,0,0,.51.21l57-51.4A4.06,4.06,0,0,0,109.74,25.89Z"/><path class="cls-2" d="M108.15,1,3.75,16.11a3,3,0,0,0-2.58,3.4c1,7.83,7.56,28.7,49.33,35.25a1.13,1.13,0,0,0,.9-.26L109,2.88A1.08,1.08,0,0,0,108.15,1Z"/><path class="cls-3" d="M50.92,56.47c0,7.64.1,16.58.1,22.94a1,1,0,0,1-1.23.93C43.29,78.52,11.7,75,2.53,50.76A25.15,25.15,0,0,1,1,42.61l.09-24.22c.67,7.13,6.12,28.9,48,35.89A2.22,2.22,0,0,1,50.92,56.47Z"/><g class="cls-4"><path class="cls-5" d="M47.89,70.84c-.18-2.35-.29-4.71-.36-7.06s-.12-4.71-.13-7.07l.42.49c-3.37-.43-6.71-1-10-1.67-1.66-.36-3.31-.75-5-1.19a23.84,23.84,0,0,1-4.77-1.79A30.7,30.7,0,0,0,33,53.83c1.65.34,3.31.63,5,.89,3.33.54,6.68,1,10,1.51h0a.49.49,0,0,1,.42.48c0,2.36,0,4.71-.14,7.07S48.07,68.49,47.89,70.84Z"/></g><g class="cls-4"><path class="cls-5" d="M72.28,31.43c-1.63,1.68-3.27,3.35-5,5S64,39.66,62.27,41.26c-3.42,3.19-6.87,6.34-10.39,9.42l0,0a3,3,0,0,1-1.32.64,6,6,0,0,1-1.32.19,12.5,12.5,0,0,1-2.6-.18,20.94,20.94,0,0,1-2.48-.63,24.28,24.28,0,0,1-2.39-.87c.82.21,1.63.43,2.46.61a21,21,0,0,0,2.48.39,12,12,0,0,0,2.47,0,6.33,6.33,0,0,0,1.18-.24,2.69,2.69,0,0,0,.93-.48v0h0c3.37-3.24,6.81-6.41,10.28-9.54,1.74-1.56,3.5-3.09,5.27-4.62S70.46,32.9,72.28,31.43Z"/></g><path class="cls-1" d="M109.74,25.89l-.35-23.51L52.54,53.5A4.62,4.62,0,0,0,51,56.93V80a.3.3,0,0,0,.51.21l57-51.4A4.06,4.06,0,0,0,109.74,25.89Z"/><path class="cls-2" d="M108.15,1,3.75,16.11a3,3,0,0,0-2.58,3.4c1,7.83,7.56,28.7,49.33,35.25a1.13,1.13,0,0,0,.9-.26L109,2.88A1.08,1.08,0,0,0,108.15,1Z"/><path class="cls-3" d="M50.92,56.47c0,7.64.1,16.58.1,22.94a1,1,0,0,1-1.23.93C43.29,78.52,11.7,75,2.53,50.76A25.15,25.15,0,0,1,1,42.61l.09-24.22c.67,7.13,6.12,28.9,48,35.89A2.22,2.22,0,0,1,50.92,56.47Z"/><g class="cls-4"><path class="cls-5" d="M47.89,70.84c-.18-2.35-.29-4.71-.36-7.06s-.12-4.71-.13-7.07l.42.49c-3.37-.43-6.71-1-10-1.67-1.66-.36-3.31-.75-5-1.19a23.84,23.84,0,0,1-4.77-1.79A30.7,30.7,0,0,0,33,53.83c1.65.34,3.31.63,5,.89,3.33.54,6.68,1,10,1.51h0a.49.49,0,0,1,.42.48c0,2.36,0,4.71-.14,7.07S48.07,68.49,47.89,70.84Z"/></g><g class="cls-4"><path class="cls-5" d="M72.28,31.43c-1.63,1.68-3.27,3.35-5,5S64,39.66,62.27,41.26c-3.42,3.19-6.87,6.34-10.39,9.42l0,0a3,3,0,0,1-1.32.64,6,6,0,0,1-1.32.19,12.5,12.5,0,0,1-2.6-.18,20.94,20.94,0,0,1-2.48-.63,24.28,24.28,0,0,1-2.39-.87c.82.21,1.63.43,2.46.61a21,21,0,0,0,2.48.39,12,12,0,0,0,2.47,0,6.33,6.33,0,0,0,1.18-.24,2.69,2.69,0,0,0,.93-.48v0h0c3.37-3.24,6.81-6.41,10.28-9.54,1.74-1.56,3.5-3.09,5.27-4.62S70.46,32.9,72.28,31.43Z"/></g></g></svg>