<svg xmlns="http://www.w3.org/2000/svg" viewBox="0 0 136.58 123.22"><defs><style>.cls-1{fill:#6d443c;}.cls-1,.cls-2,.cls-3{stroke:#2c0506;stroke-linecap:round;stroke-linejoin:round;stroke-width:2px;}.cls-2{fill:#601c0f;}.cls-3{fill:#692d1e;}</style></defs><title>CupCakeМонтажная область 47</title><g id="Цвета"><path class="cls-1" d="M66.53,89.26c9.6-8.86,49.09,2.15,56.27,4.25l1.06-1c4-3.86,6.63-6.73,7.24-7.46,5-5.88,9.52-18.57-8.15-22.43,0,0,10.87-11.32-2-15.18,0,0,.9-14.5-12.92-12.69,0,0,2.94-12.24-14-11.33,0,0,.91-9.06-11.1-9.51S73.5,1,73.5,1,58.84,22.57,58.09,54.07c0,1.76-.05,3.54,0,5.33A60.86,60.86,0,0,0,60.91,78,38.43,38.43,0,0,0,66.53,89.26Z"/><path class="cls-2" d="M63.86,121.68c.49.12,1.35.42,1.89.54-70.49,0-73.3-55.73-55.62-59.59,0,0-10.88-11.32,2-15.18,0,0-.91-14.5,12.91-12.69,0,0-2.94-12.24,14.05-11.33,0,0-.91-9.06,11.1-9.51A109.29,109.29,0,0,1,73.5,1,92.5,92.5,0,0,0,64,21.22a6.71,6.71,0,0,1-2.72,3.5h0c-11.1,7-5.32,15-5.32,15-16.54,8.36-7.12,18.32-7.12,18.32-14,5.79-5.31,19-5.31,19C33.45,87.7,49.85,92.49,49.85,92.49c-14.58,13.24-3.42,22.76,4.48,25.6A40.84,40.84,0,0,0,63.86,121.68Z"/><path class="cls-3" d="M60.91,78a37.88,37.88,0,0,0,5.62,11.31l-.78,33c-.54-.12-1.4-.42-1.89-.54a40.84,40.84,0,0,1-9.53-3.59c-7.9-2.84-19.06-12.36-4.48-25.6,0,0-16.4-4.79-6.31-15.44,0,0-8.72-13.2,5.31-19,0,0-9.42-10,7.12-18.32,0,0-5.78-8.06,5.32-15h0A6.69,6.69,0,0,0,64,21.37a109.87,109.87,0,0,0-5.89,32.7c0,1.76-.06,3.54,0,5.32A60.76,60.76,0,0,0,60.91,78Z"/></g></svg>