<svg xmlns="http://www.w3.org/2000/svg" viewBox="0 0 117.48 103.76"><defs><style>.cls-1{fill:#4b1e0c;}.cls-1,.cls-2{stroke:#42210b;stroke-miterlimit:10;stroke-width:2px;}.cls-2{fill:#692d1e;}</style></defs><title>CupCakeМонтажная область 45</title><g id="Цвета"><path class="cls-1" d="M58.41,79.69v-45h0V29.4H1a14.93,14.93,0,0,0,1,5.3,4.32,4.32,0,0,0,.52,1.19,18.63,18.63,0,0,0,1.1,2,34.49,34.49,0,0,1,3.57,7c5.1,14.51,3.74,34.57,3.74,34.57,0,12.07,18.44,22,42.15,23.32a5,5,0,0,0,5.31-5v-18Z"/><path class="cls-2" d="M115.79,29.4H58.4V57.78C26.7,57.78,1,45.07,1,29.4S26.7,1,58.4,1,115.79,13.71,115.79,29.4Z"/><path class="cls-2" d="M105.72,70.46c.2-11.32,1.84-30.59,10.07-41.06,0,0-46.81-14.34-57.39-4.58V79.43H96.58A9.14,9.14,0,0,0,105.72,70.46Z"/></g></svg>