<svg xmlns="http://www.w3.org/2000/svg" viewBox="0 0 110.24 70.27"><defs><style>.cls-1{fill:#fff;stroke:#000;stroke-linecap:round;stroke-linejoin:round;stroke-width:2px;}</style></defs><title>EmptyМонтажная область 10</title><g id="Слои"><path class="cls-1" d="M108.88,2.88l-6.55,5.87-1.57,1.4-5.15,4.61L93.8,16.38,90.09,19.7l-1.88,1.69-7.53,6.74-1.83,1.64-.9.8L76.4,32l-1.25,1.12-4,3.54c-.55.49-1.09,1-1.6,1.44l-7.91,7.08-.27.24L51.25,54.49a1.09,1.09,0,0,1-.9.26C8.58,48.21,2,27.34,1,19.51A3,3,0,0,1,3.6,16.1l8.28-1.2L108,1A1.08,1.08,0,0,1,108.88,2.88Z"/><polygon class="cls-1" points="109.24 2.17 109.24 17.38 51.25 69 51.25 54.5 109.24 2.17"/><path class="cls-1" d="M50.36,54.76C22.26,50.35,10.08,39.47,4.82,30.43A28.92,28.92,0,0,1,1,19.51V34c1,7.83,7.56,28.7,49.34,35.25a1.1,1.1,0,0,0,.89-.26V54.5A1.1,1.1,0,0,1,50.36,54.76Z"/><path class="cls-1" d="M108.88,2.88l-6.55,5.87-1.57,1.4-5.15,4.61L93.8,16.38,90.09,19.7l-1.88,1.69-7.53,6.74c-.62.55-1.23,1.09-1.83,1.64l-.9.8L76.4,32l-1.25,1.12-4,3.54c-.55.49-1.09,1-1.6,1.44-3.65,3.25-6.49,5.8-7.91,7.08l-.27.24-.23.2a1.07,1.07,0,0,1-.89.26C24.78,40.27,14.7,24.36,11.88,14.9L108,1A1.08,1.08,0,0,1,108.88,2.88Z"/><polygon class="cls-1" points="109.24 2.17 109.24 17.38 60.86 60.41 60.86 45.91 109.24 2.17"/></g></svg>