<svg xmlns="http://www.w3.org/2000/svg" viewBox="0 0 551.83 384.85"><defs><style>.cls-1{fill:#534741;}.cls-1,.cls-2,.cls-3,.cls-4,.cls-8{stroke:#736357;}.cls-1,.cls-2,.cls-3,.cls-4,.cls-7,.cls-8,.cls-9{stroke-linecap:round;stroke-linejoin:round;}.cls-1,.cls-2,.cls-3,.cls-4,.cls-7,.cls-8{stroke-width:3.36px;}.cls-2,.cls-7{fill:none;}.cls-3{fill:#998675;}.cls-4{fill:#c7b299;}.cls-5{fill:#b3b3b3;}.cls-6,.cls-8{fill:#736357;}.cls-7{stroke:#f2f2f2;opacity:0.5;}.cls-9{fill:#dcc992;}.cls-12,.cls-9{stroke:#d69055;}.cls-11,.cls-12,.cls-9{stroke-width:2px;}.cls-10{fill:#171e58;}.cls-11,.cls-12{fill:#e8d9b9;stroke-miterlimit:10;}.cls-11{stroke:#171e58;}</style></defs><title>BoxesМонтажная область 8</title><g id="Дополнения"><polygon class="cls-1" points="216.25 66.44 359.32 149.07 144.79 273.03 1.68 190.37 216.25 66.44"/><line class="cls-2" x1="144.8" y1="273" x2="359.32" y2="149.05"/><path class="cls-3" d="M216.25,1.68c15.52,3.32,33,3.06,33,56.26,0,0,1.82,18.32-18.38,15l-14.64-6.52Z"/><polygon class="cls-3" points="359.32 149.07 359.32 121.49 216.25 38.87 216.25 66.44 359.32 149.07"/><polygon class="cls-4" points="216.25 1.68 1.68 125.6 1.68 190.37 216.25 66.44 216.25 1.68"/><polygon class="cls-3" points="1.68 190.37 1.68 162.79 144.8 245.45 144.79 273.03 1.68 190.37"/><polygon class="cls-5" points="206.86 93.57 312.37 154.5 154.17 245.91 48.63 184.95 206.86 93.57"/><polygon class="cls-6" points="174.72 237.85 144.79 273.03 174.72 255.71 174.72 237.85"/><polygon class="cls-6" points="389.25 113.99 359.32 149.17 389.25 131.85 389.25 113.99"/><path class="cls-3" d="M1.68,125.6c15.52,3.33,33,3.07,33,56.26,0,0,1.82,18.33-18.38,15L1.68,190.37Z"/><line class="cls-7" x1="232.78" y1="120.05" x2="174.72" y2="121.95"/><line class="cls-7" x1="193.37" y1="201.29" x2="126.14" y2="203.49"/><line class="cls-7" x1="238.27" y1="132.36" x2="149.01" y2="135.28"/><line class="cls-7" x1="214.42" y1="185.49" x2="69.69" y2="190.23"/><polygon class="cls-8" points="389.25 166.42 220.49 264.27 335.62 330.74 504.74 233.1 389.25 166.42"/><polygon class="cls-3" points="389.25 166.42 550.15 259.31 550.15 206.88 389.25 113.99 389.25 166.42"/><polygon class="cls-4" points="220.49 264.27 389.25 166.42 389.25 113.99 174.72 237.85 220.49 264.27"/><polygon class="cls-9" points="325.08 239.79 325.2 197.43 359.11 198.97 358.99 241.33 325.08 239.79"/><polygon class="cls-9" points="397.56 237.88 397.44 280.24 416.16 291.05 416.29 248.69 397.56 237.88"/><path class="cls-10" d="M384.71,215.53l1.66.44a11,11,0,0,1,7.35,6.4h0a42,42,0,0,1,3.22,14.1l.46,8.8.59,35.84-2.57-93.59-4.75-7.22-9.08-3.12-12.18,2.88-8.25,9.56-2.06,13.82L359,241.33l3.07-10a34.53,34.53,0,0,1,3.21-6.67l2.2-2.63a16.87,16.87,0,0,1,1.22-1.32c1.24-1.22,3.46-3.34,4.44-3.44l2.68-.81a20.36,20.36,0,0,1,5.48-.87Z"/><path class="cls-10" d="M469.21,189.51l-39.07,22.54c1.11-12,1.57-19.89,1.4-24a36.42,36.42,0,0,0-2.17-11.56,27.93,27.93,0,0,0-5.82-9.17,45.18,45.18,0,0,0-10.2-7.75,51.4,51.4,0,0,0-19.88-6.23,70.06,70.06,0,0,0-23.16,1.29,78,78,0,0,0-22.22,8.6,67.36,67.36,0,0,0-13.27,9.63A36.42,36.42,0,0,0,327.29,183,42.22,42.22,0,0,0,324,196.06l-.15,0-.14,45,36.57,1.66.12-43.64a36,36,0,0,1,3-11,16.31,16.31,0,0,1,6.67-6.88,19.79,19.79,0,0,1,9.25-2.77,15.52,15.52,0,0,1,8.44,2,13.52,13.52,0,0,1,4.57,4,17.3,17.3,0,0,1,2.31,6.4c.54,2.85,1,8.63,1.32,17.17l.28,29.89L396.12,281l20.05,11.58,77.71-44.88.12-43.87ZM357.68,240l-31.28-1.41.11-39.73,20.52.94,10.76.49Zm57.17,48.82-16.08-9.29.11-39.31,14.95,8.63,1.13.65ZM463,220.21l-46.68,26.95-3.81-2.2-13.6-7.85L398.6,208c-.34-8.82-.79-14.58-1.35-17.59a19.91,19.91,0,0,0-2.73-7.39,16,16,0,0,0-5.43-4.84,18.36,18.36,0,0,0-9.86-2.38,22.41,22.41,0,0,0-10.47,3.13,18.7,18.7,0,0,0-7.73,8A36.78,36.78,0,0,0,358,197.59l-31.3-1.42a38.62,38.62,0,0,1,3-12.07,33.19,33.19,0,0,1,7-9.35,64.49,64.49,0,0,1,12.73-9.22,74.8,74.8,0,0,1,21.48-8.31A66.85,66.85,0,0,1,393.16,156a48.75,48.75,0,0,1,18.86,5.9,41.64,41.64,0,0,1,9.6,7.28,25,25,0,0,1,5.28,8.28,33.83,33.83,0,0,1,2,10.72c.17,4.14-.34,12.66-1.53,25.33l-.09.85,2.12,1.21,39.82-23,20.83,12Z"/><path class="cls-11" d="M490,204.59,463,220.21l-46.68,26.95-3.81-2.2-13.6-7.85L398.6,208c-.34-8.82-.79-14.58-1.35-17.59a19.91,19.91,0,0,0-2.73-7.39,16,16,0,0,0-5.43-4.84,18.36,18.36,0,0,0-9.86-2.38,22.41,22.41,0,0,0-10.47,3.13,18.7,18.7,0,0,0-7.73,8A36.78,36.78,0,0,0,358,197.59l-31.3-1.42a38.62,38.62,0,0,1,3-12.07,33.19,33.19,0,0,1,7-9.35,64.49,64.49,0,0,1,12.73-9.22,74.8,74.8,0,0,1,21.48-8.31A66.85,66.85,0,0,1,393.16,156a48.75,48.75,0,0,1,18.86,5.9,41.64,41.64,0,0,1,9.6,7.28,25,25,0,0,1,5.28,8.28,33.83,33.83,0,0,1,2,10.72c.17,4.14-.34,12.66-1.53,25.33l-.09.85,2.12,1.21,39.82-23Z"/><polygon class="cls-9" points="248.8 261.13 248.8 300.77 285.03 302.92 285.03 263.28 248.8 261.13"/><polygon class="cls-9" points="368.51 288.41 368.51 328.05 287.17 280.53 287.17 240.9 368.51 288.41"/><path class="cls-12" d="M400.31,270.06l-31.79,18.35L307.15,253q-11.17-6.45-20-12.08a32.13,32.13,0,0,1,.16,8.51L285,263.28l-36.23-2.15,7.37-41.7,28.23-16.3Z"/><path class="cls-10" d="M400.31,268.37l-115.19-66.5-.72-.42-29.55,17.06-7.26,41.09-.25,1.41v41.13l39.15,2.32V303L289,284.57v-1.29l78.08,45.6,1.45.85,1.46-.84,31.8-18.36V269.21Zm-116.74,33-33.32-2V262.68l33.32,2Zm83.49,24.14L289,279.9l0-32.89a32.41,32.41,0,0,0,0-3.27c5.24,3.3,11.11,6.82,17.48,10.5l60.64,35Zm-79.15-85.87-1.63-1-.56,2.42v7.14l-1.93,13.59-33.27-2,7-39.42,26.91-15.54,113,65.25-28.88,16.67Z"/><polygon class="cls-3" points="174.72 290.27 335.62 383.17 335.62 330.74 174.72 237.85 174.72 290.27"/><polygon class="cls-4" points="335.62 383.17 550.15 259.31 550.15 206.88 335.62 330.74 335.62 383.17"/></g></svg>