<svg xmlns="http://www.w3.org/2000/svg" viewBox="0 0 679.19 473.31"><defs><style>.cls-1{fill:#534741;}.cls-1,.cls-2,.cls-3,.cls-7{stroke:#736357;}.cls-1,.cls-2,.cls-3,.cls-6,.cls-7,.cls-8{stroke-linecap:round;stroke-linejoin:round;}.cls-1,.cls-2,.cls-3,.cls-6,.cls-7{stroke-width:3.36px;}.cls-2{fill:#998675;}.cls-3{fill:#c7b299;}.cls-4{fill:#b3b3b3;}.cls-5,.cls-7{fill:#736357;}.cls-6{fill:none;stroke:#f2f2f2;opacity:0.5;}.cls-8{fill:#dcc992;}.cls-11,.cls-8{stroke:#d69055;stroke-width:2px;}.cls-9{fill:#171e58;}.cls-10{fill:#fff;}.cls-11{fill:#e8d9b9;stroke-miterlimit:10;}</style></defs><title>BoxesArtboard 3</title><g id="Дополнения"><polygon class="cls-1" points="266.07 81.48 442.38 183.3 178.03 335.92 1.68 234.06 266.07 81.48"/><path class="cls-2" d="M266.07,1.68C285.2,5.77,306.76,5.46,306.76,71c0,0,2.24,22.58-22.64,18.51l-18.05-8Z"/><polygon class="cls-2" points="442.38 183.3 442.38 149.32 266.07 47.5 266.07 81.48 442.38 183.3"/><polygon class="cls-3" points="266.07 1.68 1.68 154.26 1.68 234.06 266.07 81.48 266.07 1.68"/><polygon class="cls-2" points="1.68 234.06 1.68 200.08 178.03 301.94 178.03 335.92 1.68 234.06"/><polygon class="cls-4" points="267.53 108.22 397.54 183.3 189.58 302.5 59.54 227.38 267.53 108.22"/><polygon class="cls-5" points="214.91 292.56 178.03 335.92 214.91 314.57 214.91 292.56"/><polygon class="cls-5" points="479.25 139.94 442.38 183.3 479.25 161.95 479.25 139.94"/><path class="cls-2" d="M1.68,154.26c19.13,4.09,40.69,3.77,40.69,69.32,0,0,2.24,22.58-22.65,18.51l-18-8Z"/><line class="cls-6" x1="302.93" y1="134.02" x2="231.4" y2="136.37"/><line class="cls-6" x1="237.89" y1="247.52" x2="155.05" y2="250.23"/><line class="cls-6" x1="309.7" y1="149.19" x2="199.72" y2="152.8"/><line class="cls-6" x1="263.82" y1="228.05" x2="85.48" y2="233.89"/><polygon class="cls-2" points="479.25 204.55 677.51 319.01 677.51 254.41 479.25 139.94 479.25 204.55"/><polygon class="cls-3" points="271.3 325.12 479.25 204.55 479.25 139.94 214.91 292.56 271.3 325.12"/><polygon class="cls-7" points="479.25 204.55 271.3 325.12 413.17 407.03 621.56 286.71 479.25 204.55"/><path class="cls-8" d="M536.84,295.59l-45.47-10.07-36.9-11.77-32.11-25.27v42.71l.06,0a30.85,30.85,0,0,0,5.28,15.87q9.58,15,38.27,31.58,28.33,16.35,57.78,17.54t53.75-12.83q22.89-13.22,22.56-28.14L600,272l-27.59,12.76Z"/><path class="cls-9" d="M528.27,358c-1.52,0-3,0-4.59-.08-19.82-.81-39.53-6.79-58.57-17.78-19.28-11.13-32.35-22-38.86-32.14a33.13,33.13,0,0,1-5.51-15.83l0,0-.07-1V244.93l34.67,27.28,36.6,11.67,44.87,9.93L572,283.09l29.81-13.82,0,46c.23,10.54-7.64,20.52-23.42,29.63A98.82,98.82,0,0,1,528.27,358ZM424.08,290.49l.06.69a29.33,29.33,0,0,0,5,15c6.2,9.72,18.88,20.15,37.67,31,18.56,10.71,37.73,16.54,57,17.32a96,96,0,0,0,52.82-12.61c14.61-8.42,21.9-17.38,21.7-26.6l0-40.62-25.14,11.63-36.27,11.08L491,287.21l-37.59-12.1L424.08,252Z"/><path class="cls-10" d="M464.6,243.41q-.94,10,16.69,21.12l1.13-.65Q474.91,249.8,493.58,239a71.19,71.19,0,0,1,12.67-5.74V212a162.85,162.85,0,0,0-22.14,10.72Q465.53,233.45,464.6,243.41Z"/><path class="cls-11" d="M466,294.12q-28.7-16.56-38.27-31.57t-2-29.11q7.56-14.1,31-27.64a210.75,210.75,0,0,1,21.11-10.35l29,16.74a164.62,164.62,0,0,0-22.14,10.72q-18.57,10.72-19.51,20.69t16.7,21.12l1.12-.65q-7.5-14.08,11.16-24.86a72.24,72.24,0,0,1,40.16-9.58q21.84,1,42.86,13.1,22.61,13.05,22.93,28T577.5,298.84q-24.29,14-53.75,12.83T466,294.12Zm86.49-19.87q-.75-4.71-10.51-10.34-16.69-9.65-29.64-2.17C508.06,264.19,553,277.39,552.46,274.25Z"/><path class="cls-9" d="M542.81,262.41c-11.64-6.72-22.19-7.46-31.36-2.17-4.85,2.8-7.17,6.19-6.91,10.09s2.75,7.07,7.38,9.75a49.93,49.93,0,0,0,19.29,6.52,38.82,38.82,0,0,0,4.48.27,24.68,24.68,0,0,0,12.47-3c4.6-2.66,6.62-6,6-9.89C553.57,270.26,549.86,266.47,542.81,262.41Zm3.63,18.47c-3.85,2.22-8.83,3-14.84,2.3a46.63,46.63,0,0,1-18-6.09c-3.57-2.07-5.48-4.42-5.66-7s1.53-4.76,5.2-6.87a22,22,0,0,1,11.18-3.05c5.15,0,10.7,1.73,16.73,5.22,7.48,4.31,9.38,7.34,9.67,9.12C550.9,275.39,551.32,278.07,546.44,280.88Z"/><path class="cls-9" d="M578,241.24c-14.18-8.19-28.86-12.67-43.65-13.34A76.33,76.33,0,0,0,508,231.25V210.89l-1.46-.85-28.6-16.51-.8.34a213.15,213.15,0,0,0-21.28,10.43C440,213.46,429.32,223,424.16,232.63c-5.32,10-4.62,20.33,2.09,30.85,6.5,10.19,19.58,21,38.86,32.14,19.05,11,38.76,17,58.58,17.78,1.53.06,3,.09,4.57.09a98.84,98.84,0,0,0,50.11-13.16c15.78-9.11,23.65-19.09,23.42-29.66S593.55,250.22,578,241.24Zm-1.35,56.1A95.85,95.85,0,0,1,523.82,310c-19.25-.78-38.43-6.6-57-17.32-18.79-10.85-31.47-21.28-37.67-31-6.08-9.53-6.71-18.48-2-27.38,4.84-9.06,15.06-18.13,30.34-27a205.76,205.76,0,0,1,20.14-9.91l24.79,14.32a168.16,168.16,0,0,0-19.23,9.52c-13,7.52-19.68,14.72-20.37,22s5,14.85,17.49,22.74l.88.56.12-.07.42.26,3.47-2-.78-1.47c-4.53-8.48-1.09-15.86,10.5-22.55a70.8,70.8,0,0,1,39.21-9.36c14.22.63,28.38,5,42.08,12.88,14.44,8.33,21.86,17.25,22.07,26.51S591.25,288.92,576.64,297.34Z"/><polygon class="cls-9" points="510.94 310.42 511.21 355 543.94 355.15 564.8 349.42 585.95 337.85 599.61 322.69 600.07 302.39 601.37 275.21 585.95 295.45 566.66 306.08 547.33 311.77 510.94 310.42"/><polygon class="cls-9" points="496.72 306.55 496.72 351.85 474.97 345.2 474.94 298.91 496.72 306.55"/><polygon class="cls-9" points="525.27 258.63 545.65 266.6 552.47 272.67 549.86 280.43 544.33 283.42 535.78 285.69 525.27 283.42 509.46 277.58 504.52 270.21 509.46 262.07 525.27 258.63"/><polygon class="cls-8" points="313.74 325.87 313.74 372.76 356.6 375.31 356.6 328.42 313.74 325.87"/><polygon class="cls-8" points="455.37 358.14 455.37 405.04 359.14 348.83 359.14 301.94 455.37 358.14"/><path class="cls-11" d="M493,336.43l-37.62,21.72-72.6-41.92q-13.23-7.64-23.63-14.3a38.36,38.36,0,0,1,.18,10.08l-2.72,16.41-42.86-2.55,8.72-49.34,33.39-19.28Z"/><path class="cls-9" d="M493,334.44,356.72,255.76l-.87-.5-35,20.18-8.59,48.62-.3,1.67v48.66l46.32,2.75v-1.71l2.95-21.83v-1.53l92.37,54,1.72,1,1.73-1,37.61-21.71V335.44Zm-138.11,39-39.42-2.34V327.7L354.88,330ZM453.65,402l-92.38-53.95,0-38.92c.05-1.33.06-2.62,0-3.86,6.2,3.9,13.14,8.07,20.68,12.42l71.74,41.42ZM360,300.44l-1.93-1.23-.66,2.87v8.45l-2.28,16.07-39.37-2.34L324,277.62l31.83-18.38,133.69,77.19-34.17,19.72Z"/><polygon class="cls-2" points="214.91 357.17 413.17 471.63 413.17 407.03 214.91 292.56 214.91 357.17"/><polygon class="cls-3" points="413.17 471.63 677.51 319.01 677.51 254.41 413.17 407.03 413.17 471.63"/></g></svg>