<svg xmlns="http://www.w3.org/2000/svg" viewBox="0 0 371.31 260.86"><defs><style>.cls-1{fill:#534741;}.cls-1,.cls-2,.cls-3,.cls-7,.cls-8,.cls-9{stroke:#736357;}.cls-1,.cls-10,.cls-2,.cls-3,.cls-6,.cls-7,.cls-8,.cls-9{stroke-linecap:round;stroke-linejoin:round;}.cls-1,.cls-2,.cls-3,.cls-6{stroke-width:3.36px;}.cls-2,.cls-8{fill:#998675;}.cls-3,.cls-9{fill:#c7b299;}.cls-4{fill:#b3b3b3;}.cls-5,.cls-7{fill:#736357;}.cls-6{fill:none;stroke:#f2f2f2;opacity:0.5;}.cls-7,.cls-8,.cls-9{stroke-width:2.75px;}.cls-10{fill:#dcc992;}.cls-10,.cls-12{stroke:#d69055;stroke-width:0.75px;}.cls-11{fill:#171e58;}.cls-12{fill:#e8d9b9;stroke-miterlimit:10;}</style></defs><title>BoxesМонтажная область 12</title><g id="Дополнения"><polygon class="cls-1" points="125.18 53.69 240.07 120.04 116.61 192.16 1.68 125.78 125.18 53.69"/><path class="cls-2" d="M125.18,1.68c12.46,2.67,26.51,2.46,26.51,45.18,0,0,1.47,14.71-14.75,12.06l-11.76-5.23Z"/><polygon class="cls-2" points="240.07 120.04 240.07 97.89 125.18 31.54 125.18 53.69 240.07 120.04"/><polygon class="cls-3" points="125.18 1.68 1.68 73.77 1.68 125.78 125.18 53.69 125.18 1.68"/><polygon class="cls-2" points="1.68 125.78 1.68 103.63 116.61 170.01 116.61 192.16 1.68 125.78"/><polygon class="cls-4" points="127.96 70.07 212.69 119 124.13 170.38 39.39 121.42 127.96 70.07"/><polygon class="cls-5" points="140.64 163.9 116.61 192.16 140.64 178.25 140.64 163.9"/><polygon class="cls-5" points="264.1 91.78 240.07 120.04 264.1 106.13 264.1 91.78"/><path class="cls-2" d="M1.68,73.77C14.14,76.44,28.2,76.23,28.2,119c0,0,1.46,14.71-14.76,12.06L1.68,125.78Z"/><line class="cls-6" x1="153.63" y1="86.83" x2="107.01" y2="88.35"/><line class="cls-6" x1="155.61" y1="134.55" x2="101.63" y2="136.32"/><line class="cls-6" x1="158.04" y1="96.71" x2="86.37" y2="99.06"/><line class="cls-6" x1="172.52" y1="121.86" x2="56.29" y2="125.67"/><polygon class="cls-7" points="264.1 126.27 170.33 181.04 246.47 225 340.07 170.13 264.1 126.27"/><polygon class="cls-8" points="264.1 126.27 369.93 187.37 369.93 152.88 264.1 91.78 264.1 126.27"/><polygon class="cls-9" points="140.64 198.39 264.1 126.27 264.1 91.78 140.64 163.9 140.64 198.39"/><polygon class="cls-8" points="140.64 198.39 246.47 259.49 246.47 225 140.64 163.9 140.64 198.39"/><polygon class="cls-10" points="218.09 161.55 218.09 123.98 236.15 179.54 236.15 217.11 218.09 161.55"/><polygon class="cls-10" points="254.8 190.3 254.79 227.88 236.15 217.11 236.15 179.54 254.8 190.3"/><polygon class="cls-10" points="310.47 179.17 310.47 216.74 292.27 206.24 292.27 168.67 310.47 179.17"/><polygon class="cls-11" points="248.43 139.12 280.37 158.07 255.71 172.79 245.47 141.7 248.43 139.12"/><path class="cls-12" d="M327.7,148.21l-10.35,6,18.19,10.5-25.07,14.48-18.2-10.5L254.8,190.3l-18.65-10.76L218.09,124l23.46-13.55,56.83,32.81,10.35-6Zm-54.39,9.51-10.93-6.31q-3.09-1.78-8.1-4.94a61.29,61.29,0,0,1-5.14-3.38l-.71.41a40.78,40.78,0,0,1,4.31,8.2l5.08,15Z"/><path class="cls-11" d="M254.87,145.54c-3.47-2.19-4.55-2.92-4.86-3.15l-.46-.81-2.69,1.56.65,1a39,39,0,0,1,4.18,7.94l5.52,16.23,18.31-10.57-12.59-7.27Q259.87,148.68,254.87,145.54ZM258.43,165l-4.66-13.72a39.24,39.24,0,0,0-2.62-5.51l2.54,1.61q5,3.17,8.14,5l9.27,5.36Z"/><path class="cls-11" d="M328.8,159.53V147.58L308.73,136l-10.35,6-56.83-32.81L217,123.34v38.21l18.25,56.31,19.55,11.29,37.48-21.64L310.47,218l26.17-15.12V164.06Zm-93.75,26.74v23.88l-15.86-48.77V131l8.66,26.61,7.2,22.15Zm18.64,13.44V226l-16.43-9.49v-35l3.13,1.81,13.3,7.68Zm55.67-11.14v26.26l-16-9.23v-35l16,9.23Zm-17.09-21.18L254.8,189l-14.26-8.24-3.47-2-17.65-54.3,22.13-12.78,56.28,32.49.55.32,10.35-6,16.76,9.67-10.35,6,18.19,10.5-2.48,1.44-20.38,11.76Z"/><polygon class="cls-9" points="246.47 259.49 369.93 187.37 369.93 152.88 246.47 225 246.47 259.49"/></g></svg>