<svg xmlns="http://www.w3.org/2000/svg" viewBox="0 0 341.27 158.06"><defs><style>.cls-1,.cls-2{fill:#692d1e;}.cls-1{stroke:#2c0506;stroke-linecap:round;stroke-linejoin:round;stroke-width:2px;}.cls-3{fill:#2c0506;}</style></defs><title>HoneyМонтажная область 29</title><g id="Цвета"><path class="cls-1" d="M182.78,19.93l-.31.76a10.62,10.62,0,0,1-15,5.31l-1.58-.88a10.62,10.62,0,0,1-4.7-13.24l.51-1.27c1.8-4.49,15.82-11.81,17.93-9C177,7.38,184.32,16.1,182.78,19.93Z"/><path class="cls-2" d="M170.33,12.54c-.39-6.32,9.3-10.91,9.3-10.91s-7.59,8.68-3.47,16"/><path class="cls-3" d="M170.33,12.54a6.78,6.78,0,0,1,.46-3.83A11.37,11.37,0,0,1,173,5.42a18.55,18.55,0,0,1,2.92-2.62A23.81,23.81,0,0,1,179.2.74a1,1,0,0,1,1.32.43,1,1,0,0,1-.1,1.05l0,.06A26.65,26.65,0,0,0,178,5.69a22.17,22.17,0,0,0-1.76,3.76,14.55,14.55,0,0,0-.79,4,12.28,12.28,0,0,0,.68,4.18,9.34,9.34,0,0,1-1.71-4.11A13,13,0,0,1,174.71,9a18.73,18.73,0,0,1,1.64-4.23A21.14,21.14,0,0,1,178.88,1l1.17,1.54a31.93,31.93,0,0,0-3.14,1.79A24.63,24.63,0,0,0,174,6.47a13.23,13.23,0,0,0-2.4,2.67A8,8,0,0,0,170.33,12.54Z"/><path class="cls-1" d="M23.35,107.26l-.3.76a10.62,10.62,0,0,1-15,5.3l-1.59-.88A10.61,10.61,0,0,1,1.77,99.21l.5-1.27C4.08,93.45,18.1,86.13,20.2,89,17.58,94.71,24.9,103.43,23.35,107.26Z"/><path class="cls-2" d="M10.91,99.87C10.52,93.54,20.2,89,20.2,89s-7.58,8.67-3.46,16"/><path class="cls-3" d="M10.91,99.87A6.68,6.68,0,0,1,11.36,96a11.25,11.25,0,0,1,2.17-3.3,18.47,18.47,0,0,1,2.91-2.61,22.17,22.17,0,0,1,3.34-2.06,1,1,0,0,1,1.32.42A1,1,0,0,1,21,89.55l0,.06A25.91,25.91,0,0,0,18.61,93a21.33,21.33,0,0,0-1.76,3.75,15,15,0,0,0-.8,4,12,12,0,0,0,.69,4.17A9.37,9.37,0,0,1,15,100.87a12.92,12.92,0,0,1,.27-4.55,17.9,17.9,0,0,1,1.63-4.23,21.2,21.2,0,0,1,2.54-3.78l1.16,1.54a34,34,0,0,0-3.14,1.78,24.88,24.88,0,0,0-2.9,2.17,12.88,12.88,0,0,0-2.4,2.66A7.82,7.82,0,0,0,10.91,99.87Z"/><path class="cls-1" d="M165.06,29.63l-.3.76a10.62,10.62,0,0,1-15,5.31l-1.59-.88a10.61,10.61,0,0,1-4.69-13.23l.51-1.27c1.8-4.49,15.82-11.82,17.92-9C159.29,17.08,166.61,25.81,165.06,29.63Z"/><path class="cls-2" d="M152.62,22.25c-.39-6.33,9.29-10.91,9.29-10.91s-7.58,8.67-3.46,16"/><path class="cls-3" d="M152.62,22.25a6.72,6.72,0,0,1,.45-3.84,11.33,11.33,0,0,1,2.17-3.29,17.53,17.53,0,0,1,2.91-2.61,22.17,22.17,0,0,1,3.34-2.06,1,1,0,0,1,1.32.42,1,1,0,0,1-.11,1.06l0,.06a26.92,26.92,0,0,0-2.33,3.41,22.07,22.07,0,0,0-1.76,3.75,14.93,14.93,0,0,0-.8,4,12.45,12.45,0,0,0,.69,4.17,9.42,9.42,0,0,1-1.72-4.11A12.89,12.89,0,0,1,157,18.7a18.15,18.15,0,0,1,1.63-4.24,20.77,20.77,0,0,1,2.54-3.77l1.16,1.54A35.34,35.34,0,0,0,159.19,14a24.88,24.88,0,0,0-2.9,2.17,12.63,12.63,0,0,0-2.4,2.66A7.77,7.77,0,0,0,152.62,22.25Z"/><path class="cls-1" d="M147.35,39.34l-.31.76a10.62,10.62,0,0,1-15,5.3l-1.58-.88a10.61,10.61,0,0,1-4.7-13.23l.51-1.27c1.8-4.49,15.82-11.81,17.93-9C141.58,26.79,148.89,35.51,147.35,39.34Z"/><path class="cls-2" d="M134.91,32C134.52,25.62,144.2,21,144.2,21s-7.59,8.67-3.46,16"/><path class="cls-3" d="M134.91,32a6.68,6.68,0,0,1,.45-3.83,11.25,11.25,0,0,1,2.17-3.3,18.47,18.47,0,0,1,2.91-2.61,21.68,21.68,0,0,1,3.34-2.06,1,1,0,0,1,1.31.42,1,1,0,0,1-.1,1.06l-.05.06a26,26,0,0,0-2.34,3.41,21.28,21.28,0,0,0-1.75,3.75,14.56,14.56,0,0,0-.8,4,12,12,0,0,0,.69,4.17A9.25,9.25,0,0,1,139,33a12.92,12.92,0,0,1,.26-4.55,18.37,18.37,0,0,1,1.64-4.23,20.67,20.67,0,0,1,2.54-3.78l1.16,1.54a34,34,0,0,0-3.14,1.78,25.87,25.87,0,0,0-2.91,2.17,13.48,13.48,0,0,0-2.4,2.66A7.93,7.93,0,0,0,134.91,32Z"/><path class="cls-1" d="M129.64,49l-.31.76a10.61,10.61,0,0,1-15,5.3l-1.58-.88A10.61,10.61,0,0,1,108.05,41l.51-1.27c1.8-4.49,15.82-11.81,17.92-9C123.86,36.49,131.18,45.21,129.64,49Z"/><path class="cls-2" d="M117.19,41.65c-.39-6.32,9.29-10.91,9.29-10.91s-7.58,8.68-3.46,16"/><path class="cls-3" d="M117.19,41.65a6.77,6.77,0,0,1,.46-3.83,11.35,11.35,0,0,1,2.16-3.3,18.54,18.54,0,0,1,2.92-2.61,23.24,23.24,0,0,1,3.33-2.06,1,1,0,0,1,1.32.43,1,1,0,0,1-.11,1l0,.06a26.65,26.65,0,0,0-2.34,3.41,22.17,22.17,0,0,0-1.76,3.76,14.94,14.94,0,0,0-.8,4,12.55,12.55,0,0,0,.69,4.18,9.47,9.47,0,0,1-1.72-4.11,13.2,13.2,0,0,1,.27-4.56,18.7,18.7,0,0,1,1.63-4.23,21.74,21.74,0,0,1,2.54-3.78l1.17,1.54a31.93,31.93,0,0,0-3.14,1.79,23.84,23.84,0,0,0-2.91,2.16,12.94,12.94,0,0,0-2.4,2.67A7.9,7.9,0,0,0,117.19,41.65Z"/><path class="cls-1" d="M111.92,58.74l-.31.76a10.6,10.6,0,0,1-15,5.31L95,63.93a10.63,10.63,0,0,1-4.7-13.24l.51-1.26c1.81-4.5,15.82-11.82,17.93-9C106.15,46.19,113.47,54.92,111.92,58.74Z"/><path class="cls-2" d="M99.48,51.36c-.39-6.33,9.29-10.92,9.29-10.92s-7.59,8.68-3.46,16"/><path class="cls-3" d="M99.48,51.36a6.71,6.71,0,0,1,.45-3.84,11.33,11.33,0,0,1,2.17-3.29A17.53,17.53,0,0,1,105,41.62a23.07,23.07,0,0,1,3.34-2.07,1,1,0,0,1,1.32.43,1,1,0,0,1-.11,1.05l0,.06a26.71,26.71,0,0,0-2.33,3.42,21,21,0,0,0-1.76,3.75,14.94,14.94,0,0,0-.8,4,12,12,0,0,0,.69,4.18,9.3,9.3,0,0,1-1.72-4.11,12.89,12.89,0,0,1,.26-4.55,18.63,18.63,0,0,1,1.64-4.24A20.77,20.77,0,0,1,108,39.8l1.16,1.54a31.82,31.82,0,0,0-3.14,1.78,24.81,24.81,0,0,0-2.9,2.16,12.94,12.94,0,0,0-2.4,2.67A7.77,7.77,0,0,0,99.48,51.36Z"/><path class="cls-1" d="M94.21,68.44l-.31.76a10.62,10.62,0,0,1-15,5.31l-1.58-.88a10.61,10.61,0,0,1-4.7-13.23l.51-1.27c1.8-4.49,15.82-11.81,17.93-9C88.44,55.89,95.75,64.62,94.21,68.44Z"/><path class="cls-2" d="M81.76,61.06c-.39-6.33,9.3-10.91,9.3-10.91s-7.59,8.67-3.47,16"/><path class="cls-3" d="M81.76,61.06a6.77,6.77,0,0,1,.46-3.83,11.42,11.42,0,0,1,2.16-3.3,18,18,0,0,1,2.92-2.61,22.07,22.07,0,0,1,3.33-2.06,1,1,0,0,1,1.32.42,1,1,0,0,1-.1,1.06l0,.06a26,26,0,0,0-2.34,3.41A22.07,22.07,0,0,0,87.7,58a14.92,14.92,0,0,0-.79,4,12.19,12.19,0,0,0,.68,4.17,9.24,9.24,0,0,1-1.71-4.11,12.92,12.92,0,0,1,.26-4.55,18.63,18.63,0,0,1,1.64-4.24,21.43,21.43,0,0,1,2.53-3.77L91.48,51a34,34,0,0,0-3.14,1.78A25.87,25.87,0,0,0,85.43,55,13.2,13.2,0,0,0,83,57.65,8.08,8.08,0,0,0,81.76,61.06Z"/><path class="cls-1" d="M76.49,78.15l-.3.76a10.62,10.62,0,0,1-15,5.3l-1.59-.88A10.61,10.61,0,0,1,54.91,70.1l.51-1.27c1.8-4.49,15.82-11.81,17.92-9C70.72,65.6,78,74.32,76.49,78.15Z"/><path class="cls-2" d="M64.05,70.76c-.39-6.32,9.29-10.91,9.29-10.91s-7.58,8.68-3.46,16"/><path class="cls-3" d="M64.05,70.76a6.68,6.68,0,0,1,.46-3.83,11,11,0,0,1,2.16-3.3A18.47,18.47,0,0,1,69.58,61,22.17,22.17,0,0,1,72.92,59a1,1,0,0,1,1.21,1.48l0,.06a27.66,27.66,0,0,0-2.33,3.41A22.07,22.07,0,0,0,70,67.66a15.09,15.09,0,0,0-.8,4,12.55,12.55,0,0,0,.69,4.18,9.46,9.46,0,0,1-1.72-4.12,12.92,12.92,0,0,1,.27-4.55A18.07,18.07,0,0,1,70.06,63,21.2,21.2,0,0,1,72.6,59.2l1.16,1.54a33.13,33.13,0,0,0-3.14,1.79,23.73,23.73,0,0,0-2.9,2.16,12.88,12.88,0,0,0-2.4,2.66A7.82,7.82,0,0,0,64.05,70.76Z"/><path class="cls-1" d="M58.78,87.85l-.31.76a10.61,10.61,0,0,1-15,5.31L41.89,93a10.62,10.62,0,0,1-4.7-13.24l.51-1.27c1.8-4.49,15.82-11.81,17.93-9C53,75.3,60.32,84,58.78,87.85Z"/><path class="cls-2" d="M46.34,80.47c-.39-6.33,9.29-10.92,9.29-10.92s-7.59,8.68-3.46,16"/><path class="cls-3" d="M46.34,80.47a6.71,6.71,0,0,1,.45-3.84A11.2,11.2,0,0,1,49,73.34a18.05,18.05,0,0,1,2.91-2.62,23.35,23.35,0,0,1,3.34-2.06,1,1,0,0,1,1.21,1.48l-.05.06A27.72,27.72,0,0,0,54,73.61a21.38,21.38,0,0,0-1.75,3.76,14.56,14.56,0,0,0-.8,4,12.06,12.06,0,0,0,.69,4.18,9.35,9.35,0,0,1-1.72-4.11,13,13,0,0,1,.26-4.56,18.73,18.73,0,0,1,1.64-4.23,20.67,20.67,0,0,1,2.54-3.78l1.16,1.55a29.91,29.91,0,0,0-3.14,1.78A24.63,24.63,0,0,0,50,74.39a13.53,13.53,0,0,0-2.4,2.67A7.89,7.89,0,0,0,46.34,80.47Z"/><path class="cls-1" d="M41.07,97.55l-.31.76a10.62,10.62,0,0,1-15,5.31l-1.58-.88a10.61,10.61,0,0,1-4.7-13.23L20,88.24c1.8-4.49,15.82-11.82,17.92-9C35.3,85,42.61,93.73,41.07,97.55Z"/><path class="cls-2" d="M28.62,90.17c-.39-6.33,9.29-10.91,9.29-10.91s-7.58,8.67-3.46,16"/><path class="cls-3" d="M28.62,90.17a6.81,6.81,0,0,1,.46-3.84A11.3,11.3,0,0,1,31.24,83a17.6,17.6,0,0,1,2.92-2.61,21.58,21.58,0,0,1,3.33-2.06,1,1,0,0,1,1.21,1.48l0,.06a26,26,0,0,0-2.34,3.41,22.07,22.07,0,0,0-1.76,3.75,14.93,14.93,0,0,0-.8,4,12.45,12.45,0,0,0,.69,4.17,9.37,9.37,0,0,1-1.72-4.11A13.14,13.14,0,0,1,33,86.62a18.6,18.6,0,0,1,1.63-4.24,21.3,21.3,0,0,1,2.54-3.77l1.17,1.54a34,34,0,0,0-3.14,1.78,25,25,0,0,0-2.91,2.17,12.63,12.63,0,0,0-2.4,2.66A7.9,7.9,0,0,0,28.62,90.17Z"/><path class="cls-1" d="M194.9,27.79l-.31.76a10.62,10.62,0,0,1-15,5.3L178,33a10.61,10.61,0,0,1-4.7-13.23l.51-1.27c1.8-4.49,15.82-11.81,17.93-9C189.13,15.24,196.44,24,194.9,27.79Z"/><path class="cls-2" d="M182.45,20.4c-.39-6.33,9.3-10.91,9.3-10.91s-7.59,8.67-3.47,16"/><path class="cls-3" d="M182.45,20.4a6.77,6.77,0,0,1,.46-3.83,11.42,11.42,0,0,1,2.16-3.3A18.49,18.49,0,0,1,188,10.66a21.68,21.68,0,0,1,3.34-2.06,1,1,0,0,1,1.31.42,1,1,0,0,1-.1,1.06l0,.06a26,26,0,0,0-2.34,3.41,22.07,22.07,0,0,0-1.76,3.75,14.92,14.92,0,0,0-.79,4,12.19,12.19,0,0,0,.68,4.17,9.24,9.24,0,0,1-1.71-4.11,12.92,12.92,0,0,1,.26-4.55,18.37,18.37,0,0,1,1.64-4.23A21.14,21.14,0,0,1,191,8.84l1.17,1.54A34,34,0,0,0,189,12.16a25.87,25.87,0,0,0-2.91,2.17,13.48,13.48,0,0,0-2.4,2.66A8.08,8.08,0,0,0,182.45,20.4Z"/><path class="cls-1" d="M35.47,115.11l-.3.76a10.62,10.62,0,0,1-15,5.31l-1.59-.88a10.61,10.61,0,0,1-4.69-13.23l.51-1.27c1.8-4.5,15.82-11.82,17.92-9C29.7,102.56,37,111.29,35.47,115.11Z"/><path class="cls-2" d="M23,107.73c-.39-6.33,9.29-10.91,9.29-10.91s-7.58,8.67-3.46,16"/><path class="cls-3" d="M23,107.73a6.71,6.71,0,0,1,.45-3.84,11.33,11.33,0,0,1,2.17-3.29A17.53,17.53,0,0,1,28.56,98a23.07,23.07,0,0,1,3.34-2.07,1,1,0,0,1,1.21,1.49l0,0a27.78,27.78,0,0,0-2.33,3.42A21.72,21.72,0,0,0,29,104.63a14.93,14.93,0,0,0-.8,4,12.45,12.45,0,0,0,.69,4.17,9.42,9.42,0,0,1-1.72-4.11,12.89,12.89,0,0,1,.27-4.55A18.15,18.15,0,0,1,29,99.94a20.77,20.77,0,0,1,2.54-3.77l1.16,1.54a33,33,0,0,0-3.14,1.78,26,26,0,0,0-2.9,2.16,12.94,12.94,0,0,0-2.4,2.67A7.77,7.77,0,0,0,23,107.73Z"/><path class="cls-1" d="M177.18,37.49l-.3.76a10.61,10.61,0,0,1-15,5.3l-1.59-.88a10.61,10.61,0,0,1-4.69-13.23l.51-1.27c1.8-4.49,15.82-11.81,17.92-9C171.41,24.94,178.73,33.66,177.18,37.49Z"/><path class="cls-2" d="M164.74,30.1c-.39-6.32,9.29-10.91,9.29-10.91s-7.58,8.68-3.46,16"/><path class="cls-3" d="M164.74,30.1a6.77,6.77,0,0,1,.46-3.83,11.35,11.35,0,0,1,2.16-3.3,18.93,18.93,0,0,1,2.91-2.61,23.92,23.92,0,0,1,3.34-2.06,1,1,0,0,1,1.21,1.48l0,.06a26.65,26.65,0,0,0-2.34,3.41A22.17,22.17,0,0,0,170.68,27a14.94,14.94,0,0,0-.8,4,12.55,12.55,0,0,0,.69,4.18,9.46,9.46,0,0,1-1.72-4.12,12.92,12.92,0,0,1,.27-4.55,18.24,18.24,0,0,1,1.63-4.23,21.2,21.2,0,0,1,2.54-3.78l1.17,1.54a32.07,32.07,0,0,0-3.15,1.79,24.52,24.52,0,0,0-2.9,2.16A12.94,12.94,0,0,0,166,26.7,7.78,7.78,0,0,0,164.74,30.1Z"/><path class="cls-1" d="M159.47,47.19l-.31.76a10.6,10.6,0,0,1-15,5.31l-1.59-.88a10.62,10.62,0,0,1-4.7-13.24l.51-1.26c1.8-4.5,15.82-11.82,17.93-9C153.7,34.64,161,43.36,159.47,47.19Z"/><path class="cls-2" d="M147,39.81c-.39-6.33,9.29-10.92,9.29-10.92s-7.59,8.68-3.46,16"/><path class="cls-3" d="M147,39.81a6.71,6.71,0,0,1,.45-3.84,11.33,11.33,0,0,1,2.17-3.29,17.53,17.53,0,0,1,2.91-2.61A23.07,23.07,0,0,1,155.9,28a1,1,0,0,1,1.31.43,1,1,0,0,1-.1,1.05l-.05.06A26.71,26.71,0,0,0,154.73,33,20.33,20.33,0,0,0,153,36.71a14.56,14.56,0,0,0-.8,4,12,12,0,0,0,.69,4.18,9.3,9.3,0,0,1-1.72-4.11,12.89,12.89,0,0,1,.26-4.55A18.63,18.63,0,0,1,153,32a20.77,20.77,0,0,1,2.54-3.77l1.16,1.54a31.82,31.82,0,0,0-3.14,1.78,25.79,25.79,0,0,0-2.91,2.16,13.18,13.18,0,0,0-2.39,2.67A7.77,7.77,0,0,0,147,39.81Z"/><path class="cls-1" d="M141.76,56.89l-.31.76a10.62,10.62,0,0,1-15,5.31l-1.58-.88a10.61,10.61,0,0,1-4.7-13.23l.51-1.27c1.8-4.49,15.82-11.81,17.93-9C136,44.34,143.3,53.07,141.76,56.89Z"/><path class="cls-2" d="M129.31,49.51c-.39-6.33,9.3-10.91,9.3-10.91s-7.59,8.67-3.47,16"/><path class="cls-3" d="M129.31,49.51a6.77,6.77,0,0,1,.46-3.83,11.42,11.42,0,0,1,2.16-3.3,17.6,17.6,0,0,1,2.92-2.61,22.07,22.07,0,0,1,3.33-2.06,1,1,0,0,1,1.22,1.48l-.05.06A26,26,0,0,0,137,42.66a22.07,22.07,0,0,0-1.76,3.75,14.93,14.93,0,0,0-.8,4,12.45,12.45,0,0,0,.69,4.17,9.37,9.37,0,0,1-1.72-4.11,13.16,13.16,0,0,1,.27-4.55,18.63,18.63,0,0,1,1.64-4.24A21.43,21.43,0,0,1,137.86,38L139,39.49a34,34,0,0,0-3.14,1.78A25.87,25.87,0,0,0,133,43.44a12.91,12.91,0,0,0-2.4,2.66A8.08,8.08,0,0,0,129.31,49.51Z"/><path class="cls-1" d="M124,66.6l-.3.76a10.62,10.62,0,0,1-15,5.3l-1.59-.88a10.61,10.61,0,0,1-4.69-13.23l.5-1.27c1.81-4.49,15.83-11.81,17.93-9C118.27,54.05,125.59,62.77,124,66.6Z"/><path class="cls-2" d="M111.6,59.21c-.39-6.32,9.29-10.91,9.29-10.91s-7.58,8.67-3.46,16"/><path class="cls-3" d="M111.6,59.21a6.68,6.68,0,0,1,.45-3.83,11.25,11.25,0,0,1,2.17-3.3,18.47,18.47,0,0,1,2.91-2.61,22.17,22.17,0,0,1,3.34-2.06,1,1,0,0,1,1.21,1.48l-.05.06a27.66,27.66,0,0,0-2.33,3.41,21.33,21.33,0,0,0-1.76,3.75,15,15,0,0,0-.8,4,12.3,12.3,0,0,0,.69,4.18,9.46,9.46,0,0,1-1.72-4.12,12.92,12.92,0,0,1,.27-4.55,18.07,18.07,0,0,1,1.63-4.23,21.2,21.2,0,0,1,2.54-3.78l1.16,1.54A33.13,33.13,0,0,0,118.17,51a23.73,23.73,0,0,0-2.9,2.16,12.88,12.88,0,0,0-2.4,2.66A7.82,7.82,0,0,0,111.6,59.21Z"/><path class="cls-1" d="M106.33,76.3l-.31.76a10.62,10.62,0,0,1-15,5.31l-1.58-.88a10.62,10.62,0,0,1-4.7-13.24L85.25,67c1.8-4.49,15.82-11.81,17.93-9C100.56,63.75,107.87,72.47,106.33,76.3Z"/><path class="cls-2" d="M93.88,68.92c-.39-6.33,9.3-10.92,9.3-10.92s-7.59,8.68-3.47,16"/><path class="cls-3" d="M93.88,68.92a6.8,6.8,0,0,1,.46-3.84,11.2,11.2,0,0,1,2.17-3.29,18.05,18.05,0,0,1,2.91-2.62,23.35,23.35,0,0,1,3.34-2.06A1,1,0,0,1,104,58.59l0,.06a26.65,26.65,0,0,0-2.34,3.41,21.38,21.38,0,0,0-1.75,3.76,14.56,14.56,0,0,0-.8,4A12.06,12.06,0,0,0,99.72,74,9.35,9.35,0,0,1,98,69.92a13,13,0,0,1,.26-4.56,18.73,18.73,0,0,1,1.64-4.23,20.67,20.67,0,0,1,2.54-3.78l1.16,1.54a31.93,31.93,0,0,0-3.14,1.79,24.63,24.63,0,0,0-2.91,2.16,13.53,13.53,0,0,0-2.4,2.67A8,8,0,0,0,93.88,68.92Z"/><path class="cls-1" d="M88.61,86l-.3.76a10.62,10.62,0,0,1-15,5.31l-1.58-.88A10.61,10.61,0,0,1,67,78l.51-1.27c1.8-4.49,15.82-11.82,17.92-9C82.84,73.45,90.16,82.18,88.61,86Z"/><path class="cls-2" d="M76.17,78.62c-.39-6.33,9.29-10.91,9.29-10.91s-7.58,8.67-3.46,16"/><path class="cls-3" d="M76.17,78.62a6.81,6.81,0,0,1,.46-3.84,11.3,11.3,0,0,1,2.16-3.29,17.6,17.6,0,0,1,2.92-2.61A21.58,21.58,0,0,1,85,66.82a1,1,0,0,1,1.21,1.48l0,.06a26,26,0,0,0-2.34,3.41,22.07,22.07,0,0,0-1.76,3.75,14.93,14.93,0,0,0-.8,4A12.45,12.45,0,0,0,82,83.73a9.37,9.37,0,0,1-1.72-4.11,13.13,13.13,0,0,1,.27-4.55,18.6,18.6,0,0,1,1.63-4.24,20.77,20.77,0,0,1,2.54-3.77l1.17,1.54a34,34,0,0,0-3.14,1.78,25,25,0,0,0-2.91,2.17,12.63,12.63,0,0,0-2.4,2.66A7.77,7.77,0,0,0,76.17,78.62Z"/><path class="cls-1" d="M70.9,95.71l-.31.76a10.61,10.61,0,0,1-15,5.3L54,100.89a10.62,10.62,0,0,1-4.7-13.23l.51-1.27c1.81-4.49,15.82-11.81,17.93-9C65.13,83.16,72.45,91.88,70.9,95.71Z"/><path class="cls-2" d="M58.46,88.32c-.39-6.33,9.29-10.91,9.29-10.91s-7.59,8.67-3.46,16"/><path class="cls-3" d="M58.46,88.32a6.68,6.68,0,0,1,.45-3.83,11.25,11.25,0,0,1,2.17-3.3A18.47,18.47,0,0,1,64,78.58a22.17,22.17,0,0,1,3.34-2.06A1,1,0,0,1,68.54,78l-.05.06a25.91,25.91,0,0,0-2.33,3.41,21.33,21.33,0,0,0-1.76,3.75,14.63,14.63,0,0,0-.8,4,12,12,0,0,0,.69,4.17,9.25,9.25,0,0,1-1.72-4.11,12.92,12.92,0,0,1,.26-4.55,18.37,18.37,0,0,1,1.64-4.23A21.2,21.2,0,0,1,67,76.76l1.16,1.54A34,34,0,0,0,65,80.08a24.88,24.88,0,0,0-2.9,2.17,12.88,12.88,0,0,0-2.4,2.66A7.82,7.82,0,0,0,58.46,88.32Z"/><path class="cls-1" d="M53.19,105.41l-.31.76a10.62,10.62,0,0,1-15,5.31l-1.58-.89a10.61,10.61,0,0,1-4.7-13.23l.51-1.27c1.8-4.49,15.82-11.81,17.93-9C47.42,92.86,54.73,101.58,53.19,105.41Z"/><path class="cls-2" d="M40.74,98C40.35,91.7,50,87.11,50,87.11s-7.59,8.68-3.47,16"/><path class="cls-3" d="M40.74,98a6.77,6.77,0,0,1,.46-3.83,11.56,11.56,0,0,1,2.16-3.3,19,19,0,0,1,2.92-2.61,23.81,23.81,0,0,1,3.33-2.06,1,1,0,0,1,1.32.43,1,1,0,0,1-.1,1l0,.06a26.65,26.65,0,0,0-2.34,3.41,22.17,22.17,0,0,0-1.76,3.76,14.55,14.55,0,0,0-.79,4,12.28,12.28,0,0,0,.68,4.18A9.47,9.47,0,0,1,44.85,99a13.2,13.2,0,0,1,.27-4.56,18.73,18.73,0,0,1,1.64-4.23,21.14,21.14,0,0,1,2.53-3.78L50.46,88a31.93,31.93,0,0,0-3.14,1.79A24.63,24.63,0,0,0,44.41,92,13.23,13.23,0,0,0,42,94.62,8,8,0,0,0,40.74,98Z"/><path class="cls-1" d="M207,34.13l-.31.76a10.61,10.61,0,0,1-15,5.31l-1.59-.88a10.61,10.61,0,0,1-4.7-13.23l.51-1.27c1.8-4.49,15.82-11.82,17.93-9C201.25,21.58,208.56,30.31,207,34.13Z"/><path class="cls-2" d="M194.58,26.75c-.39-6.33,9.29-10.91,9.29-10.91s-7.59,8.67-3.46,16"/><path class="cls-3" d="M194.58,26.75a6.71,6.71,0,0,1,.45-3.84,11.33,11.33,0,0,1,2.17-3.29A17.53,17.53,0,0,1,200.11,17a22.54,22.54,0,0,1,3.34-2.07,1,1,0,0,1,1.31.43,1,1,0,0,1-.1,1.06l0,.05a27.84,27.84,0,0,0-2.34,3.42,21,21,0,0,0-1.75,3.75,14.56,14.56,0,0,0-.8,4,12,12,0,0,0,.69,4.17,9.3,9.3,0,0,1-1.72-4.11A12.89,12.89,0,0,1,199,23.2,18.63,18.63,0,0,1,200.59,19a20.27,20.27,0,0,1,2.54-3.77l1.16,1.54a31.82,31.82,0,0,0-3.14,1.78,25.87,25.87,0,0,0-2.91,2.17,13.2,13.2,0,0,0-2.4,2.66A7.89,7.89,0,0,0,194.58,26.75Z"/><path class="cls-1" d="M47.59,121.46l-.3.76a10.61,10.61,0,0,1-15,5.3l-1.59-.88A10.61,10.61,0,0,1,26,113.41l.51-1.27c1.8-4.49,15.82-11.81,17.92-9C41.82,108.91,49.14,117.63,47.59,121.46Z"/><path class="cls-2" d="M35.15,114.07c-.39-6.32,9.29-10.91,9.29-10.91s-7.58,8.68-3.46,16"/><path class="cls-3" d="M35.15,114.07a6.77,6.77,0,0,1,.46-3.83,11.35,11.35,0,0,1,2.16-3.3,18.47,18.47,0,0,1,2.91-2.61A23.92,23.92,0,0,1,44,102.27a1,1,0,0,1,1.21,1.48l0,.06a26.65,26.65,0,0,0-2.34,3.41A22.17,22.17,0,0,0,41.09,111a14.94,14.94,0,0,0-.8,4,12.55,12.55,0,0,0,.69,4.18,9.46,9.46,0,0,1-1.72-4.12,12.92,12.92,0,0,1,.27-4.55,18.24,18.24,0,0,1,1.63-4.23,21.2,21.2,0,0,1,2.54-3.78l1.17,1.54a32.07,32.07,0,0,0-3.15,1.79,24.52,24.52,0,0,0-2.9,2.16,12.94,12.94,0,0,0-2.4,2.67A7.78,7.78,0,0,0,35.15,114.07Z"/><path class="cls-1" d="M189.31,43.83l-.31.76a10.62,10.62,0,0,1-15,5.31L172.42,49a10.61,10.61,0,0,1-4.7-13.23l.51-1.27c1.8-4.49,15.82-11.81,17.92-9C183.54,31.28,190.85,40,189.31,43.83Z"/><path class="cls-2" d="M176.86,36.45c-.39-6.33,9.29-10.91,9.29-10.91s-7.58,8.67-3.46,16"/><path class="cls-3" d="M176.86,36.45a6.77,6.77,0,0,1,.46-3.83,11.22,11.22,0,0,1,2.16-3.3,18.06,18.06,0,0,1,2.92-2.61,21.58,21.58,0,0,1,3.33-2.06,1,1,0,0,1,1.21,1.48l0,.06a26,26,0,0,0-2.34,3.41,22.07,22.07,0,0,0-1.76,3.75,14.93,14.93,0,0,0-.8,4,12.45,12.45,0,0,0,.69,4.17A9.37,9.37,0,0,1,181,37.45a13.16,13.16,0,0,1,.27-4.55,18.35,18.35,0,0,1,1.63-4.23,21.74,21.74,0,0,1,2.54-3.78l1.17,1.54a34,34,0,0,0-3.14,1.78,25,25,0,0,0-2.91,2.17,12.88,12.88,0,0,0-2.4,2.66A8,8,0,0,0,176.86,36.45Z"/><path class="cls-1" d="M171.59,53.54l-.3.76a10.62,10.62,0,0,1-15,5.3l-1.59-.88A10.62,10.62,0,0,1,150,45.49l.51-1.27c1.81-4.49,15.83-11.81,17.93-9C165.82,41,173.14,49.71,171.59,53.54Z"/><path class="cls-2" d="M159.15,46.15c-.39-6.32,9.29-10.91,9.29-10.91s-7.58,8.68-3.46,16"/><path class="cls-3" d="M159.15,46.15a6.68,6.68,0,0,1,.45-3.83,11.25,11.25,0,0,1,2.17-3.3,18.47,18.47,0,0,1,2.91-2.61A23.92,23.92,0,0,1,168,34.35a1,1,0,0,1,1.21,1.48l0,.06a26.59,26.59,0,0,0-2.33,3.41,21.67,21.67,0,0,0-1.76,3.75,15.09,15.09,0,0,0-.8,4,12.06,12.06,0,0,0,.69,4.18,9.46,9.46,0,0,1-1.72-4.12,12.69,12.69,0,0,1,.27-4.55,18.07,18.07,0,0,1,1.63-4.23,21.2,21.2,0,0,1,2.54-3.78l1.16,1.54a31.93,31.93,0,0,0-3.14,1.79,23.73,23.73,0,0,0-2.9,2.16,12.88,12.88,0,0,0-2.4,2.66A7.87,7.87,0,0,0,159.15,46.15Z"/><path class="cls-1" d="M153.88,63.24l-.31.76a10.62,10.62,0,0,1-15,5.31L137,68.43a10.62,10.62,0,0,1-4.7-13.24l.51-1.26c1.8-4.5,15.82-11.82,17.93-9C148.11,50.69,155.42,59.41,153.88,63.24Z"/><path class="cls-2" d="M141.43,55.86c-.39-6.33,9.3-10.92,9.3-10.92s-7.59,8.68-3.47,16"/><path class="cls-3" d="M141.43,55.86a6.8,6.8,0,0,1,.46-3.84,11.51,11.51,0,0,1,2.16-3.29A18,18,0,0,1,147,46.12a23,23,0,0,1,3.33-2.07,1,1,0,0,1,1.32.43,1,1,0,0,1-.1,1.05l-.05.06A26.65,26.65,0,0,0,149.13,49a22.17,22.17,0,0,0-1.76,3.76,14.92,14.92,0,0,0-.79,4,12.28,12.28,0,0,0,.68,4.18,9.34,9.34,0,0,1-1.71-4.11,13,13,0,0,1,.26-4.56,18.73,18.73,0,0,1,1.64-4.23A20.71,20.71,0,0,1,150,44.3l1.17,1.54A31.82,31.82,0,0,0,148,47.62a25.79,25.79,0,0,0-2.91,2.16,13.53,13.53,0,0,0-2.4,2.67A8,8,0,0,0,141.43,55.86Z"/><path class="cls-1" d="M136.16,72.94l-.3.76a10.62,10.62,0,0,1-15,5.31l-1.59-.88a10.62,10.62,0,0,1-4.69-13.23l.51-1.27c1.8-4.49,15.82-11.81,17.92-9C130.39,60.39,137.71,69.12,136.16,72.94Z"/><path class="cls-2" d="M123.72,65.56c-.39-6.33,9.29-10.91,9.29-10.91s-7.58,8.67-3.46,16"/><path class="cls-3" d="M123.72,65.56a6.73,6.73,0,0,1,.46-3.84,11.1,11.1,0,0,1,2.16-3.29,17.53,17.53,0,0,1,2.91-2.61,22.17,22.17,0,0,1,3.34-2.06,1,1,0,0,1,1.32.42,1,1,0,0,1-.11,1.06l0,.06a26,26,0,0,0-2.34,3.41,22.07,22.07,0,0,0-1.76,3.75,14.93,14.93,0,0,0-.8,4,12.45,12.45,0,0,0,.69,4.17,9.37,9.37,0,0,1-1.72-4.11A12.92,12.92,0,0,1,128.1,62a18.15,18.15,0,0,1,1.63-4.24A21.49,21.49,0,0,1,132.27,54l1.16,1.54a35.34,35.34,0,0,0-3.14,1.78,25.76,25.76,0,0,0-2.9,2.17,12.63,12.63,0,0,0-2.4,2.66A7.82,7.82,0,0,0,123.72,65.56Z"/><path class="cls-1" d="M118.45,82.65l-.31.76a10.61,10.61,0,0,1-15,5.3l-1.59-.88a10.61,10.61,0,0,1-4.7-13.23l.51-1.27c1.8-4.49,15.82-11.81,17.93-9C112.68,70.1,120,78.82,118.45,82.65Z"/><path class="cls-2" d="M106,75.26c-.39-6.32,9.29-10.91,9.29-10.91s-7.59,8.67-3.46,16"/><path class="cls-3" d="M106,75.26a6.68,6.68,0,0,1,.45-3.83,11.25,11.25,0,0,1,2.17-3.3,18.47,18.47,0,0,1,2.91-2.61,21.68,21.68,0,0,1,3.34-2.06,1,1,0,0,1,1.31.42,1,1,0,0,1-.1,1.06l0,.06a26.59,26.59,0,0,0-2.33,3.41A20.64,20.64,0,0,0,112,72.16a14.63,14.63,0,0,0-.8,4,12.06,12.06,0,0,0,.69,4.18,9.34,9.34,0,0,1-1.72-4.12,12.92,12.92,0,0,1,.26-4.55A18.55,18.55,0,0,1,112,67.48a21.2,21.2,0,0,1,2.54-3.78l1.16,1.54A34,34,0,0,0,112.58,67a25.87,25.87,0,0,0-2.91,2.17,13.12,13.12,0,0,0-2.39,2.66A7.82,7.82,0,0,0,106,75.26Z"/><path class="cls-1" d="M100.74,92.35l-.31.76a10.62,10.62,0,0,1-15,5.31l-1.58-.88a10.62,10.62,0,0,1-4.7-13.24L79.66,83c1.8-4.49,15.82-11.81,17.93-9C95,79.8,102.28,88.52,100.74,92.35Z"/><path class="cls-2" d="M88.29,85c-.39-6.32,9.3-10.91,9.3-10.91s-7.59,8.68-3.47,16"/><path class="cls-3" d="M88.29,85a6.78,6.78,0,0,1,.46-3.83,11.17,11.17,0,0,1,2.16-3.29,18.12,18.12,0,0,1,2.92-2.62,23.24,23.24,0,0,1,3.33-2.06,1,1,0,0,1,1.32.43,1,1,0,0,1-.11,1l0,.06A26.65,26.65,0,0,0,96,78.11a22.17,22.17,0,0,0-1.76,3.76,14.94,14.94,0,0,0-.8,4,12.55,12.55,0,0,0,.69,4.18A9.47,9.47,0,0,1,92.4,86a13.2,13.2,0,0,1,.27-4.56,18.73,18.73,0,0,1,1.64-4.23,21.14,21.14,0,0,1,2.53-3.78L98,74.94a31.93,31.93,0,0,0-3.14,1.79A24.63,24.63,0,0,0,92,78.89a13.23,13.23,0,0,0-2.4,2.67A8,8,0,0,0,88.29,85Z"/><path class="cls-1" d="M83,102.05l-.3.76a10.62,10.62,0,0,1-15,5.31l-1.59-.88A10.61,10.61,0,0,1,61.44,94l.5-1.27c1.81-4.49,15.83-11.82,17.93-9C77.25,89.5,84.57,98.23,83,102.05Z"/><path class="cls-2" d="M70.58,94.67c-.39-6.33,9.29-10.91,9.29-10.91s-7.58,8.67-3.46,16"/><path class="cls-3" d="M70.58,94.67A6.72,6.72,0,0,1,71,90.83a11.33,11.33,0,0,1,2.17-3.29,17.53,17.53,0,0,1,2.91-2.61,23.07,23.07,0,0,1,3.34-2.07,1,1,0,0,1,1.21,1.49l0,.06a25.91,25.91,0,0,0-2.33,3.41,21,21,0,0,0-1.76,3.75,14.93,14.93,0,0,0-.8,4,12,12,0,0,0,.69,4.17,9.42,9.42,0,0,1-1.72-4.11A12.89,12.89,0,0,1,75,91.12a18.15,18.15,0,0,1,1.63-4.24,20.77,20.77,0,0,1,2.54-3.77l1.16,1.54a34,34,0,0,0-3.14,1.78,24.88,24.88,0,0,0-2.9,2.17,12.63,12.63,0,0,0-2.4,2.66A7.77,7.77,0,0,0,70.58,94.67Z"/><path class="cls-1" d="M65.31,111.76l-.31.76a10.62,10.62,0,0,1-15,5.3l-1.58-.88a10.61,10.61,0,0,1-4.7-13.23l.51-1.27c1.8-4.49,15.82-11.81,17.93-9C59.54,99.21,66.85,107.93,65.31,111.76Z"/><path class="cls-2" d="M52.86,104.37c-.39-6.33,9.3-10.91,9.3-10.91s-7.59,8.67-3.47,16"/><path class="cls-3" d="M52.86,104.37a6.77,6.77,0,0,1,.46-3.83,11.25,11.25,0,0,1,2.17-3.3,18,18,0,0,1,2.91-2.61,21.68,21.68,0,0,1,3.34-2.06,1,1,0,0,1,1.31.42,1,1,0,0,1-.1,1.06l-.05.06a26,26,0,0,0-2.34,3.41,22.07,22.07,0,0,0-1.76,3.75,14.92,14.92,0,0,0-.79,4,12.19,12.19,0,0,0,.68,4.17A9.24,9.24,0,0,1,57,105.37a12.92,12.92,0,0,1,.26-4.55,18.37,18.37,0,0,1,1.64-4.23,21.14,21.14,0,0,1,2.53-3.78l1.17,1.54a34,34,0,0,0-3.14,1.78,25.87,25.87,0,0,0-2.91,2.17,13.48,13.48,0,0,0-2.4,2.66A8.08,8.08,0,0,0,52.86,104.37Z"/><path class="cls-1" d="M217.71,40.72l-.31.76a10.62,10.62,0,0,1-15,5.31l-1.58-.88a10.61,10.61,0,0,1-4.7-13.23l.51-1.27c1.8-4.49,15.82-11.82,17.93-9C211.94,28.17,219.25,36.9,217.71,40.72Z"/><path class="cls-2" d="M205.26,33.34c-.39-6.33,9.3-10.91,9.3-10.91s-7.59,8.67-3.47,16"/><path class="cls-3" d="M205.26,33.34a6.81,6.81,0,0,1,.46-3.84,11.51,11.51,0,0,1,2.16-3.29,18,18,0,0,1,2.92-2.61,23,23,0,0,1,3.33-2.07A1,1,0,0,1,215.35,23l0,.06A26,26,0,0,0,213,26.49a22.07,22.07,0,0,0-1.76,3.75,14.93,14.93,0,0,0-.8,4,12.45,12.45,0,0,0,.69,4.17,9.42,9.42,0,0,1-1.72-4.11,13.13,13.13,0,0,1,.27-4.55,18.63,18.63,0,0,1,1.64-4.24,20.71,20.71,0,0,1,2.53-3.77L215,23.32a34,34,0,0,0-3.14,1.78,25.87,25.87,0,0,0-2.91,2.17,12.91,12.91,0,0,0-2.4,2.66A8,8,0,0,0,205.26,33.34Z"/><path class="cls-1" d="M58.28,128.05l-.31.76a10.6,10.6,0,0,1-15,5.3l-1.59-.88A10.62,10.62,0,0,1,36.69,120l.51-1.27c1.81-4.49,15.82-11.81,17.93-9C52.51,115.5,59.83,124.22,58.28,128.05Z"/><path class="cls-2" d="M45.84,120.66c-.39-6.32,9.29-10.91,9.29-10.91s-7.59,8.68-3.46,16"/><path class="cls-3" d="M45.84,120.66a6.68,6.68,0,0,1,.45-3.83,11.38,11.38,0,0,1,2.17-3.3,18.47,18.47,0,0,1,2.91-2.61,23.92,23.92,0,0,1,3.34-2.06,1,1,0,0,1,1.21,1.48l-.05.06a26.59,26.59,0,0,0-2.33,3.41,21.42,21.42,0,0,0-1.76,3.76,14.94,14.94,0,0,0-.8,4,12.06,12.06,0,0,0,.69,4.18A9.47,9.47,0,0,1,50,121.67a13,13,0,0,1,.26-4.56,18.73,18.73,0,0,1,1.64-4.23,21.2,21.2,0,0,1,2.54-3.78l1.16,1.54a31.93,31.93,0,0,0-3.14,1.79,23.73,23.73,0,0,0-2.9,2.16,12.94,12.94,0,0,0-2.4,2.67A7.78,7.78,0,0,0,45.84,120.66Z"/><path class="cls-1" d="M200,50.43l-.3.76a10.62,10.62,0,0,1-15,5.3l-1.59-.88a10.61,10.61,0,0,1-4.69-13.23l.51-1.27c1.8-4.49,15.82-11.81,17.92-9C194.22,37.88,201.54,46.6,200,50.43Z"/><path class="cls-2" d="M187.55,43c-.39-6.33,9.29-10.91,9.29-10.91s-7.58,8.67-3.46,16"/><path class="cls-3" d="M187.55,43a6.68,6.68,0,0,1,.45-3.83,11.25,11.25,0,0,1,2.17-3.3,18,18,0,0,1,2.91-2.61,22.17,22.17,0,0,1,3.34-2.06,1,1,0,0,1,1.32.42,1,1,0,0,1-.11,1.06l0,.06a26.92,26.92,0,0,0-2.33,3.41,21.33,21.33,0,0,0-1.76,3.75,14.93,14.93,0,0,0-.8,4,12.2,12.2,0,0,0,.69,4.17A9.37,9.37,0,0,1,191.66,44a12.92,12.92,0,0,1,.27-4.55,17.9,17.9,0,0,1,1.63-4.23,21.2,21.2,0,0,1,2.54-3.78L197.26,33a35.34,35.34,0,0,0-3.14,1.78,24.88,24.88,0,0,0-2.9,2.17,12.88,12.88,0,0,0-2.4,2.66A7.82,7.82,0,0,0,187.55,43Z"/><path class="cls-1" d="M182.28,60.13l-.31.76a10.61,10.61,0,0,1-15,5.3l-1.58-.88a10.61,10.61,0,0,1-4.7-13.23l.51-1.27c1.8-4.49,15.82-11.81,17.93-9C176.51,47.58,183.82,56.3,182.28,60.13Z"/><path class="cls-2" d="M169.83,52.74c-.39-6.32,9.3-10.91,9.3-10.91s-7.59,8.68-3.46,16"/><path class="cls-3" d="M169.83,52.74a6.77,6.77,0,0,1,.46-3.83,11.38,11.38,0,0,1,2.17-3.3A18.47,18.47,0,0,1,175.37,43a23.35,23.35,0,0,1,3.34-2.06,1,1,0,0,1,1.21,1.48l0,.06a26.65,26.65,0,0,0-2.34,3.41,21.38,21.38,0,0,0-1.75,3.76,14.56,14.56,0,0,0-.8,4,12.28,12.28,0,0,0,.68,4.18A9.33,9.33,0,0,1,174,53.74a12.92,12.92,0,0,1,.26-4.55A18.73,18.73,0,0,1,175.85,45a20.67,20.67,0,0,1,2.54-3.78l1.16,1.54a31.93,31.93,0,0,0-3.14,1.79,24.63,24.63,0,0,0-2.91,2.16,13.53,13.53,0,0,0-2.4,2.67A8,8,0,0,0,169.83,52.74Z"/><path class="cls-1" d="M164.57,69.83l-.31.76a10.62,10.62,0,0,1-15,5.31L147.68,75A10.62,10.62,0,0,1,143,61.78l.51-1.26c1.8-4.5,15.82-11.82,17.92-9C158.79,57.28,166.11,66,164.57,69.83Z"/><path class="cls-2" d="M152.12,62.45c-.39-6.33,9.29-10.92,9.29-10.92s-7.58,8.68-3.46,16"/><path class="cls-3" d="M152.12,62.45a6.8,6.8,0,0,1,.46-3.84,11.3,11.3,0,0,1,2.16-3.29,17.6,17.6,0,0,1,2.92-2.61A22.43,22.43,0,0,1,161,50.64a1,1,0,0,1,1.32.43,1,1,0,0,1-.11,1l0,.06a27.37,27.37,0,0,0-2.34,3.41,22.17,22.17,0,0,0-1.76,3.76,14.94,14.94,0,0,0-.8,4,12.5,12.5,0,0,0,.69,4.18,9.47,9.47,0,0,1-1.72-4.11,13.13,13.13,0,0,1,.27-4.55,18.6,18.6,0,0,1,1.63-4.24,21.3,21.3,0,0,1,2.54-3.77l1.17,1.54a31.82,31.82,0,0,0-3.14,1.78,24.92,24.92,0,0,0-2.91,2.16,12.94,12.94,0,0,0-2.4,2.67A7.77,7.77,0,0,0,152.12,62.45Z"/><path class="cls-1" d="M146.85,79.53l-.31.76a10.6,10.6,0,0,1-15,5.31L130,84.72a10.62,10.62,0,0,1-4.7-13.23l.51-1.27c1.81-4.49,15.82-11.81,17.93-9C141.08,67,148.4,75.71,146.85,79.53Z"/><path class="cls-2" d="M134.41,72.15c-.39-6.33,9.29-10.91,9.29-10.91s-7.59,8.67-3.46,16"/><path class="cls-3" d="M134.41,72.15a6.68,6.68,0,0,1,.45-3.83A11.25,11.25,0,0,1,137,65a17.53,17.53,0,0,1,2.91-2.61,22.17,22.17,0,0,1,3.34-2.06,1,1,0,0,1,1.32.42,1,1,0,0,1-.11,1.06l-.05.06a25.91,25.91,0,0,0-2.33,3.41,20.64,20.64,0,0,0-1.76,3.75,14.56,14.56,0,0,0-.8,4,12,12,0,0,0,.69,4.17,9.25,9.25,0,0,1-1.72-4.11,12.92,12.92,0,0,1,.26-4.55,18.63,18.63,0,0,1,1.64-4.24A21.49,21.49,0,0,1,143,60.59l1.16,1.54A34,34,0,0,0,141,63.91a24.88,24.88,0,0,0-2.9,2.17,12.63,12.63,0,0,0-2.4,2.66A7.82,7.82,0,0,0,134.41,72.15Z"/><path class="cls-1" d="M129.14,89.24l-.31.76a10.62,10.62,0,0,1-15,5.3l-1.58-.88a10.61,10.61,0,0,1-4.7-13.23l.51-1.27c1.8-4.49,15.82-11.81,17.93-9C123.37,76.69,130.68,85.41,129.14,89.24Z"/><path class="cls-2" d="M116.69,81.85c-.39-6.32,9.3-10.91,9.3-10.91s-7.59,8.67-3.47,16"/><path class="cls-3" d="M116.69,81.85a6.77,6.77,0,0,1,.46-3.83,11.42,11.42,0,0,1,2.16-3.3,19,19,0,0,1,2.92-2.61,22.07,22.07,0,0,1,3.33-2.06,1,1,0,0,1,1.22,1.48l0,.06A26.65,26.65,0,0,0,124.39,75a22.07,22.07,0,0,0-1.76,3.75,14.62,14.62,0,0,0-.79,4,12.28,12.28,0,0,0,.68,4.18,9.46,9.46,0,0,1-1.72-4.12,13.16,13.16,0,0,1,.27-4.55,18.55,18.55,0,0,1,1.64-4.23,21.14,21.14,0,0,1,2.53-3.78l1.17,1.54a31.93,31.93,0,0,0-3.14,1.79,24.63,24.63,0,0,0-2.91,2.16,13.17,13.17,0,0,0-2.4,2.66A8.08,8.08,0,0,0,116.69,81.85Z"/><path class="cls-1" d="M111.42,98.94l-.3.76a10.62,10.62,0,0,1-15,5.31l-1.59-.88a10.62,10.62,0,0,1-4.69-13.24l.51-1.27c1.8-4.49,15.82-11.81,17.92-9C105.65,86.39,113,95.11,111.42,98.94Z"/><path class="cls-2" d="M99,91.56c-.39-6.33,9.29-10.92,9.29-10.92s-7.58,8.68-3.46,16"/><path class="cls-3" d="M99,91.56a6.71,6.71,0,0,1,.45-3.84,11.2,11.2,0,0,1,2.17-3.29,18.05,18.05,0,0,1,2.91-2.62,23.92,23.92,0,0,1,3.34-2.06,1,1,0,0,1,1.32.43,1,1,0,0,1-.11,1l0,.06a27.66,27.66,0,0,0-2.33,3.41,22.17,22.17,0,0,0-1.76,3.76,14.94,14.94,0,0,0-.8,4,12.55,12.55,0,0,0,.69,4.18,9.47,9.47,0,0,1-1.72-4.11,13,13,0,0,1,.27-4.56A18.24,18.24,0,0,1,105,83.77,21.2,21.2,0,0,1,107.53,80l1.16,1.54a33.13,33.13,0,0,0-3.14,1.79,23.73,23.73,0,0,0-2.9,2.16,12.94,12.94,0,0,0-2.4,2.67A7.77,7.77,0,0,0,99,91.56Z"/><path class="cls-1" d="M93.71,108.64l-.31.76a10.62,10.62,0,0,1-15,5.31l-1.58-.88a10.61,10.61,0,0,1-4.7-13.23l.51-1.27c1.8-4.49,15.82-11.82,17.93-9C87.94,96.09,95.25,104.82,93.71,108.64Z"/><path class="cls-2" d="M81.27,101.26c-.39-6.33,9.29-10.91,9.29-10.91S83,99,87.1,106.37"/><path class="cls-3" d="M81.27,101.26a6.72,6.72,0,0,1,.45-3.84,11.33,11.33,0,0,1,2.17-3.29,17.53,17.53,0,0,1,2.91-2.61,21.68,21.68,0,0,1,3.34-2.06,1,1,0,0,1,1.31.42,1,1,0,0,1-.1,1.06l0,.06A26,26,0,0,0,89,94.41a21.28,21.28,0,0,0-1.75,3.75,14.56,14.56,0,0,0-.8,4,12,12,0,0,0,.69,4.17,9.3,9.3,0,0,1-1.72-4.11,12.89,12.89,0,0,1,.26-4.55,18.63,18.63,0,0,1,1.64-4.24,20.27,20.27,0,0,1,2.54-3.77L91,91.24A34,34,0,0,0,87.84,93a25.87,25.87,0,0,0-2.91,2.17,13.2,13.2,0,0,0-2.4,2.66A7.89,7.89,0,0,0,81.27,101.26Z"/><path class="cls-1" d="M76,118.35l-.31.76a10.62,10.62,0,0,1-15,5.3l-1.58-.88a10.61,10.61,0,0,1-4.7-13.23l.51-1.27c1.8-4.49,15.82-11.81,17.92-9C70.22,105.8,77.54,114.52,76,118.35Z"/><path class="cls-2" d="M63.55,111c-.39-6.33,9.29-10.91,9.29-10.91s-7.58,8.67-3.46,16"/><path class="cls-3" d="M63.55,111a6.77,6.77,0,0,1,.46-3.83,11.22,11.22,0,0,1,2.16-3.3,18.54,18.54,0,0,1,2.92-2.61,21.58,21.58,0,0,1,3.33-2.06,1,1,0,0,1,1.21,1.48l0,.06a26,26,0,0,0-2.34,3.41,22.07,22.07,0,0,0-1.76,3.75,14.93,14.93,0,0,0-.8,4,12.45,12.45,0,0,0,.69,4.17A9.37,9.37,0,0,1,67.66,112a13.16,13.16,0,0,1,.27-4.55,18.35,18.35,0,0,1,1.63-4.23A21.74,21.74,0,0,1,72.1,99.4l1.17,1.54a34,34,0,0,0-3.14,1.78,25,25,0,0,0-2.91,2.17,12.88,12.88,0,0,0-2.4,2.66A8,8,0,0,0,63.55,111Z"/><path class="cls-1" d="M230.28,48.36l-.3.76a10.62,10.62,0,0,1-15,5.31l-1.59-.88a10.62,10.62,0,0,1-4.69-13.24l.5-1.26c1.81-4.5,15.83-11.82,17.93-9C224.51,35.81,231.83,44.53,230.28,48.36Z"/><path class="cls-2" d="M217.84,41c-.39-6.33,9.29-10.92,9.29-10.92s-7.58,8.68-3.46,16"/><path class="cls-3" d="M217.84,41a6.71,6.71,0,0,1,.45-3.84,11.33,11.33,0,0,1,2.17-3.29,17.53,17.53,0,0,1,2.91-2.61,23.07,23.07,0,0,1,3.34-2.07,1,1,0,0,1,1.32.43,1,1,0,0,1-.11,1l0,.06a26.59,26.59,0,0,0-2.33,3.41,21.42,21.42,0,0,0-1.76,3.76,14.94,14.94,0,0,0-.8,4,12.06,12.06,0,0,0,.69,4.18A9.47,9.47,0,0,1,222,42a13,13,0,0,1,.27-4.56,18.24,18.24,0,0,1,1.63-4.23,20.77,20.77,0,0,1,2.54-3.77L227.55,31a31.82,31.82,0,0,0-3.14,1.78,24.81,24.81,0,0,0-2.9,2.16,12.94,12.94,0,0,0-2.4,2.67A7.77,7.77,0,0,0,217.84,41Z"/><path class="cls-1" d="M70.86,135.69l-.31.76a10.62,10.62,0,0,1-15,5.3L54,140.87a10.61,10.61,0,0,1-4.7-13.23l.51-1.27c1.8-4.49,15.82-11.81,17.93-9C65.09,123.14,72.4,131.86,70.86,135.69Z"/><path class="cls-2" d="M58.41,128.3c-.39-6.32,9.3-10.91,9.3-10.91s-7.59,8.67-3.47,16"/><path class="cls-3" d="M58.41,128.3a6.77,6.77,0,0,1,.46-3.83,11.42,11.42,0,0,1,2.16-3.3A18.54,18.54,0,0,1,64,118.56a22.07,22.07,0,0,1,3.33-2.06A1,1,0,0,1,68.5,118l0,.06a26.65,26.65,0,0,0-2.34,3.41,22.07,22.07,0,0,0-1.76,3.75,15,15,0,0,0-.8,4,12.55,12.55,0,0,0,.69,4.18,9.46,9.46,0,0,1-1.72-4.12,13.16,13.16,0,0,1,.27-4.55,18.55,18.55,0,0,1,1.64-4.23A21.14,21.14,0,0,1,67,116.74l1.17,1.54A31.93,31.93,0,0,0,65,120.07a24.63,24.63,0,0,0-2.91,2.16,13.17,13.17,0,0,0-2.4,2.66A8.08,8.08,0,0,0,58.41,128.3Z"/><path class="cls-1" d="M212.57,58.06l-.31.76a10.62,10.62,0,0,1-15,5.31l-1.58-.88A10.61,10.61,0,0,1,191,50l.51-1.27c1.8-4.49,15.82-11.81,17.93-9C206.8,45.51,214.11,54.24,212.57,58.06Z"/><path class="cls-2" d="M200.12,50.68c-.39-6.33,9.3-10.91,9.3-10.91s-7.59,8.67-3.47,16"/><path class="cls-3" d="M200.12,50.68a6.81,6.81,0,0,1,.46-3.84,11.51,11.51,0,0,1,2.16-3.29,18,18,0,0,1,2.92-2.61A22.07,22.07,0,0,1,209,38.88a1,1,0,0,1,1.32.42,1,1,0,0,1-.1,1.06l-.05.06a26,26,0,0,0-2.34,3.41,22.07,22.07,0,0,0-1.76,3.75,14.92,14.92,0,0,0-.79,4,12.19,12.19,0,0,0,.68,4.17,9.24,9.24,0,0,1-1.71-4.11,12.92,12.92,0,0,1,.26-4.55,18.63,18.63,0,0,1,1.64-4.24,21.43,21.43,0,0,1,2.53-3.77l1.17,1.54a34,34,0,0,0-3.14,1.78,25.87,25.87,0,0,0-2.91,2.17,13.2,13.2,0,0,0-2.4,2.66A8.08,8.08,0,0,0,200.12,50.68Z"/><path class="cls-1" d="M194.85,67.77l-.3.76a10.62,10.62,0,0,1-15,5.3L178,73a10.62,10.62,0,0,1-4.69-13.23l.51-1.27c1.8-4.49,15.82-11.81,17.92-9C189.08,55.22,196.4,63.94,194.85,67.77Z"/><path class="cls-2" d="M182.41,60.38c-.39-6.32,9.29-10.91,9.29-10.91s-7.58,8.67-3.46,16"/><path class="cls-3" d="M182.41,60.38a6.68,6.68,0,0,1,.46-3.83,11,11,0,0,1,2.16-3.3,18.47,18.47,0,0,1,2.91-2.61,22.17,22.17,0,0,1,3.34-2.06,1,1,0,0,1,1.32.42,1,1,0,0,1-.11,1.06l0,.06a26.65,26.65,0,0,0-2.34,3.41,22.07,22.07,0,0,0-1.76,3.75,15,15,0,0,0-.8,4,12.55,12.55,0,0,0,.69,4.18,9.46,9.46,0,0,1-1.72-4.12,12.92,12.92,0,0,1,.27-4.55,18.07,18.07,0,0,1,1.63-4.23A21.2,21.2,0,0,1,191,48.82l1.16,1.54A35.34,35.34,0,0,0,189,52.14a25.76,25.76,0,0,0-2.9,2.17,12.88,12.88,0,0,0-2.4,2.66A7.82,7.82,0,0,0,182.41,60.38Z"/><path class="cls-1" d="M177.14,77.47l-.31.76a10.61,10.61,0,0,1-15,5.31l-1.59-.88a10.62,10.62,0,0,1-4.7-13.24l.51-1.27c1.8-4.49,15.82-11.81,17.93-9C171.37,64.92,178.68,73.64,177.14,77.47Z"/><path class="cls-2" d="M164.7,70.08c-.39-6.32,9.29-10.91,9.29-10.91s-7.59,8.68-3.46,16"/><path class="cls-3" d="M164.7,70.08a6.69,6.69,0,0,1,.45-3.83A11.2,11.2,0,0,1,167.32,63a18.05,18.05,0,0,1,2.91-2.62,23.35,23.35,0,0,1,3.34-2.06,1,1,0,0,1,1.21,1.48l-.05.06a26.59,26.59,0,0,0-2.33,3.41A20.73,20.73,0,0,0,170.64,67a14.56,14.56,0,0,0-.8,4,12.06,12.06,0,0,0,.69,4.18,9.35,9.35,0,0,1-1.72-4.11,13,13,0,0,1,.26-4.56,18.73,18.73,0,0,1,1.64-4.23,21.2,21.2,0,0,1,2.54-3.78l1.16,1.54a31.93,31.93,0,0,0-3.14,1.79A24.63,24.63,0,0,0,168.36,64,13.18,13.18,0,0,0,166,66.68,7.78,7.78,0,0,0,164.7,70.08Z"/><path class="cls-1" d="M159.43,87.17l-.31.76a10.62,10.62,0,0,1-15,5.31l-1.58-.88a10.61,10.61,0,0,1-4.7-13.23l.51-1.27c1.8-4.49,15.82-11.82,17.93-9C153.66,74.62,161,83.35,159.43,87.17Z"/><path class="cls-2" d="M147,79.79c-.39-6.33,9.3-10.91,9.3-10.91s-7.59,8.67-3.47,16"/><path class="cls-3" d="M147,79.79a6.81,6.81,0,0,1,.46-3.84,11.51,11.51,0,0,1,2.16-3.29,17.6,17.6,0,0,1,2.92-2.61A23,23,0,0,1,155.85,68a1,1,0,0,1,1.22,1.49l0,.06a26,26,0,0,0-2.34,3.41,22.07,22.07,0,0,0-1.76,3.75,14.93,14.93,0,0,0-.8,4,12.45,12.45,0,0,0,.69,4.17,9.42,9.42,0,0,1-1.72-4.11,13.13,13.13,0,0,1,.27-4.55A18.63,18.63,0,0,1,153,72a20.71,20.71,0,0,1,2.53-3.77l1.17,1.54a34,34,0,0,0-3.14,1.78,25.87,25.87,0,0,0-2.91,2.17,12.91,12.91,0,0,0-2.4,2.66A8,8,0,0,0,147,79.79Z"/><path class="cls-1" d="M141.71,96.88l-.3.76a10.62,10.62,0,0,1-15,5.3l-1.59-.88a10.61,10.61,0,0,1-4.69-13.23l.5-1.27c1.81-4.49,15.83-11.81,17.93-9C135.94,84.33,143.26,93.05,141.71,96.88Z"/><path class="cls-2" d="M129.27,89.49c-.39-6.33,9.29-10.91,9.29-10.91s-7.58,8.67-3.46,16"/><path class="cls-3" d="M129.27,89.49a6.68,6.68,0,0,1,.45-3.83,11.25,11.25,0,0,1,2.17-3.3,18,18,0,0,1,2.91-2.61,22.17,22.17,0,0,1,3.34-2.06,1,1,0,0,1,1.32.42,1,1,0,0,1-.11,1.06l0,.06A25.91,25.91,0,0,0,137,82.64a21.33,21.33,0,0,0-1.76,3.75,14.93,14.93,0,0,0-.8,4,12,12,0,0,0,.69,4.17,9.37,9.37,0,0,1-1.72-4.11,12.92,12.92,0,0,1,.27-4.55,17.9,17.9,0,0,1,1.63-4.23,21.2,21.2,0,0,1,2.54-3.78L139,79.47a34,34,0,0,0-3.14,1.78,24.88,24.88,0,0,0-2.9,2.17,12.88,12.88,0,0,0-2.4,2.66A7.82,7.82,0,0,0,129.27,89.49Z"/><path class="cls-1" d="M124,106.58l-.31.76a10.61,10.61,0,0,1-15,5.3l-1.58-.88a10.61,10.61,0,0,1-4.7-13.23l.51-1.27c1.8-4.49,15.82-11.81,17.93-9C118.23,94,125.54,102.75,124,106.58Z"/><path class="cls-2" d="M111.55,99.19c-.39-6.32,9.3-10.91,9.3-10.91s-7.59,8.68-3.47,16"/><path class="cls-3" d="M111.55,99.19a6.77,6.77,0,0,1,.46-3.83,11.56,11.56,0,0,1,2.16-3.3,19,19,0,0,1,2.92-2.61,23.35,23.35,0,0,1,3.34-2.06,1,1,0,0,1,1.21,1.48l0,.06a26.65,26.65,0,0,0-2.34,3.41,22.17,22.17,0,0,0-1.76,3.76,14.92,14.92,0,0,0-.79,4,12.28,12.28,0,0,0,.68,4.18,9.33,9.33,0,0,1-1.71-4.12,12.92,12.92,0,0,1,.26-4.55,18.73,18.73,0,0,1,1.64-4.23,21.14,21.14,0,0,1,2.53-3.78l1.17,1.54A31.93,31.93,0,0,0,118.13,91a24.63,24.63,0,0,0-2.91,2.16,13.53,13.53,0,0,0-2.4,2.67A8,8,0,0,0,111.55,99.19Z"/><path class="cls-1" d="M106.28,116.28l-.3.76a10.62,10.62,0,0,1-15,5.31l-1.59-.88a10.63,10.63,0,0,1-4.69-13.24l.51-1.26c1.8-4.5,15.82-11.82,17.92-9C100.51,103.73,107.83,112.45,106.28,116.28Z"/><path class="cls-2" d="M93.84,108.9c-.39-6.33,9.29-10.92,9.29-10.92s-7.58,8.68-3.46,16"/><path class="cls-3" d="M93.84,108.9a6.8,6.8,0,0,1,.46-3.84,11.3,11.3,0,0,1,2.16-3.29,17.94,17.94,0,0,1,2.91-2.61,23.07,23.07,0,0,1,3.34-2.07,1,1,0,0,1,1.32.43,1,1,0,0,1-.11,1l0,.06a27.37,27.37,0,0,0-2.34,3.41,22.17,22.17,0,0,0-1.76,3.76,14.94,14.94,0,0,0-.8,4,12.46,12.46,0,0,0,.69,4.18A9.42,9.42,0,0,1,98,109.9a12.89,12.89,0,0,1,.27-4.55,18.15,18.15,0,0,1,1.63-4.24,20.77,20.77,0,0,1,2.54-3.77l1.17,1.54a32,32,0,0,0-3.15,1.78,25.68,25.68,0,0,0-2.9,2.16,12.94,12.94,0,0,0-2.4,2.67A7.77,7.77,0,0,0,93.84,108.9Z"/><path class="cls-1" d="M88.57,126l-.31.76a10.6,10.6,0,0,1-15,5.31l-1.59-.88A10.61,10.61,0,0,1,67,117.94l.51-1.27c1.81-4.49,15.82-11.81,17.93-9C82.8,113.43,90.11,122.16,88.57,126Z"/><path class="cls-2" d="M76.13,118.6c-.39-6.33,9.29-10.91,9.29-10.91s-7.59,8.67-3.46,16"/><path class="cls-3" d="M76.13,118.6a6.68,6.68,0,0,1,.45-3.83,11.25,11.25,0,0,1,2.17-3.3,17.53,17.53,0,0,1,2.91-2.61A22.17,22.17,0,0,1,85,106.8a1,1,0,0,1,1.21,1.48l0,.06a25.91,25.91,0,0,0-2.33,3.41,20.64,20.64,0,0,0-1.76,3.75,14.56,14.56,0,0,0-.8,4,12,12,0,0,0,.69,4.17,9.25,9.25,0,0,1-1.72-4.11,12.92,12.92,0,0,1,.26-4.55,18.63,18.63,0,0,1,1.64-4.24A21.49,21.49,0,0,1,84.68,107l1.16,1.54a34,34,0,0,0-3.14,1.78,25.87,25.87,0,0,0-2.91,2.17,12.86,12.86,0,0,0-2.39,2.66A7.82,7.82,0,0,0,76.13,118.6Z"/><path class="cls-1" d="M242.4,54.92l-.3.76a10.62,10.62,0,0,1-15,5.31l-1.59-.88a10.61,10.61,0,0,1-4.69-13.23l.51-1.27c1.8-4.49,15.82-11.81,17.92-9C236.63,42.37,244,51.1,242.4,54.92Z"/><path class="cls-2" d="M230,47.54c-.39-6.33,9.29-10.91,9.29-10.91s-7.58,8.67-3.46,16"/><path class="cls-3" d="M230,47.54a6.68,6.68,0,0,1,.45-3.83,11.25,11.25,0,0,1,2.17-3.3,17.53,17.53,0,0,1,2.91-2.61,22.17,22.17,0,0,1,3.34-2.06,1,1,0,0,1,1.32.42,1,1,0,0,1-.11,1.06l0,.06a26.92,26.92,0,0,0-2.33,3.41,22.07,22.07,0,0,0-1.76,3.75,14.93,14.93,0,0,0-.8,4,12.45,12.45,0,0,0,.69,4.17,9.37,9.37,0,0,1-1.72-4.11,12.92,12.92,0,0,1,.27-4.55A17.9,17.9,0,0,1,236,39.76,21.2,21.2,0,0,1,238.51,36l1.16,1.54a35.34,35.34,0,0,0-3.14,1.78,24.88,24.88,0,0,0-2.9,2.17,12.88,12.88,0,0,0-2.4,2.66A7.82,7.82,0,0,0,230,47.54Z"/><path class="cls-1" d="M83,142.25l-.31.76a10.62,10.62,0,0,1-15,5.31l-1.58-.88a10.62,10.62,0,0,1-4.7-13.24l.51-1.26c1.8-4.5,15.82-11.82,17.93-9C77.21,129.7,84.52,138.42,83,142.25Z"/><path class="cls-2" d="M70.53,134.87c-.39-6.33,9.3-10.92,9.3-10.92s-7.59,8.68-3.47,16"/><path class="cls-3" d="M70.53,134.87A6.8,6.8,0,0,1,71,131a11.51,11.51,0,0,1,2.16-3.29,18,18,0,0,1,2.92-2.61,23,23,0,0,1,3.33-2.07,1,1,0,0,1,1.32.43,1,1,0,0,1-.1,1.05l-.05.06A27.37,27.37,0,0,0,78.23,128a22.17,22.17,0,0,0-1.76,3.76,14.92,14.92,0,0,0-.79,4,12.28,12.28,0,0,0,.68,4.18,9.34,9.34,0,0,1-1.71-4.11,13,13,0,0,1,.26-4.56,18.73,18.73,0,0,1,1.64-4.23,20.71,20.71,0,0,1,2.53-3.77l1.17,1.54a31.82,31.82,0,0,0-3.14,1.78,25.79,25.79,0,0,0-2.91,2.16,13.53,13.53,0,0,0-2.4,2.67A8,8,0,0,0,70.53,134.87Z"/><path class="cls-1" d="M224.69,64.63l-.31.76a10.62,10.62,0,0,1-15,5.3l-1.58-.88a10.61,10.61,0,0,1-4.7-13.23l.51-1.27c1.8-4.49,15.82-11.81,17.93-9C218.92,52.08,226.23,60.8,224.69,64.63Z"/><path class="cls-2" d="M212.25,57.24c-.39-6.32,9.29-10.91,9.29-10.91s-7.59,8.68-3.46,16"/><path class="cls-3" d="M212.25,57.24a6.68,6.68,0,0,1,.45-3.83,11.25,11.25,0,0,1,2.17-3.3,18.47,18.47,0,0,1,2.91-2.61,23.35,23.35,0,0,1,3.34-2.06,1,1,0,0,1,1.31.43,1,1,0,0,1-.1,1.05l-.05.06a26.65,26.65,0,0,0-2.34,3.41,21.28,21.28,0,0,0-1.75,3.75,14.71,14.71,0,0,0-.8,4,12.06,12.06,0,0,0,.69,4.18,9.34,9.34,0,0,1-1.72-4.12,12.92,12.92,0,0,1,.26-4.55,18.55,18.55,0,0,1,1.64-4.23,20.67,20.67,0,0,1,2.54-3.78L222,47.22A31.93,31.93,0,0,0,218.82,49a24.63,24.63,0,0,0-2.91,2.16,13.48,13.48,0,0,0-2.4,2.66A8,8,0,0,0,212.25,57.24Z"/><path class="cls-1" d="M207,74.33l-.31.76a10.62,10.62,0,0,1-15,5.31l-1.58-.88a10.62,10.62,0,0,1-4.7-13.24L185.9,65c1.8-4.5,15.82-11.82,17.92-9C201.2,61.78,208.52,70.5,207,74.33Z"/><path class="cls-2" d="M194.53,67c-.39-6.33,9.29-10.92,9.29-10.92s-7.58,8.68-3.46,16"/><path class="cls-3" d="M194.53,67a6.8,6.8,0,0,1,.46-3.84,11.3,11.3,0,0,1,2.16-3.29,17.6,17.6,0,0,1,2.92-2.61,22.43,22.43,0,0,1,3.33-2.07,1,1,0,0,1,1.32.43,1,1,0,0,1-.11,1l0,.06a26.65,26.65,0,0,0-2.34,3.41,22.17,22.17,0,0,0-1.76,3.76,14.94,14.94,0,0,0-.8,4,12.55,12.55,0,0,0,.69,4.18A9.47,9.47,0,0,1,198.64,68a13.2,13.2,0,0,1,.27-4.56,18.7,18.7,0,0,1,1.63-4.23,21.3,21.3,0,0,1,2.54-3.77l1.17,1.54a31.82,31.82,0,0,0-3.14,1.78,23.84,23.84,0,0,0-2.91,2.16,12.94,12.94,0,0,0-2.4,2.67A7.9,7.9,0,0,0,194.53,67Z"/><path class="cls-1" d="M189.26,84l-.31.76a10.6,10.6,0,0,1-15,5.31l-1.59-.88A10.62,10.62,0,0,1,167.67,76l.51-1.27c1.81-4.49,15.82-11.81,17.93-9C183.49,71.48,190.81,80.21,189.26,84Z"/><path class="cls-2" d="M176.82,76.65c-.39-6.33,9.29-10.91,9.29-10.91s-7.58,8.67-3.46,16"/><path class="cls-3" d="M176.82,76.65a6.72,6.72,0,0,1,.45-3.84,11.33,11.33,0,0,1,2.17-3.29,17.53,17.53,0,0,1,2.91-2.61,22.17,22.17,0,0,1,3.34-2.06,1,1,0,0,1,1.32.42,1,1,0,0,1-.11,1.06l-.05.06a25.91,25.91,0,0,0-2.33,3.41,21.33,21.33,0,0,0-1.76,3.75,14.93,14.93,0,0,0-.8,4,12,12,0,0,0,.69,4.17,9.37,9.37,0,0,1-1.72-4.11,12.92,12.92,0,0,1,.26-4.55,18.63,18.63,0,0,1,1.64-4.24,21.12,21.12,0,0,1,2.54-3.77l1.16,1.54a34,34,0,0,0-3.14,1.78,24.88,24.88,0,0,0-2.9,2.17,12.63,12.63,0,0,0-2.4,2.66A7.82,7.82,0,0,0,176.82,76.65Z"/><path class="cls-1" d="M171.55,93.74l-.31.76a10.62,10.62,0,0,1-15,5.3l-1.58-.88A10.61,10.61,0,0,1,150,85.69l.51-1.27c1.8-4.49,15.82-11.81,17.93-9C165.78,81.19,173.09,89.91,171.55,93.74Z"/><path class="cls-2" d="M159.1,86.35c-.39-6.32,9.3-10.91,9.3-10.91s-7.59,8.67-3.47,16"/><path class="cls-3" d="M159.1,86.35a6.77,6.77,0,0,1,.46-3.83,11.42,11.42,0,0,1,2.16-3.3,19,19,0,0,1,2.92-2.61A22.07,22.07,0,0,1,168,74.55a1,1,0,0,1,1.32.42,1,1,0,0,1-.1,1.06l-.05.06a26.65,26.65,0,0,0-2.34,3.41A22.07,22.07,0,0,0,165,83.25a15,15,0,0,0-.79,4,12.19,12.19,0,0,0,.68,4.17,9.24,9.24,0,0,1-1.71-4.11,12.92,12.92,0,0,1,.26-4.55,18.55,18.55,0,0,1,1.64-4.23,21.14,21.14,0,0,1,2.53-3.78l1.17,1.54a34,34,0,0,0-3.14,1.78,25.87,25.87,0,0,0-2.91,2.17,13.48,13.48,0,0,0-2.4,2.66A8.08,8.08,0,0,0,159.1,86.35Z"/><path class="cls-1" d="M153.83,103.44l-.3.76a10.62,10.62,0,0,1-15,5.31l-1.59-.88a10.62,10.62,0,0,1-4.69-13.24l.51-1.27c1.8-4.49,15.82-11.81,17.92-9C148.06,90.89,155.38,99.61,153.83,103.44Z"/><path class="cls-2" d="M141.39,96.05c-.39-6.32,9.29-10.91,9.29-10.91s-7.58,8.68-3.46,16"/><path class="cls-3" d="M141.39,96.05a6.69,6.69,0,0,1,.46-3.83A11,11,0,0,1,144,88.93a18.05,18.05,0,0,1,2.91-2.62,23.92,23.92,0,0,1,3.34-2.06,1,1,0,0,1,1.32.43,1,1,0,0,1-.11,1l-.05.06a27.66,27.66,0,0,0-2.33,3.41A22.17,22.17,0,0,0,147.33,93a14.94,14.94,0,0,0-.8,4,12.55,12.55,0,0,0,.69,4.18,9.47,9.47,0,0,1-1.72-4.11,13,13,0,0,1,.27-4.56,18.24,18.24,0,0,1,1.63-4.23,21.2,21.2,0,0,1,2.54-3.78L151.1,86A33.13,33.13,0,0,0,148,87.82a23.73,23.73,0,0,0-2.9,2.16,12.94,12.94,0,0,0-2.4,2.67A7.78,7.78,0,0,0,141.39,96.05Z"/><path class="cls-1" d="M136.12,113.14l-.31.76a10.61,10.61,0,0,1-15,5.31l-1.59-.88a10.61,10.61,0,0,1-4.7-13.23l.51-1.27c1.8-4.49,15.82-11.82,17.93-9C130.35,100.59,137.66,109.32,136.12,113.14Z"/><path class="cls-2" d="M123.68,105.76c-.39-6.33,9.29-10.91,9.29-10.91s-7.59,8.67-3.46,16"/><path class="cls-3" d="M123.68,105.76a6.72,6.72,0,0,1,.45-3.84,11.33,11.33,0,0,1,2.17-3.29A17.53,17.53,0,0,1,129.21,96,22.54,22.54,0,0,1,132.55,94a1,1,0,0,1,1.31.43,1,1,0,0,1-.1,1.06l0,.06a27,27,0,0,0-2.34,3.41,21,21,0,0,0-1.75,3.75,14.56,14.56,0,0,0-.8,4,12,12,0,0,0,.69,4.17,9.3,9.3,0,0,1-1.72-4.11,12.89,12.89,0,0,1,.26-4.55A18.63,18.63,0,0,1,129.69,98a20.27,20.27,0,0,1,2.54-3.77l1.16,1.54a34,34,0,0,0-3.14,1.78,25.87,25.87,0,0,0-2.91,2.17,13.2,13.2,0,0,0-2.4,2.66A7.89,7.89,0,0,0,123.68,105.76Z"/><path class="cls-1" d="M118.41,122.84l-.31.76a10.62,10.62,0,0,1-15,5.31l-1.58-.88a10.61,10.61,0,0,1-4.7-13.23l.51-1.27c1.8-4.49,15.82-11.81,17.92-9C112.64,110.3,120,119,118.41,122.84Z"/><path class="cls-2" d="M106,115.46c-.39-6.33,9.29-10.91,9.29-10.91s-7.58,8.67-3.46,16"/><path class="cls-3" d="M106,115.46a6.77,6.77,0,0,1,.46-3.83,11.22,11.22,0,0,1,2.16-3.3,18.06,18.06,0,0,1,2.92-2.61,21.58,21.58,0,0,1,3.33-2.06,1,1,0,0,1,1.21,1.48l0,.06a26,26,0,0,0-2.34,3.41,22.07,22.07,0,0,0-1.76,3.75,14.93,14.93,0,0,0-.8,4,12.45,12.45,0,0,0,.69,4.17,9.37,9.37,0,0,1-1.72-4.11,13.16,13.16,0,0,1,.27-4.55,18.81,18.81,0,0,1,1.63-4.23,21.74,21.74,0,0,1,2.54-3.78l1.17,1.54a34,34,0,0,0-3.14,1.78,25,25,0,0,0-2.91,2.17,12.88,12.88,0,0,0-2.4,2.66A8,8,0,0,0,106,115.46Z"/><path class="cls-1" d="M100.69,132.55l-.3.76a10.62,10.62,0,0,1-15,5.3l-1.59-.88a10.6,10.6,0,0,1-4.69-13.23l.5-1.27c1.81-4.49,15.83-11.81,17.93-9C94.92,120,102.24,128.72,100.69,132.55Z"/><path class="cls-2" d="M88.25,125.16c-.39-6.32,9.29-10.91,9.29-10.91s-7.58,8.68-3.46,16"/><path class="cls-3" d="M88.25,125.16a6.68,6.68,0,0,1,.45-3.83,11.25,11.25,0,0,1,2.17-3.3,18.47,18.47,0,0,1,2.91-2.61,23.92,23.92,0,0,1,3.34-2.06,1,1,0,0,1,1.21,1.48l0,.06A26.59,26.59,0,0,0,96,118.31a21.67,21.67,0,0,0-1.76,3.75,15.09,15.09,0,0,0-.8,4,12.06,12.06,0,0,0,.69,4.18,9.46,9.46,0,0,1-1.72-4.12,12.69,12.69,0,0,1,.27-4.55,18.24,18.24,0,0,1,1.63-4.23,21.2,21.2,0,0,1,2.54-3.78L98,115.14a31.93,31.93,0,0,0-3.14,1.79,23.73,23.73,0,0,0-2.9,2.16,13.14,13.14,0,0,0-2.4,2.66A7.87,7.87,0,0,0,88.25,125.16Z"/><path class="cls-1" d="M254.57,61.88l-.31.76a10.62,10.62,0,0,1-15,5.31l-1.58-.88A10.62,10.62,0,0,1,233,53.83l.51-1.27c1.8-4.49,15.82-11.81,17.93-9C248.8,49.33,256.11,58.05,254.57,61.88Z"/><path class="cls-2" d="M242.12,54.5c-.39-6.33,9.3-10.92,9.3-10.92s-7.59,8.68-3.47,16"/><path class="cls-3" d="M242.12,54.5a6.8,6.8,0,0,1,.46-3.84,11.2,11.2,0,0,1,2.17-3.29,18.05,18.05,0,0,1,2.91-2.62A23.35,23.35,0,0,1,251,42.69a1,1,0,0,1,1.21,1.48l-.05.06a26.65,26.65,0,0,0-2.34,3.41,21.38,21.38,0,0,0-1.75,3.76,14.56,14.56,0,0,0-.8,4,12.06,12.06,0,0,0,.69,4.18,9.24,9.24,0,0,1-1.72-4.11,13,13,0,0,1,.26-4.56,18.73,18.73,0,0,1,1.64-4.23,20.67,20.67,0,0,1,2.54-3.78l1.16,1.54a31.93,31.93,0,0,0-3.14,1.79,24.63,24.63,0,0,0-2.91,2.16,13.53,13.53,0,0,0-2.4,2.67A8,8,0,0,0,242.12,54.5Z"/><path class="cls-1" d="M95.14,149.21l-.3.76a10.62,10.62,0,0,1-15,5.3l-1.59-.88a10.61,10.61,0,0,1-4.69-13.23l.51-1.27c1.8-4.49,15.82-11.81,17.92-9C89.37,136.66,96.69,145.38,95.14,149.21Z"/><path class="cls-2" d="M82.7,141.82C82.31,135.5,92,130.91,92,130.91s-7.58,8.67-3.46,16"/><path class="cls-3" d="M82.7,141.82a6.68,6.68,0,0,1,.46-3.83,11,11,0,0,1,2.16-3.3,18.47,18.47,0,0,1,2.91-2.61A22.17,22.17,0,0,1,91.57,130a1,1,0,0,1,1.32.42,1,1,0,0,1-.11,1.06l0,.06A27.66,27.66,0,0,0,90.4,135a22.07,22.07,0,0,0-1.76,3.75,15,15,0,0,0-.8,4,12.45,12.45,0,0,0,.69,4.17,9.37,9.37,0,0,1-1.72-4.11,12.92,12.92,0,0,1,.27-4.55A18.07,18.07,0,0,1,88.71,134a21.2,21.2,0,0,1,2.54-3.78l1.16,1.54a35.34,35.34,0,0,0-3.14,1.78,24.88,24.88,0,0,0-2.9,2.17,12.88,12.88,0,0,0-2.4,2.66A7.82,7.82,0,0,0,82.7,141.82Z"/><path class="cls-1" d="M236.85,71.58l-.3.76a10.62,10.62,0,0,1-15,5.31L220,76.77a10.61,10.61,0,0,1-4.7-13.23l.51-1.27c1.8-4.49,15.82-11.82,17.92-9C231.08,59,238.4,67.76,236.85,71.58Z"/><path class="cls-2" d="M224.41,64.2c-.39-6.33,9.29-10.91,9.29-10.91s-7.58,8.67-3.46,16"/><path class="cls-3" d="M224.41,64.2a6.81,6.81,0,0,1,.46-3.84A11.3,11.3,0,0,1,227,57.07,17.6,17.6,0,0,1,230,54.46a21.58,21.58,0,0,1,3.33-2.06,1,1,0,0,1,1.21,1.48l0,.06a26,26,0,0,0-2.34,3.41,22.07,22.07,0,0,0-1.76,3.75,14.93,14.93,0,0,0-.8,4,12.45,12.45,0,0,0,.69,4.17,9.37,9.37,0,0,1-1.72-4.11,13.14,13.14,0,0,1,.27-4.55,18.6,18.6,0,0,1,1.63-4.24A20.77,20.77,0,0,1,233,52.64l1.17,1.54A32.72,32.72,0,0,0,231,56a25,25,0,0,0-2.91,2.17,12.63,12.63,0,0,0-2.4,2.66A7.77,7.77,0,0,0,224.41,64.2Z"/><path class="cls-1" d="M219.14,81.29l-.31.76a10.61,10.61,0,0,1-15,5.3l-1.59-.88a10.62,10.62,0,0,1-4.7-13.23l.51-1.27c1.81-4.49,15.82-11.81,17.93-9C213.37,68.74,220.69,77.46,219.14,81.29Z"/><path class="cls-2" d="M206.7,73.9C206.31,67.57,216,63,216,63s-7.59,8.67-3.46,16"/><path class="cls-3" d="M206.7,73.9a6.68,6.68,0,0,1,.45-3.83,11.25,11.25,0,0,1,2.17-3.3,18.47,18.47,0,0,1,2.91-2.61,22.17,22.17,0,0,1,3.34-2.06,1,1,0,0,1,1.21,1.48l-.05.06a25.91,25.91,0,0,0-2.33,3.41,20.64,20.64,0,0,0-1.76,3.75,14.63,14.63,0,0,0-.8,4,12,12,0,0,0,.69,4.17,9.25,9.25,0,0,1-1.72-4.11,12.92,12.92,0,0,1,.26-4.55,18.37,18.37,0,0,1,1.64-4.23,21.2,21.2,0,0,1,2.54-3.78l1.16,1.54a34,34,0,0,0-3.14,1.78,24.88,24.88,0,0,0-2.9,2.17,12.88,12.88,0,0,0-2.4,2.66A7.82,7.82,0,0,0,206.7,73.9Z"/><path class="cls-1" d="M201.43,91l-.31.76a10.62,10.62,0,0,1-15,5.31l-1.58-.89a10.61,10.61,0,0,1-4.7-13.23l.51-1.27c1.8-4.49,15.82-11.81,17.93-9C195.66,78.44,203,87.16,201.43,91Z"/><path class="cls-2" d="M189,83.6c-.39-6.32,9.3-10.91,9.3-10.91s-7.59,8.68-3.47,16"/><path class="cls-3" d="M189,83.6a6.77,6.77,0,0,1,.46-3.83,11.56,11.56,0,0,1,2.16-3.3,19,19,0,0,1,2.92-2.61,23.81,23.81,0,0,1,3.33-2.06,1,1,0,0,1,1.32.43,1,1,0,0,1-.1,1l0,.06a26.65,26.65,0,0,0-2.34,3.41,22.17,22.17,0,0,0-1.76,3.76,14.55,14.55,0,0,0-.79,4,12.28,12.28,0,0,0,.68,4.18,9.47,9.47,0,0,1-1.72-4.11,13.2,13.2,0,0,1,.27-4.56A18.73,18.73,0,0,1,195,75.82,21.14,21.14,0,0,1,197.53,72l1.17,1.54a31.93,31.93,0,0,0-3.14,1.79,24.63,24.63,0,0,0-2.91,2.16,13.23,13.23,0,0,0-2.4,2.67A8,8,0,0,0,189,83.6Z"/><path class="cls-1" d="M183.71,100.69l-.3.76a10.62,10.62,0,0,1-15,5.31l-1.59-.88a10.61,10.61,0,0,1-4.69-13.23l.51-1.27c1.8-4.5,15.82-11.82,17.92-9C177.94,88.14,185.26,96.87,183.71,100.69Z"/><path class="cls-2" d="M171.27,93.31c-.39-6.33,9.29-10.91,9.29-10.91s-7.58,8.67-3.46,16"/><path class="cls-3" d="M171.27,93.31a6.71,6.71,0,0,1,.45-3.84,11.33,11.33,0,0,1,2.17-3.29,17.53,17.53,0,0,1,2.91-2.61,23.07,23.07,0,0,1,3.34-2.07A1,1,0,0,1,181.35,83l0,.05A27.78,27.78,0,0,0,179,86.46a21.72,21.72,0,0,0-1.76,3.75,14.93,14.93,0,0,0-.8,4,12.45,12.45,0,0,0,.69,4.17,9.42,9.42,0,0,1-1.72-4.11,12.89,12.89,0,0,1,.27-4.55,18.15,18.15,0,0,1,1.63-4.24,20.77,20.77,0,0,1,2.54-3.77L181,83.29a33,33,0,0,0-3.14,1.78,26,26,0,0,0-2.9,2.16,12.94,12.94,0,0,0-2.4,2.67A7.77,7.77,0,0,0,171.27,93.31Z"/><path class="cls-1" d="M166,110.39l-.31.76a10.62,10.62,0,0,1-15,5.31l-1.58-.88a10.61,10.61,0,0,1-4.7-13.23l.51-1.27c1.8-4.49,15.82-11.81,17.93-9C160.23,97.84,167.54,106.57,166,110.39Z"/><path class="cls-2" d="M153.55,103c-.38-6.33,9.3-10.91,9.3-10.91s-7.59,8.67-3.46,16"/><path class="cls-3" d="M153.56,103a6.68,6.68,0,0,1,.45-3.83,11.25,11.25,0,0,1,2.17-3.3,17.53,17.53,0,0,1,2.91-2.61,21.68,21.68,0,0,1,3.34-2.06,1,1,0,0,1,1.31.42,1,1,0,0,1-.1,1.06l0,.06a26,26,0,0,0-2.34,3.41,21.28,21.28,0,0,0-1.75,3.75,14.56,14.56,0,0,0-.8,4,12,12,0,0,0,.69,4.17,9.25,9.25,0,0,1-1.72-4.11,12.92,12.92,0,0,1,.26-4.55,18.63,18.63,0,0,1,1.64-4.24,21,21,0,0,1,2.54-3.77L163.27,93a34,34,0,0,0-3.14,1.78,25.87,25.87,0,0,0-2.91,2.17,13.48,13.48,0,0,0-2.4,2.66A7.93,7.93,0,0,0,153.56,103Z"/><path class="cls-1" d="M148.29,120.1l-.31.76a10.62,10.62,0,0,1-15,5.3l-1.58-.88a10.61,10.61,0,0,1-4.7-13.23l.51-1.27c1.8-4.49,15.82-11.81,17.92-9C142.51,107.55,149.83,116.27,148.29,120.1Z"/><path class="cls-2" d="M135.84,112.71c-.39-6.32,9.29-10.91,9.29-10.91s-7.58,8.68-3.46,16"/><path class="cls-3" d="M135.84,112.71a6.77,6.77,0,0,1,.46-3.83,11.22,11.22,0,0,1,2.16-3.3,18.54,18.54,0,0,1,2.92-2.61,22.38,22.38,0,0,1,3.33-2.06,1,1,0,0,1,1.32.43,1,1,0,0,1-.11,1l0,.06a26.65,26.65,0,0,0-2.34,3.41,22.07,22.07,0,0,0-1.76,3.75,15.09,15.09,0,0,0-.8,4,12.55,12.55,0,0,0,.69,4.18,9.46,9.46,0,0,1-1.72-4.12,13.16,13.16,0,0,1,.27-4.55,18.52,18.52,0,0,1,1.63-4.23,21.74,21.74,0,0,1,2.54-3.78l1.17,1.54a31.93,31.93,0,0,0-3.14,1.79,23.84,23.84,0,0,0-2.91,2.16,12.88,12.88,0,0,0-2.4,2.66A8,8,0,0,0,135.84,112.71Z"/><path class="cls-1" d="M130.57,129.8l-.31.76a10.6,10.6,0,0,1-15,5.31l-1.59-.88a10.63,10.63,0,0,1-4.7-13.24l.51-1.26c1.81-4.5,15.82-11.82,17.93-9C124.8,117.25,132.12,126,130.57,129.8Z"/><path class="cls-2" d="M118.13,122.42c-.39-6.33,9.29-10.92,9.29-10.92s-7.59,8.68-3.46,16"/><path class="cls-3" d="M118.13,122.42a6.71,6.71,0,0,1,.45-3.84,11.33,11.33,0,0,1,2.17-3.29,18.05,18.05,0,0,1,2.91-2.62,23.92,23.92,0,0,1,3.34-2.06,1,1,0,0,1,1.32.43,1,1,0,0,1-.11,1l-.05.06a26.59,26.59,0,0,0-2.33,3.41,21.42,21.42,0,0,0-1.76,3.76,14.56,14.56,0,0,0-.8,4,12.06,12.06,0,0,0,.69,4.18,9.35,9.35,0,0,1-1.72-4.11,13,13,0,0,1,.26-4.56,18.73,18.73,0,0,1,1.64-4.23,21.2,21.2,0,0,1,2.54-3.78l1.16,1.55a29.91,29.91,0,0,0-3.14,1.78,23.73,23.73,0,0,0-2.9,2.16,12.94,12.94,0,0,0-2.4,2.67A7.77,7.77,0,0,0,118.13,122.42Z"/><path class="cls-1" d="M112.86,139.5l-.31.76a10.62,10.62,0,0,1-15,5.31L96,144.69a10.61,10.61,0,0,1-4.7-13.23l.51-1.27c1.8-4.49,15.82-11.81,17.93-9C107.09,127,114.4,135.68,112.86,139.5Z"/><path class="cls-2" d="M100.41,132.12c-.39-6.33,9.3-10.91,9.3-10.91s-7.59,8.67-3.47,16"/><path class="cls-3" d="M100.41,132.12a6.81,6.81,0,0,1,.46-3.84A11.51,11.51,0,0,1,103,125a18,18,0,0,1,2.92-2.61,22.07,22.07,0,0,1,3.33-2.06,1,1,0,0,1,1.32.42,1,1,0,0,1-.1,1.06l0,.06a26,26,0,0,0-2.34,3.41,22.07,22.07,0,0,0-1.76,3.75,14.55,14.55,0,0,0-.79,4,12.19,12.19,0,0,0,.68,4.17,9.24,9.24,0,0,1-1.71-4.11,12.92,12.92,0,0,1,.26-4.55,18.63,18.63,0,0,1,1.64-4.24,20.71,20.71,0,0,1,2.53-3.77l1.17,1.54a34,34,0,0,0-3.14,1.78,25.87,25.87,0,0,0-2.91,2.17,13.2,13.2,0,0,0-2.4,2.66A8,8,0,0,0,100.41,132.12Z"/><path class="cls-1" d="M266.19,63.59l-.31.76a10.6,10.6,0,0,1-15,5.31l-1.59-.88a10.62,10.62,0,0,1-4.7-13.23l.51-1.27c1.81-4.49,15.82-11.82,17.93-9C260.42,51,267.74,59.77,266.19,63.59Z"/><path class="cls-2" d="M253.75,56.21C253.36,49.88,263,45.3,263,45.3s-7.59,8.67-3.46,16"/><path class="cls-3" d="M253.75,56.21a6.72,6.72,0,0,1,.45-3.84,11.33,11.33,0,0,1,2.17-3.29,17.53,17.53,0,0,1,2.91-2.61,22.17,22.17,0,0,1,3.34-2.06,1,1,0,0,1,1.32.42,1,1,0,0,1-.11,1.06l-.05.06a25.91,25.91,0,0,0-2.33,3.41,21.33,21.33,0,0,0-1.76,3.75,14.56,14.56,0,0,0-.8,4,12,12,0,0,0,.69,4.17,9.3,9.3,0,0,1-1.72-4.11,12.89,12.89,0,0,1,.26-4.55,18.63,18.63,0,0,1,1.64-4.24,20.77,20.77,0,0,1,2.54-3.77l1.16,1.54A34,34,0,0,0,260.32,48a24.88,24.88,0,0,0-2.9,2.17A12.63,12.63,0,0,0,255,52.8,7.77,7.77,0,0,0,253.75,56.21Z"/><path class="cls-1" d="M249.91,73.57l-.31.76a10.62,10.62,0,0,1-15,5.3L233,78.75a10.61,10.61,0,0,1-4.7-13.23l.51-1.27c1.8-4.49,15.82-11.81,17.93-9C244.14,61,251.45,69.74,249.91,73.57Z"/><path class="cls-2" d="M237.46,66.18c-.39-6.33,9.3-10.91,9.3-10.91s-7.59,8.67-3.47,16"/><path class="cls-3" d="M237.46,66.18a6.77,6.77,0,0,1,.46-3.83,11.42,11.42,0,0,1,2.16-3.3A19,19,0,0,1,243,56.44a22.07,22.07,0,0,1,3.33-2.06,1,1,0,0,1,1.32.42,1,1,0,0,1-.1,1.06l-.05.06a26,26,0,0,0-2.34,3.41,22.07,22.07,0,0,0-1.76,3.75,14.55,14.55,0,0,0-.79,4,12.19,12.19,0,0,0,.68,4.17,9.37,9.37,0,0,1-1.72-4.11,13.16,13.16,0,0,1,.27-4.55,18.37,18.37,0,0,1,1.64-4.23A21.14,21.14,0,0,1,246,54.62l1.17,1.54A34,34,0,0,0,244,57.94a25.87,25.87,0,0,0-2.91,2.17,13.17,13.17,0,0,0-2.4,2.66A8.08,8.08,0,0,0,237.46,66.18Z"/><path class="cls-1" d="M232.1,84.62l-.31.76a10.61,10.61,0,0,1-15,5.3l-1.59-.88a10.62,10.62,0,0,1-4.7-13.23L211,75.3c1.81-4.49,15.82-11.81,17.93-9C226.33,72.07,233.65,80.79,232.1,84.62Z"/><path class="cls-2" d="M219.66,77.23c-.39-6.32,9.29-10.91,9.29-10.91s-7.59,8.67-3.46,16"/><path class="cls-3" d="M219.66,77.23a6.68,6.68,0,0,1,.45-3.83,11.25,11.25,0,0,1,2.17-3.3,18.47,18.47,0,0,1,2.91-2.61,22.17,22.17,0,0,1,3.34-2.06,1,1,0,0,1,1.32.42,1,1,0,0,1-.11,1.06l-.05.06a25.91,25.91,0,0,0-2.33,3.41,21.33,21.33,0,0,0-1.76,3.75,14.63,14.63,0,0,0-.8,4,12,12,0,0,0,.69,4.17,9.25,9.25,0,0,1-1.72-4.11,12.92,12.92,0,0,1,.26-4.55,18.37,18.37,0,0,1,1.64-4.23,21.2,21.2,0,0,1,2.54-3.78l1.16,1.54A34,34,0,0,0,226.23,69a24.88,24.88,0,0,0-2.9,2.17,12.88,12.88,0,0,0-2.4,2.66A7.82,7.82,0,0,0,219.66,77.23Z"/><path class="cls-1" d="M214.3,95.67l-.31.76a10.62,10.62,0,0,1-15,5.3l-1.58-.88a10.61,10.61,0,0,1-4.7-13.23l.51-1.27c1.8-4.49,15.82-11.81,17.92-9C208.52,83.12,215.84,91.84,214.3,95.67Z"/><path class="cls-2" d="M201.85,88.28c-.39-6.32,9.29-10.91,9.29-10.91s-7.58,8.67-3.46,16"/><path class="cls-3" d="M201.85,88.28a6.77,6.77,0,0,1,.46-3.83,11.22,11.22,0,0,1,2.16-3.3,18.54,18.54,0,0,1,2.92-2.61,21.58,21.58,0,0,1,3.33-2.06A1,1,0,0,1,211.93,78l0,.06a26.65,26.65,0,0,0-2.34,3.41,22.07,22.07,0,0,0-1.76,3.75,15,15,0,0,0-.8,4,12.55,12.55,0,0,0,.69,4.18A9.46,9.46,0,0,1,206,89.28a13.16,13.16,0,0,1,.27-4.55,18.52,18.52,0,0,1,1.63-4.23,21.74,21.74,0,0,1,2.54-3.78l1.17,1.54A34,34,0,0,0,208.43,80a25,25,0,0,0-2.91,2.17,12.88,12.88,0,0,0-2.4,2.66A8,8,0,0,0,201.85,88.28Z"/><path class="cls-1" d="M196.49,106.72l-.31.76a10.62,10.62,0,0,1-15,5.3l-1.58-.88a10.61,10.61,0,0,1-4.7-13.23l.51-1.27c1.8-4.49,15.82-11.81,17.93-9C190.72,94.17,198,102.89,196.49,106.72Z"/><path class="cls-2" d="M184.05,99.33c-.39-6.32,9.29-10.91,9.29-10.91s-7.59,8.67-3.46,16"/><path class="cls-3" d="M184.05,99.33a6.68,6.68,0,0,1,.45-3.83,11.25,11.25,0,0,1,2.17-3.3,18.47,18.47,0,0,1,2.91-2.61,21.68,21.68,0,0,1,3.34-2.06,1,1,0,0,1,1.31.43,1,1,0,0,1-.1,1.05l0,.06a26.65,26.65,0,0,0-2.34,3.41A21.28,21.28,0,0,0,190,96.23a14.63,14.63,0,0,0-.8,4,12.06,12.06,0,0,0,.69,4.18,9.34,9.34,0,0,1-1.72-4.12,12.92,12.92,0,0,1,.26-4.55,18.55,18.55,0,0,1,1.64-4.23,20.67,20.67,0,0,1,2.54-3.78l1.16,1.54a31.93,31.93,0,0,0-3.14,1.79,24.63,24.63,0,0,0-2.91,2.16,13.48,13.48,0,0,0-2.4,2.66A7.93,7.93,0,0,0,184.05,99.33Z"/><path class="cls-1" d="M277.33,71.8l-.31.77a10.62,10.62,0,0,1-15,5.3L260.44,77a10.61,10.61,0,0,1-4.7-13.23l.51-1.27c1.8-4.49,15.82-11.81,17.93-9C271.56,59.26,278.87,68,277.33,71.8Z"/><path class="cls-2" d="M264.88,64.42c-.38-6.33,9.3-10.91,9.3-10.91s-7.59,8.67-3.46,16"/><path class="cls-3" d="M264.88,64.42a6.77,6.77,0,0,1,.46-3.83,11.25,11.25,0,0,1,2.17-3.3,18,18,0,0,1,2.91-2.61,21.68,21.68,0,0,1,3.34-2.06,1,1,0,0,1,1.31.42,1,1,0,0,1-.1,1.06l-.05.06a26,26,0,0,0-2.34,3.41,21.28,21.28,0,0,0-1.75,3.75,14.56,14.56,0,0,0-.8,4,12,12,0,0,0,.69,4.17A9.25,9.25,0,0,1,269,65.42a12.92,12.92,0,0,1,.26-4.55,18.37,18.37,0,0,1,1.64-4.23,20.67,20.67,0,0,1,2.54-3.78l1.16,1.54a34,34,0,0,0-3.14,1.78,25.87,25.87,0,0,0-2.91,2.17,13.48,13.48,0,0,0-2.4,2.66A8.08,8.08,0,0,0,264.88,64.42Z"/><path class="cls-1" d="M261.05,81.78l-.31.76a10.62,10.62,0,0,1-15,5.3L244.16,87a10.61,10.61,0,0,1-4.7-13.23l.51-1.27c1.8-4.49,15.82-11.81,17.92-9C255.27,69.23,262.59,78,261.05,81.78Z"/><path class="cls-2" d="M248.6,74.39c-.39-6.32,9.29-10.91,9.29-10.91s-7.58,8.68-3.46,16"/><path class="cls-3" d="M248.6,74.39a6.77,6.77,0,0,1,.46-3.83,11.35,11.35,0,0,1,2.16-3.3,18.54,18.54,0,0,1,2.92-2.61,23.24,23.24,0,0,1,3.33-2.06,1,1,0,0,1,1.32.43,1,1,0,0,1-.11,1l0,.06a26.65,26.65,0,0,0-2.34,3.41,22.44,22.44,0,0,0-1.76,3.75,15.09,15.09,0,0,0-.8,4,12.55,12.55,0,0,0,.69,4.18,9.46,9.46,0,0,1-1.72-4.12,13.16,13.16,0,0,1,.27-4.55,18.7,18.7,0,0,1,1.63-4.23,21.74,21.74,0,0,1,2.54-3.78l1.17,1.54a33.27,33.27,0,0,0-3.15,1.79,24.52,24.52,0,0,0-2.9,2.16,13.14,13.14,0,0,0-2.4,2.66A7.87,7.87,0,0,0,248.6,74.39Z"/><path class="cls-1" d="M243.24,92.83l-.31.76a10.61,10.61,0,0,1-15,5.3L226.35,98a10.61,10.61,0,0,1-4.7-13.23l.51-1.27C224,79,238,71.7,240.09,74.53,237.47,80.28,244.78,89,243.24,92.83Z"/><path class="cls-2" d="M230.79,85.44c-.38-6.32,9.3-10.91,9.3-10.91s-7.59,8.68-3.46,16"/><path class="cls-3" d="M230.79,85.44a6.77,6.77,0,0,1,.46-3.83,11.38,11.38,0,0,1,2.17-3.3,18.47,18.47,0,0,1,2.91-2.61,23.35,23.35,0,0,1,3.34-2.06,1,1,0,0,1,1.21,1.48l0,.06a26.65,26.65,0,0,0-2.34,3.41,21.38,21.38,0,0,0-1.75,3.76,14.56,14.56,0,0,0-.8,4,12.06,12.06,0,0,0,.69,4.18,9.35,9.35,0,0,1-1.72-4.11,13,13,0,0,1,.26-4.56,18.73,18.73,0,0,1,1.64-4.23,20.67,20.67,0,0,1,2.54-3.78l1.16,1.54a31.93,31.93,0,0,0-3.14,1.79,24.63,24.63,0,0,0-2.91,2.16,13.53,13.53,0,0,0-2.4,2.67A8,8,0,0,0,230.79,85.44Z"/><path class="cls-1" d="M225.43,103.88l-.3.76a10.62,10.62,0,0,1-15,5.31l-1.59-.89a10.6,10.6,0,0,1-4.69-13.23l.51-1.27c1.8-4.49,15.82-11.81,17.92-9C219.66,91.33,227,100.05,225.43,103.88Z"/><path class="cls-2" d="M213,96.49c-.39-6.32,9.29-10.91,9.29-10.91s-7.58,8.68-3.46,16"/><path class="cls-3" d="M213,96.49a6.68,6.68,0,0,1,.45-3.83,11.38,11.38,0,0,1,2.17-3.3,18.47,18.47,0,0,1,2.91-2.61,23.92,23.92,0,0,1,3.34-2.06,1,1,0,0,1,1.32.43,1,1,0,0,1-.11,1l0,.06a27.66,27.66,0,0,0-2.33,3.41,21.42,21.42,0,0,0-1.76,3.76,14.94,14.94,0,0,0-.8,4,12.3,12.3,0,0,0,.69,4.18,9.47,9.47,0,0,1-1.72-4.11,13,13,0,0,1,.27-4.56A18.24,18.24,0,0,1,219,88.71a21.2,21.2,0,0,1,2.54-3.78l1.16,1.54a33.13,33.13,0,0,0-3.14,1.79,23.73,23.73,0,0,0-2.9,2.16,12.94,12.94,0,0,0-2.4,2.67A7.78,7.78,0,0,0,213,96.49Z"/><path class="cls-1" d="M207.63,114.93l-.31.76a10.62,10.62,0,0,1-15,5.31l-1.58-.88a10.62,10.62,0,0,1-4.7-13.24l.51-1.27c1.8-4.49,15.82-11.81,17.93-9C201.86,102.38,209.17,111.1,207.63,114.93Z"/><path class="cls-2" d="M195.18,107.54c-.39-6.32,9.3-10.91,9.3-10.91s-7.59,8.68-3.47,16"/><path class="cls-3" d="M195.18,107.54a6.78,6.78,0,0,1,.46-3.83,11.56,11.56,0,0,1,2.16-3.3,19,19,0,0,1,2.92-2.61,23.81,23.81,0,0,1,3.33-2.06,1,1,0,0,1,1.32.43,1,1,0,0,1-.1,1l-.05.06a26.65,26.65,0,0,0-2.34,3.41,22.17,22.17,0,0,0-1.76,3.76,14.55,14.55,0,0,0-.79,4,12.28,12.28,0,0,0,.68,4.18,9.47,9.47,0,0,1-1.72-4.11,13.2,13.2,0,0,1,.27-4.56,18.73,18.73,0,0,1,1.64-4.23A21.14,21.14,0,0,1,203.73,96l1.17,1.54a31.93,31.93,0,0,0-3.14,1.79,24.63,24.63,0,0,0-2.91,2.16,13.23,13.23,0,0,0-2.4,2.67A8,8,0,0,0,195.18,107.54Z"/><path class="cls-1" d="M293,82.32l-.31.76a10.62,10.62,0,0,1-15,5.3l-1.58-.88a10.61,10.61,0,0,1-4.7-13.23L271.9,73c1.8-4.49,15.82-11.81,17.93-9C287.21,69.77,294.52,78.49,293,82.32Z"/><path class="cls-2" d="M280.53,74.93c-.38-6.32,9.3-10.91,9.3-10.91s-7.59,8.67-3.46,16"/><path class="cls-3" d="M280.53,74.93A6.77,6.77,0,0,1,281,71.1a11.25,11.25,0,0,1,2.17-3.3,18.47,18.47,0,0,1,2.91-2.61,21.68,21.68,0,0,1,3.34-2.06,1,1,0,0,1,1.31.43,1,1,0,0,1-.1,1l-.05.06a26.65,26.65,0,0,0-2.34,3.41,21.28,21.28,0,0,0-1.75,3.75,14.63,14.63,0,0,0-.8,4,12.06,12.06,0,0,0,.69,4.18,9.34,9.34,0,0,1-1.72-4.12,12.92,12.92,0,0,1,.26-4.55,18.55,18.55,0,0,1,1.64-4.23,20.67,20.67,0,0,1,2.54-3.78l1.16,1.54a31.93,31.93,0,0,0-3.14,1.79,24.63,24.63,0,0,0-2.91,2.16,13.48,13.48,0,0,0-2.4,2.66A8.08,8.08,0,0,0,280.53,74.93Z"/><path class="cls-1" d="M276.7,92.29l-.31.76a10.62,10.62,0,0,1-15,5.31l-1.58-.88a10.62,10.62,0,0,1-4.7-13.24l.51-1.27c1.8-4.49,15.82-11.81,17.92-9C270.92,79.74,278.24,88.46,276.7,92.29Z"/><path class="cls-2" d="M264.25,84.9c-.39-6.32,9.29-10.91,9.29-10.91s-7.58,8.68-3.46,16"/><path class="cls-3" d="M264.25,84.9a6.78,6.78,0,0,1,.46-3.83,11.17,11.17,0,0,1,2.16-3.29,18.12,18.12,0,0,1,2.92-2.62,23.24,23.24,0,0,1,3.33-2.06,1,1,0,0,1,1.32.43,1,1,0,0,1-.11,1l0,.06A26.65,26.65,0,0,0,272,78.05a22.17,22.17,0,0,0-1.76,3.76,14.94,14.94,0,0,0-.8,4,12.55,12.55,0,0,0,.69,4.18,9.47,9.47,0,0,1-1.72-4.11,13.2,13.2,0,0,1,.27-4.56,18.7,18.7,0,0,1,1.63-4.23,21.74,21.74,0,0,1,2.54-3.78L274,74.88a31.93,31.93,0,0,0-3.14,1.79,23.84,23.84,0,0,0-2.91,2.16,12.94,12.94,0,0,0-2.4,2.67A7.78,7.78,0,0,0,264.25,84.9Z"/><path class="cls-1" d="M258.89,103.34l-.31.76a10.62,10.62,0,0,1-15,5.31l-1.58-.88a10.62,10.62,0,0,1-4.7-13.24l.51-1.27c1.8-4.49,15.82-11.81,17.93-9C253.12,90.79,260.43,99.51,258.89,103.34Z"/><path class="cls-2" d="M246.44,96c-.38-6.33,9.3-10.92,9.3-10.92s-7.59,8.68-3.46,16"/><path class="cls-3" d="M246.45,96a6.71,6.71,0,0,1,.45-3.84,11.2,11.2,0,0,1,2.17-3.29A18.05,18.05,0,0,1,252,86.21a23.35,23.35,0,0,1,3.34-2.06,1,1,0,0,1,1.21,1.48l0,.06a26.65,26.65,0,0,0-2.34,3.41,21.38,21.38,0,0,0-1.75,3.76,14.56,14.56,0,0,0-.8,4,12.06,12.06,0,0,0,.69,4.18A9.35,9.35,0,0,1,250.56,97a13,13,0,0,1,.26-4.56,18.73,18.73,0,0,1,1.64-4.23A20.67,20.67,0,0,1,255,84.39l1.16,1.55A29.91,29.91,0,0,0,253,87.72a24.63,24.63,0,0,0-2.91,2.16,13.53,13.53,0,0,0-2.4,2.67A7.89,7.89,0,0,0,246.45,96Z"/><path class="cls-1" d="M241.08,114.39l-.3.76a10.62,10.62,0,0,1-15,5.31l-1.59-.88a10.62,10.62,0,0,1-4.69-13.24l.51-1.26c1.8-4.5,15.82-11.82,17.92-9C235.31,101.84,242.63,110.56,241.08,114.39Z"/><path class="cls-2" d="M228.64,107c-.39-6.33,9.29-10.92,9.29-10.92s-7.58,8.68-3.46,16"/><path class="cls-3" d="M228.64,107a6.71,6.71,0,0,1,.45-3.84,11.33,11.33,0,0,1,2.17-3.29,17.53,17.53,0,0,1,2.91-2.61,23.07,23.07,0,0,1,3.34-2.07,1,1,0,0,1,1.32.43,1,1,0,0,1-.11,1.05l-.05.06a27.66,27.66,0,0,0-2.33,3.41,22.17,22.17,0,0,0-1.76,3.76,14.94,14.94,0,0,0-.8,4,12.55,12.55,0,0,0,.69,4.18,9.47,9.47,0,0,1-1.72-4.11,13,13,0,0,1,.27-4.56,18.24,18.24,0,0,1,1.63-4.23,20.77,20.77,0,0,1,2.54-3.77L238.35,97a33,33,0,0,0-3.14,1.78,24.81,24.81,0,0,0-2.9,2.16,12.94,12.94,0,0,0-2.4,2.67A7.77,7.77,0,0,0,228.64,107Z"/><path class="cls-1" d="M223.28,125.44l-.31.76a10.62,10.62,0,0,1-15,5.31l-1.58-.88a10.62,10.62,0,0,1-4.7-13.24l.51-1.26c1.8-4.5,15.82-11.82,17.93-9C217.51,112.89,224.82,121.61,223.28,125.44Z"/><path class="cls-2" d="M210.83,118.06c-.39-6.33,9.3-10.92,9.3-10.92s-7.59,8.68-3.47,16"/><path class="cls-3" d="M210.83,118.06a6.8,6.8,0,0,1,.46-3.84,11.51,11.51,0,0,1,2.16-3.29,18,18,0,0,1,2.92-2.61,23,23,0,0,1,3.33-2.07,1,1,0,0,1,1.32.43,1,1,0,0,1-.1,1l0,.06a27.37,27.37,0,0,0-2.34,3.41,22.17,22.17,0,0,0-1.76,3.76,14.55,14.55,0,0,0-.79,4,12.28,12.28,0,0,0,.68,4.18,9.34,9.34,0,0,1-1.71-4.11,13,13,0,0,1,.26-4.56,18.73,18.73,0,0,1,1.64-4.23,20.71,20.71,0,0,1,2.53-3.77l1.17,1.54a31.82,31.82,0,0,0-3.14,1.78A25.79,25.79,0,0,0,214.5,112a13.23,13.23,0,0,0-2.4,2.67A8,8,0,0,0,210.83,118.06Z"/><path class="cls-1" d="M307.81,91.34l-.31.76a10.62,10.62,0,0,1-15,5.31l-1.58-.88a10.61,10.61,0,0,1-4.7-13.23l.51-1.27c1.8-4.49,15.82-11.81,17.93-9C302,78.79,309.35,87.52,307.81,91.34Z"/><path class="cls-2" d="M295.36,84c-.39-6.33,9.3-10.91,9.3-10.91s-7.59,8.67-3.47,16"/><path class="cls-3" d="M295.36,84a6.77,6.77,0,0,1,.46-3.83,11.42,11.42,0,0,1,2.16-3.3,18.49,18.49,0,0,1,2.92-2.61,22.07,22.07,0,0,1,3.33-2.06,1,1,0,0,1,1.32.42,1,1,0,0,1-.1,1.06l-.05.06a26,26,0,0,0-2.34,3.41,22.07,22.07,0,0,0-1.76,3.75,14.55,14.55,0,0,0-.79,4,12.19,12.19,0,0,0,.68,4.17A9.24,9.24,0,0,1,299.48,85a12.92,12.92,0,0,1,.26-4.55,18.37,18.37,0,0,1,1.64-4.23,21.14,21.14,0,0,1,2.53-3.78l1.17,1.54a34,34,0,0,0-3.14,1.78A25.87,25.87,0,0,0,299,77.89a13.17,13.17,0,0,0-2.4,2.66A8.08,8.08,0,0,0,295.36,84Z"/><path class="cls-1" d="M291.52,101.32l-.3.76a10.62,10.62,0,0,1-15,5.3l-1.59-.88a10.6,10.6,0,0,1-4.69-13.23l.51-1.27c1.8-4.49,15.82-11.81,17.92-9C285.75,88.77,293.07,97.49,291.52,101.32Z"/><path class="cls-2" d="M279.08,93.93c-.39-6.32,9.29-10.91,9.29-10.91s-7.58,8.68-3.46,16"/><path class="cls-3" d="M279.08,93.93a6.68,6.68,0,0,1,.45-3.83,11.25,11.25,0,0,1,2.17-3.3,18.47,18.47,0,0,1,2.91-2.61A23.92,23.92,0,0,1,288,82.13a1,1,0,0,1,1.21,1.48l-.05.06a27.66,27.66,0,0,0-2.33,3.41A22.07,22.07,0,0,0,285,90.83a15.09,15.09,0,0,0-.8,4,12.55,12.55,0,0,0,.69,4.18,9.46,9.46,0,0,1-1.72-4.12,12.92,12.92,0,0,1,.27-4.55,18.07,18.07,0,0,1,1.63-4.23,21.2,21.2,0,0,1,2.54-3.78l1.16,1.54a33.13,33.13,0,0,0-3.14,1.79,23.73,23.73,0,0,0-2.9,2.16,12.88,12.88,0,0,0-2.4,2.66A7.87,7.87,0,0,0,279.08,93.93Z"/><path class="cls-1" d="M273.72,112.37l-.31.76a10.62,10.62,0,0,1-15,5.3l-1.58-.88a10.61,10.61,0,0,1-4.7-13.23l.51-1.27c1.8-4.49,15.82-11.81,17.93-9C268,99.82,275.26,108.54,273.72,112.37Z"/><path class="cls-2" d="M261.27,105c-.39-6.32,9.3-10.91,9.3-10.91s-7.59,8.68-3.47,16"/><path class="cls-3" d="M261.27,105a6.77,6.77,0,0,1,.46-3.83,11.42,11.42,0,0,1,2.16-3.3,19,19,0,0,1,2.92-2.61,23.81,23.81,0,0,1,3.33-2.06,1,1,0,0,1,1.22,1.48l-.05.06A26.65,26.65,0,0,0,269,98.13a22.44,22.44,0,0,0-1.76,3.75,14.69,14.69,0,0,0-.79,4,12.28,12.28,0,0,0,.68,4.18,9.46,9.46,0,0,1-1.72-4.12,13.16,13.16,0,0,1,.27-4.55,18.73,18.73,0,0,1,1.64-4.23,21.14,21.14,0,0,1,2.53-3.78L271,95a31.93,31.93,0,0,0-3.14,1.79,24.63,24.63,0,0,0-2.91,2.16,13.45,13.45,0,0,0-2.4,2.66A8.13,8.13,0,0,0,261.27,105Z"/><path class="cls-1" d="M255.91,123.42l-.31.76a10.6,10.6,0,0,1-15,5.3L239,128.6a10.62,10.62,0,0,1-4.7-13.23l.51-1.27c1.81-4.49,15.82-11.81,17.93-9C250.14,110.87,257.46,119.59,255.91,123.42Z"/><path class="cls-2" d="M243.47,116c-.39-6.32,9.29-10.91,9.29-10.91s-7.59,8.68-3.46,16"/><path class="cls-3" d="M243.47,116a6.68,6.68,0,0,1,.45-3.83,11.38,11.38,0,0,1,2.17-3.3,18.47,18.47,0,0,1,2.91-2.61,23.92,23.92,0,0,1,3.34-2.06,1,1,0,0,1,1.21,1.48l-.05.06a26.59,26.59,0,0,0-2.33,3.41,21.42,21.42,0,0,0-1.76,3.76,14.56,14.56,0,0,0-.8,4,12.06,12.06,0,0,0,.69,4.18,9.35,9.35,0,0,1-1.72-4.11,13,13,0,0,1,.26-4.56,18.73,18.73,0,0,1,1.64-4.23,21.2,21.2,0,0,1,2.54-3.78l1.16,1.54A31.93,31.93,0,0,0,250,107.8a23.73,23.73,0,0,0-2.9,2.16,12.94,12.94,0,0,0-2.4,2.67A7.78,7.78,0,0,0,243.47,116Z"/><path class="cls-1" d="M238.11,134.47l-.31.76a10.62,10.62,0,0,1-15,5.31l-1.58-.89a10.61,10.61,0,0,1-4.7-13.23l.51-1.27c1.8-4.49,15.82-11.81,17.92-9C232.33,121.92,239.65,130.64,238.11,134.47Z"/><path class="cls-2" d="M225.66,127.08c-.39-6.32,9.29-10.91,9.29-10.91s-7.58,8.68-3.46,16"/><path class="cls-3" d="M225.66,127.08a6.77,6.77,0,0,1,.46-3.83,11.35,11.35,0,0,1,2.16-3.3,18.54,18.54,0,0,1,2.92-2.61,23.24,23.24,0,0,1,3.33-2.06,1,1,0,0,1,1.32.43,1,1,0,0,1-.11,1.05l0,.06a26.65,26.65,0,0,0-2.34,3.41A22.17,22.17,0,0,0,231.6,124a14.94,14.94,0,0,0-.8,4,12.55,12.55,0,0,0,.69,4.18,9.47,9.47,0,0,1-1.72-4.11,13.2,13.2,0,0,1,.27-4.56,18.7,18.7,0,0,1,1.63-4.23,21.74,21.74,0,0,1,2.54-3.78l1.17,1.54a31.93,31.93,0,0,0-3.14,1.79,23.84,23.84,0,0,0-2.91,2.16,12.94,12.94,0,0,0-2.4,2.67A7.9,7.9,0,0,0,225.66,127.08Z"/><path class="cls-1" d="M323.61,99.54l-.31.76a10.61,10.61,0,0,1-15,5.3l-1.59-.88A10.61,10.61,0,0,1,302,91.49l.51-1.27c1.81-4.49,15.82-11.81,17.93-9C317.84,87,325.15,95.71,323.61,99.54Z"/><path class="cls-2" d="M311.17,92.15c-.39-6.32,9.29-10.91,9.29-10.91s-7.59,8.68-3.46,16"/><path class="cls-3" d="M311.17,92.15a6.68,6.68,0,0,1,.45-3.83,11.25,11.25,0,0,1,2.17-3.3,18.47,18.47,0,0,1,2.91-2.61A23.92,23.92,0,0,1,320,80.35a1,1,0,0,1,1.21,1.48l-.05.06a26.59,26.59,0,0,0-2.33,3.41,21,21,0,0,0-1.76,3.75,14.71,14.71,0,0,0-.8,4,12.06,12.06,0,0,0,.69,4.18,9.34,9.34,0,0,1-1.72-4.12,12.92,12.92,0,0,1,.26-4.55,18.55,18.55,0,0,1,1.64-4.23,21.2,21.2,0,0,1,2.54-3.78l1.16,1.54a31.93,31.93,0,0,0-3.14,1.79,24.63,24.63,0,0,0-2.91,2.16,13.12,13.12,0,0,0-2.39,2.66A7.87,7.87,0,0,0,311.17,92.15Z"/><path class="cls-1" d="M307.33,109.51l-.31.76a10.62,10.62,0,0,1-15,5.31l-1.58-.88a10.62,10.62,0,0,1-4.7-13.24l.51-1.26c1.8-4.5,15.82-11.82,17.93-9C301.56,97,308.87,105.68,307.33,109.51Z"/><path class="cls-2" d="M294.88,102.13c-.39-6.33,9.3-10.92,9.3-10.92s-7.59,8.68-3.47,16"/><path class="cls-3" d="M294.88,102.13a6.8,6.8,0,0,1,.46-3.84A11.51,11.51,0,0,1,297.5,95a17.6,17.6,0,0,1,2.92-2.61,23,23,0,0,1,3.33-2.07,1,1,0,0,1,1.32.43,1,1,0,0,1-.1,1l-.05.06a26.65,26.65,0,0,0-2.34,3.41A22.17,22.17,0,0,0,300.82,99a14.94,14.94,0,0,0-.8,4,12.55,12.55,0,0,0,.69,4.18,9.47,9.47,0,0,1-1.72-4.11,13.2,13.2,0,0,1,.27-4.56,18.73,18.73,0,0,1,1.64-4.23,20.71,20.71,0,0,1,2.53-3.77l1.17,1.54a31.82,31.82,0,0,0-3.14,1.78,24.63,24.63,0,0,0-2.91,2.16,13.23,13.23,0,0,0-2.4,2.67A8,8,0,0,0,294.88,102.13Z"/><path class="cls-1" d="M289.52,120.56l-.31.76a10.6,10.6,0,0,1-15,5.31l-1.59-.88a10.62,10.62,0,0,1-4.7-13.24l.51-1.26c1.8-4.5,15.82-11.82,17.93-9C283.75,108,291.06,116.73,289.52,120.56Z"/><path class="cls-2" d="M277.08,113.18c-.39-6.33,9.29-10.92,9.29-10.92s-7.59,8.68-3.46,16"/><path class="cls-3" d="M277.08,113.18a6.71,6.71,0,0,1,.45-3.84,11.33,11.33,0,0,1,2.17-3.29,17.53,17.53,0,0,1,2.91-2.61,23.07,23.07,0,0,1,3.34-2.07,1,1,0,0,1,1.31.43,1,1,0,0,1-.1,1l-.05.06a27.31,27.31,0,0,0-2.33,3.41,20.73,20.73,0,0,0-1.76,3.76,14.56,14.56,0,0,0-.8,4,12.06,12.06,0,0,0,.69,4.18,9.35,9.35,0,0,1-1.72-4.11,12.89,12.89,0,0,1,.26-4.55,18.63,18.63,0,0,1,1.64-4.24,20.77,20.77,0,0,1,2.54-3.77l1.16,1.54a31.82,31.82,0,0,0-3.14,1.78,25.79,25.79,0,0,0-2.91,2.16,13.18,13.18,0,0,0-2.39,2.67A7.77,7.77,0,0,0,277.08,113.18Z"/><path class="cls-1" d="M271.71,131.61l-.3.76a10.62,10.62,0,0,1-15,5.31l-1.59-.88a10.62,10.62,0,0,1-4.69-13.23l.51-1.27c1.8-4.5,15.82-11.82,17.92-9C265.94,119.06,273.26,127.79,271.71,131.61Z"/><path class="cls-2" d="M259.27,124.23c-.39-6.33,9.29-10.91,9.29-10.91s-7.58,8.67-3.46,16"/><path class="cls-3" d="M259.27,124.23a6.8,6.8,0,0,1,.46-3.84,11.3,11.3,0,0,1,2.16-3.29,17.6,17.6,0,0,1,2.92-2.61,22.43,22.43,0,0,1,3.33-2.07,1,1,0,0,1,1.32.43,1,1,0,0,1-.11,1.05l0,.06a26.77,26.77,0,0,0-2.34,3.42,21.72,21.72,0,0,0-1.76,3.75,14.94,14.94,0,0,0-.8,4,12.46,12.46,0,0,0,.69,4.18,9.42,9.42,0,0,1-1.72-4.11,12.89,12.89,0,0,1,.27-4.55,18.15,18.15,0,0,1,1.63-4.24,20.77,20.77,0,0,1,2.54-3.77l1.17,1.54a32,32,0,0,0-3.15,1.78,25.68,25.68,0,0,0-2.9,2.16,12.94,12.94,0,0,0-2.4,2.67A7.77,7.77,0,0,0,259.27,124.23Z"/><path class="cls-1" d="M253.91,142.66l-.31.76a10.62,10.62,0,0,1-15,5.31l-1.58-.88a10.61,10.61,0,0,1-4.7-13.23l.51-1.27c1.8-4.49,15.82-11.82,17.93-9C248.14,130.11,255.45,138.84,253.91,142.66Z"/><path class="cls-2" d="M241.46,135.28c-.39-6.33,9.3-10.91,9.3-10.91s-7.59,8.67-3.47,16"/><path class="cls-3" d="M241.46,135.28a6.8,6.8,0,0,1,.46-3.84,11.33,11.33,0,0,1,2.17-3.29,17.53,17.53,0,0,1,2.91-2.61,22.54,22.54,0,0,1,3.34-2.07,1,1,0,0,1,1.31.43,1,1,0,0,1-.1,1.06l-.05.05a26.77,26.77,0,0,0-2.34,3.42,21.72,21.72,0,0,0-1.76,3.75,14.92,14.92,0,0,0-.79,4,12.19,12.19,0,0,0,.68,4.17,9.29,9.29,0,0,1-1.71-4.11,12.89,12.89,0,0,1,.26-4.55,18.63,18.63,0,0,1,1.64-4.24,20.27,20.27,0,0,1,2.54-3.77l1.16,1.54A31.82,31.82,0,0,0,248,127a27.07,27.07,0,0,0-2.91,2.16,13.53,13.53,0,0,0-2.4,2.67A8,8,0,0,0,241.46,135.28Z"/><path class="cls-1" d="M340.05,106.53l-.31.76a10.6,10.6,0,0,1-15,5.31l-1.59-.88a10.62,10.62,0,0,1-4.7-13.23l.51-1.27c1.81-4.49,15.82-11.81,17.93-9C334.28,94,341.6,102.71,340.05,106.53Z"/><path class="cls-2" d="M327.61,99.15c-.39-6.33,9.29-10.91,9.29-10.91s-7.58,8.67-3.46,16"/><path class="cls-3" d="M327.61,99.15a6.68,6.68,0,0,1,.45-3.83,11.25,11.25,0,0,1,2.17-3.3,18,18,0,0,1,2.91-2.61,22.17,22.17,0,0,1,3.34-2.06,1,1,0,0,1,1.32.42,1,1,0,0,1-.11,1.06l-.05.06a25.91,25.91,0,0,0-2.33,3.41,21.33,21.33,0,0,0-1.76,3.75,14.93,14.93,0,0,0-.8,4,12,12,0,0,0,.69,4.17,9.37,9.37,0,0,1-1.72-4.11A12.92,12.92,0,0,1,332,95.6a18.37,18.37,0,0,1,1.64-4.23,21.2,21.2,0,0,1,2.54-3.78l1.16,1.54a34,34,0,0,0-3.14,1.78,24.88,24.88,0,0,0-2.9,2.17,12.88,12.88,0,0,0-2.4,2.66A7.82,7.82,0,0,0,327.61,99.15Z"/><path class="cls-1" d="M323.77,116.51l-.31.76a10.62,10.62,0,0,1-15,5.3l-1.58-.88a10.61,10.61,0,0,1-4.7-13.23l.51-1.27c1.8-4.49,15.82-11.81,17.93-9C318,104,325.31,112.68,323.77,116.51Z"/><path class="cls-2" d="M311.32,109.12c-.39-6.32,9.3-10.91,9.3-10.91s-7.59,8.68-3.47,16"/><path class="cls-3" d="M311.32,109.12a6.77,6.77,0,0,1,.46-3.83,11.42,11.42,0,0,1,2.16-3.3,19,19,0,0,1,2.92-2.61,23.81,23.81,0,0,1,3.33-2.06,1,1,0,0,1,1.22,1.48l-.05.06a26.65,26.65,0,0,0-2.34,3.41,22.07,22.07,0,0,0-1.76,3.75,15.07,15.07,0,0,0-.79,4,12.28,12.28,0,0,0,.68,4.18,9.33,9.33,0,0,1-1.71-4.12,12.92,12.92,0,0,1,.26-4.55,18.55,18.55,0,0,1,1.64-4.23,21.14,21.14,0,0,1,2.53-3.78L321,99.1a31.93,31.93,0,0,0-3.14,1.79,24.63,24.63,0,0,0-2.91,2.16,13.17,13.17,0,0,0-2.4,2.66A8.13,8.13,0,0,0,311.32,109.12Z"/><path class="cls-1" d="M306,127.56l-.31.76a10.61,10.61,0,0,1-15,5.3l-1.59-.88a10.62,10.62,0,0,1-4.7-13.23l.51-1.27c1.81-4.49,15.82-11.81,17.93-9C300.19,115,307.51,123.73,306,127.56Z"/><path class="cls-2" d="M293.52,120.17c-.39-6.32,9.29-10.91,9.29-10.91s-7.59,8.68-3.46,16"/><path class="cls-3" d="M293.52,120.17a6.68,6.68,0,0,1,.45-3.83,11.25,11.25,0,0,1,2.17-3.3,18.47,18.47,0,0,1,2.91-2.61,23.92,23.92,0,0,1,3.34-2.06,1,1,0,0,1,1.21,1.48l-.05.06a26.59,26.59,0,0,0-2.33,3.41,21.67,21.67,0,0,0-1.76,3.75,15.09,15.09,0,0,0-.8,4,12.06,12.06,0,0,0,.69,4.18,9.46,9.46,0,0,1-1.72-4.12,12.92,12.92,0,0,1,.26-4.55,18.73,18.73,0,0,1,1.64-4.23,21.2,21.2,0,0,1,2.54-3.78l1.16,1.54a31.93,31.93,0,0,0-3.14,1.79,23.73,23.73,0,0,0-2.9,2.16,13.14,13.14,0,0,0-2.4,2.66A7.87,7.87,0,0,0,293.52,120.17Z"/><path class="cls-1" d="M288.16,138.61l-.31.76a10.61,10.61,0,0,1-15,5.3l-1.58-.88a10.61,10.61,0,0,1-4.7-13.23l.51-1.27c1.8-4.49,15.82-11.81,17.92-9C282.39,126.06,289.7,134.78,288.16,138.61Z"/><path class="cls-2" d="M275.71,131.22c-.39-6.32,9.29-10.91,9.29-10.91s-7.58,8.68-3.46,16"/><path class="cls-3" d="M275.71,131.22a6.77,6.77,0,0,1,.46-3.83,11.35,11.35,0,0,1,2.16-3.3,18.54,18.54,0,0,1,2.92-2.61,23.24,23.24,0,0,1,3.33-2.06,1,1,0,0,1,1.32.43,1,1,0,0,1-.11,1.05l0,.06a26.65,26.65,0,0,0-2.34,3.41,22.17,22.17,0,0,0-1.76,3.76,14.94,14.94,0,0,0-.8,4,12.55,12.55,0,0,0,.69,4.18,9.47,9.47,0,0,1-1.72-4.11,13.2,13.2,0,0,1,.27-4.56,18.7,18.7,0,0,1,1.63-4.23,21.74,21.74,0,0,1,2.54-3.78l1.17,1.54a31.93,31.93,0,0,0-3.14,1.79,23.84,23.84,0,0,0-2.91,2.16,12.94,12.94,0,0,0-2.4,2.67A7.9,7.9,0,0,0,275.71,131.22Z"/><path class="cls-1" d="M270.35,149.66l-.31.76a10.61,10.61,0,0,1-15,5.31l-1.59-.89a10.61,10.61,0,0,1-4.7-13.23l.51-1.27c1.8-4.49,15.82-11.81,17.93-9C264.58,137.11,271.89,145.83,270.35,149.66Z"/><path class="cls-2" d="M257.91,142.27c-.39-6.32,9.29-10.91,9.29-10.91s-7.59,8.68-3.46,16"/><path class="cls-3" d="M257.91,142.27a6.68,6.68,0,0,1,.45-3.83,11.38,11.38,0,0,1,2.17-3.3,18.47,18.47,0,0,1,2.91-2.61,23.35,23.35,0,0,1,3.34-2.06A1,1,0,0,1,268,132l-.05.06a26.65,26.65,0,0,0-2.34,3.41,21.38,21.38,0,0,0-1.75,3.76,14.56,14.56,0,0,0-.8,4,12.06,12.06,0,0,0,.69,4.18,9.35,9.35,0,0,1-1.72-4.11,13,13,0,0,1,.26-4.56,18.73,18.73,0,0,1,1.64-4.23,20.67,20.67,0,0,1,2.54-3.78l1.16,1.54a31.93,31.93,0,0,0-3.14,1.79,24.63,24.63,0,0,0-2.91,2.16,13.53,13.53,0,0,0-2.4,2.67A7.89,7.89,0,0,0,257.91,142.27Z"/></g></svg>