<svg xmlns="http://www.w3.org/2000/svg" viewBox="0 0 341.35 69.81"><defs><style>.cls-1,.cls-2{fill:#dcc992;}.cls-1{stroke:#aa955f;stroke-linecap:round;stroke-linejoin:round;stroke-width:2px;}.cls-3{fill:#aa955f;}</style></defs><title>HoneyМонтажная область 25</title><g id="Цвета"><path class="cls-1" d="M24.73,19.93l-.33.76c-2.53,5.92-10,8.4-15.92,5.31L6.8,25.12a10.34,10.34,0,0,1-5-13.24l.54-1.27c1.92-4.49,16.8-11.81,19-9C18.6,7.38,26.37,16.1,24.73,19.93Z"/><path class="cls-2" d="M11.52,12.54C11.1,6.22,21.38,1.63,21.38,1.63s-8,8.68-3.67,16"/><path class="cls-3" d="M11.52,12.54a6.47,6.47,0,0,1,.55-3.92,11.74,11.74,0,0,1,2.35-3.3A19.81,19.81,0,0,1,17.5,2.75,23.93,23.93,0,0,1,21,.73a1,1,0,0,1,1.18,1.52l-.05.06a24.7,24.7,0,0,0-2.46,3.37,20,20,0,0,0-1.87,3.73,13.73,13.73,0,0,0-.84,4.06,11.52,11.52,0,0,0,.77,4.19,9.13,9.13,0,0,1-1.8-4.13,12.53,12.53,0,0,1,.33-4.6A17.81,17.81,0,0,1,18,4.7,21.31,21.31,0,0,1,20.66,1l1.12,1.58A34.68,34.68,0,0,0,18.5,4.29a27.36,27.36,0,0,0-3.06,2.13,13.16,13.16,0,0,0-2.56,2.66A7.27,7.27,0,0,0,11.52,12.54Z"/><path class="cls-1" d="M340.14,22.6l-.31.76a10.62,10.62,0,0,1-15,5.31l-1.58-.88a10.62,10.62,0,0,1-4.7-13.24l.51-1.27c1.8-4.49,15.82-11.81,17.93-9C334.37,10.05,341.68,18.77,340.14,22.6Z"/><path class="cls-2" d="M327.69,15.22C327.3,8.89,337,4.3,337,4.3s-7.59,8.68-3.47,16"/><path class="cls-3" d="M327.69,15.22a6.8,6.8,0,0,1,.46-3.84,11.51,11.51,0,0,1,2.16-3.29,18.55,18.55,0,0,1,2.92-2.62,23.35,23.35,0,0,1,3.34-2.06,1,1,0,0,1,1.21,1.48l0,.06a26.65,26.65,0,0,0-2.34,3.41,22.17,22.17,0,0,0-1.76,3.76,14.92,14.92,0,0,0-.79,4,12.28,12.28,0,0,0,.68,4.18,9.34,9.34,0,0,1-1.71-4.11,13,13,0,0,1,.26-4.56,18.73,18.73,0,0,1,1.64-4.23,21.14,21.14,0,0,1,2.53-3.78l1.17,1.55A29.91,29.91,0,0,0,334.27,7a24.63,24.63,0,0,0-2.91,2.16,13.53,13.53,0,0,0-2.4,2.67A8,8,0,0,0,327.69,15.22Z"/><path class="cls-1" d="M255.9,54.24l-.31.76a10.62,10.62,0,0,1-15,5.31L239,59.42a10.61,10.61,0,0,1-4.7-13.23l.51-1.27c1.8-4.49,15.82-11.81,17.93-9C250.13,41.69,257.44,50.41,255.9,54.24Z"/><path class="cls-2" d="M243.45,46.85c-.39-6.32,9.3-10.91,9.3-10.91s-7.59,8.68-3.47,16"/><path class="cls-3" d="M243.45,46.85a6.77,6.77,0,0,1,.46-3.83,11.56,11.56,0,0,1,2.16-3.3A19,19,0,0,1,249,37.11a23.81,23.81,0,0,1,3.33-2.06,1,1,0,0,1,1.32.43,1,1,0,0,1-.1,1.05l0,.06A26.65,26.65,0,0,0,251.15,40a22.17,22.17,0,0,0-1.76,3.76,14.92,14.92,0,0,0-.79,4,12.28,12.28,0,0,0,.68,4.18,9.34,9.34,0,0,1-1.71-4.11,13,13,0,0,1,.26-4.56,18.73,18.73,0,0,1,1.64-4.23A21.14,21.14,0,0,1,252,35.29l1.17,1.54A31.93,31.93,0,0,0,250,38.62a24.63,24.63,0,0,0-2.91,2.16,13.23,13.23,0,0,0-2.4,2.67A8,8,0,0,0,243.45,46.85Z"/><path class="cls-1" d="M327,30.05l-.31.76a10.62,10.62,0,0,1-15,5.3l-1.58-.88A10.61,10.61,0,0,1,305.39,22l.51-1.27c1.8-4.49,15.82-11.81,17.93-9C321.21,17.5,328.52,26.22,327,30.05Z"/><path class="cls-2" d="M314.53,22.66c-.39-6.33,9.3-10.91,9.3-10.91s-7.59,8.67-3.47,16"/><path class="cls-3" d="M314.53,22.66a6.77,6.77,0,0,1,.46-3.83,11.42,11.42,0,0,1,2.16-3.3,19,19,0,0,1,2.92-2.61,22.07,22.07,0,0,1,3.33-2.06,1,1,0,0,1,1.32.42,1,1,0,0,1-.1,1.06l-.05.06a26,26,0,0,0-2.34,3.41,22.07,22.07,0,0,0-1.76,3.75,14.92,14.92,0,0,0-.79,4,12.19,12.19,0,0,0,.68,4.17,9.24,9.24,0,0,1-1.71-4.11,12.92,12.92,0,0,1,.26-4.55,18.37,18.37,0,0,1,1.64-4.23,21.14,21.14,0,0,1,2.53-3.78l1.17,1.54a34,34,0,0,0-3.14,1.78,25.87,25.87,0,0,0-2.91,2.17,13.48,13.48,0,0,0-2.4,2.66A8.08,8.08,0,0,0,314.53,22.66Z"/><path class="cls-1" d="M313.41,37.61l-.3.76a10.62,10.62,0,0,1-15,5.3l-1.59-.88a10.61,10.61,0,0,1-4.69-13.23l.51-1.27c1.8-4.49,15.82-11.81,17.92-9C307.64,25.06,315,33.78,313.41,37.61Z"/><path class="cls-2" d="M301,30.22c-.39-6.33,9.29-10.91,9.29-10.91s-7.58,8.67-3.46,16"/><path class="cls-3" d="M301,30.22a6.68,6.68,0,0,1,.45-3.83,11.25,11.25,0,0,1,2.17-3.3,18,18,0,0,1,2.91-2.61,22.17,22.17,0,0,1,3.34-2.06,1,1,0,0,1,1.32.42,1,1,0,0,1-.11,1.06L311,20a26.92,26.92,0,0,0-2.33,3.41,22.07,22.07,0,0,0-1.76,3.75,14.93,14.93,0,0,0-.8,4,12.45,12.45,0,0,0,.69,4.17,9.37,9.37,0,0,1-1.72-4.11,12.92,12.92,0,0,1,.27-4.55A17.9,17.9,0,0,1,307,22.44a21.2,21.2,0,0,1,2.54-3.78l1.16,1.54A35.34,35.34,0,0,0,307.54,22a24.88,24.88,0,0,0-2.9,2.17,12.88,12.88,0,0,0-2.4,2.66A7.82,7.82,0,0,0,301,30.22Z"/><path class="cls-1" d="M297.89,46.7l-.31.76a10.62,10.62,0,0,1-15,5.31L281,51.89a10.61,10.61,0,0,1-4.7-13.23l.51-1.27c1.8-4.49,15.82-11.81,17.93-9C292.12,34.15,299.43,42.88,297.89,46.7Z"/><path class="cls-2" d="M285.44,39.32c-.39-6.33,9.3-10.91,9.3-10.91s-7.59,8.67-3.47,16"/><path class="cls-3" d="M285.44,39.32a6.81,6.81,0,0,1,.46-3.84,11.51,11.51,0,0,1,2.16-3.29A18,18,0,0,1,291,29.58a22.07,22.07,0,0,1,3.33-2.06,1,1,0,0,1,1.32.42,1,1,0,0,1-.1,1.06l0,.06a26,26,0,0,0-2.34,3.41,22.07,22.07,0,0,0-1.76,3.75,14.92,14.92,0,0,0-.79,4,12.19,12.19,0,0,0,.68,4.17,9.24,9.24,0,0,1-1.71-4.11,12.92,12.92,0,0,1,.26-4.55,18.63,18.63,0,0,1,1.64-4.24A21.43,21.43,0,0,1,294,27.76l1.17,1.54A34,34,0,0,0,292,31.08a25.87,25.87,0,0,0-2.91,2.17,12.91,12.91,0,0,0-2.4,2.66A8.08,8.08,0,0,0,285.44,39.32Z"/><path class="cls-1" d="M284,54.12l-.3.76a10.62,10.62,0,0,1-15,5.31l-1.59-.88a10.62,10.62,0,0,1-4.69-13.24l.5-1.26c1.81-4.5,15.83-11.82,17.93-9C278.18,41.57,285.5,50.29,284,54.12Z"/><path class="cls-2" d="M271.51,46.74c-.39-6.33,9.29-10.92,9.29-10.92s-7.58,8.68-3.46,16"/><path class="cls-3" d="M271.51,46.74A6.71,6.71,0,0,1,272,42.9a11.33,11.33,0,0,1,2.17-3.29A18.05,18.05,0,0,1,277,37a23.92,23.92,0,0,1,3.34-2.06,1,1,0,0,1,1.32.43,1,1,0,0,1-.11,1l0,.06a27.66,27.66,0,0,0-2.33,3.41,21.42,21.42,0,0,0-1.76,3.76,14.94,14.94,0,0,0-.8,4,12.3,12.3,0,0,0,.69,4.18,9.47,9.47,0,0,1-1.72-4.11,13,13,0,0,1,.27-4.56A18.24,18.24,0,0,1,277.52,39a20.77,20.77,0,0,1,2.54-3.77l1.16,1.54a33,33,0,0,0-3.14,1.78,23.73,23.73,0,0,0-2.9,2.16,12.94,12.94,0,0,0-2.4,2.67A7.77,7.77,0,0,0,271.51,46.74Z"/><path class="cls-1" d="M270,61.4l-.3.76a10.62,10.62,0,0,1-15,5.31l-1.59-.88a10.61,10.61,0,0,1-4.69-13.23l.51-1.27c1.8-4.5,15.82-11.82,17.92-9C264.23,48.85,271.55,57.58,270,61.4Z"/><path class="cls-2" d="M257.56,54c-.39-6.33,9.29-10.91,9.29-10.91s-7.58,8.67-3.46,16"/><path class="cls-3" d="M257.56,54a6.71,6.71,0,0,1,.45-3.84,11.33,11.33,0,0,1,2.17-3.29,17.53,17.53,0,0,1,2.91-2.61,23.07,23.07,0,0,1,3.34-2.07,1,1,0,0,1,1.21,1.49l-.05,0a27.78,27.78,0,0,0-2.33,3.42,21.72,21.72,0,0,0-1.76,3.75,14.93,14.93,0,0,0-.8,4,12.45,12.45,0,0,0,.69,4.17A9.42,9.42,0,0,1,261.67,55a12.89,12.89,0,0,1,.27-4.55,18.15,18.15,0,0,1,1.63-4.24,20.77,20.77,0,0,1,2.54-3.77L267.27,44a33,33,0,0,0-3.14,1.78,26,26,0,0,0-2.9,2.16,12.94,12.94,0,0,0-2.4,2.67A7.77,7.77,0,0,0,257.56,54Z"/><path class="cls-1" d="M36.54,27.56l-.3.76a10.62,10.62,0,0,1-15,5.31l-1.58-.88A10.62,10.62,0,0,1,15,19.51l.51-1.27c1.8-4.49,15.82-11.81,17.92-9C30.77,15,38.09,23.73,36.54,27.56Z"/><path class="cls-2" d="M24.1,20.18c-.39-6.33,9.29-10.92,9.29-10.92s-7.58,8.68-3.46,16"/><path class="cls-3" d="M24.1,20.18a6.8,6.8,0,0,1,.46-3.84,11.17,11.17,0,0,1,2.16-3.29,18.12,18.12,0,0,1,2.92-2.62A23.24,23.24,0,0,1,33,8.37a1,1,0,0,1,1.32.43,1,1,0,0,1-.11,1l0,.06a26.65,26.65,0,0,0-2.34,3.41A22.17,22.17,0,0,0,30,17.08a14.94,14.94,0,0,0-.8,4,12.55,12.55,0,0,0,.69,4.18,9.47,9.47,0,0,1-1.72-4.11,13.2,13.2,0,0,1,.27-4.56,18.7,18.7,0,0,1,1.63-4.23,21.74,21.74,0,0,1,2.54-3.78l1.17,1.55a28.94,28.94,0,0,0-3.14,1.78,23.84,23.84,0,0,0-2.91,2.16,12.94,12.94,0,0,0-2.4,2.67A7.77,7.77,0,0,0,24.1,20.18Z"/><path class="cls-1" d="M52.35,37,52,37.8a10.61,10.61,0,0,1-15,5.3l-1.59-.88A10.61,10.61,0,0,1,30.76,29l.51-1.27c1.8-4.49,15.82-11.81,17.93-9C46.58,24.49,53.89,33.21,52.35,37Z"/><path class="cls-2" d="M39.91,29.65c-.39-6.32,9.29-10.91,9.29-10.91s-7.59,8.68-3.46,16"/><path class="cls-3" d="M39.91,29.65a6.68,6.68,0,0,1,.45-3.83,11.25,11.25,0,0,1,2.17-3.3,18.47,18.47,0,0,1,2.91-2.61,23.35,23.35,0,0,1,3.34-2.06,1,1,0,0,1,1.31.43,1,1,0,0,1-.1,1l-.05.06a26.59,26.59,0,0,0-2.33,3.41,21,21,0,0,0-1.76,3.75,14.71,14.71,0,0,0-.8,4,12.06,12.06,0,0,0,.69,4.18A9.34,9.34,0,0,1,44,30.65a12.92,12.92,0,0,1,.26-4.55,18.73,18.73,0,0,1,1.64-4.23,20.67,20.67,0,0,1,2.54-3.78l1.16,1.54a31.93,31.93,0,0,0-3.14,1.79,24.63,24.63,0,0,0-2.91,2.16,13.4,13.4,0,0,0-2.39,2.66A7.87,7.87,0,0,0,39.91,29.65Z"/><path class="cls-1" d="M68.36,45.59l-.31.76a10.62,10.62,0,0,1-15,5.31l-1.58-.88a10.61,10.61,0,0,1-4.7-13.23l.51-1.27c1.8-4.49,15.82-11.82,17.93-9C62.59,33,69.9,41.77,68.36,45.59Z"/><path class="cls-2" d="M55.91,38.21c-.39-6.33,9.3-10.91,9.3-10.91s-7.59,8.67-3.47,16"/><path class="cls-3" d="M55.91,38.21a6.81,6.81,0,0,1,.46-3.84,11.51,11.51,0,0,1,2.16-3.29,18,18,0,0,1,2.92-2.61,22.07,22.07,0,0,1,3.33-2.06,1,1,0,0,1,1.32.42,1,1,0,0,1-.1,1.06L66,28a26,26,0,0,0-2.34,3.41,22.07,22.07,0,0,0-1.76,3.75,14.92,14.92,0,0,0-.79,4,12.19,12.19,0,0,0,.68,4.17A9.24,9.24,0,0,1,60,39.21a12.89,12.89,0,0,1,.26-4.55,18.63,18.63,0,0,1,1.64-4.24,20.71,20.71,0,0,1,2.53-3.77l1.17,1.54A34,34,0,0,0,62.49,30a25.87,25.87,0,0,0-2.91,2.17,13.2,13.2,0,0,0-2.4,2.66A8,8,0,0,0,55.91,38.21Z"/><path class="cls-1" d="M82.75,54.24l-.3.76a10.62,10.62,0,0,1-15,5.31l-1.59-.89a10.6,10.6,0,0,1-4.69-13.23l.5-1.27c1.81-4.49,15.83-11.81,17.93-9C77,41.69,84.3,50.41,82.75,54.24Z"/><path class="cls-2" d="M70.31,46.85c-.39-6.32,9.29-10.91,9.29-10.91S72,44.62,76.14,52"/><path class="cls-3" d="M70.31,46.85A6.68,6.68,0,0,1,70.76,43a11.38,11.38,0,0,1,2.17-3.3,18.47,18.47,0,0,1,2.91-2.61,23.92,23.92,0,0,1,3.34-2.06,1,1,0,0,1,1.32.43,1,1,0,0,1-.11,1.05l0,.06A26.59,26.59,0,0,0,78,40a21.42,21.42,0,0,0-1.76,3.76,14.94,14.94,0,0,0-.8,4A12.06,12.06,0,0,0,76.14,52a9.47,9.47,0,0,1-1.72-4.11,13,13,0,0,1,.27-4.56,18.24,18.24,0,0,1,1.63-4.23,21.2,21.2,0,0,1,2.54-3.78L80,36.83a31.93,31.93,0,0,0-3.14,1.79A23.73,23.73,0,0,0,74,40.78a12.94,12.94,0,0,0-2.4,2.67A7.78,7.78,0,0,0,70.31,46.85Z"/><path class="cls-1" d="M109.87,54.73l-.31.76a10.61,10.61,0,0,1-15,5.3L93,59.91a10.62,10.62,0,0,1-4.7-13.23l.51-1.27c1.81-4.49,15.82-11.81,17.93-9C104.1,42.18,111.42,50.9,109.87,54.73Z"/><path class="cls-2" d="M97.43,47.34C97,41,106.72,36.43,106.72,36.43s-7.59,8.68-3.46,16"/><path class="cls-3" d="M97.43,47.34a6.68,6.68,0,0,1,.45-3.83,11.25,11.25,0,0,1,2.17-3.3A18.47,18.47,0,0,1,103,37.6a22.17,22.17,0,0,1,3.34-2.06A1,1,0,0,1,107.51,37l-.05.06a26.59,26.59,0,0,0-2.33,3.41,21.33,21.33,0,0,0-1.76,3.75,15.09,15.09,0,0,0-.8,4,12.06,12.06,0,0,0,.69,4.18,9.34,9.34,0,0,1-1.72-4.12,12.92,12.92,0,0,1,.26-4.55,18.55,18.55,0,0,1,1.64-4.23A21.2,21.2,0,0,1,106,35.78l1.16,1.54A31.93,31.93,0,0,0,104,39.11a23.73,23.73,0,0,0-2.9,2.16,12.88,12.88,0,0,0-2.4,2.66A7.82,7.82,0,0,0,97.43,47.34Z"/><path class="cls-1" d="M95.81,61.4l-.3.76a10.62,10.62,0,0,1-15,5.31l-1.59-.88a10.61,10.61,0,0,1-4.69-13.23l.5-1.27c1.81-4.5,15.83-11.82,17.93-9C90,48.85,97.36,57.58,95.81,61.4Z"/><path class="cls-2" d="M83.37,54c-.39-6.33,9.29-10.91,9.29-10.91s-7.58,8.67-3.46,16"/><path class="cls-3" d="M83.37,54a6.71,6.71,0,0,1,.45-3.84A11.33,11.33,0,0,1,86,46.89a17.53,17.53,0,0,1,2.91-2.61,23.07,23.07,0,0,1,3.34-2.07,1,1,0,0,1,1.21,1.49l0,0a26.71,26.71,0,0,0-2.33,3.42,21,21,0,0,0-1.76,3.75,14.93,14.93,0,0,0-.8,4,12,12,0,0,0,.69,4.17A9.42,9.42,0,0,1,87.48,55a12.89,12.89,0,0,1,.27-4.55,18.15,18.15,0,0,1,1.63-4.24,20.77,20.77,0,0,1,2.54-3.77L93.08,44a31.82,31.82,0,0,0-3.14,1.78A26,26,0,0,0,87,47.94a12.94,12.94,0,0,0-2.4,2.67A7.77,7.77,0,0,0,83.37,54Z"/></g></svg>