<svg id="просто_А" data-name="просто А" xmlns="http://www.w3.org/2000/svg" viewBox="0 0 391.92 448.5"><defs><style>.cls-1{fill:#fcfcfc;}</style></defs><title>A</title><path class="cls-1" d="M176.15,501.42a3.77,3.77,0,0,1-3.2-1.74c-3.06-4.62,3.63-22.06,7.89-32,4.85-11,20.43-47.9,40.15-94.62,26.09-61.82,58.56-138.76,85.57-201.66,14.69-34.2,26.26-60.76,34.41-78.94,15-33.5,15.77-33.5,18.26-33.5h.61l.48.2c2.77,1,5,5.39,16.7,32.82,4.33,10.13,9.24,21.61,14.36,32.81,29.51,66.19,32.92,80.22,32.92,85,0,9.4-5.22,10.41-7.47,10.41l-.65,0c-3-.22-3.64-.26-32.85-74.37-8.16-20.7-17.21-43.65-21.36-53-6.89,12.54-25.14,48.3-28,55.19l-10.78,25.69c-.66,1.57-3.58,8.25-8,18.36-22.76,52-92,210.11-95.31,227.09-2.51,12.94-.58,17.66.35,18.59l1.08-1c22.4-20.42,101.09-93.17,173-171.91,98.25-107.6,119-135.18,121.68-141.48a28.43,28.43,0,0,0-7.15-.62c-7.11,0-12.33-2.33-15.52-6.92-3.42-4.91-2.86-10.24,1.57-15a10,10,0,0,1,7.4-3.61c2.82,0,5.67,1.37,8.5,4.07.53.35,3.35,1.73,16.74,3.54,14.91,2,18.28,4.16,19.69,6.18l.54.77v.79c.14.71,1,3.72,5.69,16.36,5.59,15.08,5,19.87,3.83,22.37-.62,1.33-2.49,5.36-6.08,5.36a4.74,4.74,0,0,1-1.58-.28c-1.67-.59-3.88-2.43-9.21-9.46-4.07-5.32-5.44-5.45-7.17-5.6l-1.05-.12c-5.6,4.39-34.71,36.88-68.23,74.29C418.32,266.28,355.85,336,300.76,393.31c-66,68.68-106.46,104-123.66,108A4.47,4.47,0,0,1,176.15,501.42Zm376-9.07a7,7,0,0,1-1.6-.19c-1.94-.42-2.2-.48-19.86-37.79-10.08-21.3-23-48.85-35.39-75.49-15.46-33.11-31.37-67.18-36.74-78-13.64,16.06-63,79.43-93.56,118.58C347.34,442.11,338.81,453.05,338,454l-.31.33-.39.23c-1.06.61-1.87,1.12-2.47,1.55h.41c3.27,0,7.52-.93,12.61-2.75,6.51-2.24,11.25-3.32,14.53-3.32,2.57,0,4.42.65,5.66,2,3,3.21,1,8.64-.78,12.45s-4.63,8.78-9.25,8.78c-1.78,0-8.19,1.08-31.1,8.31-18.19,5.73-29,8.76-33.19,9.27l-.18,0H292l-1-.95c-1-1-1.45-1.5-1.1-13.06.22-7.24.55-15,1-22.95,2.34-27.81,6.24-33.61,10.2-35a6.52,6.52,0,0,1,3.48-1.12c2.08,0,4.85,1.15,6.26,6.64,1.14,4.41,1.93,11,2.38,19.6.14,2.72.25,5,.34,6.83,27.38-30.58,74-90.05,102.56-126.44,11.08-14.14,19.84-25.3,23.7-30,2.09-2.5,10.14-12.48,20.33-25.1,65.32-80.92,77.81-95.69,79.91-96.82a13.77,13.77,0,0,1,6.33-2.05,5.05,5.05,0,0,1,3.89,1.63c1.16,1.29,1.61,3.08,1.37,5.48-1.55,12.24-47.87,69.53-59.57,83.07-17.09,19.78-19.81,25.23-20.2,26.64l0,.07v.32c1.14,4.6,20.2,46.22,40.36,90.26,10.72,23.42,22.88,50,34.47,75.56,12,26.82,11.71,33.43,9.66,36.58A4.94,4.94,0,0,1,552.17,492.35Z" transform="translate(-169.09 -55.92)"/><path d="M359.23,61.92h0c3,1,15.45,33.56,29.39,64.06q32.64,73.23,32.65,83.77,0,7.41-4.47,7.41h-.43c-3.26-.24-51.2-128.71-54.25-130.59-2.18,2.35-27.93,52.92-31,60.19l-10.77,25.69c-4.15,9.86-99.52,225.51-103.51,246-3.22,16.6.26,22.28,3.31,22.28a2.85,2.85,0,0,0,1.92-.81c3-2.82,92.5-83.53,174.35-173.18S519.25,129.05,519.25,122.47q0-2.81-10.45-2.81c-6.1,0-10.44-1.87-13.06-5.63s-2.18-7.51,1.31-11.27a7.13,7.13,0,0,1,5.2-2.65c2.06,0,4.25,1.12,6.55,3.36q2.61,2.1,18.29,4.22t17.63,4.93q0,1.41,5.88,17.24t3.92,20.07q-1.68,3.62-3.36,3.62a1.78,1.78,0,0,1-.56-.1q-2-.69-7.84-8.45c-6.1-8-7.87-6.28-11.1-7h0c-7.84,0-301.21,347.89-355.19,360.44l-.27,0c-2.88,0,.25-12.74,7.45-29.6C201,429.5,354.12,61.92,359.23,61.92M546.45,173.47q2.65,0,2.27,3.8c-1.3,10.33-44.06,64.29-58.85,81.42S468.09,285.56,469,287.9c0,3.76,39.39,88,75.1,166.84q15.42,34.61,8.1,34.61a4.5,4.5,0,0,1-.92-.11c-2.18-.48-90.77-193.59-92.08-193.59-10.88,11.26-120.8,153.46-123.42,156.28q-9.79,5.63-2.61,7a19.08,19.08,0,0,0,2.05.11q5.44,0,13.62-2.93,9.13-3.13,13.52-3.14c1.67,0,2.83.34,3.46,1,1.31,1.41.87,4.45-1.3,9.15s-4.36,7-6.53,7q-5.23,0-32,8.45t-32.65,9.15q-.66,0-.33-10.91T294,454q2.6-31,8.49-32.38a3.85,3.85,0,0,1,2.19-.87c1.49,0,2.6,1.46,3.36,4.39q1.62,6.33,2.29,19c.42,8.45.65,13.14.65,14.08,36.13-38.95,116.89-144.54,131.26-161.91C450,287,538.05,177,541.54,175.16a11.52,11.52,0,0,1,4.91-1.69M359.23,55.92c-4.43,0-6.11,3.46-10.18,11.82-2.58,5.31-6.22,13.2-10.82,23.45-8.15,18.19-19.73,44.77-34.42,79-27,62.91-59.49,139.85-85.58,201.68-19.72,46.71-35.29,83.61-40.12,94.55l0,0v0a165.88,165.88,0,0,0-7.32,20.18c-2.13,7.69-2.22,11.81-.32,14.68a6.82,6.82,0,0,0,5.71,3.09,6.89,6.89,0,0,0,1.62-.19c11.35-2.64,36.67-16.79,125.14-108.82,55.11-57.34,117.59-127.07,163.21-178,30.66-34.21,59.72-66.65,67-73.2.67.06.69.08.9.2.52.32,1.72,1.29,4,4.24,5.8,7.66,8.28,9.64,10.6,10.45a7.53,7.53,0,0,0,2.56.45c3.65,0,6.62-2.39,8.8-7.1s1-11.76-3.74-24.67c-4.21-11.36-5.25-14.71-5.5-15.68v-1.37l-1.08-1.55c-2.14-3.07-6.53-5.39-21.75-7.44-11.25-1.51-14.55-2.66-15.39-3-3.31-3-6.75-4.59-10.25-4.59a13,13,0,0,0-9.6,4.57c-5.41,5.83-6.08,12.68-1.83,18.77,2.6,3.74,7.83,8.21,18,8.21.83,0,1.56,0,2.2,0-3.3,4.94-11.08,15.27-29.4,36.69-20.28,23.72-50.41,57.48-89.55,100.35-69.39,76-145.12,146.41-170.34,169.48a47,47,0,0,1,1.08-12.59c2.15-11.05,34.15-87.24,95.12-226.47,4.59-10.47,7.36-16.79,8-18.38l4.49-10.72q3.45-8.24,6.29-15c2.46-5.89,16.89-34.3,24.94-49.45,4.63,11.11,12.07,30,18.88,47.25,6.88,17.47,14,35.53,19.65,49.32,3.08,7.5,5.43,13.05,7.2,17,2.83,6.25,4.39,9.69,8.59,10,.28,0,.57,0,.85,0,1.75,0,10.47-.65,10.47-13.41,0-5.5-3.77-20.27-33.17-86.21v0c-5.11-11.17-10-22.63-14.33-32.74-12.61-29.48-14.45-33.07-18.38-34.44l-.9-.39ZM546.45,167.47h0c-2.25,0-4.71.77-7.76,2.41-2.38,1.28-7.05,6.21-80.8,97.56-10.19,12.62-18.23,22.59-20.3,25.06-3.91,4.73-12.68,15.91-23.78,30.07-26.89,34.29-69.86,89.08-97.56,120.79-.47-8.66-1.27-15.09-2.44-19.67-2-7.74-6.6-8.9-9.17-8.9a9.28,9.28,0,0,0-4.83,1.43c-4.81,1.93-6.92,7.74-8.23,12.72-1.52,5.79-2.7,13.83-3.6,24.59v.18c-.44,8-.77,15.76-1,23-.34,11.14-.09,13.13,1.95,15.23a6.13,6.13,0,0,0,4.38,1.86h.36l.36-.05c2.76-.33,9.26-1.67,33.73-9.38,24-7.58,29.19-8.17,30.2-8.17,7.07,0,10.75-7.91,12-10.51,1.36-2.94,5-10.71.27-15.76-1.81-2-4.46-2.95-7.86-2.95-3.67,0-8.59,1.1-15.47,3.46l0,0h0c-1.05.38-2.06.71-3,1,3.83-4.86,11-14.11,23.63-30.25,28.63-36.73,73.9-94.79,90.51-114.94,6.62,13.72,20.84,44.17,34.7,73.83,12.44,26.65,25.3,54.2,35.39,75.5,5.47,11.55,9.56,20.09,12.5,26.09,1.65,3.35,2.9,5.83,3.82,7.58,1.56,3,2.69,5.12,5.61,5.77a10.42,10.42,0,0,0,2.24.26,8,8,0,0,0,6.81-3.64c2.44-3.76,3.72-9.9-9.43-39.41-11.6-25.62-23.75-52.15-34.47-75.56-19.29-42.13-37.55-82-40-89.18.9-1.86,4.56-7.85,19.33-24.95,7.71-8.93,22.12-26.77,34.74-43.58,24.46-32.58,25.21-38.48,25.52-41v-.15c.33-3.25-.38-5.87-2.12-7.79a8.11,8.11,0,0,0-6.12-2.62Z" transform="translate(-169.09 -55.92)"/></svg>