<svg id="новый_вид" data-name="новый вид" xmlns="http://www.w3.org/2000/svg" viewBox="0 0 582.16 279.31"><defs><style>.cls-1{fill:#fcfcfc;}</style></defs><title>ArrowCook</title><path class="cls-1" d="M50.16,477.25a3.58,3.58,0,0,1-3-1.65c-.62-1-2.51-3.93,5.19-20.66,3.19-6.72,13.43-29.23,26.4-57.73,17.16-37.72,38.52-84.66,56.28-123,9.67-20.87,17.28-37.08,22.64-48.18,10.17-21.05,10.59-21.05,12.91-21.05h.57l.44.17c2.22.73,3.56,3.16,11.6,20.61,2.85,6.17,6.07,13.17,9.43,20,19.31,40.17,21.78,49.12,21.78,52.43,0,7-4.54,7.52-5.94,7.52l-.48,0c-2.71-.18-3-.19-22.48-46-4.88-11.51-10.26-24.17-13.21-30.6-5,8.68-15.74,28.19-17.42,31.92l-7.09,15.68c-.44,1-2.36,5-5.27,11.21C127.54,319.49,82,415.88,79.9,426.1c-1.14,5.45-.81,8.15-.45,9.36,15-12.69,66.47-56.87,113.49-104.64,58.69-59.62,75.08-78.72,78.94-84.54-.71-.07-1.66-.11-2.94-.11-5,0-8.68-1.56-11-4.64-2.63-3.5-2.21-7.44,1.14-10.79a7.72,7.72,0,0,1,5.55-2.5,9.4,9.4,0,0,1,6.14,2.67c.33.16,2.27.94,10.56,2,9.63,1.2,12.35,2.49,13.62,4.18l.61.8v.74c.14.54.79,2.54,3.65,9.67,3.06,7.65,3.8,12,2.47,14.7s-2.93,3.86-4.89,3.86a4.24,4.24,0,0,1-1.32-.21c-1.29-.43-2.84-1.6-6.52-6.1-2.4-2.91-3.13-3-4-3l-.36,0c-4.21,3.32-22.93,22.71-44.44,45C157.44,388,74.73,472,51,477.16a3.72,3.72,0,0,1-.81.09Zm247.31-5.53a6,6,0,0,1-1.24-.14c-1.87-.38-1.91-.38-13.77-23.63-6.63-13-15.09-29.8-23.27-46.06-9.61-19.07-19.48-38.68-23.49-46.32-10,11.13-41.14,48.16-60.59,71.3-9.91,11.8-14.85,17.67-16.83,20a39.42,39.42,0,0,0,4.49-1.24c4.38-1.39,7.59-2.06,9.84-2.06a5.91,5.91,0,0,1,4.4,1.5c2.81,2.81.55,7.34-.3,9-.74,1.48-3,6-7,6-1.12,0-5.23.66-20.2,5-12,3.52-19.2,5.38-22,5.69l-.17,0h-1.44l-.93-.94c-1-1-1.23-2-1-8.82.14-4.42.36-9.15.65-14,1.51-16.65,4-21.22,7.36-22.34a5.29,5.29,0,0,1,2.66-.76c1.4,0,3.92.63,5.1,4.87A61.78,61.78,0,0,1,141.38,441c0,.62.06,1.19.09,1.73,18.15-19.05,47.59-53.88,65.81-75.43,7.3-8.64,13.06-15.46,15.62-18.32,1.37-1.52,6.67-7.62,13.38-15.33,45.65-52.45,51.35-58.54,52.85-59.29A10.43,10.43,0,0,1,293.7,273a4.43,4.43,0,0,1,3.37,1.42,5.24,5.24,0,0,1,1.11,4.23c-1.15,8.44-34.75,46.29-39.49,51.38-10.12,10.87-12.4,14.44-12.91,15.54,1.35,3.9,13.52,28.56,26.39,54.63,7.05,14.29,15,30.47,22.66,46.09,8.44,17.55,7.72,21.29,6.38,23.41A4.32,4.32,0,0,1,297.47,471.72Z" transform="translate(-43.46 -200.94)"/><path d="M170.57,207.94h0c2,.58,10.16,20.47,19.33,39.08q21.47,44.67,21.47,51.11,0,4.51-2.94,4.52h-.28C206,302.51,174.5,224.13,172.5,223c-1.44,1.44-18.38,32.29-20.38,36.72s-4.36,9.66-7.08,15.68S79.58,413,77,425.48c-2.11,10.13.17,13.6,2.18,13.6a1.93,1.93,0,0,0,1.26-.5c2-1.72,60.84-51,114.67-105.65s80.75-84,80.75-88.05c0-1.14-2.3-1.71-6.87-1.71q-6,0-8.59-3.44t.85-6.87a4.82,4.82,0,0,1,3.43-1.62,6.66,6.66,0,0,1,4.31,2q1.71,1.29,12,2.57t11.6,3q0,.87,3.86,10.52T299,261.63c-.74,1.48-1.47,2.21-2.21,2.21a1.24,1.24,0,0,1-.37-.06c-.86-.28-2.57-2-5.15-5.15-4-4.87-5.18-3.83-7.3-4.3h0c-5.16,0-198.11,212.25-233.61,219.9l-.18,0c-1.89,0,.17-7.77,4.9-18.06,11.42-24,112.15-248.25,115.51-248.25M293.7,276c1.17,0,1.67.77,1.5,2.32-.86,6.3-29,39.22-38.71,49.67s-14.32,16.39-13.74,17.82c0,2.3,25.91,53.69,49.39,101.79q10.14,21.11,5.33,21.12a3.46,3.46,0,0,1-.61-.07c-1.43-.29-59.7-118.11-60.56-118.11-7.16,6.87-79.45,93.63-81.17,95.34q-6.44,3.44-1.72,4.3a11.72,11.72,0,0,0,1.35.07,29.59,29.59,0,0,0,9-1.79,32.85,32.85,0,0,1,8.89-1.91,3.21,3.21,0,0,1,2.28.62q1.29,1.29-.86,5.59c-1.44,2.85-2.87,4.29-4.3,4.29q-3.43,0-21,5.15t-21.48,5.59c-.28,0-.36-2.22-.21-6.66s.36-9.09.64-14q1.71-18.89,5.59-19.75a2.62,2.62,0,0,1,1.44-.53c1,0,1.71.89,2.21,2.67a59.7,59.7,0,0,1,1.5,11.6c.28,5.15.43,8,.43,8.59C162.57,426,215.69,361.56,225.14,351c5.15-5.73,63-72.79,65.33-73.94a7.92,7.92,0,0,1,3.23-1M170.57,201.94c-4.07,0-5.63,3-8.46,8.36-1.71,3.27-4.11,8.11-7.15,14.39-5.37,11.11-13,27.33-22.66,48.22C114.53,311.3,93.17,358.24,76,396c-13,28.49-23.2,51-26.37,57.65v0l0,0a101.61,101.61,0,0,0-4.92,12.57c-1.35,4.53-1.88,8.12-.06,11a6.53,6.53,0,0,0,5.53,3,7,7,0,0,0,1.44-.15c7.69-1.66,24.69-10.4,83.25-66.91,36.28-35,77.39-77.58,107.4-108.66,19-19.69,37.09-38.4,42.95-43.68a18.93,18.93,0,0,1,1.45,1.6c3.7,4.53,5.7,6.31,7.91,7a7,7,0,0,0,2.24.36c2.2,0,5.29-1,7.58-5.52,1.79-3.59,1.12-8.4-2.38-17.15-2.37-5.94-3.17-8.18-3.43-9v-1.3l-1.21-1.61c-2.11-2.8-6.06-4.15-15.65-5.35a58,58,0,0,1-9.41-1.65,12,12,0,0,0-7.66-3,10.7,10.7,0,0,0-7.67,3.38c-4.39,4.39-4.93,10-1.41,14.71,1.71,2.29,4.87,5,10.48,5.66-5.68,7-18.87,21.77-49.11,53a14.81,14.81,0,0,0,.46-3.84c0-4.05-2.67-13.36-22.06-53.71l0,0v0c-3.34-6.79-6.56-13.76-9.39-19.92-8.39-18.2-9.82-21-13.33-22.18l-.85-.33ZM82.42,429c.11-.68.24-1.44.42-2.28,1.37-6.55,22.35-52.84,62.37-137.6,3-6.41,4.85-10.27,5.29-11.26l2.95-6.51,4.14-9.17c1.34-3,9-17,14.36-26.53,3.06,7,7.18,16.66,10.78,25.14,4.54,10.66,9.22,21.69,12.94,30.12,2,4.61,3.6,8,4.78,10.43,1.92,3.94,3.45,7.05,7.33,7.31l.67,0a9.26,9.26,0,0,0,2.26-.28q-9,9.27-19.91,20.34C148.09,372.1,101.73,412.51,82.42,429ZM293.7,270h0a13.28,13.28,0,0,0-5.91,1.66c-1.83.92-2.74,1.38-53.79,60-6.69,7.69-12,13.77-13.32,15.26-2.6,2.92-8.09,9.41-15.69,18.4-16.7,19.76-42.86,50.7-61,70.32a47.49,47.49,0,0,0-1.31-7.7c-1.83-6.57-6.58-7.08-8-7.08a8.34,8.34,0,0,0-3.94,1c-4.49,1.77-6,7.12-6.61,9.23a89.36,89.36,0,0,0-2.45,15.48v.19c-.29,4.91-.51,9.66-.65,14.12-.21,6.52-.19,8.89,1.85,11a6.1,6.1,0,0,0,4.36,1.86h.34l.33,0c1.89-.21,6.27-1,22.49-5.79,15.29-4.47,18.71-4.89,19.39-4.91,3.85,0,7.1-2.56,9.63-7.6,2.71-5.43,2.62-9.64-.26-12.52a8.86,8.86,0,0,0-6.52-2.38,25.44,25.44,0,0,0-5.75.79c2.55-3,6-7.09,10.57-12.56,16.74-19.92,45.32-53.93,57.61-68,4.84,9.39,13.53,26.66,21.47,42.43,8.18,16.25,16.65,33.07,23.28,46.07,3.6,7.06,6.3,12.27,8.24,15.95,1.1,2.06,1.93,3.6,2.55,4.69,1.11,2,2.26,4,5.06,4.56a8.91,8.91,0,0,0,1.83.2,7.25,7.25,0,0,0,6.28-3.42c2.37-3.76,2.08-9.06-6.2-26.3-7.64-15.65-15.64-31.84-22.69-46.12-11.3-22.91-23-46.53-25.74-53,1.12-1.67,4.07-5.51,11.76-13.76,5.1-5.48,14.62-16.41,23-26.71,16.51-20.4,17-24.2,17.3-26.24V279a8.09,8.09,0,0,0-1.86-6.55,7.4,7.4,0,0,0-5.6-2.42Z" transform="translate(-43.46 -200.94)"/><path class="cls-1" d="M322.73,314.35c-1.58,0-4.4-.75-5.5-5.73l0-.13c-.66-3.79-.52-11.6.42-23.89,1.66-24.28,1.74-45.56.24-63.2-.12-1.08-.21-2.15-.29-3.14a13.26,13.26,0,0,1,3.41-9.95,13,13,0,0,1,9.56-4.3l5.5,0,5,0c23.33,0,28.63,13.38,29.69,17.48l.14.48c2.54,8.88,2.25,16-.87,21.21a47.24,47.24,0,0,1-16.2,18.18l-.34.23a11.68,11.68,0,0,0,.15,2.44,43.8,43.8,0,0,0,2,6.53,57.82,57.82,0,0,1,2.3,7.05,120.6,120.6,0,0,0,9.17,26.14,2.17,2.17,0,0,0,.24.38c1.6,2.11,2.15,4.09,1.65,5.89a5.38,5.38,0,0,1-3.48,3.56l-.14.06-.15,0a5.52,5.52,0,0,1-1.52.21,7.71,7.71,0,0,1-4.89-2.05c-.85-.71-1.58-1.32-8.73-23.58-.06-.19-5.23-16.34-6.64-21.5-2.39.48-8.16,1.89-12.53,3.22a2.89,2.89,0,0,0-2.05,2.67c-.17,4.26-.31,12-.41,23.05-.24,15.19-1.35,17.32-3.65,18.31l-.16.06A5.53,5.53,0,0,1,322.73,314.35Zm9-98.58-.78,0a2.91,2.91,0,0,0-2.77,2.92c0,4.27.24,10.33.62,18,.34,7,.51,12.84.51,17.49a2.92,2.92,0,0,0,2.91,2.92,2.49,2.49,0,0,0,.47,0c7.07-1.11,8.77-1.87,9.12-2.08a15.89,15.89,0,0,1,2.1-.94c2.2-.85,5.89-2.28,11.7-7.45l.12-.11a17,17,0,0,0,6.48-11.65,19.68,19.68,0,0,0-4-14.15c-3.34-3.78-4.64-5.19-12.94-5.19-2.12,0-4.75.09-8.28.29-.67,0-1.31.05-1.93.05s-1.3,0-1.9,0Z" transform="translate(-43.46 -200.94)"/><path d="M341,206.94c22.76,0,26.34,13.49,26.79,15.23s4,12.2-.44,19.46c-7.17,13.58-16.25,17.32-16.63,18.23a9.51,9.51,0,0,0-.11,4.58,44.61,44.61,0,0,0,2.17,7.11,57.1,57.1,0,0,1,2.18,6.64,123,123,0,0,0,9.4,26.79,5.47,5.47,0,0,0,.55.89q2.7,3.56-.56,4.85a2.26,2.26,0,0,1-.69.1,4.8,4.8,0,0,1-3-1.36c-1.38-1.14-14.51-43.18-14.66-44.56a1.8,1.8,0,0,0-1.72-1.37h-.07c-1,0-9.23,2-14.25,3.52a5.91,5.91,0,0,0-4.17,5.42q-.25,6.48-.41,23.14-.24,14.89-1.84,15.58a2.52,2.52,0,0,1-.86.17c-1.22,0-2.07-1.13-2.57-3.38q-.92-5.27.46-23.14,2.5-36.87.22-63.69c-.11-1.11-.2-2.15-.28-3.12a10.2,10.2,0,0,1,10-11c2.75,0,6.07,0,10-.07H341m-6,5.89c-1.21,0-2.32-.06-3.31-.06l-.93,0a5.91,5.91,0,0,0-5.62,5.94q0,6.5.62,18.11.51,10.41.51,17.34a5.92,5.92,0,0,0,5.91,5.92,6.07,6.07,0,0,0,.94-.08q8.16-1.27,10.17-2.45c1.83-1.07,6.21-1.57,14.27-8.74,10.39-8.29,9.2-22.24,2.89-30.09-4.11-4.64-6.22-6.25-15.24-6.25-2.32,0-5.08.1-8.45.29-.61,0-1.19.05-1.76.05m6-11.89h-.52l-4.5,0-5.51,0a16.2,16.2,0,0,0-15.91,17.48c.08,1,.18,2.08.29,3.21,1.49,17.48,1.41,38.57-.24,62.7-1.28,16.68-.83,22-.38,24.61l0,.13,0,.13c1.66,7.5,6.87,8.08,8.43,8.08a8.59,8.59,0,0,0,2.92-.53l.16-.06.15-.07c4.46-1.91,5.24-6.68,5.47-21,.1-11,.23-18.69.4-22.94,3-.9,6.76-1.88,9.49-2.53,1.62,5.53,4.43,14.35,5.89,18.87,7.41,23.1,8.07,23.65,9.66,25a10.58,10.58,0,0,0,6.81,2.75,8.44,8.44,0,0,0,2.35-.33l.29-.08.28-.12a8.36,8.36,0,0,0,5.26-5.54c.77-2.74.05-5.6-2.13-8.49a117.49,117.49,0,0,1-8.89-25.36,62.46,62.46,0,0,0-2.42-7.46,40.1,40.1,0,0,1-1.87-6c0-.15,0-.29-.05-.42a50.82,50.82,0,0,0,16.1-18.48c3.52-5.92,3.9-13.83,1.13-23.51-.05-.17-.09-.31-.11-.41-1.21-4.63-7.13-19.72-32.6-19.72Zm-6,17.89c.75,0,1.43,0,2.09-.06,3.48-.19,6.06-.28,8.12-.28,6.92,0,7.55.63,10.64,4.11a16.86,16.86,0,0,1,3.34,11.9,14.11,14.11,0,0,1-5.37,9.64l-.13.1-.12.11c-5.4,4.81-8.64,6.07-10.79,6.9a17.72,17.72,0,0,0-2.44,1.1c-.27.12-2,.77-8.07,1.73,0-4.68-.18-10.58-.52-17.54-.37-7.55-.57-13.53-.61-17.76h.55l1.34,0c.62,0,1.28,0,2,0Z" transform="translate(-43.46 -200.94)"/><path class="cls-1" d="M386.36,314.35c-1.58,0-4.4-.75-5.5-5.73l0-.13c-.66-3.79-.52-11.6.43-23.89,1.65-24.29,1.73-45.56.23-63.2-.11-1.09-.21-2.15-.29-3.14a13.26,13.26,0,0,1,3.41-9.95,13.06,13.06,0,0,1,9.56-4.3l5.5,0,5,0c23.32,0,28.62,13.38,29.69,17.48,0,.12.08.28.14.48,2.54,8.89,2.25,16-.86,21.21a47.32,47.32,0,0,1-16.21,18.18l-.34.23a11.68,11.68,0,0,0,.15,2.44,42.92,42.92,0,0,0,2,6.53,58.57,58.57,0,0,1,2.29,7.05,121,121,0,0,0,9.17,26.14,2.48,2.48,0,0,0,.25.38c1.59,2.11,2.15,4.09,1.65,5.89a5.42,5.42,0,0,1-3.49,3.56l-.14.06-.15,0a5.52,5.52,0,0,1-1.52.21,7.71,7.71,0,0,1-4.89-2.05c-.85-.71-1.58-1.32-8.73-23.58-.06-.19-5.23-16.34-6.64-21.5-2.39.48-8.16,1.89-12.53,3.22a2.91,2.91,0,0,0-2,2.67c-.17,4.26-.31,12-.41,23.05-.24,15.19-1.35,17.32-3.65,18.31l-.16.06A5.53,5.53,0,0,1,386.36,314.35Zm9-98.58-.78,0a2.91,2.91,0,0,0-2.77,2.92c0,4.27.24,10.32.62,18,.34,7,.51,12.84.51,17.49a2.92,2.92,0,0,0,2.91,2.92,2.49,2.49,0,0,0,.47,0c7.07-1.11,8.77-1.87,9.12-2.08a15.89,15.89,0,0,1,2.1-.94c2.2-.85,5.89-2.28,11.7-7.45l.12-.11a17,17,0,0,0,6.48-11.65,19.64,19.64,0,0,0-4-14.15c-3.34-3.78-4.64-5.19-12.94-5.19-2.12,0-4.75.09-8.28.29-.67,0-1.31.05-1.93.05s-1.3,0-1.9,0Z" transform="translate(-43.46 -200.94)"/><path d="M404.65,206.94c22.76,0,26.34,13.49,26.79,15.23s4,12.2-.44,19.46c-7.16,13.58-16.25,17.32-16.63,18.23a9.51,9.51,0,0,0-.11,4.58,43.82,43.82,0,0,0,2.18,7.11,58.55,58.55,0,0,1,2.17,6.64A123,123,0,0,0,428,305a5.47,5.47,0,0,0,.55.89c1.8,2.37,1.61,4-.55,4.85a2.37,2.37,0,0,1-.7.1,4.8,4.8,0,0,1-3-1.36c-1.37-1.14-14.51-43.18-14.66-44.56a1.8,1.8,0,0,0-1.72-1.37h-.07c-1,0-9.23,2-14.24,3.52a5.9,5.9,0,0,0-4.18,5.42q-.25,6.48-.41,23.14-.24,14.89-1.83,15.58a2.62,2.62,0,0,1-.87.17c-1.22,0-2.07-1.13-2.57-3.38q-.92-5.27.46-23.14,2.52-36.87.23-63.69c-.12-1.11-.21-2.15-.29-3.12a10.2,10.2,0,0,1,10-11c2.75,0,6.07,0,10-.07h.47m-6,5.89c-1.22,0-2.33-.06-3.32-.06l-.93,0a5.91,5.91,0,0,0-5.62,5.94q0,6.5.62,18.11.51,10.41.51,17.34a5.92,5.92,0,0,0,5.91,5.92,6.07,6.07,0,0,0,.94-.08q8.17-1.27,10.17-2.45c1.83-1.07,6.22-1.57,14.27-8.74,10.39-8.29,9.2-22.24,2.89-30.09-4.11-4.64-6.22-6.25-15.24-6.25-2.31,0-5.08.1-8.45.29-.61,0-1.19.05-1.75.05m6-11.89h-.52l-4.5,0-5.5,0a16.2,16.2,0,0,0-15.92,17.48c.08,1,.18,2.08.29,3.21,1.49,17.48,1.41,38.57-.24,62.7-1.28,16.68-.83,22-.38,24.61l0,.13,0,.13c1.66,7.5,6.87,8.08,8.43,8.08a8.59,8.59,0,0,0,2.92-.53l.16-.06.15-.07c4.46-1.91,5.25-6.68,5.47-21,.1-11,.23-18.69.4-22.94,3-.9,6.76-1.88,9.49-2.53,1.62,5.53,4.43,14.35,5.89,18.87,7.41,23.1,8.07,23.65,9.66,25a10.58,10.58,0,0,0,6.81,2.75,8.57,8.57,0,0,0,2.36-.33l.28-.08.28-.12a8.39,8.39,0,0,0,5.27-5.54c.76-2.74,0-5.6-2.14-8.49a117.49,117.49,0,0,1-8.89-25.36,62.46,62.46,0,0,0-2.42-7.46,40.1,40.1,0,0,1-1.87-6c0-.15,0-.29-.05-.42a50.82,50.82,0,0,0,16.1-18.48c3.52-5.92,3.9-13.83,1.13-23.51,0-.17-.09-.31-.11-.41-1.21-4.63-7.13-19.72-32.6-19.72Zm-6,17.89c.74,0,1.42,0,2.08-.06,3.48-.19,6.06-.28,8.12-.28,6.92,0,7.55.63,10.64,4.11a16.86,16.86,0,0,1,3.34,11.9,14.11,14.11,0,0,1-5.37,9.64l-.13.1-.12.11c-5.4,4.81-8.64,6.07-10.78,6.9a17.31,17.31,0,0,0-2.45,1.1c-.27.12-1.94.77-8.07,1.73,0-4.68-.18-10.58-.52-17.54-.37-7.55-.57-13.53-.61-17.76h.55l1.34,0c.63,0,1.28,0,2,0Z" transform="translate(-43.46 -200.94)"/><path class="cls-1" d="M472.17,310.84c-10.77,0-20.09-8.17-24.81-15.16-6.77-10.06-6.78-22.19-5.79-33.81,1.61-18.93,14.38-46.93,36.67-46.93a30.37,30.37,0,0,1,23.07,10c10.72,11.5,13.52,29.77,12.65,41.92-1.55,21.93-16.73,39.44-37.78,43.58A20.65,20.65,0,0,1,472.17,310.84Zm8-83.75c-7,0-13.89,2.88-17.92,7.51-11.19,12.83-15.5,41.61-4.42,55.66,4.36,5.52,10.72,6.68,15.3,6.68,10.91,0,22.24-6.45,26.34-15,7-14.7,5.84-31.32-3.37-46.81C493.06,230,487.26,227.09,480.17,227.09Z" transform="translate(-43.46 -200.94)"/><path d="M478.24,217.94c24.88,0,34.2,28,32.73,48.72-1.42,20-15.22,36.88-35.37,40.85a18.19,18.19,0,0,1-3.43.33c-8.93,0-17.41-6.55-22.32-13.84-6.31-9.38-6.22-21-5.29-31.88,1.43-16.88,12.87-44.18,33.68-44.18m-5.11,82c11.63,0,24.29-6.8,29.05-16.71,7.91-16.54,5.64-34.27-3.51-49.65-3.89-6.55-11.09-9.49-18.5-9.49-7.6,0-15.43,3.09-20.19,8.54-12.14,13.94-16.45,44.36-4.5,59.49,4.31,5.46,10.8,7.82,17.65,7.82m5.11-88c-11.43,0-21.52,6.41-29.18,18.56a72.57,72.57,0,0,0-10.48,31.11c-1,12.17-1,24.92,6.3,35.74,5.36,8,15.35,16.49,27.29,16.49a24.29,24.29,0,0,0,4.59-.44c22.39-4.41,38.55-23,40.2-46.32.94-13.36-2.09-32-13.46-44.18a33.72,33.72,0,0,0-25.26-11Zm-5.11,82c-3.91,0-9.33-1-12.94-5.53-10-12.68-6.05-40,4.32-51.84,3.43-3.93,9.57-6.48,15.66-6.48,2.84,0,9.83.64,13.35,6.56,8.68,14.6,9.83,30.22,3.25,44-3.58,7.45-14,13.3-23.64,13.3Z" transform="translate(-43.46 -200.94)"/><path class="cls-1" d="M502.75,422.63c-10,0-18.46-7.27-23-14.07-6.28-9.32-6.29-20.55-5.38-31.29,1.49-17.52,13.33-43.44,34-43.44a28.6,28.6,0,0,1,21.42,9.3c9.92,10.65,12.51,27.55,11.72,38.79-1.44,20.3-15.5,36.51-35,40.35A19.43,19.43,0,0,1,502.75,422.63Zm7.37-77.13c-6.4,0-12.66,2.62-16.33,6.84-10.24,11.75-14.2,38.09-4.05,51,3.94,5,9.73,6.06,13.89,6.06,10,0,20.31-5.88,24-13.68,6.44-13.46,5.34-28.7-3.1-42.89C521.83,348.16,516.56,345.5,510.12,345.5Z" transform="translate(-43.46 -200.94)"/><path d="M508.34,336.83c22.91,0,31.5,25.78,30.15,44.87-1.31,18.47-14,34-32.58,37.62a16.19,16.19,0,0,1-3.16.31c-8.22,0-16-6-20.55-12.75-5.82-8.63-5.73-19.36-4.88-29.36,1.33-15.54,11.85-40.69,31-40.69m-4.71,75.52c10.72,0,22.38-6.26,26.76-15.38,7.28-15.23,5.19-31.57-3.23-45.73-3.59-6-10.21-8.74-17-8.74-7,0-14.22,2.85-18.59,7.87-11.19,12.83-15.15,40.84-4.15,54.78,4,5,9.95,7.2,16.25,7.2m4.71-81.52c-10.7,0-20.13,6-27.27,17.32A67.39,67.39,0,0,0,471.34,377c-1,11.3-.91,23.14,5.88,33.22,5,7.45,14.35,15.4,25.53,15.4a22.28,22.28,0,0,0,4.32-.42c20.83-4.1,35.87-21.41,37.4-43.08.88-12.41-2-29.7-12.52-41.05a31.52,31.52,0,0,0-23.61-10.25Zm-4.71,75.52c-3.49,0-8.34-.85-11.54-4.91-9.08-11.51-5.47-36.31,4-47.13,3.08-3.53,8.6-5.81,14.07-5.81,2.53,0,8.77.57,11.88,5.81,7.91,13.31,9,27.53,3,40.07-3.21,6.71-12.59,12-21.34,12Z" transform="translate(-43.46 -200.94)"/><path class="cls-1" d="M429.49,424.55c-10,0-18.46-7.27-23-14.07-6.28-9.32-6.29-20.55-5.38-31.29,1.49-17.52,13.33-43.44,34-43.44A28.63,28.63,0,0,1,456.5,345c9.92,10.66,12.51,27.56,11.72,38.79-1.44,20.3-15.5,36.52-35,40.35A19.52,19.52,0,0,1,429.49,424.55Zm7.36-77.13c-6.39,0-12.65,2.62-16.32,6.84-10.24,11.74-14.2,38.09-4.06,50.95,3.95,5,9.74,6.06,13.9,6.06,10,0,20.31-5.88,24.05-13.68,6.44-13.47,5.34-28.7-3.1-42.89C448.57,350.07,443.3,347.42,436.85,347.42Z" transform="translate(-43.46 -200.94)"/><path d="M435.08,338.75c22.91,0,31.5,25.78,30.14,44.87-1.3,18.47-14,34-32.57,37.62a16.19,16.19,0,0,1-3.16.31c-8.22,0-16-6-20.55-12.75-5.82-8.64-5.73-19.36-4.88-29.36,1.32-15.54,11.85-40.69,31-40.69m-4.71,75.52c10.71,0,22.38-6.26,26.76-15.39,7.28-15.23,5.19-31.56-3.23-45.72-3.59-6-10.22-8.74-17-8.74-7,0-14.21,2.84-18.58,7.87-11.19,12.83-15.15,40.84-4.15,54.78,4,5,9.94,7.2,16.25,7.2m4.71-81.52c-10.7,0-20.13,6-27.28,17.32a67.51,67.51,0,0,0-9.72,28.86c-1,11.29-.91,23.13,5.88,33.22,5,7.44,14.35,15.4,25.53,15.4a22.35,22.35,0,0,0,4.32-.42c20.83-4.1,35.86-21.42,37.4-43.08.88-12.41-1.95-29.71-12.52-41.05a31.52,31.52,0,0,0-23.61-10.25Zm-4.71,75.52c-3.5,0-8.34-.86-11.54-4.92-9.08-11.51-5.47-36.3,4-47.12,3.07-3.53,8.59-5.81,14.06-5.81,2.54,0,8.78.57,11.89,5.81,7.91,13.3,9,27.53,3,40.06-3.22,6.72-12.59,12-21.34,12Z" transform="translate(-43.46 -200.94)"/><path class="cls-1" d="M539.34,307.88c-5.39,0-8.07-6.81-9.61-11.94-.28-.91-1.68-6.41-4.34-16.86-4.66-18.27-14.25-55.94-15.79-60-2.93-3.91-.76-6.62,0-7.37a5.5,5.5,0,0,1,7.14-.88,8.32,8.32,0,0,1,3.65,6.08c.47,1.82,7.71,27.63,13,46.54,4.31,15.36,6.76,24.07,6.88,24.56l0,.16-2.91.71,2.93-.61a.17.17,0,0,0,.15.1c.08,0,.09,0,.13-.08.3-.61,1.44-3.64,2.65-6.84,12.22-32.41,16-38.14,19.76-38.74l.42-.06.42.05c2.31.29,5.76.72,18.53,43.42l.24-.42c7.29-13.21,29.88-73.87,31.16-77.83l0-.13a4.14,4.14,0,0,1,3.9-3,4.87,4.87,0,0,1,3.15,1.3l.09.08.08.08a5.68,5.68,0,0,1,1.57,4.19c0,.78,0,2.09-17.61,46.32-7,17.49-17.84,44.48-19.26,47.16a6.93,6.93,0,0,1-.63,1,6.3,6.3,0,0,1-4.91,2.72c-3,0-4.38-1.7-8.65-20.67a71.28,71.28,0,0,0-3.06-8.81c-.6-1.46-1.19-2.83-1.75-4.12-.87-2-1.69-3.88-2.31-5.64-.24-.69-.47-1.38-.67-2-.9,2-2,4.52-3.54,7.42l-1.34,2.6c-3.79,7.36-6.3,12.22-8.25,19.17l-.06.2-.08.2c-3.63,8.21-7.17,12-11.16,12Z" transform="translate(-43.46 -200.94)"/><path d="M617.73,207.73a2,2,0,0,1,1.2.58,2.81,2.81,0,0,1,.69,2.07c0,2.14-34.21,87.72-36.52,92.07a3.17,3.17,0,0,1-.32.49,3.47,3.47,0,0,1-2.57,1.6q-1.61,0-5.72-18.33a74.58,74.58,0,0,0-3.21-9.28c-1.53-3.74-3-6.88-4-9.62-.91-2.59-1.55-5.16-1.61-5.4q-.85-3.42-1.71-3.42c-.46,0-1.81,4.89-6.39,13.82s-7.54,14.28-9.81,22.32c-3,6.74-5.8,10.25-8.41,10.25s-4.75-3.18-6.74-9.81c-.93-3.08-19.21-76.22-20.43-77.59-1.22-1.53-1.38-2.75-.46-3.67a2.75,2.75,0,0,1,1.95-.93,2.88,2.88,0,0,1,1.49.47,5.57,5.57,0,0,1,2.29,4.13c.3,1.37,19.62,70,19.93,71.25l0,.13a3.15,3.15,0,0,0,5.89.75c1.63-3.26,15.33-43.19,20.2-44,4.27.53,17.18,45.21,17.64,46.74,0,.15.14.23.25.23q.84,0,3.87-5.5c7.34-13.29,30-74.08,31.39-78.36.26-.7.62-1,1.09-1m0-6h0a7.15,7.15,0,0,0-6.7,4.94l0,.13,0,.14C609.81,210.4,592,258.12,583,278c-1.44-4.63-2.84-9-4.16-12.86-2.15-6.35-4-11.44-5.65-15.12-2.72-6.29-5-9.78-9-10.29l-.84-.1-.83.13c-5.43.85-9.17,6.44-21.64,39.4l-4.68-16.67C531.07,244,524,219,523.32,216.24a11.22,11.22,0,0,0-5-8,8.73,8.73,0,0,0-4.68-1.39,8.62,8.62,0,0,0-6.19,2.69c-2.26,2.26-3.66,6.4-.56,10.88,1.86,5.54,11.07,41.71,15.58,59.39,2.74,10.77,4.07,16,4.36,17,1.16,3.85,4.24,14.08,12.49,14.08,6.91,0,11.06-7.39,13.9-13.82l.17-.39.12-.41c1.87-6.65,4.32-11.41,8-18.6.43-.84.88-1.7,1.34-2.61.2-.38.39-.75.57-1.12.17.4.35.8.53,1.21.56,1.3,1.14,2.64,1.72,4.06a67.13,67.13,0,0,1,2.93,8.4c1.42,6.29,2.59,10.92,3.6,14.15,1.1,3.5,2.75,8.79,8,8.79,1.9,0,4.7-.67,7.25-3.85a8.69,8.69,0,0,0,.93-1.42c1.61-3,13.4-32.36,19.41-47.46,4.71-11.82,9-22.69,12-30.59,5.78-15,5.78-15.48,5.78-16.84a8.63,8.63,0,0,0-2.45-6.31l-.16-.16-.18-.15a7.72,7.72,0,0,0-5.1-2Z" transform="translate(-43.46 -200.94)"/><path class="cls-1" d="M336.66,457.73a27.59,27.59,0,0,1-13.31-3.56c-16.87-9.19-18.27-25.36-19-34.05-2.57-29.67,4.33-59.61,18-78.12l.1-.14.12-.13c1.06-1.13,2.09-2.37,3.18-3.68,5.67-6.8,12.72-15.27,29.66-15.27.63,0,1.28,0,1.94,0l.43,0c5.31,0,7.56.89,12.05,2.62l.62.24.19.1a35.89,35.89,0,0,1,6.37,4.19c.32.3.6.55.88.79a24.26,24.26,0,0,1,2.31,2.24c.47.53.93,1,1.38,1.52.8.86,1.62,1.75,2.48,2.77l.43.48c3.11,3.5,7,7.85,3.21,12l-.32.35-.4.23a5.52,5.52,0,0,1-2.78.76c-3.28,0-5.46-2.79-8-6-.71-.9-1.44-1.84-2.22-2.75-1.83-2.13-8.45-9.08-17-9.08a15.87,15.87,0,0,0-5.28.92,25.62,25.62,0,0,0-7,3.41c-.52.34-1.07.71-1.72,1.12-2.9,1.83-6,5-9.31,9.47a68.36,68.36,0,0,0-10.35,18.71c-2.06,5.4-3.76,15.56-4.9,29.38.09,24.24.39,25,5.42,38.2l.13.34c2.41,5.06,7.46,7.63,15,7.63h.7c14.59-.3,26.59-13.43,39.65-29.26a9.43,9.43,0,0,0,.66-.9c1.54-2.25,3.46-4.56,6-4.56a4.3,4.3,0,0,1,1,.13,5.13,5.13,0,0,1,3.68,3.13,4.55,4.55,0,0,1-.77,4.36c-20.25,26.2-36.24,42.44-53.37,42.44Z" transform="translate(-43.46 -200.94)"/><path d="M355.4,325.78c.65,0,1.32,0,2,0h0c.12,0,.23,0,.34,0h0c4.9,0,6.76.8,11.4,2.58a35.19,35.19,0,0,1,5.79,3.77,36.15,36.15,0,0,1,3,2.83c1.29,1.45,2.51,2.68,3.8,4.22,3.21,3.62,5.79,6.26,3.73,8.52a2.58,2.58,0,0,1-1.29.36c-2.45,0-4.68-3.94-7.93-7.72-3.1-3.62-10.28-10.13-19.23-10.13a18.89,18.89,0,0,0-6.28,1.09c-5.25,1.86-6.07,2.78-9.3,4.82s-6.61,5.45-10.13,10.23a71.84,71.84,0,0,0-10.73,19.42c-2.61,6.83-4.16,19-5.1,30.33.09,25.19.49,26,5.79,39.84,2.3,4.94,7.37,9.45,17.79,9.45h.76c15.77-.32,28.41-14,41.91-30.36.29-.35.56-.73.82-1.11,1.48-2.16,2.66-3.25,3.55-3.25a1.26,1.26,0,0,1,.28,0c1.27.29,2.25,1.48,1.27,2.75-18.61,24.07-34.77,41.27-51,41.27a24.57,24.57,0,0,1-11.88-3.19c-15-8.17-16.64-22.16-17.46-31.67-2.72-31.39,5.16-59.47,17.43-76.09,6.73-7.2,12-18,30.65-18m0-6c-18.35,0-26.22,9.45-32,16.35-1.07,1.28-2.07,2.48-3.07,3.55l-.24.25-.2.28c-6.75,9.14-12.06,21.12-15.34,34.66a142.88,142.88,0,0,0-3.25,45.51c.74,8.59,2.29,26.46,20.57,36.43a30.6,30.6,0,0,0,14.75,3.92c18.35,0,34.94-16.69,55.74-43.6a7.58,7.58,0,0,0,1.22-7.22,8,8,0,0,0-5.79-5,7.11,7.11,0,0,0-1.72-.22c-4,0-6.64,3.14-8.5,5.87-.2.28-.36.51-.5.68-12.59,15.25-24.09,27.9-37.4,28.17h-.64c-6.34,0-10.36-1.9-12.27-5.82l-.09-.22c-4.93-12.9-5.14-13.45-5.22-37,1.41-17,3.34-24.85,4.7-28.43A65.61,65.61,0,0,1,336.1,350l0,0,0,0c3-4.16,5.91-7.09,8.49-8.71l1.77-1.15a22.82,22.82,0,0,1,6.33-3.09,12.78,12.78,0,0,1,4.28-.75c7.42,0,13.53,6.69,14.68,8,.74.87,1.45,1.77,2.13,2.65,2.75,3.53,5.6,7.17,10.35,7.17a8.51,8.51,0,0,0,4.27-1.16l.81-.46.64-.7A8.81,8.81,0,0,0,391,341.4a29.43,29.43,0,0,0-4.31-5.65l-.43-.49c-.89-1-1.72-1.94-2.52-2.82-.44-.48-.89-1-1.34-1.47a28,28,0,0,0-2.57-2.49l-.81-.73c-.85-.8-2.5-2.14-7-4.62l-.37-.2-.39-.16-.42-.16c-4.53-1.74-7.26-2.79-13.1-2.82l-.55,0-1.85,0Z" transform="translate(-43.46 -200.94)"/><path class="cls-1" d="M612,429a6.63,6.63,0,0,1-4.39-1.88c-2.55-2.25-16.08-37.53-16.21-37.89-4.93-12.89-8.42-21.59-10.38-25.87-5.27,6.8-16.37,19.51-17.33,20.28a3,3,0,0,0-1.12,1.53c0,.46-.2,3.61-.36,6.94-1.38,28.82-1.78,29.34-2.67,30.49-1,1.39-2.53,3.06-4.65,3.06-1.34,0-3.67-.63-4.28-4.9h0c-.15-2.2.26-17.26,1.21-44.82,1.49-43.4,1.72-44.6,2.5-45.6a7.69,7.69,0,0,1,.86-1.06l.1-.13h0a4.24,4.24,0,0,1,3-1.32,3.73,3.73,0,0,1,1.79.46c1.73.67,1.8,2.86,1.85,4.67,0,1.25.09,3,.15,5.2.11,4.3.25,10,.39,15.78.16,6.19.32,12.88.44,17.46,1.37-1.48,3.27-3.64,5.86-6.78a99.16,99.16,0,0,0,6.6-10c1.67-2.77,4.61-7.55,7-11.51,1.78-2.88,3.28-5.32,3.82-6.21,1.3-2.18,2.58-4.16,3.81-5.89,1.49-2.11,2.7-3.6,4.59-3.6h.7l.2.09a4.42,4.42,0,0,1,3.54,4.42,5.63,5.63,0,0,1-2.12,5c-.38.51-1.5,2.14-4.79,7.21a18.73,18.73,0,0,0-3,7.4,14.77,14.77,0,0,0,.11,5.52c.49,1.37,5.51,13,10.36,24.27,16.33,37.9,17.19,40.21,17.28,41.31.34,4.12-1.65,5.53-3,6A5,5,0,0,1,612,429Z" transform="translate(-43.46 -200.94)"/><path d="M594.62,330.45a.12.12,0,0,1,.08,0c.84,0,1.29.56,1.37,1.68a2.65,2.65,0,0,1-1.16,2.54c-.15,0-1.9,2.6-5.28,7.8a21.7,21.7,0,0,0-3.48,8.65,17.56,17.56,0,0,0,.21,6.75c.49,1.83,27.39,63.3,27.54,65s-.22,2.67-1.06,2.95a2.19,2.19,0,0,1-.87.18,3.71,3.71,0,0,1-2.4-1.13c-1.2-1.05-10.27-23.28-15.4-36.71s-8.69-22.26-10.66-26.48c-.57-1.14-1.25-3.64-2.09-3.64-.2,0-.4.13-.61.45-2.53,4.22-18.44,22.34-19,22.81a5.82,5.82,0,0,0-2.21,3.49c-.21,1.61-1.45,34.7-2.43,36s-1.7,1.9-2.28,1.9-1.09-.77-1.31-2.32c-.28-1.27,2.6-88.2,3.17-88.2h0c.58-.87,1.1-1.31,1.55-1.31a.81.81,0,0,1,.56.26c.14,0,1.12,46.21,1.26,46.21a.32.32,0,0,0,.29.15q1.65,0,10.68-10.92a102.41,102.41,0,0,0,6.86-10.33c2.88-4.78,9.6-15.62,10.87-17.73s2.49-4,3.69-5.69,1.82-2.34,2.14-2.34m0-6h0c-3.6,0-5.59,2.82-7,4.87-1.26,1.79-2.59,3.83-3.94,6.08-.52.86-2,3.33-3.8,6.2-2.4,3.89-5.38,8.73-7.06,11.51a99.36,99.36,0,0,1-6.37,9.65l-.72.86c-.08-3.2-.16-6.62-.24-9.77-.14-5.75-.28-11.48-.39-15.77-.06-2.16-.11-3.95-.15-5.21,0-.66,0-1.17,0-1.52a6.55,6.55,0,0,0-1.8-4.5h0a6.74,6.74,0,0,0-4.79-2,7,7,0,0,0-4,1.31h-.41l-1,1.28a11.76,11.76,0,0,0-.88,1.1c-1.34,1.68-1.35,2-2,17.29-.33,7.64-.73,18.3-1.13,30-1.31,37.86-1.32,43.88-1.19,45.34h0c1,7.12,6.22,7.48,7.25,7.48,3.84,0,6.23-3.15,7.07-4.28,1.51-1.95,1.84-2.65,3.25-32.12.12-2.5.24-5.06.31-6.24l0,0c1-.83,8.92-9.79,14.68-16.84,2,4.8,4.8,11.89,8.34,21.16,2.67,7,6.22,15.87,9.24,23.16,5.93,14.26,6.63,14.88,7.8,15.91A9.49,9.49,0,0,0,612,432a8.21,8.21,0,0,0,3.09-.6c1.61-.63,5.33-2.79,4.82-9-.14-1.6-.17-2-17.51-42.22-4.68-10.86-9.52-22.09-10.26-24a12.47,12.47,0,0,1,0-4.23,15.78,15.78,0,0,1,2.58-6.19c2.83-4.37,4-6.09,4.47-6.76a8.65,8.65,0,0,0,2.91-7.19c-.27-4.1-3-7-6.74-7.3a5.37,5.37,0,0,0-.7,0Z" transform="translate(-43.46 -200.94)"/></svg>