<svg width="181" height="181" viewBox="0 0 181 181" fill="none" xmlns="http://www.w3.org/2000/svg">
<path id="letter" d="M45.9911 164.347L46.0169 164.363L46.0428 164.378C58.5911 171.784 72.7306 175.44 88.3281 175.44C103.126 175.44 116.488 172.086 128.273 165.263L128.285 165.256L128.297 165.249C133.82 162.012 138.802 158.254 143.232 153.982V158.056C143.232 162.511 144.723 166.514 147.865 169.656L147.949 169.74L148.037 169.82C151.201 172.697 155.147 174 159.464 174C163.781 174 167.727 172.697 170.891 169.82L170.98 169.74L171.064 169.656C174.205 166.514 175.696 162.511 175.696 158.056V92.8284L175.727 92.8046L175.696 90.3452V86.4881L175.577 86.4578C174.853 71.8489 171.046 58.5581 164.079 46.6855C156.733 33.8402 146.605 23.7103 133.762 16.3621C121.021 8.76916 106.598 5.02399 90.6321 5.02399C74.6592 5.02399 60.1489 8.77231 47.2296 16.3535C34.3826 23.7004 24.1624 33.8255 16.6247 46.6599L16.6096 46.6855L16.5949 46.7113C9.20796 59.6385 5.56812 74.2374 5.56812 90.376C5.56812 106.31 9.10582 120.792 16.2773 133.7L16.292 133.727L16.3069 133.753C23.6324 146.572 33.5407 156.795 45.9911 164.347ZM117.765 138.192L117.744 138.204L117.724 138.217C109.941 142.886 100.96 145.28 90.6321 145.28C80.5146 145.28 71.5109 142.894 63.4991 138.192C55.4358 133.459 49.0482 126.995 44.291 118.721C39.5652 110.312 37.1681 100.9 37.1681 90.376C37.1681 79.6342 39.5764 70.2378 44.2796 62.0506C49.038 53.7675 55.4294 47.2967 63.4991 42.5601L63.5336 42.5398L63.5679 42.519C71.5701 37.6481 80.5492 35.184 90.6321 35.184C100.926 35.184 109.881 37.6566 117.655 42.4933L117.709 42.5274L117.765 42.5601C125.818 47.2869 132.096 53.735 136.657 61.9803L136.676 62.0156L136.697 62.0506C141.4 70.2378 143.808 79.6342 143.808 90.376C143.808 100.909 141.407 110.326 136.674 118.741L136.666 118.756L136.657 118.772C132.096 127.017 125.818 133.465 117.765 138.192Z" stroke="black" stroke-width="10"/>
</svg>
