<svg id="Слой_1" data-name="Слой 1" xmlns="http://www.w3.org/2000/svg" viewBox="0 0 66.44 127.89"><defs><style>.cls-1{fill:#474867;}.cls-2{fill:#fafafc;}.cls-3{fill:#d2d7e4;}.cls-4{fill:#eec2cf;}.cls-5{fill:#4f87c6;}.cls-6{fill:#fff;}</style></defs><title>Монтажная область 1</title><path class="cls-1" d="M.83,24c0-4.16,0-8.31,0-12.47A7.52,7.52,0,0,1,8.4,4Q33.33,4,58.27,4a7.53,7.53,0,0,1,7.55,7.51c.06,4.16,0,8.31,0,12.47v85c0,2.49,0,5,0,7.46,0,4.36-4.47,8.55-8.6,8.55-15.92,0-31.83,0-47.75,0C5.32,125,.83,120,.83,117V24Zm61,40q0-25.74,0-51.49c0-4-1.35-5.39-5.45-5.5-1.5,0-3-.13-4.5,0-1.73.11-3.14-.14-3.67,2-.41,1.7-2.19,2.11-4.09,2.06-6.16-.14-12.33,0-18.49,0-2,0-3.92,0-6-.06A2.69,2.69,0,0,1,17,9.42C16.31,7,16,7.15,14,7a35.41,35.41,0,0,0-4,0,5.47,5.47,0,0,0-5.24,3.3c-1,1.77-.86,3.42-.86,5.15q0,48.5,0,97c0,1,0,2,0,3,0,3.5,1,3.43,2.35,4.54a5.05,5.05,0,0,0,3.6,1c1.33,0,2.66,0,4,0,14,0,28,0,42,0a6.22,6.22,0,0,0,4.34-1.7c1.73-1.4,1.71-3,1.71-4.84Q61.83,89.24,61.83,64Z"/><path class="cls-2" d="M59.64,2.83H6.41C10.11,1.77,50.56,1.51,59.64,2.83Z"/><path class="cls-3" d="M43.83,83h-9c-5.65,0-11.3,0-16.94,0-.93,0-1.13-.53-1-1.24.06-.52.39-.79,1-.78,4.32,0,8.64,0,13,0,5.31,0,10.63,0,16,0,.9,0,1.13.5,1,1.23a.83.83,0,0,1-1,.79C45.83,83,44.83,83,43.83,83Z"/><path class="cls-4" d="M54.07,75a4.14,4.14,0,0,1-4.24-3.64,4.08,4.08,0,0,1,4-4.36c1.84,0,3.93,1.78,4,3.4C57.9,72.73,56.12,74.92,54.07,75Z"/><path class="cls-4" d="M15.83,71.2A4.32,4.32,0,0,1,11.26,75a4.29,4.29,0,0,1-3.43-4.45A4.23,4.23,0,0,1,12.16,67C13.79,67.1,16,69.6,15.83,71.2Z"/><rect class="cls-5" x="17.58" y="50.1" width="2.61" height="14.03" rx="1.3" ry="1.3" transform="translate(-8.16 110.86) rotate(-135)"/><rect class="cls-5" x="17.45" y="49.91" width="2.61" height="14.03" rx="1.3" ry="1.3" transform="translate(72.27 83.92) rotate(135)"/><rect class="cls-5" x="44.2" y="50.98" width="2.61" height="14.03" rx="1.3" ry="1.3" transform="translate(36.68 131.18) rotate(-135)"/><rect class="cls-5" x="44.08" y="50.79" width="2.61" height="14.03" rx="1.3" ry="1.3" transform="translate(118.34 66.59) rotate(135)"/><rect class="cls-6" x="25" y="7.24" width="12.56" height="1.75" rx="0.87" ry="0.87"/><rect class="cls-6" x="40.4" y="7.14" width="1.78" height="1.78" rx="0.89" ry="0.89" transform="translate(11.55 -21.71) rotate(34)"/><path class="cls-4" d="M37.08,83h9.29a0,0,0,0,1,0,0V93.9a3.4,3.4,0,0,1-3.4,3.4H41.62a4.54,4.54,0,0,1-4.54-4.54V83A0,0,0,0,1,37.08,83Z"/></svg>