<svg xmlns="http://www.w3.org/2000/svg" viewBox="0 0 192.88 252.12"><defs><style>.cls-1{fill:#61ab8f;}.cls-2{fill:#b47667;}.cls-3{fill:#99cab4;}</style></defs><title>NewМонтажная область 77</title><g id="Слои"><polygon class="cls-1" points="185.67 30.38 143.64 30.38 139.46 7.21 53.42 7.21 49.24 30.38 7.21 30.38 7.27 75.13 185.61 75.13 185.67 30.38"/><path class="cls-2" d="M19.87,75.13l4.68,49.49.3,3.24a6.67,6.67,0,0,0,.07.67l4.89,51.86.23,1.88,6.05,50.17A14.08,14.08,0,0,0,49.8,244.91h93.28a14.07,14.07,0,0,0,13.71-12.47l6-50.17.26-2.08,4.77-50.56c0-.15,0-.25,0-.25l.44-4.76L173,75.13Z"/><path d="M134.58,59.17a6.69,6.69,0,0,1-1.41-.15,6.92,6.92,0,0,1-1.34-.41,7.1,7.1,0,0,1-1.25-.66,7.26,7.26,0,0,1-1.1-.89,7.79,7.79,0,0,1-.89-1.1,7.1,7.1,0,0,1-.66-1.25,6.92,6.92,0,0,1-.41-1.34,6.7,6.7,0,0,1,0-2.82,7,7,0,0,1,.41-1.35,7.87,7.87,0,0,1,.66-1.25,7.71,7.71,0,0,1,.89-1.09,8,8,0,0,1,1.1-.9,7.47,7.47,0,0,1,1.25-.66,6.92,6.92,0,0,1,1.34-.41,7.21,7.21,0,0,1,4.17.41,7.37,7.37,0,0,1,1.24.66,8.64,8.64,0,0,1,1.1.9,7.71,7.71,0,0,1,.89,1.09,7.93,7.93,0,0,1,.67,1.25,7.8,7.8,0,0,1,.41,1.35,7.17,7.17,0,0,1,0,2.82,7.69,7.69,0,0,1-.41,1.34,7.14,7.14,0,0,1-.67,1.25,6.74,6.74,0,0,1-2,2,7.37,7.37,0,0,1-1.24.66A7,7,0,0,1,136,59,6.76,6.76,0,0,1,134.58,59.17Z"/><path class="cls-3" d="M168.33,124.62l-.44,4.76s0,.1,0,.26l-4.77,50.55-.26,2.08H30l-.23-1.88-4.89-51.86a6.67,6.67,0,0,1-.07-.67l-.3-3.24Z"/><polygon class="cls-1" points="94.98 160.2 53.1 160.2 53.1 140.21 62.4 124.72 85.67 124.72 94.98 140.21 94.98 160.2"/><path d="M190.77,25.29a7.17,7.17,0,0,0-5.1-2.12h-36L146.55,5.93A7.22,7.22,0,0,0,139.45,0h-86a7.22,7.22,0,0,0-7.1,5.93L43.22,23.17h-36A7.22,7.22,0,0,0,0,30.39L.06,75.14a7.21,7.21,0,0,0,7.21,7.2h6L28.92,233.22a21.41,21.41,0,0,0,20.87,18.9h93.29A21.42,21.42,0,0,0,164,233.22l15.6-150.88h6.05a7.21,7.21,0,0,0,7.21-7.2l.06-44.75A7.22,7.22,0,0,0,190.77,25.29ZM49.24,37.59a7.21,7.21,0,0,0,7.09-5.93l3.12-17.25h74l3.12,17.25a7.21,7.21,0,0,0,7.09,5.93h34.82l-.05,30.33H14.47V59.16H113a7.21,7.21,0,1,0,0-14.41H14.43V37.59ZM87.77,142.21V153H60.31V142.21l6.17-10.28H81.6ZM53.1,167.41H95a7.21,7.21,0,0,0,7.21-7.21v-20a7.23,7.23,0,0,0-1-3.71l-2.81-4.67h62.06l-4.08,43.24H36.55l-4.08-43.24H49.73l-2.81,4.67a7.23,7.23,0,0,0-1,3.71v20A7.21,7.21,0,0,0,53.1,167.41Zm96.52,64.35a6.89,6.89,0,0,1-6.54,6H49.8a6.89,6.89,0,0,1-6.54-6,1.1,1.1,0,0,0,0-.18l-5.07-42.1H154.71l-5.07,42.1C149.63,231.64,149.63,231.7,149.62,231.76Zm12.16-114.35H31.1L27.79,82.34H66.85a7.2,7.2,0,0,0,14.37,0h83.86Z"/><path d="M78,97.54a7.14,7.14,0,0,0-1.25-.67,6.92,6.92,0,0,0-1.34-.41,7.43,7.43,0,0,0-2.82,0,7.24,7.24,0,0,0-1.35.41,7.42,7.42,0,0,0-1.24.67,6.72,6.72,0,0,0-1.09.89,6.91,6.91,0,0,0-.91,1.1,7.73,7.73,0,0,0-.66,1.24,7.24,7.24,0,0,0-.41,1.35,7.12,7.12,0,0,0,0,2.81,7,7,0,0,0,.41,1.35,7.83,7.83,0,0,0,.66,1.25,7.31,7.31,0,0,0,.91,1.09,6.78,6.78,0,0,0,1.09.9,8.18,8.18,0,0,0,1.24.66,7,7,0,0,0,1.35.41,7.49,7.49,0,0,0,1.41.14,7.41,7.41,0,0,0,1.41-.14,6.92,6.92,0,0,0,1.34-.41,7.83,7.83,0,0,0,1.25-.66,7.32,7.32,0,0,0,1.1-.9,7.18,7.18,0,0,0,.89-1.09,7.1,7.1,0,0,0,.66-1.25,7,7,0,0,0,.41-1.35,6.66,6.66,0,0,0,.15-1.4,7.11,7.11,0,0,0-3.21-6Z"/></g></svg>