<svg xmlns="http://www.w3.org/2000/svg" viewBox="0 0 216.43 284.95"><defs><style>.cls-1{fill:#c75147;}.cls-2{fill:#a83a34;}.cls-3{fill:#e070ba;}.cls-4{fill:#d75c97;}.cls-5{fill:#f2d0ec;}.cls-6{fill:#ecb7ec;}.cls-7{fill:#7e6956;}.cls-8{fill:#685347;}.cls-9{fill:#f6df77;}</style></defs><title>NewМонтажная область 70</title><g id="Слои"><path class="cls-1" d="M120.46,25.29A15.95,15.95,0,1,1,104.52,9.35,15.94,15.94,0,0,1,120.46,25.29Z"/><path class="cls-2" d="M104.52,9.35a15.87,15.87,0,0,0-6.89,1.56,15.95,15.95,0,0,1,0,28.76,15.94,15.94,0,1,0,6.89-30.32Z"/><path class="cls-3" d="M29,147.31c.15-5.5,5.54-13.28,10.66-19.87C50,114.12,70,114.27,81.22,113.86c20.48-.76,49.69-4.83,88.09-19.57,2.65,1,15.22,6.37,20.37,19.77.56,1.46,5.21,14,.09,23-8.34,14.7-37,9.92-89.37,9C72.74,145.64,45.41,146.44,29,147.31Z"/><path class="cls-4" d="M29.11,146.31a8.84,8.84,0,0,0-.09,1c10.19-.54,24.59-1.05,40.67-1.25C55.47,145.87,41.45,146,29.11,146.31Z"/><path class="cls-4" d="M189.68,114.06c-5.15-13.4-17.72-18.72-20.37-19.78q-8.73,3.36-16.83,6a32.92,32.92,0,0,1,10.19,13.78c.56,1.46,5.21,14,.1,23-3.8,6.68-11.79,9.34-24.3,10.16,28.59.91,45.27.47,51.3-10.16C194.89,128.09,190.24,115.52,189.68,114.06Z"/><path class="cls-3" d="M44.28,100.49A29.24,29.24,0,0,1,37.76,84c-.53-11.13,6.37-19.27,8.71-22C65,40.05,94.87,53.34,113.28,34.07c4.35-4.56,9.28-12.2,10.9-25.63a4.9,4.9,0,0,1,6.9-3.83c6.11,2.72,14.78,8.18,19.25,18.37,4.57,10.41,2.27,20.09.7,26.66-1,4.08-5,18.94-18.65,29.51-2.95,2.28-5.42,3.65-19.1,9.14-39,15.66-50,17.1-60.82,14.68A56.35,56.35,0,0,1,44.28,100.49Z"/><path class="cls-4" d="M150.33,23c-4.47-10.19-13.14-15.65-19.25-18.37a4.9,4.9,0,0,0-6.9,3.83,52.74,52.74,0,0,1-4,15.14c4.22,10.19,2,19.62.45,26.06-1,4.08-5,18.94-18.66,29.51-2.94,2.28-5.41,3.65-19.09,9.14C66.49,94.89,55,99,46.46,101.28a57.81,57.81,0,0,0,6,1.69c10.84,2.42,21.83,1,60.82-14.68,13.68-5.49,16.15-6.86,19.1-9.14C146,68.58,150.06,53.72,151,49.64,152.6,43.07,154.9,33.39,150.33,23Z"/><path class="cls-5" d="M30,144.62c-2.72-3-9.45-11.12-8.29-21.05.29-2.54,1.46-8.22,8.08-14.74,19.73-19.42,53.73-12.62,85.56-28.45C124.69,75.74,138,67.08,151,49.64a38,38,0,0,1,9.1,5.09A33.09,33.09,0,0,1,171.4,69.42c.42,1.09,4.78,13,.1,23-9.63,20.68-53.1,24.17-89.5,27.1-14.43,1.16-34.68,2-46.71,16.48A37,37,0,0,0,30,144.62Z"/><path class="cls-6" d="M171.4,69.42a33.09,33.09,0,0,0-11.27-14.69,38.18,38.18,0,0,0-9.1-5.09,118.44,118.44,0,0,1-10.42,12.19,31.4,31.4,0,0,1,4.16,7.59c.42,1.09,4.79,13,.1,23-9.63,20.68-53.1,24.18-89.5,27.1-10,.81-22.86,1.45-33.8,6.63.14,8.73,5.94,15.73,8.42,18.44a37,37,0,0,1,5.3-8.59c12-14.52,32.28-15.32,46.71-16.48,36.39-2.92,79.87-6.42,89.5-27.1C176.18,82.4,171.82,70.51,171.4,69.42Z"/><path class="cls-7" d="M204.8,182H11.63V156.45a13,13,0,0,1,13-13H191.83a13,13,0,0,1,13,13Z"/><path class="cls-8" d="M191.83,143.48H160.75a13,13,0,0,1,13,13V182H204.8V156.45A13,13,0,0,0,191.83,143.48Z"/><path class="cls-9" d="M212.23,160.07,195.91,264.35a19.42,19.42,0,0,1-19.19,16.43h-137a19.43,19.43,0,0,1-19.2-16.43L4.2,160.07a2.58,2.58,0,0,1,3.27-2.86c6.87,2,8.2,9.38,17.2,9.38,10.44,0,10.44-9.89,20.88-9.89s10.44,9.89,20.88,9.89,10.45-9.89,20.89-9.89,10.44,9.89,20.88,9.89,10.44-9.89,20.88-9.89,10.45,9.89,20.89,9.89,10.44-9.89,20.89-9.89,10.44,9.89,20.89,9.89c9,0,10.33-7.34,17.21-9.38A2.57,2.57,0,0,1,212.23,160.07Z"/><path d="M214.13,154.6a6.72,6.72,0,0,0-5.5-1.59,17.18,17.18,0,0,0-15.35-13.64,1.48,1.48,0,0,1,.13-.21c5.91-10.42,1.17-24,.17-26.6-4-10.47-12.09-16.59-17.7-19.74,4.28-10.86.31-22.56-.57-24.89a37,37,0,0,0-12.68-16.54,43.08,43.08,0,0,0-6.75-4.17c1.47-6.83,2.64-16-1.72-25.92C149.21,10,139.8,3.93,132.78.79a9.17,9.17,0,0,0-8.24.4A8.89,8.89,0,0,0,120,7.94c-.16,1.33-.36,2.62-.6,3.88A20.1,20.1,0,1,0,91.68,40.76c-3.54.8-7.24,1.36-11.05,1.93-13.13,2-26.71,4-37.35,16.54-2.55,3-10.3,12.15-9.69,24.92a31.77,31.77,0,0,0,4,13.86,45.81,45.81,0,0,0-10.76,7.84c-5.4,5.31-8.62,11.27-9.31,17.23a27.33,27.33,0,0,0,3.67,16.56A17.19,17.19,0,0,0,7.8,153a6.76,6.76,0,0,0-7.72,7.71L16.41,265a23.47,23.47,0,0,0,23.32,20h137A23.49,23.49,0,0,0,200,265l16.31-104.27A6.71,6.71,0,0,0,214.13,154.6ZM104.51,13.52A11.78,11.78,0,0,1,116,22.74a31.69,31.69,0,0,1-5.74,8.44,29.09,29.09,0,0,1-7.59,5.72,11.76,11.76,0,0,1,1.84-23.38ZM25.85,124.05c.47-4.06,2.84-8.29,6.86-12.24a40.32,40.32,0,0,1,12.62-8.25A86.06,86.06,0,0,1,61.5,98.78a4.18,4.18,0,1,0-1.72-8.18,104.31,104.31,0,0,0-14.49,4,23.84,23.84,0,0,1-3.36-10.85c-.45-9.48,5.49-16.48,7.72-19.12C58.26,54.49,69.73,52.77,81.86,51c7.81-1.17,15.88-2.38,23.28-5.94l.14-.06,0,0,.08,0A38.16,38.16,0,0,0,116.31,37a40.57,40.57,0,0,0,7.84-12,1.17,1.17,0,0,0,0-.11l0-.05a57.54,57.54,0,0,0,4.11-15.88.62.62,0,0,1,.33-.49.75.75,0,0,1,.72,0c5.67,2.53,13.25,7.41,17.13,16.24s2.13,17,.66,23.15c-9.75,12.86-21.08,22.57-33.69,28.83-11.24,5.6-22.78,8.23-33.57,10.25a4.18,4.18,0,0,0,1.54,8.21C92.83,93,105,90.17,117.2,84.12c13.13-6.52,24.94-16.38,35.14-29.33a34.37,34.37,0,0,1,5.27,3.27,28.87,28.87,0,0,1,9.89,12.83c.43,1.15,4.11,11.43.21,19.8a15.6,15.6,0,0,1-1,1.79c-10.54,16.92-51.86,20.24-85.07,22.91l-2.38.18c-14.65,1.14-34.71,2.7-47.23,17.8l-.28.35c-.85,1.06-1.65,2.17-2.39,3.31C27.09,133.44,25.28,128.93,25.85,124.05Zm-1.24,23.6H144.05a4.18,4.18,0,0,0,0-8.35H38l.27-.36.06-.08.14-.17C48.75,126.32,66,125,79.94,123.9l2.4-.19c35-2.81,74.35-6,89.24-23.73,4.48,2.47,11,7.31,14.2,15.58,1.72,4.45,3.73,13.55.36,19.48a11.44,11.44,0,0,1-4.33,4.26h-19a4.18,4.18,0,1,0,0,8.35h29.06a8.81,8.81,0,0,1,8.8,8.8v1l-1.24,1.15c-2.45,2.3-4.07,3.82-7.64,3.82s-5.16-1.51-7.57-3.81c-2.87-2.71-6.43-6.1-13.32-6.1s-10.45,3.39-13.32,6.1c-2.41,2.3-4,3.81-7.57,3.81s-5.15-1.51-7.57-3.81c-2.86-2.71-6.43-6.1-13.31-6.1s-10.46,3.39-13.32,6.1c-2.42,2.3-4,3.81-7.57,3.81s-5.15-1.51-7.57-3.8c-2.86-2.72-6.43-6.1-13.31-6.1S76.86,155.9,74,158.62c-2.42,2.29-4,3.8-7.57,3.8s-5.15-1.51-7.56-3.8c-2.87-2.72-6.43-6.1-13.32-6.1s-10.45,3.38-13.32,6.1c-2.41,2.29-4,3.8-7.56,3.8S19.48,160.9,17,158.6l-1.23-1.14v-1A8.82,8.82,0,0,1,24.61,147.65Zm167.18,116h0a15.18,15.18,0,0,1-15.07,12.89h-6.26l8.82-94.17a4.18,4.18,0,0,0-8.32-.78l-8.89,95H141.42l4.33-94.37a4.18,4.18,0,1,0-8.35-.39l-4.34,94.76H112.4l0-94.57a4.18,4.18,0,0,0-8.35,0l0,94.56H83.39l-4.34-94.76a4.18,4.18,0,0,0-8.35.39L75,276.6H54.38l-9.09-97.06a4.18,4.18,0,1,0-8.32.78l9,96.28H39.73a15.18,15.18,0,0,1-15.07-12.9L8.82,162.51a25.85,25.85,0,0,1,2.49,2.18c2.89,2.71,6.48,6.08,13.36,6.08s10.45-3.38,13.31-6.1c2.42-2.29,4-3.8,7.57-3.8s5.15,1.51,7.57,3.8c2.86,2.72,6.43,6.1,13.31,6.1s10.45-3.38,13.32-6.1c2.41-2.29,4-3.8,7.57-3.8s5.15,1.51,7.56,3.8c2.87,2.72,6.43,6.1,13.32,6.1s10.45-3.38,13.32-6.1c2.41-2.29,4-3.8,7.57-3.8s5.15,1.51,7.57,3.8c2.86,2.72,6.43,6.1,13.31,6.1s10.46-3.38,13.32-6.1c2.42-2.29,4-3.8,7.57-3.8s5.15,1.51,7.57,3.8c2.87,2.72,6.43,6.1,13.32,6.1s10.47-3.37,13.36-6.08a27.6,27.6,0,0,1,2.51-2.19Z"/></g></svg>