<svg xmlns="http://www.w3.org/2000/svg" viewBox="0 0 304 192.53"><title>NewМонтажная область 83</title><g id="Слои"><g id="Outline"><path d="M298.93,20.27h-15.7A25.4,25.4,0,0,0,258.4,0h-22a25.14,25.14,0,0,0-17.91,7.42l-28,28.05H101.33A35.35,35.35,0,0,0,76.2,45.93,25.18,25.18,0,0,0,61,54.44L38.2,81.07H5.07A5.07,5.07,0,0,0,0,86.13a25.34,25.34,0,0,0,25.32,25.34h16a25.32,25.32,0,0,0,19.24-8.85l5.29-6.16v30.21H35.47a5.07,5.07,0,0,0-5.07,5.06v55.74a5.07,5.07,0,0,0,5.07,5.06A25.36,25.36,0,0,0,60.8,167.2V157.07H76a45.35,45.35,0,0,0,24.13-6.93l22.11,39.79a5.06,5.06,0,0,0,4.43,2.6h.12l26-.63a5.06,5.06,0,0,0,4.94-5.19,5.13,5.13,0,0,0-.66-2.39l-20-35-2.07-6.17a37.52,37.52,0,0,0,16.72-26.58H182.4v30.4a5.12,5.12,0,0,0,.77,2.69l25.33,40.53a5.08,5.08,0,0,0,4.3,2.38h25.33a5.06,5.06,0,0,0,4.43-7.52l-24.69-44.46v-18l21.56,8.09,10.2,23a26.76,26.76,0,0,0,24.44,15.87A26.32,26.32,0,0,0,286,166.66a5.05,5.05,0,0,0,2.44-6.41l-20.27-50.66a5.06,5.06,0,0,0-2.71-2.78L235.92,94.15l25-33.35h22.8A20.29,20.29,0,0,0,304,40.53V25.33A5.07,5.07,0,0,0,298.93,20.27ZM52.89,96a15.17,15.17,0,0,1-11.55,5.3h-16A15.23,15.23,0,0,1,11,91.2H40.53a5.08,5.08,0,0,0,3.85-1.77l22.3-26a35.27,35.27,0,0,0-.81,7.52v9.95Zm73.65,40.23a5.07,5.07,0,0,0-2.53,6.15L127.57,153a4.84,4.84,0,0,0,.4.9L144,182l-14.41.35-21.44-38.59a45.41,45.41,0,0,0,13.15-27.21h20.09A27.56,27.56,0,0,1,126.54,136.26Zm133-21,17.52,43.79a16.63,16.63,0,0,1-18.17-9.58l-11.06-24.9a5.09,5.09,0,0,0-2.85-2.69l-23.33-8.74,8-10.69Zm34.33-74.77a10.15,10.15,0,0,1-10.14,10.14H258.4a5.07,5.07,0,0,0-4,2l-45.6,60.8a5.08,5.08,0,0,0-1,3v25.34a5.07,5.07,0,0,0,.64,2.46l21.15,38.07H215.61l-23.08-36.92V91.2H182.4v15.2H121.6V91.2H111.47v20.27A35.51,35.51,0,0,1,76,146.93H55.73A5.07,5.07,0,0,0,50.67,152v15.2a15.23,15.23,0,0,1-10.14,14.33V136.8h30.4A5.07,5.07,0,0,0,76,131.73V70.93A25.37,25.37,0,0,1,101.33,45.6h91.2a5.07,5.07,0,0,0,3.59-1.48l29.53-29.53a15.09,15.09,0,0,1,10.74-4.46h22a15.22,15.22,0,0,1,15.2,15.2,5.07,5.07,0,0,0,5.07,5.07h15.2Z"/><path d="M243.2,35.47a5.07,5.07,0,0,1-10.13,0V20.27H222.93v15.2a15.2,15.2,0,0,0,30.4,0V20.27H243.2Z"/></g></g></svg>