<svg xmlns="http://www.w3.org/2000/svg" viewBox="0 0 270.04 270.04"><defs><style>.cls-1{fill:#96d0f7;}.cls-2{fill:#b4da70;}</style></defs><title>NewМонтажная область 74</title><g id="Слои"><path class="cls-1" d="M199.9,247.38A129.71,129.71,0,1,1,247.38,70.19,129.7,129.7,0,0,1,199.9,247.38Z"/><path class="cls-2" d="M144.2,96.23a10.85,10.85,0,0,0-3.52,1.31c-1,.78.55,1.8,0,2.24-1,.77-1.66,2.17-3.72,2-4.31-.28-10.92-5.85-14.86-7.95,6.34-6.53-3.69-7.5-7.6-7.18-5.06.43-13.83,0-18.4,2.54-3.18,1.79-7.44,9.21-10,12.16-3.56,4.1-7.14,7.66-9.46,12.57-8.51,18,4.59,38.69,25.17,36.27,5.72-.67,11.71-4.26,16.78.48,3.73,3.5,1.76,6.78,2.74,10.86.86,3.53,4.77,5.69,6.12,8.93,2.59,6.21.95,10.09-.9,15.82-2.43,7.51,3.85,16.43,6.29,23.68,1.23,3.65,4.82,13.88,8.33,15.48,5.54,2.51,14.21-5,17.52-9.09,2.58-3.17,1.74-6.39,3.47-9.36,1.88-3.22,4.26-4.18,5.57-8.33,1.42-4.47,2.89-5.58,5.89-8.84,4.82-5.24,4.07-8.31,2.15-14.53-4-12.93,10.54-19,17.09-28.46,6.85-9.91-6.38-6.6-11.57-10s-7.66-10.11-10.23-15.6-4.69-13.74-9-18.25C158.83,99.56,148.86,98,144.2,96.23Z"/><path class="cls-2" d="M211.16,182.94q-3.1,10.44-6.2,20.9c-1.45,4.88-6.56,20.82-13.73,10.61-2.73-3.88-.51-9,1-12.54,1.92-4.5-.67-6.77.66-11,1.54-4.89,7.85-5.06,10.83-8.5,2.09-2.39,3.37-6.2,4.89-9Q209.9,178.16,211.16,182.94Z"/><path class="cls-2" d="M247.38,70.19a129.57,129.57,0,0,0-103-64.54l-17,21.28L91,39.68,81.25,63.32l15,21.08,1.6-4.46a18.72,18.72,0,0,1,17.62-12.4h24.8l28.5,10,9.82,9.37v5.95L192.29,119l4-1.46a63.36,63.36,0,0,0,22.85-14.62l-3.3-5a2.36,2.36,0,0,1,2-3.67h7.95a8,8,0,0,1,6.06,2.79l6.49,7.61a7.73,7.73,0,0,1,1.43,2.45l7.17,19.71,3.41-3.41a11.62,11.62,0,0,0,3.3-8.13,8.77,8.77,0,0,1,2.93-6.4l2.61-2.33a9,9,0,0,1,2.17-1.42A129.64,129.64,0,0,0,247.38,70.19Z"/><path class="cls-2" d="M53.33,75.26l6.2-6.65a17,17,0,0,0,3.28-18h0A18.94,18.94,0,0,0,47.8,39,129.69,129.69,0,0,0,6.55,117.34c4.84,4.24,9.91,8.77,9.88,9.17-.06.76,18.15-2.29,18.15-2.29l-9.37-13.75,13.46-9.62Z"/><path class="cls-2" d="M65.94,204.5a11.13,11.13,0,0,0,7.15-14l-1.67-5.15a11.1,11.1,0,0,1,0-6.91h0A11.12,11.12,0,0,0,63,164l-13.11-2.57-24-18.2L6.14,149.69A130.08,130.08,0,0,0,54.8,237l5.9-30.79Z"/><path d="M197.26,242.82l-.21.12a5.27,5.27,0,1,0,5.3,9.12l.2-.12a5.27,5.27,0,1,0-5.29-9.12Z"/><path d="M252,67.55A135,135,0,0,0,4.66,100.11a135,135,0,0,0,178.67,161,5.27,5.27,0,1,0-3.78-9.84,123.66,123.66,0,0,1-119-16.35l4.72-24.67,2.28-.74a16.42,16.42,0,0,0,10.54-20.67l-1.67-5.15a5.78,5.78,0,0,1,0-3.63A16.41,16.41,0,0,0,64,158.85l-11.91-2.33-23-17.46a5.32,5.32,0,0,0-4.83-.82l-13.44,4.37a123.54,123.54,0,0,1,0-14.4c.53.5.87.83,1.09,1a5.27,5.27,0,0,0,1,1.19,5.33,5.33,0,0,0,4.18,1.45,76.68,76.68,0,0,0,9.45-1.07c4.45-.66,8.88-1.4,8.92-1.41a5.27,5.27,0,0,0,3.49-8.17l-6.47-9.48,9.26-6.63a5.25,5.25,0,0,0,1.51-1.67L57.6,78.41l5.79-6.2a22.3,22.3,0,0,0,4.3-23.63,24.29,24.29,0,0,0-9.61-11.32A124.43,124.43,0,0,1,133.6,10.64l-9.41,11.82L89.26,34.7a5.27,5.27,0,0,0-3.13,3L76.38,61.31A5.3,5.3,0,0,0,77,66.39l14.25,20a49.81,49.81,0,0,0-6.4,7.94c-1,1.47-2,2.87-2.7,3.65s-1.18,1.35-1.77,2c-3.06,3.45-6.23,7-8.48,11.78a31.41,31.41,0,0,0,2.61,31.77,29.6,29.6,0,0,0,28,12,40.09,40.09,0,0,0,5.15-1c4.52-1.12,6-1.23,7.4.13.71.66.77.79.76,3a20.52,20.52,0,0,0,.47,5.22c.79,3.24,2.82,5.48,4.46,7.28a12.11,12.11,0,0,1,1.91,2.44c1.64,3.95.93,6.13-.64,10.91-.14.41-.27.83-.41,1.26-2.38,7.38.94,14.7,3.87,21.16,1,2.1,1.85,4.08,2.44,5.83,4.74,14.07,8.3,17.29,11.15,18.59a11,11,0,0,0,4.61,1c7.6,0,15.53-7.06,19.18-11.54A16.16,16.16,0,0,0,166,212a8.37,8.37,0,0,1,.68-2.35,13.17,13.17,0,0,1,1.73-2.23,18.31,18.31,0,0,0,4.31-7.16c.86-2.73,1.49-3.4,3.58-5.62l1.16-1.25c7-7.64,5.22-13.48,3.3-19.66-1.61-5.21,1.21-8.53,8-14.88a57.43,57.43,0,0,0,8.37-9c1-1.5,4.18-6.05,2.24-10.57s-6.76-5.16-10.66-5.76c-1.54-.24-3.86-.59-4.6-1.08-3.26-2.13-5.26-6.58-7.19-10.89-.39-.86-.76-1.7-1.15-2.52-.68-1.47-1.37-3.24-2.09-5.12-1.92-5-4.1-10.59-7.8-14.52-3.33-3.52-9.6-5.22-15.13-6.72-1.87-.51-3.62-1-4.78-1.41a5.31,5.31,0,0,0-3-.19,13.7,13.7,0,0,0-5.62,2.33A6.55,6.55,0,0,0,135.5,96a60.45,60.45,0,0,1-6.22-3.79l-.1-.07a7.47,7.47,0,0,0-.47-5.07c-3-6.23-12.73-5.75-14.66-5.58-1.1.09-2.48.14-4,.19-2.3.08-4.85.17-7.37.46l.13-.37a13.49,13.49,0,0,1,12.66-8.91h3a5.27,5.27,0,1,0,0-10.54h-3A24.07,24.07,0,0,0,95.11,73.65l-7.87-11L95,43.87l34.13-12a5.3,5.3,0,0,0,2.38-1.69l15.17-19A124,124,0,0,1,255.24,103L253,105a14.1,14.1,0,0,0-4.7,10.24v.13l-3.64-10a13,13,0,0,0-2.38-4.07l-6.49-7.61A13.22,13.22,0,0,0,225.73,89h-7.95a7.64,7.64,0,0,0-6.36,11.88l.81,1.21a58.53,58.53,0,0,1-17.41,10.34L183.91,91.59V86.93a5.3,5.3,0,0,0-1.63-3.82l-9.81-9.37a5.47,5.47,0,0,0-1.9-1.16l-8.84-3.1a5.27,5.27,0,1,0-3.49,10L166,82.16l7.37,7v3.69a5.18,5.18,0,0,0,.6,2.44l13.64,26.15a5.27,5.27,0,0,0,6.5,2.5l4-1.46a69.1,69.1,0,0,0,24.75-15.84,5.28,5.28,0,0,0,.65-6.66l-.28-.42h2.52a2.69,2.69,0,0,1,2.05,1l6.49,7.6a2.68,2.68,0,0,1,.49.83l7.17,19.72a5.26,5.26,0,0,0,3.81,3.34,4.92,4.92,0,0,0,1.14.13,5.27,5.27,0,0,0,3.73-1.55L254,127.2a16.39,16.39,0,0,0,4.36-7.93c5.28,42.3-11.3,86.06-46.36,113.58a5.27,5.27,0,1,0,6.51,8.3A135,135,0,0,0,252,67.55Zm-227,81.58,21.75,16.53a5.14,5.14,0,0,0,2.18,1L62,169.2a5.86,5.86,0,0,1,4.45,7.58,16.33,16.33,0,0,0,0,10.18l1.68,5.15a5.88,5.88,0,0,1-3.77,7.38l-5.24,1.7a5.28,5.28,0,0,0-3.55,4l-4.22,22a125.94,125.94,0,0,1-24-30A123.68,123.68,0,0,1,12,153.35ZM11.17,126.84a5.46,5.46,0,0,0,.08.68A4.87,4.87,0,0,1,11.17,126.84ZM57.93,52.6A11.68,11.68,0,0,1,55.67,65l-6.2,6.65a4.88,4.88,0,0,0-.72,1L34.66,97.23l-12.52,9a5.28,5.28,0,0,0-1.29,7.27l4.68,6.87c-2.7.4-5.12.73-6.73.9l-1-.91c-1.25-1.16-3-2.72-5.59-5A124.67,124.67,0,0,1,49.39,44.77,13.7,13.7,0,0,1,57.93,52.6Zm52.54,39.57c1.6,0,3.11-.11,4.46-.22a14.1,14.1,0,0,1,2.25,0,5.27,5.27,0,0,0,2.42,6.56c1,.53,2.37,1.45,3.83,2.42,4.12,2.75,8.79,5.86,13.18,6.14a8.78,8.78,0,0,0,7.17-3,2.39,2.39,0,0,1,.22-.23,5.57,5.57,0,0,0,1.41-1.73l2.64.73c3.12.85,8.93,2.42,10.22,3.78,2.28,2.42,4.06,7,5.63,11.08.79,2.06,1.54,4,2.38,5.79.36.77.71,1.56,1.07,2.37,2.44,5.42,5.2,11.58,11.05,15.4,2.65,1.74,5.9,2.24,8.77,2.68l1.15.18a51.49,51.49,0,0,1-6.69,7c-6.53,6.08-14.65,13.65-10.91,25.72,1.77,5.7,1.85,6.31-1,9.4-.39.43-.75.81-1.09,1.17a21.65,21.65,0,0,0-5.94,9.65,8.36,8.36,0,0,1-2.15,3.35,23.63,23.63,0,0,0-3,3.91,17,17,0,0,0-1.91,5.6,6.43,6.43,0,0,1-1.1,3.09,31,31,0,0,1-6.66,5.89c-2.48,1.57-3.93,1.79-4.42,1.76-.56-.61-2.6-3.25-5.68-12.39-.76-2.25-1.81-4.58-2.83-6.82-2.25-4.95-4.57-10.06-3.44-13.56l.39-1.21c1.81-5.5,3.51-10.69.35-18.26a19.08,19.08,0,0,0-3.84-5.47,9.86,9.86,0,0,1-2-2.67,11.06,11.06,0,0,1-.17-2.67c0-2.76,0-6.92-4.1-10.8-5.83-5.46-12.64-3.78-17.14-2.67a32.57,32.57,0,0,1-3.85.81c-7.41.86-14-1.93-18.16-7.68a20.88,20.88,0,0,1-1.63-21.11c1.6-3.39,4-6.12,6.83-9.27.61-.69,1.23-1.38,1.84-2.1,1-1.18,2.16-2.79,3.36-4.49,1.43-2,4.09-5.8,5.25-6.52C101,92.51,106.49,92.31,110.47,92.17Z"/><path d="M197.28,223c5.38-.88,9.43-6.48,12.73-17.62l6.21-20.91a5.3,5.3,0,0,0,0-2.85L213.72,172a5.27,5.27,0,0,0-9.73-1.16c-.58,1.06-1.1,2.19-1.6,3.28a22.52,22.52,0,0,1-2.64,4.78,11.45,11.45,0,0,1-3.09,1.84c-3,1.46-7.2,3.47-8.79,8.54a15.52,15.52,0,0,0-.35,7.44c.24,1.57.29,2.12-.13,3.1l0,.13c-1.68,3.94-4.81,11.27-.43,17.51,3.13,4.45,6.41,5.59,9,5.59A8.74,8.74,0,0,0,197.28,223Zm-1.74-11.55c-1-1.43.5-5,1.5-7.31l.05-.12a14.86,14.86,0,0,0,.87-8.79,5.45,5.45,0,0,1,0-2.74c.2-.65,1.44-1.29,3.3-2.19.83-.4,1.73-.84,2.65-1.37l-4,13.45c-1.68,5.68-3.17,8.33-4,9.51C195.77,211.72,195.66,211.58,195.54,211.41Z"/><path d="M142.07,62.57a5.27,5.27,0,1,0-3.5,9.95l.36.12a5.11,5.11,0,0,0,1.75.3,5.27,5.27,0,0,0,1.74-10.25Z"/></g></svg>