<svg xmlns="http://www.w3.org/2000/svg" xmlns:xlink="http://www.w3.org/1999/xlink" viewBox="0 0 135.74 127.3"><defs><style>.cls-1{fill:none;}.cls-1,.cls-3{stroke:#d69055;stroke-miterlimit:10;stroke-width:2px;}.cls-2{fill:#e2bc60;}.cls-3{fill:#dcc992;}.cls-4{fill:#fbb03b;}.cls-5{clip-path:url(#clip-path);}.cls-6{fill:#fff;}.cls-7{fill:#f5f3e6;}.cls-8{clip-path:url(#clip-path-2);}.cls-9{clip-path:url(#clip-path-3);}</style><clipPath id="clip-path" transform="translate(0 9.09)"><path class="cls-1" d="M110,45.56l-.59-43.22a0,0,0,0,0,0,0L52.54,53.46A4.62,4.62,0,0,0,51,56.89V99.78a.3.3,0,0,0,.51.21l57.26-51.55A4.08,4.08,0,0,0,110,45.56Z"/></clipPath><clipPath id="clip-path-2" transform="translate(0 9.09)"><path class="cls-1" d="M51,56.73V99.24a1,1,0,0,1-1.23.93c-6.5-1.82-38.09-5.11-47.26-29.29A25.15,25.15,0,0,1,1,62.73l.18-44.09c.67,7.14,6.12,28.9,48,35.9A2.23,2.23,0,0,1,51,56.73Z"/></clipPath><clipPath id="clip-path-3" transform="translate(0 9.09)"><path class="cls-1" d="M108.15,1,3.75,16.11a3,3,0,0,0-2.58,3.4c1,7.83,7.56,28.7,49.33,35.25a1.13,1.13,0,0,0,.9-.26L109,2.88A1.08,1.08,0,0,0,108.15,1Z"/></clipPath></defs><title>Ресурс 9</title><g id="Слой_2" data-name="Слой 2"><g id="Слои"><path class="cls-2" d="M110,45.56l-.59-43.22a0,0,0,0,0,0,0L52.54,53.46A4.62,4.62,0,0,0,51,56.89V99.78a.3.3,0,0,0,.51.21l57.26-51.55A4.08,4.08,0,0,0,110,45.56Z" transform="translate(0 9.09)"/><path class="cls-3" d="M108.15,1,3.75,16.11a3,3,0,0,0-2.58,3.4c1,7.83,7.56,28.7,49.33,35.25a1.13,1.13,0,0,0,.9-.26L109,2.88A1.08,1.08,0,0,0,108.15,1Z" transform="translate(0 9.09)"/><path class="cls-4" d="M51,56.73V99.24a1,1,0,0,1-1.23.93C43.29,98.35,11.7,94.9,2.53,70.71A25.15,25.15,0,0,1,1,62.56l.18-43.92c.67,7.14,6.12,28.9,48,35.9A2.23,2.23,0,0,1,51,56.73Z" transform="translate(0 9.09)"/><g class="cls-5"><path class="cls-6" d="M99.26,19.85c-.29.59.38-.15.13.12l-.66,1.27C99.23,20.16,97.78,21,99.26,19.85Z" transform="translate(0 9.09)"/><path class="cls-6" d="M99.07,22.57v.34c-.3.24-.95.67-.73.18A2,2,0,0,0,99.07,22.57Z" transform="translate(0 9.09)"/><path class="cls-7" d="M103.58,24.64l-.44.3c.18-.19,0-.49.34-.74Z" transform="translate(0 9.09)"/><path class="cls-7" d="M81.79,44.53a.69.69,0,0,0-.31.06c-.17-.28-.15-.51.12-1,.43-.23,1.14-1.08,1.23-.7l-.08.09a1.17,1.17,0,0,0,1.33-.33c0-.25-.66-.18-.45-.82a4,4,0,0,1,1.83-1.25v-.81a4.59,4.59,0,0,1,1.41-.55l-.11.43c.35,0,.51.48,1.18-.16a5.77,5.77,0,0,1,.8-1.42c1.06-.31,2-1.82,2.93-2.52.18-1.44,2.8-2.12,2.62-3.53,1.5-1.16,1.12-1.83,1.44-2.9,1.46-.6-.77,1.9.19,1.76,1.64-1.37,3-3.27,4.55-4.81.08-.67-.88-.28-.18-1.18-.08.44.53.44.81.15-.34.28-.13-.14-.19-.26l-.28.17c-.88-.5,1.11-1,1.26-1.93.47,0-.28.29-.08.56s1,.38,1.77-.28c1-1.89,2.67-2.33,4-4.22-.35-.15.19-.55.38-.87,0,.57.83.1,1.16-.21.19-.56-.3-1,.28-1.68l-.88,0a8.2,8.2,0,0,0-1,1.82c-.8-.21-1.59,2.41-2.21,1.52l.34-.18c1.15-.74.77-1.94,1.27-3.12a8,8,0,0,1,2.21-.78,1.63,1.63,0,0,0,.68-1.31c.3-.65.78-.72,1.17-.93.12-.22-.21,0-.09-.24a3,3,0,0,0,.7-.64c-.46-.49-1.24.62-1.89,1.13,0-.22,0-.34.16-.55s.2-.1.27-.1l.23-.44c-.15-.12-.5-.26-.14-.8l.54-.08c.87-1,.48-2-.55-.7l.24.35L109,12.2c-.47,0,.2-.78-.1-1-.25-.46-1.22.47-1.68.86-.15.65.54-.06.86-.36l0,1.11c-.12.21-.45.41-.59.28-.34.08-.58-.5-.82-.08-.94,1,.51.5-.17,1.44.75.19,2.08-1.26,2.74-1.54l.31-.42c.41,0-.41.76.22.24-.45,1.31-2.28,2.29-3.29,2.72-.35-.27-1.34.28-1.25-.71-.33.29-.73.24-1,.75-.45,1.74-1.63,1.66-2.4,2.89.2-.08.14.25.21.37-1.54,1.32-1-1.73-2.56.58-.26.4-.26.74,0,.79.33-.17.8-.2,1.07-.72.14.14.74-.54.68.12-1,.85-.81,1.78-1.62,2.42v.45c-.27.29-.7,1.23-1.24,1.47-1.23,1-.39-.53-.59-.79l-1,.81c-.52,1.59-2.45,1.08-2.71,2.61L94,26.23c.3-.72-.72-.38-1.08,0l-.15.42c.16,1.06-1.57,2-2.31,3.11-.21.18-.41.13-.26-.06l-1.26.73c.29.87-.72.73-1.24,1.4a6,6,0,0,1-.45,1.72c-1.83.91-2.08,2.34-3.83,3,.21.63-.48,1.48.61,1.43-1.58,1-3.25,1.56-4.69,2.6l-.09.46C79.72,42.25,80,45.38,81.79,44.53Z" transform="translate(0 9.09)"/><path class="cls-7" d="M112,13.86l-.5.67h.21C112.07,14.45,111.71,14.2,112,13.86Z" transform="translate(0 9.09)"/><path class="cls-6" d="M65,48.38c-.43.72-.77,1.7-.18,1.56.81-.66,1.07-1.55,2-2C66.54,47.56,65.44,48.3,65,48.38Z" transform="translate(0 9.09)"/><path class="cls-7" d="M97.32,21.49l-.75.87.47.09C97.85,21.93,96.91,22,97.32,21.49Z" transform="translate(0 9.09)"/><path class="cls-6" d="M65.53,54.78c.17.17.16.52.43.08L66.2,54C66.2,54.21,65.09,54.7,65.53,54.78Z" transform="translate(0 9.09)"/><path class="cls-6" d="M64.39,57.33l.61.41c.17-.35.12-.74.46-.92C65,57.09,64.77,56.84,64.39,57.33Z" transform="translate(0 9.09)"/><path class="cls-6" d="M68.26,53.67c-1.5.41-.45,1.68-1.92,1.76-1,1.26-.18,1.38.5,1.55.43-.43-.61-.6-.07-1.47.52-.34,1.15-.77,1.52-.54C69.5,53.92,67.8,54.44,68.26,53.67Z" transform="translate(0 9.09)"/><polygon class="cls-6" points="65.63 67.58 66.12 67.06 65.52 66.98 65.63 67.58"/><polygon class="cls-6" points="69.7 64.31 69.95 63.68 69.1 64.38 69.7 64.31"/><path class="cls-6" d="M69.65,57.27l.34-.33c.14-.38.15-.72-.24-.6C69.36,56.79,69.7,57,69.65,57.27Z" transform="translate(0 9.09)"/><path class="cls-7" d="M75.91,45.13A16.67,16.67,0,0,0,69.84,47a12,12,0,0,1-.64,1.38l-1.42.52c-1.06.93-2.18,2.21-2.28,3.4-.27.09-.35,0-.62.09-.21.53-1.11,1.09-1.17,1.75-.62.29-.89,0-1.42.08-.72,1.27-2.69,2-3.14,3.53-1.23-.13-.83,2-2.07,2-1.24,1-1.87,2.66-1.54,3.35-.15-.11-.25-.8-.82-.41,0,.14-.12.38-.07.42s-1,.88-.94,1.37c0,.19,0,.28.14.3,1.51-.78,1.42,3.15,1.72,4.73l-.12.56a7.9,7.9,0,0,0,1.43-1.65c-.39,0,.36-1-.24-.61-.07.1-.09.24-.16.34l-.8.53c.22-.76,1.51-2,1.29-2.76a3.5,3.5,0,0,1,1.78-.75c.84-1.09,2.18-2.09,2.47-3.26a1.77,1.77,0,0,1,1.88-1c.2-.62,1.13-1.25,1-1.71a3.92,3.92,0,0,1,2.5-.32c.79-.4.53-.64.73-1.28,1.28-1.1.61,1.09,2-.24.6-.41,1-1.41.71-1.68.87-.31,1.39-1.36,2.13-1.45.24-1.75,2.63-1.65,3.19-3.47a16.86,16.86,0,0,0,3.21-3.89A2.69,2.69,0,0,0,75.91,45.13Z" transform="translate(0 9.09)"/><path class="cls-6" d="M61.08,84.58c.34-.59-.4.15-.12-.13s.49-.85.76-1.26C61.13,84.27,62.67,83.42,61.08,84.58Z" transform="translate(0 9.09)"/><path class="cls-6" d="M61.49,81.82l0-.36c.33-.23,1-.65.77-.15A2,2,0,0,0,61.49,81.82Z" transform="translate(0 9.09)"/><path class="cls-7" d="M57,79.56l.47-.3c-.2.19-.08.5-.41.75Z" transform="translate(0 9.09)"/><path class="cls-7" d="M81,60.21a1,1,0,0,0,.32-.07c.17.29.13.52-.15,1-.45.22-1.21,1.07-1.29.69l.08-.1a1.22,1.22,0,0,0-1.37.31c0,.25.66.2.42.84a4.18,4.18,0,0,1-2,1.21l-.07.82a5,5,0,0,1-1.48.51l.14-.44c-.35,0-.47-.5-1.21.12a6.34,6.34,0,0,1-.94,1.4c-1.09.27-2.19,1.74-3.22,2.41-.32,1.46-3.07,2-3,3.46-1.65,1.1-1.33,1.8-1.77,2.87-1.55.55,1-1.89,0-1.8-1.82,1.31-3.41,3.2-5.13,4.72-.15.68.87.31.07,1.21.12-.45-.5-.47-.82-.18.38-.27.13.15.18.28l.3-.17c.85.54-1.23,1-1.45,2-.49,0,.3-.3.12-.57s-.93-.43-1.84.24a7.57,7.57,0,0,1-2.07,2.14,10.65,10.65,0,0,0-2.33,2.18c.34.16-.23.56-.45.89.08-.59-.84-.1-1.2.23-.22.58.27,1.1-.37,1.75l.92,0a10.17,10.17,0,0,0,1.14-1.89c.83.22,1.76-2.5,2.36-1.58l-.36.19c-1.2.78-.92,2-1.47,3.22a7.72,7.72,0,0,1-2.3.82A1.84,1.84,0,0,0,50,90.24c-.32.68-.82.76-1.22,1-.13.23.21,0,.08.24a3.74,3.74,0,0,0-.73.68c.46.49,1.27-.68,2-1.2-.06.23,0,.35-.19.57s-.21.1-.28.1l-.25.46c.15.12.51.26.13.82L49,93c-.91,1-.54,2.06.54.72l-.24-.36,1.46-1c.48,0-.22.8.07,1,.24.47,1.26-.5,1.73-.91.18-.67-.54.07-.87.39V91.75c.13-.22.47-.42.61-.29.34-.09.57.51.82.07,1-1.06-.5-.52.24-1.48-.78-.21-2.17,1.32-2.85,1.62l-.33.44c-.42,0,.45-.78-.23-.24.51-1.37,2.42-2.41,3.47-2.85.35.27,1.37-.3,1.24.73.34-.31.74-.26,1.09-.78.58-1.76,1.73-1.71,2.61-2.93-.21.08-.12-.25-.18-.38,1.64-1.32.92,1.78,2.63-.53.3-.4.33-.75.06-.8-.36.16-.84.17-1.15.69-.13-.14-.79.54-.68-.13,1-.84,1-1.8,1.83-2.43l0-.46c.3-.29.81-1.24,1.38-1.46,1.36-1,.35.55.54.84L64,80.59c.67-1.62,2.61-1,3-2.53l0,.24c-.37.73.7.43,1.1.06l.2-.41c-.06-1.09,1.81-2,2.67-3,.24-.17.44-.11.27.08l1.36-.68c-.2-.89.81-.71,1.41-1.37a5.74,5.74,0,0,1,.64-1.73c2-.85,2.35-2.29,4.21-2.93-.17-.65.61-1.5-.52-1.47,1.71-1,3.46-1.52,5-2.58l.12-.47C83.05,62.51,82.87,59.36,81,60.21Z" transform="translate(0 9.09)"/><path class="cls-7" d="M47.81,90.72l.54-.7h-.21C47.71,90.11,48.08,90.36,47.81,90.72Z" transform="translate(0 9.09)"/><path class="cls-6" d="M98.05,54.5c.33-.79.52-1.83,0-1.59-.71.81-.84,1.75-1.78,2.43C96.59,55.65,97.62,54.67,98.05,54.5Z" transform="translate(0 9.09)"/><path class="cls-7" d="M63.18,83l.84-.86L63.55,82C62.68,82.51,63.64,82.5,63.18,83Z" transform="translate(0 9.09)"/><path class="cls-6" d="M96.61,48.15c-.2-.14-.23-.5-.45,0L96,49C96,48.85,97.06,48.16,96.61,48.15Z" transform="translate(0 9.09)"/><path class="cls-6" d="M97.5,45.36,96.84,45c-.14.39-.06.78-.39,1C96.86,45.7,97.15,45.92,97.5,45.36Z" transform="translate(0 9.09)"/><path class="cls-6" d="M94,49.79c1.46-.7.24-1.8,1.73-2.15.89-1.48,0-1.46-.68-1.51-.4.53.67.51.23,1.5-.5.45-1.07,1-1.48.84C92.69,49.78,94.35,48.92,94,49.79Z" transform="translate(0 9.09)"/><polygon class="cls-6" points="96.14 53.43 95.67 54.06 96.29 54.04 96.14 53.43"/><polygon class="cls-6" points="92.31 57.58 92.15 58.28 92.91 57.39 92.31 57.58"/><path class="cls-6" d="M92.11,46.37l-.32.42c-.09.41-.06.76.32.57C92.46,46.81,92.09,46.69,92.11,46.37Z" transform="translate(0 9.09)"/><path class="cls-7" d="M87,59.48a14.65,14.65,0,0,0,6.2-2.59,12.66,12.66,0,0,1,.53-1.53c.47-.25,1-.55,1.42-.82,1-1.18,1.86-2.66,1.8-3.88.26-.13.36-.06.61-.2.13-.57,1-1.27.94-2,.6-.39.89-.17,1.42-.28.58-1.38,2.47-2.3,2.84-3.83,1.23.06.76-2.07,2-2.15,1.23-1.08,1.89-2.73,1.58-3.43.15.1.23.81.82.41,0-.14.13-.39.08-.43s1-.91,1-1.41c0-.19,0-.29-.14-.31-1.56.82-1.29-3.25-1.56-4.86l.12-.57a8.43,8.43,0,0,0-1.48,1.69c.4,0-.41,1,.22.63a3.84,3.84,0,0,1,.18-.35l.82-.55c-.25.78-1.61,2.08-1.42,2.86a3.8,3.8,0,0,1-1.84.8c-.89,1.14-2.29,2.25-2.59,3.49a2,2,0,0,1-1.93,1.2c-.19.68-1.14,1.45-1,1.91a4.36,4.36,0,0,1-2.57.72c-.79.56-.5.77-.65,1.48-1.19,1.39-.73-1-2,.63-.57.55-.81,1.66-.52,1.88-.84.5-1.22,1.66-1.94,1.88.07,1.76-2.32,2-2.69,3.81-1.33,1.21-1.94,2.61-3,4.06A2.61,2.61,0,0,0,87,59.48Z" transform="translate(0 9.09)"/></g><path class="cls-1" d="M110,45.56l-.59-43.22a0,0,0,0,0,0,0L52.54,53.46A4.62,4.62,0,0,0,51,56.89V99.78a.3.3,0,0,0,.51.21l57.26-51.55A4.08,4.08,0,0,0,110,45.56Z" transform="translate(0 9.09)"/><g class="cls-8"><path class="cls-6" d="M33.07,54.75c.11.65.23-.36.19,0s.13.95.22,1.42C33.22,55,32.55,56.62,33.07,54.75Z" transform="translate(0 9.09)"/><path class="cls-6" d="M34.58,57.05l.23.26c-.11.37-.33,1.1-.49.59A1.86,1.86,0,0,0,34.58,57.05Z" transform="translate(0 9.09)"/><path class="cls-7" d="M39.51,56.07l-.16.45c0-.23-.29-.38-.18-.72Z" transform="translate(0 9.09)"/><path class="cls-7" d="M39,83.8a.74.74,0,0,0-.14.27c-.33,0-.5-.18-.75-.67.09-.47-.14-1.5.22-1.36l0,.12a1.12,1.12,0,0,0,.59-1.2c-.22-.12-.57.39-.95-.15a3.56,3.56,0,0,1,.19-2.13l-.63-.5c.05-.7.33-.89.49-1.4l.27.35c.2-.27.7-.08.64-1a5.64,5.64,0,0,1-.57-1.48c.45-1-.08-2.59,0-3.71-1-1,.33-3.32-.85-4.11.21-1.79-.54-2-1.07-2.92.63-1.38.8,1.8,1.4,1.06.19-2-.13-4.18.08-6.18-.38-.54-.87.32-.91-.76.23.37.7,0,.74-.36-.1.4-.19,0-.32-.08l-.11.29c-1,.14.22-1.41-.21-2.16.37-.28,0,.38.28.47s1-.23,1.29-1.15c-.33-1.94.92-3,1.13-5-.38,0-.08-.51-.05-.84.22.48.79-.2,1-.55-.09-.51-.75-.78-.46-1.47l-.82.28a5.56,5.56,0,0,0-.13,1.87c-.88.12-.2,2.58-1.21,2.14l.21-.3C38.94,50.06,38,49.24,38,48c.52-.83,1.16-1,1.73-1.39a1.46,1.46,0,0,0,.16-1.31c.06-.65.49-.82.8-1.08,0-.21-.2,0-.16-.19.19-.23.46-.46.51-.68-.57-.37-1.06.74-1.49,1.36,0-.21-.13-.3,0-.54s.16-.13.23-.14,0-.3.09-.44c-.17-.09-.56-.14-.34-.71l.51-.16c.6-1,0-2-.7-.58l.31.3c-.37.37-.79.73-1.14,1.13-.48.08,0-.78-.37-.94-.37-.41-1.1.74-1.4,1.27,0,.67.5-.22.72-.6l.36,1.06c-.05.24-.31.51-.49.43-.3.18-.73-.3-.81.19-.53,1.28.66.3.36,1.4.39,0,.77-.5,1.11-1a7.65,7.65,0,0,1,1-1.22l.16-.47c.4-.06-.16.79.29.18a3.41,3.41,0,0,1-.82,1.9,12.8,12.8,0,0,1-1.34,1.53c-.44-.12-1.11.78-1.46-.17-.17.4-.57.53-.63,1.14a3.24,3.24,0,0,1-.21,2A4.23,4.23,0,0,0,34.4,52c.14-.18.26.14.38.2-.58,1.95-1.87-.93-1.84,1.92,0,.5.21.78.46.66.18-.34.56-.64.48-1.22.19,0,.32-.87.63-.28-.28,1.24.35,1.91.1,2.9l.28.35c0,.4.21,1.37,0,1.89-.31,1.53-.66-.15-1-.24l-.26,1.29c.67,1.52-1.15,2.45-.25,3.74l-.21-.13c-.3-.73-.81.23-.8.75l.19.41c.87.64.34,2.55.64,3.82,0,.27-.19.39-.23.15l-.32,1.42c.85.36.06,1,.23,1.85.37.55.73.71,1,1.45-.51,2,.43,3-.17,4.8.63.23.85,1.28,1.52.42a52.4,52.4,0,0,0-.93,5.21c.11.11.21.24.32.35C35.88,84.09,38.57,85.67,39,83.8Z" transform="translate(0 9.09)"/><path class="cls-7" d="M41.78,44.54l-.26.65.2,0C42.07,45,41.65,44.86,41.78,44.54Z" transform="translate(0 9.09)"/><path class="cls-6" d="M32.78,99.68c.4.72,1.08,1.5,1.27.92-.16-1-.81-1.69-.69-2.76C32.87,97.93,32.93,99.24,32.78,99.68Z" transform="translate(0 9.09)"/><path class="cls-7" d="M32.5,57.29c0,.39,0,.78,0,1.17l.43-.23C33.19,57.3,32.47,57.93,32.5,57.29Z" transform="translate(0 9.09)"/><path class="cls-6" d="M38.67,102.34c.24-.06.54.11.3-.33l-.6-.61C38.52,101.49,38.37,102.68,38.67,102.34Z" transform="translate(0 9.09)"/><path class="cls-6" d="M40.32,104.54l.68-.33c-.22-.31-.59-.45-.57-.84C40.45,103.87,40.09,104,40.32,104.54Z" transform="translate(0 9.09)"/><path class="cls-6" d="M39.12,99.47c-.42,1.47,1.22,1.19.54,2.49.59,1.47,1.12.81,1.62.31-.16-.58-.84.23-1.32-.64,0-.61-.08-1.35.31-1.56C40,98.54,39.55,100.24,39.12,99.47Z" transform="translate(0 9.09)"/><polygon class="cls-6" points="41.98 113.12 41.78 112.44 41.4 112.93 41.98 113.12"/><path class="cls-6" d="M41.23,99l-.43-.51q.08.53.18,1.05Z" transform="translate(0 9.09)"/><path class="cls-6" d="M43,100l-.1-.45c-.26-.29-.56-.46-.66-.08C42.43,100,42.76,99.84,43,100Z" transform="translate(0 9.09)"/><path class="cls-7" d="M35.93,88.74a14.09,14.09,0,0,0-1.8,6.07A13.67,13.67,0,0,1,35,96.06l-.3,1.48c.25,1.37.8,3,1.79,3.62-.06.28-.18.31-.24.59.36.43.38,1.47.93,1.84-.07.68-.42.78-.67,1.26.75,1.23.37,3.25,1.44,4.37-.76,1,1.29,1.69.67,2.76.24,1.58,1.34,2.94,2.11,3-.16.08-.83-.17-.78.52.11.09.28.29.33.27s.29,1.29.74,1.5c.17.08.27.08.34,0,.06-1.69,3.5.26,5,.62l.44.33a7.28,7.28,0,0,0-.75-1.94c-.16.36-.67-.74-.66-.06.05.11.17.18.22.29l.08.92c-.57-.52-1-2.19-1.78-2.36a3.19,3.19,0,0,1,.26-1.88c-.51-1.23-.66-2.86-1.51-3.67a1.7,1.7,0,0,1,.13-2.1c-.44-.48-.5-1.59-1-1.68a3.91,3.91,0,0,1,1-2.31c.07-.87-.29-.76-.74-1.24-.31-1.61,1.27,0,.8-1.78,0-.7-.73-1.48-1.1-1.4.19-.88-.46-1.81-.14-2.48-1.41-1,0-3-1.28-4.32A18.39,18.39,0,0,0,39,87.65,2.85,2.85,0,0,0,35.93,88.74Z" transform="translate(0 9.09)"/><path class="cls-6" d="M24.23,25.23c-.08.78.33-.36.18.07s-.16,1.12-.21,1.69C24.29,25.58,23.17,27.27,24.23,25.23Z" transform="translate(0 9.09)"/><path class="cls-6" d="M25,28.2l.15.35c-.18.4-.61,1.19-.62.58A2.46,2.46,0,0,0,25,28.2Z" transform="translate(0 9.09)"/><path class="cls-7" d="M30.15,28.15l-.3.46c.09-.25-.16-.48,0-.83Z" transform="translate(0 9.09)"/><path class="cls-7" d="M23.73,59.77a1.37,1.37,0,0,0-.17.31c-.33-.07-.48-.27-.66-.87.14-.53,0-1.77.36-1.55l0,.14A1.36,1.36,0,0,0,24,56.47c-.21-.16-.61.39-.93-.28a4.72,4.72,0,0,1,.49-2.43L23,53.09a5.15,5.15,0,0,1,.68-1.54l.21.44c.25-.28.69,0,.79-1a7,7,0,0,1-.29-1.77,4.63,4.63,0,0,0,.46-2,13.63,13.63,0,0,1,.3-2.19,3.75,3.75,0,0,1,.12-2.54c.26-.89.49-1.75,0-2.34.64-2-.06-2.38-.3-3.58,1-1.44.27,2.24,1.07,1.52.75-2.23,1-4.82,1.79-7.09-.21-.7-.93.18-.67-1.07.12.48.69.16.82-.26-.2.45-.19-.07-.3-.17l-.18.32c-.51,0-.37-.43-.12-.94a3,3,0,0,0,.52-1.58c.45-.24-.16.42.14.59s1.05,0,1.59-1c.29-2.21,1.81-3.18,2.8-5.09-.36-.12.1-.57.27-.86,0,.54.82.07,1.11-.19.14-.48-.38-1.05.21-1.55-.28,0-.58-.07-.87-.09a2.7,2.7,0,0,0-.5.75c-.18.36-.33.78-.44,1-.88-.16-1.19,2.6-2,1.88l.3-.27c1-1,.45-2.09,1-3.38a4.64,4.64,0,0,1,2.27-.67c.69-.35.62-.71.82-1.09a1.3,1.3,0,0,1,1.29-.45c.17-.15-.17-.1,0-.25s.64-.08.81-.22c-.1-.32-.41-.35-.82-.27a12.12,12.12,0,0,0-1.23.49c.11-.19.06-.34.32-.47s.21,0,.28,0l.37-.31c-.09-.18-.38-.46.21-.79l.52.18c1.19-.35,1.57-1.46-.13-.91l0,.44a11.21,11.21,0,0,0-1.77.28c-.46-.19.54-.71.39-1,0-.58-1.56,0-2.19.42-.42.69.6,0,1.08-.2a10.44,10.44,0,0,0-.43,1.18c-.2.19-.6.33-.71.18-.38.05-.47-.62-.86-.18-1.31,1.09.41.58-.51,1.59.41.11,1-.23,1.61-.52a6.14,6.14,0,0,1,1.61-.67l.46-.3c.38.18-.67.57.13.31a4.53,4.53,0,0,1-.83.72c-.33.19-.67.4-1,.58l-2,1c-.36-.3-1.48.42-1.31-.7-.38.36-.81.38-1.18,1-.46,2-1.63,2.32-2.22,4,.19-.17.2.22.3.32-1.23,2.09-1.52-1.51-2.44,1.77-.16.57,0,.94.24.86.28-.35.75-.6.86-1.29.18.08.6-.92.72-.17-.71,1.34-.26,2.25-.8,3.33l.16.46c-.16.44-.14,1.62-.55,2.15-.73,1.7-.6-.31-.9-.48L23.4,30.8c.19,1.88-1.78,2.55-1.27,4.24l-.17-.2c-.09-.91-.85.08-1,.68L21,36c.64.92-.29,3-.35,4.56-.09.32-.29.41-.27.13-.23.52-.45,1.05-.65,1.58.75.6-.16,1.21-.19,2.21a7.54,7.54,0,0,1,.67,1.9c-.85,2.21-.18,3.65-1,5.63.6.37.67,1.63,1.45.72-.26,1-.6,2-.91,3a21.72,21.72,0,0,0-.68,3l.27.45C20.59,59.77,23.1,61.91,23.73,59.77Z" transform="translate(0 9.09)"/><path class="cls-7" d="M36.6,17.77l-.54.33.17.1C36.59,18.31,36.33,17.94,36.6,17.77Z" transform="translate(0 9.09)"/><path class="cls-6" d="M16.13,77.54c.33.88.91,1.87,1.17,1.24-.05-1.19-.62-2-.42-3.25C16.39,75.57,16.34,77.07,16.13,77.54Z" transform="translate(0 9.09)"/><path class="cls-7" d="M23,28l-.35,1.33.48-.17C23.63,28.19,22.76,28.76,23,28Z" transform="translate(0 9.09)"/><path class="cls-6" d="M21.71,81.56c.25,0,.53.23.34-.33l-.54-.82C21.65,80.54,21.38,81.89,21.71,81.56Z" transform="translate(0 9.09)"/><path class="cls-6" d="M23.07,84.46l.71-.25c-.19-.41-.53-.65-.45-1.1C23.27,83.7,22.9,83.75,23.07,84.46Z" transform="translate(0 9.09)"/><path class="cls-6" d="M22.47,78.27c-.6,1.66,1.11,1.62.27,3,.4,1.85,1,1.18,1.57.68-.08-.71-.86.11-1.24-1,0-.73.06-1.6.48-1.79C23.43,77.3,22.81,79.25,22.47,78.27Z" transform="translate(0 9.09)"/><polygon class="cls-6" points="24.78 93.31 24.66 92.46 24.23 92.95 24.78 93.31"/><polygon class="cls-6" points="24.62 87.14 24.25 86.46 24.3 87.75 24.62 87.14"/><path class="cls-6" d="M26.27,79.59,26.21,79c-.24-.4-.5-.66-.65-.22C25.7,79.51,26.05,79.33,26.27,79.59Z" transform="translate(0 9.09)"/><path class="cls-7" d="M20.21,65.24a18.46,18.46,0,0,0-2.29,6.9,10.59,10.59,0,0,1,.74,1.55c-.14.56-.3,1.11-.43,1.67.16,1.62.51,3.52,1.42,4.45-.09.31-.21.32-.3.63.32.55.21,1.75.71,2.28-.15.76-.52.81-.84,1.3.59,1.55-.09,3.75.77,5.26-.92.9,1,2.21.17,3.26-.08,1.82.74,3.62,1.48,3.92-.18,0-.78-.45-.88.33.09.13.21.41.27.39,0,.15,0,1.52.37,1.88.15.16.25.19.33.13.44-1.85,3.39,1.44,4.77,2.48l.35.54a9.5,9.5,0,0,0-.26-2.49c-.24.35-.48-1.08-.63-.3,0,.14.12.27.15.41L26,100.9c-.42-.8-.49-2.86-1.2-3.3a4.24,4.24,0,0,1,.67-2.06c-.25-1.57-.1-3.51-.79-4.7a2.2,2.2,0,0,1,.47-2.42c-.36-.67-.23-2-.7-2.22a4.71,4.71,0,0,1,1.32-2.52c.17-1-.19-1-.58-1.64-.12-2,1.28.26,1-2,0-.86-.59-1.93-.95-1.89.28-1-.27-2.26.09-3-1.32-1.45.25-3.56-.93-5.33,0-2-.65-3.6-1-5.53A2.56,2.56,0,0,0,20.21,65.24Z" transform="translate(0 9.09)"/></g><path class="cls-1" d="M51,56.73V99.24a1,1,0,0,1-1.23.93c-6.5-1.82-38.09-5.11-47.26-29.29A25.15,25.15,0,0,1,1,62.73l.18-44.09c.67,7.14,6.12,28.9,48,35.9A2.23,2.23,0,0,1,51,56.73Z" transform="translate(0 9.09)"/><g class="cls-9"><path class="cls-7" d="M93.18,7.06c-.73.74-2.37,1.15-2.56.2l-.43-.42C90.9,6.62,93.88,4.88,93.18,7.06Z" transform="translate(0 9.09)"/><path class="cls-6" d="M95.47,10.47c-.94.19-.47-.38-.51-.75l1.11-.57C96.62,9.33,95.86,10.1,95.47,10.47Z" transform="translate(0 9.09)"/><path class="cls-7" d="M99.38,18.25l.47,0a3.61,3.61,0,0,0-1.4.45c-.25-.38.2-1.17,1-1.4C99.47,17.67,98.79,18.08,99.38,18.25Z" transform="translate(0 9.09)"/><path class="cls-7" d="M77.93,16.71c.12,1.4,1.85,3,3.73,3.83l.1,2.37c-1.46-.72-3.54.54-5.28,1.08-.54.65,1.83.26.25,1.24-.29-.27-.31-.86-.73-1-1.37,1-.06,2.53-3.52,3l-1.41-.74c-5.72,1.7-11.07,5.31-16.79,6-.6,1.42-3.48,1.95-4.92,3.19l-.25-.63c-.59,1.42-2.67.6-3.81,1.13L44,36c-.78-.93,2.87-1.53,1.38-2.81-2.6-.15-3.34,2.8-5.67,2.34-2,.37-1.52,1.05-2.56,1.81-.07.76.6.51.74,1.31-4.06,1.91-5.51-1.44-9.12.22.06.59-2.4,3,.64,2.81l1.07-1.15,1.16.4c-1,.39-2.9,1-2.41,1.68-1.11-1-2.63.25-3.73,1.13s-1.75,1.41-1-1c2-.05,2.45-.36,3.21-1.76-4,1.21-7.95,1.58-11.45,2.56l-.74,1.42c-.38-1.07-2.3-1.34-4.08-1.28-.69.38-1.68.47-1.35,1-.12.37,1.53.2,2.83.17s2.32.15,1,1.54a24,24,0,0,1-6.56,0,13.33,13.33,0,0,1-5.3-1.89c2-.18,3.46.07,5.3-1.65,3.24-1.1,6.47-2,9.64-3.13a33.18,33.18,0,0,0,8.8-4.42c.49.66,2.15.37,2,1.31.74.32,2-.8,2.82.12,4.15-2.72,9.72-4,13.89-5.24-1.8-1.53,2.09-2.09,3-3.26,1.36.48,3.12-.5,4.49-1,0-.39.86-.79.48-1.26-1,.57-1.46.27-2.57.42,0-1.56,2.27-.68,3.86-1.11l-.57,1c2.62-.79,6.48.67,8.4-1.42l-2.42-.75c2.73-1.53,6.9-.73,8.56-3.06-2.11.08-5,2.12-5.54.25-.19-1,2.11-1.66,3.31-1.57C70.68,20.17,73.16,15.11,77.93,16.71Z" transform="translate(0 9.09)"/><path class="cls-7" d="M70.68,15.28c-3.84,1.22-1.16,3.24-4.93,4.1.17-1.14-1.88-1.43-3.14-1.14-1,.94-2.57,1-3.61,1.32-.77,0-1-1.21.34-1.68C63.4,18.81,66.83,14.34,70.68,15.28Z" transform="translate(0 9.09)"/><path class="cls-6" d="M75.59,19.84c-1.87.71-1.8-1.83-3.52-.69.44-1.45,1-.33,2.77-.87l-.81,1Z" transform="translate(0 9.09)"/><path class="cls-7" d="M59.09,21.34c-1.17.51-4.18.81-4.68-.46-.21-.05-.11-.81-.72-.36C54.89,20.59,58.09,19.74,59.09,21.34Z" transform="translate(0 9.09)"/><path class="cls-6" d="M66.06,24.92a8.57,8.57,0,0,1-2.33,1C64.34,25.48,65,24.66,66.06,24.92Z" transform="translate(0 9.09)"/><path class="cls-7" d="M58.26,24.27c.54.9-.95.56-1.3.68l-.85-.19A2.14,2.14,0,0,1,58.26,24.27Z" transform="translate(0 9.09)"/><path class="cls-7" d="M46.9,24.72c-1.89.19,1.42-1.85-.73-1.32l1.17-.54.93,1.37Z" transform="translate(0 9.09)"/><path class="cls-7" d="M43.76,24.27a2,2,0,0,1-1.85.79l.3-.72C42.47,24,43.07,24.52,43.76,24.27Z" transform="translate(0 9.09)"/><path class="cls-7" d="M47.19,26.92c-.73.62-.86-.18-1.5-.32C45.86,26.06,48,26.5,47.19,26.92Z" transform="translate(0 9.09)"/><path class="cls-7" d="M41.9,38.81c.36-1.48,2.19-1.3,3.57-2.17C44.08,37.51,43.67,38.39,41.9,38.81Z" transform="translate(0 9.09)"/><path class="cls-7" d="M104.05-.93a2.79,2.79,0,0,0,2.06-1.38l-.6-.2C105-2,104.51-1.47,104.05-.93Z" transform="translate(0 9.09)"/><path class="cls-7" d="M94,4.47c.15,1.68.88.39,2.73.51,1.83-.82,3-3,4.89-4.07l.73-1.4C99.78.41,95.86,2.45,94,4.47Z" transform="translate(0 9.09)"/><path class="cls-6" d="M96.68,11.6c1.62-.21,2.68-2.17,3.58-2.78-1.64.84-3.66,2-4.8,2.6C95.5,11.8,96.24,11.61,96.68,11.6Z" transform="translate(0 9.09)"/><path class="cls-7" d="M123.87-8.82c-1.3.32-2.94.44-4.57.82a8,8,0,0,0-4.41,2.44c1.44-.14,1.6.28,3.75,0-1,2.33-3.24.67-5.12,1.38,1.65-.14-.07,1.35-1.28,2a18.1,18.1,0,0,0-4.53,1.56A47.42,47.42,0,0,0,102.9,2C101.93,3.4,97.4,5,99,6.21c-1.58,1.21-2.6.11-4,.5-1.19,2.08-3.31,2.09-5.33,2s-4-.27-5.56,1.76c-.14-1.16-2.1-.28-2.95-.11-1.76.54-6.21,1.71-4.65,3.48,1.72,1,3.59-2,5.9-1.26,2,.54,1.23,1,0,1.64s-2.93,1.24-2.68,2.18c.38-.49,1.16,1.07,2.49,0-3,1.86,2,1.62.69,3.27a14.88,14.88,0,0,1,3.79.13,14.17,14.17,0,0,1,2.81,1.42c2.2-1.3.89-2.62,1.17-3.74A5.5,5.5,0,0,1,94,16.14,5.72,5.72,0,0,0,97.22,15c0,1.73,1.12,1.77,2.52,1.15a28.4,28.4,0,0,0,4-2.57c2.81-1.62-.51-2.86,2.51-4.42,2.14.37-1.87,3.4.8,3.56l1-1.3c.2-1.48.11-3.17.75-4.45.6-.34,1.52-.83,1.74-.43-1,1-.08,1.85,1.41,1.84A3.65,3.65,0,0,0,112.51,7c-1.91-.89-1.3-1.25,0-1.67s3.16-.83,3.8-2c2.36-2.21,3.44-1.49,4.45-.64s2,1.88,4.62.54C123,.84,128.74.87,130.42-.52c1.62-.25,2.35.41,3.63,1.06.39-.38,1.6-.78,1.69-1.35-1.63-3.51-5.93-6.36-11.67-8.28C124-9,123.85-8.89,123.87-8.82Z" transform="translate(0 9.09)"/></g><path class="cls-1" d="M108.15,1,3.75,16.11a3,3,0,0,0-2.58,3.4c1,7.83,7.56,28.7,49.33,35.25a1.13,1.13,0,0,0,.9-.26L109,2.88A1.08,1.08,0,0,0,108.15,1Z" transform="translate(0 9.09)"/></g></g></svg>