<svg xmlns="http://www.w3.org/2000/svg" xmlns:xlink="http://www.w3.org/1999/xlink" viewBox="0 0 115.96 107.22"><defs><style>.cls-1{fill:none;}.cls-1,.cls-3{stroke:#d69055;stroke-miterlimit:10;stroke-width:2px;}.cls-2{fill:#e2bc60;}.cls-3{fill:#dcc992;}.cls-4{fill:#fbb03b;}.cls-5{clip-path:url(#clip-path);}.cls-6{fill:#fff;}.cls-7{fill:#f5f3e6;}.cls-8{clip-path:url(#clip-path-2);}.cls-9{clip-path:url(#clip-path-3);}</style><clipPath id="clip-path"><path class="cls-1" d="M113.66,48.57l-.6-43.22s0,0,0,0L56.22,56.47a4.61,4.61,0,0,0-1.53,3.42v42.9a.3.3,0,0,0,.51.21l57.27-51.56A4.06,4.06,0,0,0,113.66,48.57Z"/></clipPath><clipPath id="clip-path-2"><path class="cls-1" d="M54.69,59.73v42.51a1,1,0,0,1-1.23.94c-6.5-1.83-38.08-5.11-47.25-29.3a24.63,24.63,0,0,1-1.53-8.15l.18-44.08c.67,7.13,6.12,28.89,48,35.89A2.23,2.23,0,0,1,54.69,59.73Z"/></clipPath><clipPath id="clip-path-3"><path class="cls-1" d="M111.83,4,7.43,19.11a3.06,3.06,0,0,0-2.59,3.41c1,7.83,7.56,28.69,49.34,35.24a1.07,1.07,0,0,0,.89-.26L112.7,5.89A1.08,1.08,0,0,0,111.83,4Z"/></clipPath></defs><title>Монтажная область 3 копия 3</title><g id="Слои"><path class="cls-2" d="M113.66,48.57l-.6-43.22s0,0,0,0L56.22,56.47a4.61,4.61,0,0,0-1.53,3.42v42.9a.3.3,0,0,0,.51.21l57.27-51.56A4.06,4.06,0,0,0,113.66,48.57Z"/><path class="cls-3" d="M111.83,4,7.43,19.11a3.06,3.06,0,0,0-2.59,3.41c1,7.83,7.56,28.69,49.34,35.24a1.07,1.07,0,0,0,.89-.26L112.7,5.89A1.08,1.08,0,0,0,111.83,4Z"/><path class="cls-4" d="M54.69,59.73v42.51a1,1,0,0,1-1.23.94C47,101.35,15.38,97.9,6.21,73.72a24.63,24.63,0,0,1-1.53-8.15l.18-43.92c.67,7.13,6.12,28.89,48,35.89A2.23,2.23,0,0,1,54.69,59.73Z"/><g class="cls-5"><path class="cls-6" d="M102.93,22.86c-.28.58.39-.16.14.12l-.66,1.26C102.91,23.17,101.46,24,102.93,22.86Z"/><path class="cls-6" d="M102.74,25.57v.35c-.3.24-1,.66-.74.17A1.77,1.77,0,0,0,102.74,25.57Z"/><path class="cls-7" d="M107.25,27.64l-.43.3c.18-.19,0-.49.34-.73Z"/><path class="cls-7" d="M85.47,47.53a.7.7,0,0,0-.31.07c-.18-.28-.15-.51.11-1,.44-.22,1.14-1.08,1.24-.7l-.08.09a1.15,1.15,0,0,0,1.33-.33c0-.24-.66-.18-.46-.82a4.12,4.12,0,0,1,1.83-1.25v-.8c.59-.43.92-.34,1.42-.56l-.11.44c.34,0,.5.47,1.17-.17a5.79,5.79,0,0,1,.81-1.41c1-.31,2-1.82,2.93-2.52.18-1.45,2.8-2.12,2.62-3.54,1.49-1.16,1.11-1.82,1.44-2.89,1.46-.61-.77,1.89.18,1.75,1.64-1.36,3-3.27,4.55-4.81.09-.67-.87-.27-.17-1.17-.08.44.53.44.81.15-.35.28-.13-.14-.2-.27l-.27.18c-.88-.5,1.11-1.05,1.25-1.94.48,0-.27.3-.07.56s.94.39,1.77-.28c1-1.89,2.66-2.33,4-4.21-.35-.16.18-.55.38-.87,0,.56.82.09,1.16-.22.19-.55-.3-1,.28-1.68l-.89,0a8.28,8.28,0,0,0-1,1.81c-.81-.2-1.59,2.41-2.22,1.53l.34-.18c1.16-.74.78-1.94,1.28-3.12a7.36,7.36,0,0,1,2.21-.78,1.69,1.69,0,0,0,.68-1.31c.3-.65.78-.73,1.17-.94.11-.22-.21,0-.09-.23a3.44,3.44,0,0,0,.7-.65c-.46-.48-1.24.63-1.9,1.13.06-.22,0-.34.17-.55s.19-.1.26-.09l.24-.44c-.15-.13-.5-.26-.15-.8l.54-.09c.87-1,.49-2-.55-.7l.25.35-1.41.92c-.48,0,.2-.77-.1-1-.26-.47-1.23.47-1.68.86-.15.65.54-.06.85-.37l0,1.12c-.12.21-.44.4-.59.27-.33.08-.58-.5-.81-.08-.94,1,.5.5-.17,1.44.75.2,2.08-1.25,2.74-1.53l.3-.43c.41,0-.4.76.23.24C113,17,111.2,18,110.2,18.43c-.36-.26-1.35.28-1.26-.71-.32.29-.73.24-1,.76-.46,1.73-1.63,1.66-2.4,2.89.2-.08.13.25.21.37-1.54,1.31-1-1.73-2.56.58-.27.4-.27.73,0,.78.34-.16.81-.2,1.08-.71.13.13.74-.55.67.11-.94.85-.8,1.78-1.62,2.43v.45c-.28.28-.7,1.23-1.24,1.46-1.23,1-.4-.53-.6-.79l-1,.82C99.9,28.46,98,28,97.71,29.48l-.06-.24c.3-.73-.73-.39-1.08,0l-.15.42c.16,1.05-1.57,2-2.31,3.11-.21.17-.41.13-.27-.07l-1.25.73c.29.87-.72.74-1.24,1.41a5.61,5.61,0,0,1-.46,1.71c-1.83.91-2.07,2.34-3.83,3,.22.63-.47,1.48.62,1.42-1.59,1-3.25,1.57-4.69,2.61l-.09.46C83.4,45.26,83.66,48.38,85.47,47.53Z"/><path class="cls-7" d="M115.64,16.87c-.17.22-.33.45-.51.66l.21,0C115.75,17.45,115.39,17.2,115.64,16.87Z"/><path class="cls-6" d="M68.66,51.39c-.42.71-.76,1.69-.17,1.56.8-.67,1.06-1.56,2-2C70.21,50.57,69.12,51.3,68.66,51.39Z"/><path class="cls-7" d="M101,24.5l-.75.87.47.09C101.53,24.94,100.59,25,101,24.5Z"/><path class="cls-6" d="M69.2,57.79c.17.17.16.52.43.08l.25-.83C69.87,57.21,68.76,57.7,69.2,57.79Z"/><path class="cls-6" d="M68.07,60.34l.61.41c.16-.35.11-.74.46-.92C68.71,60.09,68.45,59.85,68.07,60.34Z"/><path class="cls-6" d="M71.94,56.67c-1.5.41-.46,1.68-1.93,1.76-1,1.27-.18,1.38.51,1.55.43-.43-.61-.6-.08-1.46.53-.35,1.15-.77,1.53-.55C73.18,56.92,71.47,57.44,71.94,56.67Z"/><polygon class="cls-6" points="69.3 61.5 69.8 60.97 69.2 60.9 69.3 61.5"/><polygon class="cls-6" points="73.38 58.23 73.62 57.59 72.78 58.3 73.38 58.23"/><path class="cls-6" d="M73.33,60.27l.34-.32c.13-.38.15-.72-.24-.61C73,59.8,73.37,60,73.33,60.27Z"/><path class="cls-7" d="M79.59,48.13A17,17,0,0,0,73.51,50a8.52,8.52,0,0,1-.64,1.38l-1.42.52c-1,.94-2.17,2.22-2.27,3.4-.27.09-.36,0-.63.1-.2.53-1.11,1.08-1.16,1.75-.63.29-.89,0-1.43.07-.72,1.28-2.68,2-3.13,3.54-1.23-.13-.83,2-2.07,2-1.24,1-1.87,2.65-1.54,3.34-.15-.1-.25-.8-.82-.41,0,.14-.12.39-.07.42s-1,.89-.95,1.37c0,.2,0,.28.15.31,1.5-.78,1.41,3.15,1.71,4.72l-.11.56a7.58,7.58,0,0,0,1.43-1.64c-.4,0,.36-1-.25-.62-.07.11-.09.24-.16.35l-.79.53c.22-.77,1.5-2,1.29-2.77a3.46,3.46,0,0,1,1.78-.75c.84-1.09,2.17-2.09,2.47-3.25a1.77,1.77,0,0,1,1.88-1c.2-.62,1.13-1.25,1-1.7a3.81,3.81,0,0,1,2.51-.32c.79-.4.53-.65.73-1.29,1.27-1.1.61,1.1,2-.24.59-.4,1-1.41.71-1.67.87-.32,1.39-1.36,2.13-1.45.24-1.76,2.62-1.65,3.19-3.47a17.39,17.39,0,0,0,3.21-3.9A2.71,2.71,0,0,0,79.59,48.13Z"/><path class="cls-6" d="M64.76,87.59c.33-.59-.4.14-.13-.13s.5-.85.77-1.27C64.81,87.27,66.35,86.43,64.76,87.59Z"/><path class="cls-6" d="M65.16,84.82l0-.35c.32-.24,1-.65.76-.15A2.07,2.07,0,0,0,65.16,84.82Z"/><path class="cls-7" d="M60.72,82.56l.47-.3c-.2.19-.08.51-.41.75Z"/><path class="cls-7" d="M84.69,63.21a.91.91,0,0,0,.32-.06c.16.28.13.51-.16,1-.45.23-1.21,1.07-1.29.69l.09-.09a1.23,1.23,0,0,0-1.38.3c0,.25.67.2.42.85a4.24,4.24,0,0,1-1.94,1.21l-.07.82a5,5,0,0,1-1.49.51l.15-.44c-.36,0-.47-.5-1.21.11a6.47,6.47,0,0,1-.94,1.4c-1.1.27-2.2,1.75-3.22,2.41-.32,1.47-3.08,2-3,3.46-1.65,1.11-1.33,1.8-1.77,2.88-1.55.54,1-1.89,0-1.8-1.82,1.31-3.41,3.2-5.14,4.71-.14.69.87.32.08,1.21.12-.45-.51-.47-.82-.17.38-.28.13.14.18.28l.3-.18c.85.55-1.23,1-1.45,2-.49,0,.3-.3.12-.57s-.94-.42-1.84.24a7.75,7.75,0,0,1-2.07,2.15,10.62,10.62,0,0,0-2.34,2.17c.35.16-.23.56-.45.89.09-.58-.84-.09-1.19.24-.22.58.27,1.1-.37,1.75l.91,0a9.36,9.36,0,0,0,1.14-1.89c.84.23,1.77-2.5,2.36-1.57l-.35.18c-1.21.79-.93,2-1.48,3.22a7.77,7.77,0,0,1-2.3.83,1.82,1.82,0,0,0-.73,1.36c-.32.69-.82.77-1.23,1-.12.23.21,0,.09.24a3.5,3.5,0,0,0-.73.69c.46.49,1.27-.68,2-1.21-.06.23,0,.35-.19.57s-.2.11-.27.1l-.25.46c.15.13.5.26.13.83l-.55.1c-.91,1-.54,2.06.54.71L53,96.36l1.45-1c.48,0-.22.8.08,1.05.24.47,1.26-.51,1.73-.92.17-.67-.55.07-.88.39l0-1.14c.12-.22.46-.43.6-.3.35-.09.58.51.83.07,1-1-.51-.51.23-1.47-.78-.22-2.16,1.31-2.85,1.61l-.33.45c-.42,0,.45-.79-.22-.25.5-1.37,2.42-2.4,3.46-2.85.35.27,1.37-.3,1.25.73.34-.3.74-.26,1.09-.78.57-1.76,1.73-1.7,2.61-2.92-.21.08-.12-.26-.19-.38,1.65-1.33.93,1.78,2.64-.54.3-.4.32-.74,0-.8-.35.16-.83.18-1.14.7-.14-.15-.79.54-.69-.14,1-.84,1-1.8,1.84-2.43l0-.46c.31-.28.82-1.23,1.39-1.45,1.36-1,.35.55.54.83l1.12-.79c.67-1.61,2.6-1,3-2.53l0,.25c-.37.73.7.42,1.1.06L72,81c0-1.08,1.81-2,2.68-3,.23-.17.43-.12.26.07l1.36-.67c-.2-.9.82-.72,1.41-1.38a6.4,6.4,0,0,1,.64-1.72c2-.85,2.36-2.29,4.21-2.93-.16-.66.61-1.5-.51-1.48,1.71-.94,3.45-1.52,5-2.58l.12-.47C86.73,65.51,86.54,62.36,84.69,63.21Z"/><path class="cls-7" d="M51.49,93.72c.17-.23.35-.47.54-.69h-.22C51.39,93.12,51.75,93.37,51.49,93.72Z"/><path class="cls-6" d="M101.73,57.51c.32-.8.51-1.84-.06-1.6-.71.81-.83,1.76-1.77,2.43C100.27,58.65,101.3,57.67,101.73,57.51Z"/><path class="cls-7" d="M66.86,86l.83-.85L67.22,85C66.35,85.51,67.31,85.51,66.86,86Z"/><path class="cls-6" d="M100.28,51.16c-.19-.15-.22-.5-.44,0l-.15.89C99.68,51.86,100.73,51.17,100.28,51.16Z"/><path class="cls-6" d="M101.17,48.36l-.66-.33c-.13.39-.05.78-.38,1C100.54,48.71,100.83,48.93,101.17,48.36Z"/><path class="cls-6" d="M97.66,52.8c1.46-.71.24-1.8,1.72-2.16.89-1.47,0-1.45-.68-1.5-.39.52.68.51.24,1.49-.5.45-1.07,1-1.49.85C96.37,52.79,98,51.92,97.66,52.8Z"/><polygon class="cls-6" points="99.82 47.35 99.35 47.98 99.97 47.95 99.82 47.35"/><polygon class="cls-6" points="95.98 51.5 95.83 52.19 96.59 51.31 95.98 51.5"/><path class="cls-6" d="M95.78,49.38l-.31.41c-.09.42-.06.77.32.57C96.14,49.81,95.77,49.7,95.78,49.38Z"/><path class="cls-7" d="M90.69,62.49a14.78,14.78,0,0,0,6.2-2.6,11.62,11.62,0,0,1,.53-1.53c.47-.24.94-.54,1.41-.82,1-1.17,1.87-2.66,1.81-3.87.26-.14.35-.07.61-.21.13-.57,1-1.27.94-1.94.59-.39.88-.18,1.42-.28.58-1.38,2.46-2.31,2.84-3.84,1.23.06.76-2.07,2-2.15,1.24-1.07,1.9-2.72,1.58-3.43.15.11.24.82.82.42,0-.15.14-.4.09-.43s1-.91,1-1.41c0-.2,0-.29-.14-.32-1.56.82-1.3-3.25-1.56-4.85l.12-.57a8.15,8.15,0,0,0-1.49,1.69c.4-.05-.4,1,.22.63.08-.11.11-.25.18-.36l.83-.55c-.25.79-1.61,2.09-1.42,2.86a3.69,3.69,0,0,1-1.84.8c-.89,1.15-2.29,2.25-2.59,3.49a2,2,0,0,1-1.94,1.21c-.19.67-1.14,1.44-.95,1.9a4.39,4.39,0,0,1-2.57.73c-.79.55-.5.77-.65,1.47-1.2,1.39-.74-1-2,.63-.57.56-.82,1.66-.53,1.88-.84.5-1.22,1.67-1.94,1.88.08,1.76-2.32,2-2.69,3.82a23.36,23.36,0,0,0-3,4A2.62,2.62,0,0,0,90.69,62.49Z"/></g><path class="cls-1" d="M113.66,48.57l-.6-43.22s0,0,0,0L56.22,56.47a4.61,4.61,0,0,0-1.53,3.42v42.9a.3.3,0,0,0,.51.21l57.27-51.56A4.06,4.06,0,0,0,113.66,48.57Z"/><g class="cls-8"><path class="cls-6" d="M36.75,57.75c.1.66.23-.36.18,0s.14,1,.22,1.43C36.9,58,36.22,59.62,36.75,57.75Z"/><path class="cls-6" d="M38.26,60.05l.22.27c-.1.36-.32,1.09-.48.58A1.86,1.86,0,0,0,38.26,60.05Z"/><path class="cls-7" d="M43.19,59.08l-.17.44c0-.23-.28-.38-.17-.71Z"/><path class="cls-7" d="M42.68,86.8a.72.72,0,0,0-.14.28c-.34,0-.5-.18-.75-.68.09-.46-.15-1.5.22-1.35l0,.11a1.11,1.11,0,0,0,.58-1.2c-.22-.11-.56.39-.94-.14a3.56,3.56,0,0,1,.19-2.13l-.63-.5c0-.7.33-.9.48-1.4l.27.35c.21-.28.7-.09.65-1a5.37,5.37,0,0,1-.58-1.48c.45-1-.08-2.59,0-3.7-1-1.06.33-3.33-.85-4.12.21-1.79-.54-2-1.07-2.91.63-1.38.8,1.79,1.4,1.06.19-2-.13-4.18.07-6.19-.37-.53-.86.32-.9-.75.23.37.69,0,.74-.36-.1.4-.2,0-.33-.08l-.11.29c-1,.13.22-1.42-.2-2.16.37-.29,0,.37.28.46s1-.23,1.29-1.14c-.34-1.94.91-3.06,1.13-5.06-.39,0-.08-.5-.05-.83.21.47.78-.21.94-.56-.09-.51-.74-.77-.46-1.47l-.81.28A5.58,5.58,0,0,0,43,52.31c-.88.12-.2,2.59-1.21,2.14l.2-.29c.61-1.09-.28-1.91-.34-3.13.52-.82,1.16-.94,1.73-1.39.4-.62.2-.89.15-1.31.07-.65.5-.82.81-1.07,0-.22-.2,0-.16-.19a2.79,2.79,0,0,0,.51-.68c-.57-.37-1.06.74-1.49,1.36,0-.21-.13-.31,0-.54s.15-.13.22-.14.06-.3.1-.45c-.18-.08-.56-.14-.34-.7l.51-.17c.6-1,0-2-.71-.57l.32.29c-.38.37-.79.74-1.15,1.14-.47.08,0-.78-.36-1-.37-.4-1.1.75-1.4,1.27,0,.68.5-.21.71-.59l.36,1.06c-.05.23-.3.5-.48.43-.3.18-.74-.3-.81.18-.53,1.29.66.3.35,1.41.4-.05.78-.5,1.12-1a8.31,8.31,0,0,1,1-1.23l.16-.46c.4-.06-.17.79.29.17a3.48,3.48,0,0,1-.82,1.9,12.9,12.9,0,0,1-1.34,1.53c-.44-.11-1.11.79-1.46-.16-.17.4-.57.52-.64,1.14a3.12,3.12,0,0,1-.21,2A4.09,4.09,0,0,0,38.08,55c.13-.17.25.14.38.21-.59,2-1.88-.94-1.85,1.91,0,.5.21.78.47.66.18-.34.56-.63.48-1.21.18,0,.31-.88.63-.29-.28,1.24.35,1.91.1,2.9l.28.36c0,.39.2,1.36-.06,1.88-.3,1.54-.65-.15-1-.23l-.27,1.28C37.94,64,36.11,65,37,66.26l-.21-.13c-.3-.74-.8.22-.8.75l.19.4c.88.64.34,2.56.65,3.83,0,.27-.19.38-.24.15l-.32,1.41c.85.37.07,1,.23,1.85.37.55.73.71,1,1.46-.51,2,.44,3-.17,4.8.64.23.86,1.28,1.53.42A49,49,0,0,0,38,86.4c.11.12.2.24.31.35C39.55,87.09,42.25,88.67,42.68,86.8Z"/><path class="cls-7" d="M45.45,47.54l-.25.65.2,0C45.75,48,45.33,47.87,45.45,47.54Z"/><path class="cls-6" d="M36.45,102.68c.4.73,1.09,1.5,1.28.93-.16-1-.81-1.69-.7-2.77C36.55,100.93,36.61,102.25,36.45,102.68Z"/><path class="cls-7" d="M36.17,60.29c0,.39,0,.78,0,1.17l.43-.23C36.87,60.3,36.15,60.94,36.17,60.29Z"/><path class="cls-6" d="M42.35,105.35c.24-.07.54.11.3-.33l-.61-.61C42.19,104.5,42.05,105.68,42.35,105.35Z"/><path class="cls-6" d="M44,107.54l.67-.33c-.22-.3-.58-.45-.56-.83C44.12,106.87,43.77,107,44,107.54Z"/><path class="cls-6" d="M42.79,102.47c-.41,1.48,1.23,1.2.54,2.49.59,1.48,1.12.82,1.63.31-.16-.57-.85.23-1.33-.64,0-.61-.08-1.34.32-1.56C43.66,101.54,43.23,103.24,42.79,102.47Z"/><polygon class="cls-6" points="45.66 107.04 45.45 106.36 45.08 106.84 45.66 107.04"/><path class="cls-6" d="M44.91,102l-.43-.51c.05.35.11.7.17,1.05Z"/><path class="cls-6" d="M46.67,103l-.11-.45c-.26-.29-.55-.46-.65-.08C46.1,103,46.44,102.84,46.67,103Z"/><path class="cls-7" d="M39.61,91.75a14,14,0,0,0-1.8,6.07,10.11,10.11,0,0,1,.85,1.25l-.29,1.47c.24,1.38.8,3,1.79,3.63-.07.27-.19.3-.25.58.37.43.38,1.48.94,1.85-.07.67-.42.78-.67,1.25.74,1.23.37,3.26,1.44,4.37-.76,1,1.29,1.69.67,2.77.24,1.58,1.33,2.93,2.11,3-.17.08-.83-.18-.78.51.11.09.27.3.33.27,0,.12.28,1.29.73,1.5.18.09.28.09.35,0,.06-1.68,3.49.26,5,.62l.44.33a7.28,7.28,0,0,0-.75-1.94c-.17.36-.67-.74-.66-.06a3.15,3.15,0,0,0,.22.29l.07.93c-.56-.52-1-2.2-1.78-2.36a3.32,3.32,0,0,1,.27-1.89c-.51-1.23-.66-2.85-1.51-3.67a1.73,1.73,0,0,1,.12-2.1c-.43-.47-.49-1.58-1-1.67a3.77,3.77,0,0,1,1-2.31c.06-.88-.3-.77-.75-1.25-.31-1.6,1.27,0,.81-1.78-.05-.7-.74-1.48-1.1-1.4.18-.87-.46-1.81-.14-2.47-1.41-1,0-3-1.29-4.33-.14-1.69-.89-3-1.43-4.54A2.83,2.83,0,0,0,39.61,91.75Z"/><path class="cls-6" d="M27.91,28.24c-.09.78.33-.37.17.06s-.15,1.13-.2,1.69C28,28.59,26.85,30.28,27.91,28.24Z"/><path class="cls-6" d="M28.72,31.2l.15.36c-.18.4-.61,1.19-.62.57A2.52,2.52,0,0,0,28.72,31.2Z"/><path class="cls-7" d="M33.82,31.16l-.29.46c.08-.26-.16-.48,0-.84Z"/><path class="cls-7" d="M27.41,62.78a.88.88,0,0,0-.17.3c-.33-.07-.48-.26-.67-.87.15-.53,0-1.76.37-1.55v.14a1.31,1.31,0,0,0,.71-1.32c-.21-.16-.6.38-.92-.29a4.64,4.64,0,0,1,.49-2.43l-.56-.67a5.86,5.86,0,0,1,.68-1.54l.22.45c.25-.28.69,0,.79-1a6.6,6.6,0,0,1-.29-1.77,4.78,4.78,0,0,0,.46-2,12.85,12.85,0,0,1,.3-2.2,3.78,3.78,0,0,1,.11-2.53c.26-.9.5-1.76,0-2.34.64-2-.05-2.38-.29-3.59,1-1.44.27,2.24,1.06,1.53.76-2.24,1-4.82,1.8-7.1-.21-.7-.94.18-.67-1.06.11.47.68.16.81-.27-.2.45-.18-.07-.29-.16l-.18.31c-.52,0-.37-.42-.13-.94a3,3,0,0,0,.53-1.57c.44-.24-.16.41.13.58s1.05,0,1.6-1c.28-2.22,1.81-3.18,2.8-5.1-.36-.11.09-.56.26-.86,0,.54.82.07,1.11-.19.15-.47-.38-1.05.22-1.55l-.88-.08a2.77,2.77,0,0,0-.5.75c-.17.35-.32.77-.43,1-.89-.15-1.19,2.61-2,1.88l.29-.26c1-1,.46-2.09,1-3.39a4.73,4.73,0,0,1,2.27-.66c.69-.35.63-.72.83-1.1a1.34,1.34,0,0,1,1.29-.45c.17-.14-.18-.09,0-.24s.65-.08.82-.23c-.1-.32-.42-.34-.83-.26a12.93,12.93,0,0,0-1.22.49c.1-.2.06-.35.31-.47s.22,0,.28,0l.37-.32c-.08-.17-.37-.46.22-.78l.51.18c1.2-.35,1.58-1.47-.12-.91l0,.43a12.31,12.31,0,0,0-1.77.29c-.47-.19.53-.72.38-1.05,0-.57-1.55,0-2.18.43-.42.69.59,0,1.07-.2A10.22,10.22,0,0,0,37,18.42c-.2.19-.6.34-.72.19-.37.05-.47-.63-.86-.18-1.3,1.08.42.58-.5,1.58.4.12,1-.22,1.61-.52a6.36,6.36,0,0,1,1.61-.67l.46-.3c.38.18-.68.57.12.32a4.11,4.11,0,0,1-.82.71c-.33.2-.68.4-1,.59l-2,1c-.35-.29-1.47.43-1.3-.7-.39.36-.81.38-1.18,1-.47,2-1.64,2.33-2.22,4,.19-.16.19.22.3.33-1.23,2.09-1.53-1.52-2.45,1.76-.15.58,0,.94.25.86.28-.35.75-.6.86-1.29.17.09.6-.92.71-.17-.7,1.34-.25,2.26-.8,3.33l.17.47c-.17.43-.14,1.62-.56,2.15-.73,1.69-.6-.32-.89-.48l-.62,1.41c.18,1.88-1.78,2.55-1.28,4.23l-.17-.2c-.09-.91-.85.08-1,.68l.07.51c.64.93-.3,3-.35,4.57-.09.31-.29.41-.27.12-.24.52-.45,1.05-.65,1.58.75.61-.16,1.21-.19,2.22a7,7,0,0,1,.66,1.9c-.84,2.2-.18,3.64-1,5.62.59.37.66,1.64,1.45.72-.27,1-.61,2-.92,3a21.38,21.38,0,0,0-.67,3l.27.44C24.26,62.77,26.77,64.91,27.41,62.78Z"/><path class="cls-7" d="M40.28,20.78l-.55.33.18.1C40.26,21.32,40,21,40.28,20.78Z"/><path class="cls-6" d="M19.81,80.55c.32.87.91,1.86,1.16,1.24,0-1.19-.62-2-.42-3.26C20.06,78.57,20,80.08,19.81,80.55Z"/><path class="cls-7" d="M26.62,31l-.35,1.33.49-.17C27.31,31.2,26.44,31.77,26.62,31Z"/><path class="cls-6" d="M25.39,84.56c.24,0,.52.23.33-.33l-.53-.82C25.33,83.54,25.05,84.89,25.39,84.56Z"/><path class="cls-6" d="M26.74,87.46l.72-.24c-.19-.41-.53-.66-.46-1.1C27,86.7,26.58,86.75,26.74,87.46Z"/><path class="cls-6" d="M26.14,81.27c-.6,1.66,1.12,1.62.27,3,.41,1.84,1,1.18,1.58.68-.08-.72-.86.1-1.24-1,0-.74.06-1.61.47-1.8C27.11,80.31,26.48,82.25,26.14,81.27Z"/><polygon class="cls-6" points="28.46 87.23 28.34 86.38 27.91 86.87 28.46 87.23"/><polygon class="cls-6" points="28.3 81.06 27.92 80.38 27.98 81.66 28.3 81.06"/><path class="cls-6" d="M30,82.6,29.88,82c-.24-.4-.5-.65-.65-.21C29.38,82.52,29.73,82.34,30,82.6Z"/><path class="cls-7" d="M23.88,68.24a18.52,18.52,0,0,0-2.28,6.9,11.87,11.87,0,0,1,.74,1.56c-.15.55-.3,1.11-.43,1.67.15,1.61.5,3.52,1.42,4.44-.09.31-.21.32-.3.63.31.56.21,1.76.71,2.28-.16.76-.53.82-.84,1.31.59,1.55-.09,3.75.76,5.25-.91.91,1,2.22.18,3.27-.09,1.82.74,3.61,1.48,3.91-.18,0-.78-.44-.88.33.09.13.2.41.26.4,0,.14,0,1.51.37,1.88.15.15.25.19.34.13.44-1.86,3.38,1.44,4.77,2.47l.34.55a9.42,9.42,0,0,0-.25-2.49c-.24.35-.48-1.08-.63-.31,0,.14.12.27.15.41l-.15,1.08c-.42-.8-.49-2.86-1.21-3.31a4.17,4.17,0,0,1,.68-2.06c-.25-1.57-.1-3.5-.79-4.7a2.23,2.23,0,0,1,.46-2.42c-.35-.67-.23-2-.7-2.22a4.68,4.68,0,0,1,1.32-2.51c.18-1-.18-1-.58-1.65-.11-2,1.28.26,1-2,0-.85-.59-1.92-1-1.88.28-1-.27-2.26.1-3-1.33-1.46.25-3.57-.93-5.34,0-2-.66-3.6-1.05-5.53A2.58,2.58,0,0,0,23.88,68.24Z"/></g><path class="cls-1" d="M54.69,59.73v42.51a1,1,0,0,1-1.23.94c-6.5-1.83-38.08-5.11-47.25-29.3a24.63,24.63,0,0,1-1.53-8.15l.18-44.08c.67,7.13,6.12,28.89,48,35.89A2.23,2.23,0,0,1,54.69,59.73Z"/><g class="cls-9"><path class="cls-7" d="M96.85,10.07c-.73.73-2.37,1.14-2.55.19l-.43-.41C94.58,9.62,97.55,7.88,96.85,10.07Z"/><path class="cls-6" d="M99.15,13.48c-1,.18-.47-.38-.51-.76l1.1-.57C100.3,12.34,99.54,13.1,99.15,13.48Z"/><path class="cls-7" d="M103.06,21.26l.47,0a3.35,3.35,0,0,0-1.4.45c-.25-.39.19-1.18,1-1.4C103.14,20.67,102.46,21.09,103.06,21.26Z"/><path class="cls-7" d="M81.61,19.72c.12,1.4,1.84,3,3.73,3.82l.1,2.37c-1.46-.71-3.55.54-5.28,1.08-.55.65,1.83.27.24,1.24-.28-.27-.3-.86-.72-1-1.37,1-.07,2.53-3.52,3l-1.42-.74C69,31.25,63.67,34.85,58,35.52c-.61,1.42-3.49,1.95-4.92,3.2l-.26-.64c-.59,1.42-2.66.6-3.8,1.14L47.7,39c-.77-.94,2.88-1.54,1.38-2.82C46.49,36,45.75,39,43.41,38.48c-2,.38-1.51,1.06-2.56,1.82-.07.76.61.5.75,1.3-4.07,1.92-5.51-1.43-9.12.22.05.59-2.4,3,.64,2.82l1.06-1.16,1.16.41c-1,.39-2.89,1-2.4,1.68-1.11-1-2.63.24-3.74,1.13s-1.75,1.4-1-1c2-.05,2.44-.36,3.2-1.76-4,1.22-7.94,1.58-11.45,2.57l-.73,1.41c-.38-1.07-2.3-1.34-4.08-1.28-.7.39-1.68.47-1.36,1-.12.37,1.53.2,2.84.17s2.31.15,1,1.53a24,24,0,0,1-6.56,0,13.13,13.13,0,0,1-5.3-1.9c2-.18,3.45.08,5.29-1.64,3.25-1.1,6.48-2,9.65-3.14a33.33,33.33,0,0,0,8.8-4.42c.49.67,2.14.38,2,1.31.73.32,2-.79,2.82.12,4.15-2.72,9.72-4,13.89-5.23-1.8-1.53,2.08-2.1,3-3.26,1.37.47,3.12-.51,4.49-1,.05-.38.87-.78.49-1.26-1,.58-1.46.27-2.57.42,0-1.56,2.27-.68,3.86-1.11l-.57,1.05c2.62-.8,6.48.67,8.4-1.42l-2.42-.75c2.73-1.53,6.89-.73,8.55-3.07-2.1.08-5,2.13-5.53.25-.19-1,2.1-1.66,3.3-1.56C74.36,23.17,76.84,18.12,81.61,19.72Z"/><path class="cls-7" d="M74.36,18.29c-3.84,1.21-1.17,3.24-4.93,4.09.17-1.13-1.89-1.43-3.15-1.13-1,.94-2.56,1-3.6,1.32-.78,0-1-1.22.34-1.69C67.08,21.81,70.51,17.35,74.36,18.29Z"/><path class="cls-6" d="M79.27,22.85c-1.87.7-1.81-1.83-3.53-.69.45-1.46,1.05-.33,2.78-.87l-.81,1Z"/><path class="cls-7" d="M62.77,24.34c-1.18.51-4.18.82-4.68-.46-.21-.05-.11-.8-.73-.35C58.57,23.59,61.77,22.75,62.77,24.34Z"/><path class="cls-6" d="M69.73,27.92a8.19,8.19,0,0,1-2.32,1C68,28.49,68.67,27.67,69.73,27.92Z"/><path class="cls-7" d="M61.93,27.27c.54.9-1,.57-1.29.68l-.85-.19A2.14,2.14,0,0,1,61.93,27.27Z"/><path class="cls-7" d="M50.57,27.72c-1.89.19,1.43-1.84-.72-1.32L51,25.87,52,27.23Z"/><path class="cls-7" d="M47.44,27.27a2,2,0,0,1-1.85.79l.3-.71C46.14,27,46.75,27.52,47.44,27.27Z"/><path class="cls-7" d="M50.87,29.92c-.73.62-.86-.18-1.5-.31C49.54,29.06,51.68,29.51,50.87,29.92Z"/><path class="cls-7" d="M45.58,41.81c.36-1.47,2.18-1.29,3.57-2.17C47.76,40.52,47.35,41.4,45.58,41.81Z"/><path class="cls-7" d="M107.72,2.07A2.72,2.72,0,0,0,109.78.69l-.6-.2C108.68,1,108.19,1.53,107.72,2.07Z"/><path class="cls-7" d="M97.72,7.48c.15,1.67.87.38,2.73.5,1.83-.82,3-3,4.89-4.07l.73-1.39C103.45,3.41,99.54,5.45,97.72,7.48Z"/><path class="cls-6" d="M100.36,14.61c1.62-.22,2.68-2.18,3.58-2.78-1.64.84-3.66,2-4.8,2.59C99.18,14.8,99.92,14.62,100.36,14.61Z"/><path class="cls-7" d="M127.54-5.81c-1.29.32-2.93.44-4.56.82a8,8,0,0,0-4.42,2.43c1.44-.14,1.61.29,3.76,0-1,2.33-3.25.67-5.13,1.38,1.66-.14-.06,1.35-1.27,2a18.37,18.37,0,0,0-4.53,1.56A47.59,47.59,0,0,0,106.57,5c-1,1.38-5.49,3-3.88,4.2-1.58,1.21-2.6.11-4,.5-1.19,2.08-3.32,2.09-5.33,2s-4-.27-5.57,1.76c-.14-1.17-2.1-.28-3-.11-1.75.53-6.2,1.7-4.64,3.48,1.71,1,3.59-2,5.9-1.26,2,.53,1.23,1,0,1.63s-2.93,1.25-2.68,2.19c.39-.49,1.17,1.06,2.49,0-3,1.86,2,1.61.69,3.26a15.32,15.32,0,0,1,3.79.13,15.09,15.09,0,0,1,2.81,1.42c2.2-1.29.89-2.62,1.18-3.74a5.56,5.56,0,0,1,3.33-1.31,5.76,5.76,0,0,0,3.21-1.1c0,1.73,1.13,1.77,2.53,1.14a29,29,0,0,0,4-2.57c2.8-1.61-.51-2.85,2.5-4.41,2.15.36-1.86,3.39.81,3.56l1-1.3c.21-1.48.12-3.18.75-4.46.61-.34,1.53-.82,1.75-.42-1,1.05-.08,1.84,1.41,1.84a3.66,3.66,0,0,0,.55-1.42c-1.91-.9-1.3-1.25,0-1.68s3.17-.82,3.81-2c2.35-2.2,3.43-1.49,4.44-.63s2,1.87,4.63.53c-2.38-2.33,3.38-2.3,5.06-3.7,1.61-.25,2.35.41,3.63,1.07.38-.39,1.59-.78,1.68-1.35-1.62-3.51-5.92-6.36-11.66-8.28C127.63-6,127.52-5.89,127.54-5.81Z"/></g><path class="cls-1" d="M111.83,4,7.43,19.11a3.06,3.06,0,0,0-2.59,3.41c1,7.83,7.56,28.69,49.34,35.24a1.07,1.07,0,0,0,.89-.26L112.7,5.89A1.08,1.08,0,0,0,111.83,4Z"/></g></svg>