<svg xmlns="http://www.w3.org/2000/svg" viewBox="0 0 115.96 107.22"><defs><style>.cls-1{fill:#4b1e0c;}.cls-2{fill:#3e1706;}.cls-3{fill:#692d1e;}.cls-4{fill:none;stroke:#42210b;stroke-miterlimit:10;stroke-width:2px;}</style></defs><title>Монтажная область 3</title><g id="Слой_4" data-name="Слой 4"><path class="cls-1" d="M113.5,51.4V6a.1.1,0,0,0-.17-.07l-58.16,52a.12.12,0,0,0,0,.08v45.75a.1.1,0,0,0,.17.07S113.5,51.43,113.5,51.4Z"/><path class="cls-2" d="M55.13,60.23v43.41a.27.27,0,0,1-.34.27c-3.77-1-38.44-4.42-48.14-30a24.63,24.63,0,0,1-1.53-8.15l.18-43.6C6,29.27,11.42,51,53.26,58L55.13,58Z"/><path class="cls-3" d="M112.27,4.51,6.86,19.75a2,2,0,0,0-1.69,2.11C5.65,28.51,10.52,51,53.59,58.09a3.26,3.26,0,0,0,2.7-.79L113.14,6.38A1.08,1.08,0,0,0,112.27,4.51Z"/><path class="cls-4" d="M113.5,51.4V6a.1.1,0,0,0-.17-.07l-58.16,52a.12.12,0,0,0,0,.08v45.75a.1.1,0,0,0,.17.07S113.5,51.43,113.5,51.4Z"/><path class="cls-4" d="M55.13,60.23v43.41a.27.27,0,0,1-.34.27c-3.77-1-38.44-4-48.14-29.58a24.63,24.63,0,0,1-1.53-8.15l.18-44C6,29.27,11.42,51,53.26,58L55.13,58Z"/><path class="cls-4" d="M112.27,4.51,6.86,19.75a2,2,0,0,0-1.69,2.11C5.65,28.51,10.52,51,53.59,58.09a3.26,3.26,0,0,0,2.7-.79L113.14,6.38A1.08,1.08,0,0,0,112.27,4.51Z"/></g></svg>