<svg xmlns="http://www.w3.org/2000/svg" viewBox="0 0 149.79 83.48"><defs><style>.cls-1{fill:#692d1e;}.cls-1,.cls-2{stroke:#42210b;stroke-miterlimit:10;stroke-width:2px;}.cls-2{fill:#4b1e0c;}.cls-3{opacity:0.5;}.cls-4{fill:#fff;}</style></defs><title>Монтажная область 10</title><g id="Слои"><ellipse class="cls-1" cx="75.58" cy="27.39" rx="71.25" ry="20"/><path class="cls-2" d="M4.33,59c0,11.05,31.9,20,71.25,20s71.25-9,71.25-20V27.39c0,11-31.9,20-71.25,20s-71.25-9-71.25-20Z"/><g class="cls-3"><path class="cls-4" d="M141.67,23.64a7.27,7.27,0,0,1-1.4,4.34A14.29,14.29,0,0,1,137,31.26a36.38,36.38,0,0,1-8.19,4.3A94.9,94.9,0,0,1,111,40.14a181.76,181.76,0,0,1-18.32,2q-9.18.51-18.39.21c3.07-.12,6.13-.2,9.18-.39s6.11-.34,9.16-.59c6.1-.49,12.18-1.13,18.2-2.16a101.47,101.47,0,0,0,17.75-4.32,35.91,35.91,0,0,0,8.17-4,13.87,13.87,0,0,0,3.34-3.05A7.45,7.45,0,0,0,141.67,23.64Z"/></g></g></svg>