<svg xmlns="http://www.w3.org/2000/svg" viewBox="0 0 115.96 107.22"><defs><style>.cls-1{fill:#6f4b3d;}.cls-2{fill:#654538;}.cls-3{fill:#87574b;}.cls-4{fill:none;stroke:#9f796f;stroke-miterlimit:10;stroke-width:2px;}</style></defs><title>Монтажная область 3 копия 2</title><g id="Слой_4" data-name="Слой 4"><path class="cls-1" d="M112.15,44.83V5.43a.1.1,0,0,0-.17-.07l-58.17,52a.08.08,0,0,0,0,.07v45.75a.1.1,0,0,0,.17.07l58.2-52S112.15,44.86,112.15,44.83Z"/><path class="cls-2" d="M53.78,59.63V103a.27.27,0,0,1-.35.27c-3.76-1-38.39-4-48.09-29.6a24.63,24.63,0,0,1-1.53-8.15l.13-44c.67,7.13,6.12,28.9,48,35.9l1.88-.07Z"/><path class="cls-3" d="M110.91,3.91,5.5,19.15a2,2,0,0,0-1.69,2.11C4.3,27.91,9.17,50.4,52.24,57.49a3.23,3.23,0,0,0,2.69-.79L111.79,5.78A1.08,1.08,0,0,0,110.91,3.91Z"/><path class="cls-4" d="M112.15,5.43a.1.1,0,0,0-.17-.07l-58.17,52a.08.08,0,0,0,0,.07v45.75a.1.1,0,0,0,.17.07l58.2-52S112.15,5.43,112.15,5.43Z"/><path class="cls-4" d="M53.78,59.63V103a.27.27,0,0,1-.35.27c-3.76-1-38.39-4-48.09-29.6a24.63,24.63,0,0,1-1.53-8.15l.13-44c.67,7.13,6.12,28.9,48,35.9l1.88-.07Z"/><path class="cls-4" d="M110.91,3.91,5.5,19.15a2,2,0,0,0-1.69,2.11C4.3,27.91,9.17,50.4,52.24,57.49a3.23,3.23,0,0,0,2.69-.79L111.79,5.78A1.08,1.08,0,0,0,110.91,3.91Z"/></g></svg>