<svg xmlns="http://www.w3.org/2000/svg" viewBox="0 0 144.5 73.61"><defs><style>.cls-1{fill:#87574b;}.cls-1,.cls-2{stroke:#9f796f;stroke-miterlimit:10;stroke-width:2px;}.cls-2{fill:#6f4b3d;}.cls-3{opacity:0.5;}.cls-4{fill:#fff;}</style></defs><title>Монтажная область 19</title><g id="Слои"><ellipse class="cls-1" cx="72.25" cy="21" rx="71.25" ry="20"/><path class="cls-2" d="M1,52.62c0,11,31.9,20,71.25,20s71.25-9,71.25-20V21c0,11-31.9,20-71.25,20S1,32,1,21Z"/><g class="cls-3"><path class="cls-4" d="M138.33,17.24a7.33,7.33,0,0,1-1.39,4.34,14.18,14.18,0,0,1-3.27,3.29,36.28,36.28,0,0,1-8.18,4.29,95.22,95.22,0,0,1-17.86,4.59,181.55,181.55,0,0,1-18.31,1.94q-9.19.51-18.39.22c3.06-.13,6.12-.21,9.18-.4s6.11-.34,9.16-.59c6.09-.49,12.18-1.13,18.2-2.16a101.47,101.47,0,0,0,17.75-4.32,36.11,36.11,0,0,0,8.17-4,14.23,14.23,0,0,0,3.34-3A7.5,7.5,0,0,0,138.33,17.24Z"/></g><ellipse class="cls-1" cx="72.25" cy="21" rx="71.25" ry="20"/><path class="cls-2" d="M1,52.62c0,11,31.9,20,71.25,20s71.25-9,71.25-20V21c0,11-31.9,20-71.25,20S1,32,1,21Z"/><g class="cls-3"><path class="cls-4" d="M138.33,17.24a7.33,7.33,0,0,1-1.39,4.34,14.18,14.18,0,0,1-3.27,3.29,36.28,36.28,0,0,1-8.18,4.29,95.22,95.22,0,0,1-17.86,4.59,181.55,181.55,0,0,1-18.31,1.94q-9.19.51-18.39.22c3.06-.13,6.12-.21,9.18-.4s6.11-.34,9.16-.59c6.09-.49,12.18-1.13,18.2-2.16a101.47,101.47,0,0,0,17.75-4.32,36.11,36.11,0,0,0,8.17-4,14.23,14.23,0,0,0,3.34-3A7.5,7.5,0,0,0,138.33,17.24Z"/></g></g></svg>