<svg xmlns="http://www.w3.org/2000/svg" viewBox="0 0 115.96 107.22"><defs><style>.cls-1{fill:#dcc992;}.cls-2{fill:#e8d9b9;}.cls-3{fill:#e2bc60;}.cls-4,.cls-5{fill:none;stroke-miterlimit:10;stroke-width:2px;}.cls-4{stroke:#d69055;}.cls-5{stroke:#9f796f;}</style></defs><title>Монтажная область 3 копия</title><g id="Слой_4" data-name="Слой 4"><path class="cls-1" d="M114,48.72l-.35-43.37s0,0,0,0L56.84,56.47a4.61,4.61,0,0,0-1.53,3.42v42.9a.3.3,0,0,0,.51.21l57-51.4A4.08,4.08,0,0,0,114,48.72Z"/><path class="cls-2" d="M112.45,4,8.05,19.11a3.06,3.06,0,0,0-2.59,3.41c1,7.83,7.56,28.69,49.34,35.24a1.07,1.07,0,0,0,.89-.26L113.32,5.89A1.08,1.08,0,0,0,112.45,4Z"/><path class="cls-3" d="M55.31,59.73v42.51a1,1,0,0,1-1.23.94C47.58,101.35,16,97.79,6.83,73.6A24.63,24.63,0,0,1,5.3,65.45l.18-43.8c.67,7.13,6.12,28.89,48,35.89A2.23,2.23,0,0,1,55.31,59.73Z"/><path class="cls-4" d="M114,48.72l-.35-43.37s0,0,0,0L56.84,56.47a4.61,4.61,0,0,0-1.53,3.42v42.9a.3.3,0,0,0,.51.21l57-51.4A4.08,4.08,0,0,0,114,48.72Z"/><path class="cls-4" d="M55.31,59.73v42.51a1,1,0,0,1-1.23.94C47.58,101.35,16,97.79,6.83,73.6A24.63,24.63,0,0,1,5.3,65.45l.18-43.8c.67,7.13,6.12,28.89,48,35.89A2.23,2.23,0,0,1,55.31,59.73Z"/><path class="cls-4" d="M112.45,4,8.05,19.11a3.06,3.06,0,0,0-2.59,3.41c1,7.83,7.56,28.69,49.34,35.24a1.07,1.07,0,0,0,.89-.26L113.32,5.89A1.08,1.08,0,0,0,112.45,4Z"/><path class="cls-5" d="M210.3,59.63V103a.27.27,0,0,1-.35.27c-3.76-1-38.38-4-48.09-29.6a24.88,24.88,0,0,1-1.53-8.15l.13-44c.67,7.13,6.12,28.9,48,35.9l1.88-.07Z"/></g></svg>