<svg xmlns="http://www.w3.org/2000/svg" viewBox="0 0 180 235.1"><defs><style>.cls-1{fill:#676d77;}.cls-2{fill:#bc4653;}.cls-3{fill:#e5e7eb;}.cls-4{fill:#ce5664;}.cls-5{fill:#cbcfd7;}</style></defs><title>NewМонтажная область 85</title><g id="Слои"><path class="cls-1" d="M29.39,3.67v191H22A18.38,18.38,0,0,0,3.67,213.06V22A18.38,18.38,0,0,1,22,3.67Z"/><path class="cls-2" d="M176.33,194.69v36.74h-14.7V194.69Z"/><path class="cls-3" d="M161.63,213.06v18.37H22a18.37,18.37,0,0,1,0-36.74H161.63Z"/><path class="cls-4" d="M29.39,3.67v191H176.33V3.67Z"/><path class="cls-5" d="M73.47,106.53h58.77v11H73.47Z"/><path class="cls-3" d="M122,44.08h10.28a18.37,18.37,0,1,1,0,36.74v25.71H73.47V80.82a18.37,18.37,0,0,1,0-36.74H83.79a22,22,0,0,1,38.17,0Z"/><path d="M22,235.1A22,22,0,0,1,22,191a3.68,3.68,0,0,1,0,7.35,14.7,14.7,0,0,0,0,29.39,3.67,3.67,0,1,1,0,7.34Z"/><path d="M176.33,198.37H22A3.68,3.68,0,0,1,22,191H176.33a3.68,3.68,0,0,1,0,7.35Z"/><path d="M176.33,235.1H22a3.67,3.67,0,1,1,0-7.34H176.33a3.67,3.67,0,0,1,0,7.34Z"/><path d="M3.67,25.71A3.67,3.67,0,0,1,0,22,22.07,22.07,0,0,1,22,0a3.68,3.68,0,0,1,0,7.35A14.71,14.71,0,0,0,7.35,22,3.67,3.67,0,0,1,3.67,25.71Z"/><path d="M3.67,216.73A3.67,3.67,0,0,1,0,213.06V22a3.68,3.68,0,0,1,7.35,0v191A3.67,3.67,0,0,1,3.67,216.73Z"/><path d="M176.33,7.35H22A3.68,3.68,0,0,1,22,0H176.33a3.68,3.68,0,0,1,0,7.35Z"/><path d="M176.33,198.37a3.68,3.68,0,0,1-3.68-3.68V3.67a3.68,3.68,0,0,1,7.35,0v191A3.67,3.67,0,0,1,176.33,198.37Z"/><path d="M176.33,235.1a3.67,3.67,0,0,1-3.68-3.67V194.69a3.68,3.68,0,0,1,7.35,0v36.74A3.67,3.67,0,0,1,176.33,235.1Z"/><path d="M29.39,198.37a3.68,3.68,0,0,1-3.68-3.68V3.67a3.68,3.68,0,0,1,7.35,0v191A3.67,3.67,0,0,1,29.39,198.37Z"/><path d="M161.63,216.74H22a3.67,3.67,0,1,1,0-7.34H161.63a3.67,3.67,0,1,1,0,7.34Z"/><path d="M161.63,235.1a3.67,3.67,0,0,1-3.67-3.67V194.69a3.68,3.68,0,0,1,7.35,0v36.74A3.67,3.67,0,0,1,161.63,235.1Z"/><path d="M73.48,84.49a22,22,0,0,1,0-44.09,3.68,3.68,0,0,1,0,7.35,14.7,14.7,0,0,0,0,29.39,3.68,3.68,0,0,1,0,7.35Z"/><path d="M124.91,58.77a3.67,3.67,0,0,1-3.68-3.67,18.37,18.37,0,1,0-36.73,0,3.68,3.68,0,0,1-7.35,0,25.72,25.72,0,1,1,51.43,0A3.67,3.67,0,0,1,124.91,58.77Z"/><path d="M132.25,84.49a3.68,3.68,0,0,1,0-7.35,14.7,14.7,0,0,0,0-29.39,3.68,3.68,0,0,1,0-7.35,22,22,0,0,1,0,44.09Z"/><path d="M83.78,47.75H73.48a3.68,3.68,0,1,1,0-7.35h10.3a3.68,3.68,0,0,1,0,7.35Z"/><path d="M132.25,47.75H122a3.68,3.68,0,1,1,0-7.35h10.3a3.68,3.68,0,0,1,0,7.35Z"/><path d="M73.48,121.22a3.68,3.68,0,0,1-3.68-3.68V80.81a3.68,3.68,0,1,1,7.35,0v36.73A3.67,3.67,0,0,1,73.48,121.22Z"/><path d="M132.26,121.22H73.48a3.68,3.68,0,1,1,0-7.35h58.78a3.68,3.68,0,0,1,0,7.35Z"/><path d="M132.26,110.2H73.48a3.67,3.67,0,1,1,0-7.34h58.78a3.67,3.67,0,1,1,0,7.34Z"/><path d="M132.26,121.22a3.67,3.67,0,0,1-3.68-3.68V80.81a3.68,3.68,0,1,1,7.35,0v36.73A3.67,3.67,0,0,1,132.26,121.22Z"/><path d="M143.26,143.26H62.47a3.68,3.68,0,1,1,0-7.35h80.79a3.68,3.68,0,1,1,0,7.35Z"/><path d="M143.26,154.28H62.47a3.67,3.67,0,1,1,0-7.34h80.79a3.67,3.67,0,1,1,0,7.34Z"/><path d="M124.9,165.4H80.83a3.68,3.68,0,0,1,0-7.35H124.9a3.68,3.68,0,0,1,0,7.35Z"/></g></svg>