<svg xmlns="http://www.w3.org/2000/svg" viewBox="0 0 243.19 253.55"><defs><style>.cls-1{fill:#f3d69e;}.cls-1,.cls-2,.cls-3,.cls-4{fill-rule:evenodd;}.cls-2{fill:#eebf61;}.cls-3{fill:#df6976;}.cls-4{fill:#f7e4bf;}</style></defs><title>NewМонтажная область 81</title><g id="Слои"><path class="cls-1" d="M188.24,74.08l9.64,5.34,4,2.19a6.42,6.42,0,0,0,.88.42A8.16,8.16,0,0,0,213,78.11a8.73,8.73,0,0,0-3.39-11.58l-1.78-1L203.29,63l-.82-.46-3.75-2.07-3.83-2.14-4.06-2.24-2.07-1.16a8.14,8.14,0,0,0-11.18,3.52A8.72,8.72,0,0,0,181,70l.15.09Z"/><path class="cls-2" d="M198.72,60.47l3.75,2.07.82.46,4.56,2.54,25.21-38.63c3.56-5.46,2.06-12.68-2.32-17.27a14,14,0,0,0-3.52-2.74c-5.77-3.21-13.29-2.09-17.35,2.74a11.37,11.37,0,0,0-2,3.31L190.83,56.08l4.06,2.25Z"/><path class="cls-3" d="M162.28,248.47c55.9,0,76-28.95,76-73.18V158.56c0-5.51-3.67-14.06-15.09-14.06H20a15.51,15.51,0,0,0-10.17,3.27,14.37,14.37,0,0,0-4.93,10.79v16.73c0,12.23,1.53,23.3,4.93,32.89,8.92,25.13,30.62,40.29,71.08,40.29Z"/><path class="cls-4" d="M114.88,180.4c0,16.89,19.47,16.59,21.7,4.49a9.15,9.15,0,0,0,.17-1.32,14.91,14.91,0,0,0,0-2c.66-9.35,9-10.25,13.65-6.24a8.6,8.6,0,0,1,3,6.45,7.8,7.8,0,0,0,2,5.18c4.61,5.27,15.7,4.79,15.7-7.41v-35H114.88Z"/><path d="M223.19,139.42H201.92c3.14-18.44,4.71-39.56,5.41-51.81a13.2,13.2,0,0,0,10-7.1,14,14,0,0,0,1-10.39,13.79,13.79,0,0,0-3.61-6l22.41-34.34a18.05,18.05,0,0,0,2.29-14.19,20.78,20.78,0,0,0-9.88-13.16,19.5,19.5,0,0,0-16.06-1.23A17.14,17.14,0,0,0,203.37,11L188.22,49.29a13,13,0,0,0-15,6.75,13.91,13.91,0,0,0-1,10.38,13.64,13.64,0,0,0,1.56,3.5c-14,12.58-44.08,40.83-53,58.07a66,66,0,0,0-4.66,11.42H82.79a5.09,5.09,0,0,0,0,10.18H110V180.4c0,7.31,3,13.24,8.38,16.26a15.59,15.59,0,0,0,7.66,2,15.84,15.84,0,0,0,8.75-2.62c4.69-3.12,7.2-8.35,6.92-14.42.34-3.55,2.19-3.49,2.9-3.47a3.9,3.9,0,0,1,3.89,3.68c.06,8.28,7.31,13.4,14,13.4h0c6.47,0,13.43-4.93,13.43-15.69V149.59h47.24c9.9,0,10.18,8,10.18,9v16.73c0,22.2-5.12,38.44-15.64,49.62-11.53,12.25-30.19,18.47-55.45,18.47H80.92c-25.27,0-43.92-6.22-55.46-18.47C14.93,213.72,9.81,197.49,9.81,175.29V158.56c0-.92.29-9,10.2-9H43.3a5.09,5.09,0,0,0,0-10.18H20c-14.68,0-20,11.46-20,19.15v16.73c0,51.93,27.22,78.26,80.92,78.26h81.36c53.69,0,80.91-26.33,80.91-78.26V158.56C243.19,150.87,237.86,139.42,223.19,139.42Zm-39.11,0c4.44-12,8.88-26,12.44-37.76-.92,11.54-2.37,25.41-4.57,37.76Zm-13,0H150.17c7.43-16.12,26.29-41.47,39.4-58.84L192.05,82c-3.84,13.46-11.32,38.71-18.51,57.46Zm41.4-124.54a7.21,7.21,0,0,1,4.35-4.12,9.84,9.84,0,0,1,8.11.62,10.46,10.46,0,0,1,5,6.64,7.67,7.67,0,0,1-.89,6L206.26,58.89l-9.21-5.12Zm-30.54,46a3.37,3.37,0,0,1,3-1.83,3.13,3.13,0,0,1,1.54.4l2.05,1.13,0,0L207.32,71a3.4,3.4,0,0,1,1.62,2.06,3.54,3.54,0,0,1-.24,2.62,3.3,3.3,0,0,1-4.55,1.43h0l-2.82-1.56-18.06-10a3.4,3.4,0,0,1-1.62-2.06A3.48,3.48,0,0,1,181.91,60.85Zm-52.43,72c6.5-12.58,28-34.44,48-52.68-14.5,19.35-32,43.63-38,59.3H126.55A58.3,58.3,0,0,1,129.48,132.8Zm36.66,46.74c0,3.66-1.23,5.51-3.64,5.52h0c-1.72,0-4.2-1.18-4.21-3.31v-.05A13.87,13.87,0,0,0,144.86,168c-6-.18-12.34,3.84-13,13.21a4.33,4.33,0,0,0,0,.72c.21,3.14-1.19,4.76-2.4,5.56a6.23,6.23,0,0,1-6.41.26c-2.71-1.53-3.28-4.83-3.28-7.33V149.59h46.35v29.95Z"/><path d="M63.05,149.59h.1a5.09,5.09,0,0,0,0-10.17h-.1a5.09,5.09,0,0,0,0,10.17Z"/></g></svg>