<svg xmlns="http://www.w3.org/2000/svg" viewBox="0 0 307.87 233.74"><defs><style>.cls-1{fill:#f0c92f;}.cls-2{fill:#eaac2e;}.cls-3{fill:#c52d39;}.cls-4{fill:#b00c3d;}.cls-5{fill:#f6e0b8;}.cls-6{fill:#f0c788;}.cls-7{fill:#fbf3a6;}.cls-8{fill:#edd3aa;}.cls-9{fill:#9b112e;}.cls-10{fill:#f8f2ea;}.cls-11{fill:#bee9fd;}.cls-12{fill:#98d6fc;}.cls-13{fill:#e4f8ff;}</style></defs><title>NewМонтажная область 68</title><g id="Слои"><path class="cls-1" d="M132.91,50.18c0,1.13-.06,2.25-.16,3.36h0a18.31,18.31,0,0,1,16.4,18.31,18.89,18.89,0,0,1-.17,2.51h41.49a38.88,38.88,0,0,0,15.38-31.08c0-21.41-17.12-38.77-38.25-38.77a38.4,38.4,0,0,0-37.52,31.15A38.69,38.69,0,0,1,132.91,50.18Z"/><path class="cls-2" d="M137.41,49.89A22.23,22.23,0,0,1,143,52.44a39.46,39.46,0,0,1-1.08-9.16A38.62,38.62,0,0,1,173.87,5,38,38,0,0,0,132,29.15,43.46,43.46,0,0,1,137.41,49.89Z"/><path class="cls-3" d="M87.65,60.7a18,18,0,0,1,28.89,0A18,18,0,0,1,131,53.45a17.53,17.53,0,0,1,1.78.09c.09-1.11.15-2.23.15-3.36a40.07,40.07,0,0,0-26.45-37.29,9.67,9.67,0,0,0-3.31-.59,9.57,9.57,0,0,0-3.3.59A40.05,40.05,0,0,0,73.4,50.18c0,1.1,0,2.2.14,3.28A18.05,18.05,0,0,1,87.65,60.7Z"/><path class="cls-3" d="M87.65,60.7a18,18,0,0,1,28.89,0A18,18,0,0,1,131,53.45a17.53,17.53,0,0,1,1.78.09c.09-1.11.15-2.23.15-3.36a40.07,40.07,0,0,0-26.45-37.29,9.67,9.67,0,0,0-3.31-.59,9.57,9.57,0,0,0-3.3.59A40.05,40.05,0,0,0,73.4,50.18c0,1.1,0,2.2.14,3.28A18.05,18.05,0,0,1,87.65,60.7Z"/><path class="cls-4" d="M86.11,47.41a4.5,4.5,0,0,1,1.59-8.52,39.36,39.36,0,0,1,3.58-8.2,4.3,4.3,0,0,1-.16-1.14,4.51,4.51,0,0,1,4.08-4.49,40.62,40.62,0,0,1,14.26-10.93c-1-.45-2-.87-3-1.24a9.58,9.58,0,0,0-6.62,0A40.06,40.06,0,0,0,73.4,50.18c0,1.1,0,2.2.14,3.28a18,18,0,0,1,13.85,6.91A38.48,38.48,0,0,1,86,50.18C86,49.25,86,48.33,86.11,47.41Z"/><path class="cls-5" d="M149,74.36a18.89,18.89,0,0,0,.17-2.51A18.28,18.28,0,0,0,131,53.45a18,18,0,0,0-14.44,7.25,18,18,0,0,0-28.89,0,18,18,0,0,0-14.44-7.25,18.27,18.27,0,0,0-18.15,18.4,18.89,18.89,0,0,0,.17,2.51Z"/><path class="cls-6" d="M67.85,74.36a18.89,18.89,0,0,1-.17-2.51A18.39,18.39,0,0,1,79.52,54.6a17.84,17.84,0,0,0-6.31-1.15,18.28,18.28,0,0,0-18.15,18.4,18.89,18.89,0,0,0,.17,2.51Z"/><path class="cls-7" d="M255,184.9V95.76c-.27,0-.55,0-.83,0H68.52a4.46,4.46,0,0,0-4.42,4.49V184.9Z"/><path class="cls-8" d="M64.4,127.45H255v15.09H64.4Z"/><path class="cls-7" d="M64.4,142.54H255V184.9H64.4Z"/><path class="cls-3" d="M80.29,162a23,23,0,0,0-15.89,6.58V184.9h40.32C102.35,171.84,92.31,162,80.29,162Z"/><path class="cls-9" d="M64.4,168.61V184.9h4.06c1.94-10.69,9-19.21,18.13-21.94a21.73,21.73,0,0,0-6.3-.93A23,23,0,0,0,64.4,168.61Z"/><path class="cls-3" d="M154.64,184.9c-2.36-13.06-12.4-22.87-24.43-22.87s-22.07,9.81-24.43,22.87Z"/><path class="cls-9" d="M118.39,184.9c1.94-10.69,9-19.21,18.13-21.94a21.75,21.75,0,0,0-6.31-.93c-12,0-22.07,9.81-24.43,22.87Z"/><path class="cls-3" d="M204.57,184.9C202.2,171.84,192.17,162,180.14,162s-22.07,9.81-24.43,22.87Z"/><path class="cls-9" d="M168.3,184.9c1.94-10.7,9-19.22,18.13-22a22,22,0,0,0-6.29-.92c-12,0-22.07,9.81-24.43,22.87Z"/><path class="cls-3" d="M254.5,184.9C252.13,171.84,242.09,162,230.07,162S208,171.84,205.63,184.9Z"/><path class="cls-9" d="M218.21,184.9c1.94-10.7,9-19.22,18.14-22a21.88,21.88,0,0,0-6.28-.92c-12,0-22.07,9.81-24.44,22.87Z"/><path class="cls-10" d="M64.4,184.9V100.29a4.15,4.15,0,0,1,4.12-4.18H254.2a10.88,10.88,0,0,0,0-21.75H53.67A10.74,10.74,0,0,0,43,84.12a10.18,10.18,0,0,0-.06,1.11V184.9Z"/><path class="cls-5" d="M55.32,184.9V85.23a10.18,10.18,0,0,1,.06-1.11,10.73,10.73,0,0,1,10.67-9.76H53.67A10.74,10.74,0,0,0,43,84.12a10.18,10.18,0,0,0-.06,1.11V184.9Z"/><path class="cls-11" d="M37.22,202.42l9.64,21.33a10.14,10.14,0,0,0,8.48,5.48H252.53a10.14,10.14,0,0,0,8.49-5.48l9.64-21.33Z"/><path class="cls-12" d="M65.77,223.75l-9.64-21.33H37.22l9.64,21.33a10.14,10.14,0,0,0,8.48,5.48H74.26A10.17,10.17,0,0,1,65.77,223.75Z"/><path class="cls-13" d="M303.36,196.71a6,6,0,0,1-6,6H10.52a6,6,0,0,1-6-6v-5.79a6,6,0,0,1,6-6H297.35a6,6,0,0,1,6,6Z"/><path class="cls-11" d="M28.86,196.71v-5.79a6,6,0,0,1,6-6H10.52a6,6,0,0,0-6,6v5.79a6,6,0,0,0,6,6H34.88A6,6,0,0,1,28.86,196.71Z"/><path d="M178,39.06a4.51,4.51,0,1,0,0-9H157.14a4.51,4.51,0,1,0,0,9Z"/><path d="M148,49.53A4.5,4.5,0,0,0,152.5,54h30.15a4.51,4.51,0,0,0,0-9H152.5A4.51,4.51,0,0,0,148,49.53Z"/><path d="M297.35,180.39H259.54V99.64a15.4,15.4,0,0,0-5.34-29.79H201.37a43.45,43.45,0,0,0,7-13.58,4.51,4.51,0,1,0-8.61-2.67,34.2,34.2,0,0,1-10.84,16.25H153.55a22.9,22.9,0,0,0-16.14-20,43.38,43.38,0,0,0-2.65-14.59,33.63,33.63,0,0,1,65.43-.87,4.51,4.51,0,1,0,8.72-2.29A42.59,42.59,0,0,0,129,24.57,45.16,45.16,0,0,0,108,8.65a14.24,14.24,0,0,0-9.72,0A44.63,44.63,0,0,0,68.9,49.36a22.88,22.88,0,0,0-18.29,20.8,15.26,15.26,0,0,0-12.1,13.51c0,.52-.08,1-.08,1.56v95.16H10.52A10.54,10.54,0,0,0,0,190.92v5.79a10.53,10.53,0,0,0,10.52,10.52H34.44l8.31,18.38a14.6,14.6,0,0,0,12.59,8.13H252.53a14.6,14.6,0,0,0,12.6-8.13l8.31-18.38h23.91a10.53,10.53,0,0,0,10.52-10.52v-5.79A10.54,10.54,0,0,0,297.35,180.39Zm-196-163.27a5.06,5.06,0,0,1,1.76-.31,5,5,0,0,1,1.75.31,35.58,35.58,0,0,1,23.47,32,22.33,22.33,0,0,0-11.83,5.09,22.53,22.53,0,0,0-28.89,0,22.27,22.27,0,0,0-9.73-4.74A35.58,35.58,0,0,1,101.39,17.12ZM73.21,58a13.48,13.48,0,0,1,10.84,5.46,4.53,4.53,0,0,0,7.21,0,13.48,13.48,0,0,1,21.67,0,4.53,4.53,0,0,0,7.21,0A13.48,13.48,0,0,1,131,58a13.75,13.75,0,0,1,13.5,11.89H59.71A13.76,13.76,0,0,1,73.21,58ZM47.45,85.23a4.78,4.78,0,0,1,0-.66,6.24,6.24,0,0,1,6.18-5.7H254.2a6.37,6.37,0,0,1,0,12.73H105.83a4.51,4.51,0,0,0,0,9H250.52v22.32H68.91V100.62H84.18a4.51,4.51,0,0,0,0-9H68.52a8.66,8.66,0,0,0-8.63,8.69v80.1H47.45Zm182.62,72.29c-10.51,0-19.75,6.25-25,15.63-5.22-9.38-14.45-15.63-25-15.63s-19.75,6.25-25,15.63c-5.22-9.38-14.46-15.63-25-15.63s-19.74,6.25-25,15.63c-5.22-9.38-14.46-15.63-25-15.63a26.42,26.42,0,0,0-11.37,2.58v-13H250.52v19.83A27.69,27.69,0,0,0,230.07,157.52Zm18.46,22.87H211.6c3.29-8.18,10.33-13.85,18.47-13.85S245.24,172.21,248.53,180.39Zm-49.93,0H161.67c3.3-8.18,10.33-13.85,18.47-13.85S195.31,172.21,198.6,180.39Zm-49.92,0H111.75c3.29-8.18,10.33-13.85,18.46-13.85S145.38,172.21,148.68,180.39Zm-49.93,0H68.91v-9.72a18.13,18.13,0,0,1,11.38-4.13C88.42,166.54,95.46,172.21,98.75,180.39ZM68.91,138V132H250.52V138Zm229.94,58.68a1.52,1.52,0,0,1-1.5,1.5H232.71a4.51,4.51,0,0,0,0,9h30.83l-6.63,14.67a5.73,5.73,0,0,1-4.38,2.82H55.34A5.73,5.73,0,0,1,51,221.9l-6.63-14.67H211.66a4.51,4.51,0,0,0,0-9H10.52a1.52,1.52,0,0,1-1.5-1.5v-5.79a1.53,1.53,0,0,1,1.5-1.51H297.35a1.52,1.52,0,0,1,1.5,1.51Z"/><path d="M108.27,156a4.51,4.51,0,1,1-4.51-4.51A4.51,4.51,0,0,1,108.27,156Z"/><path d="M161.49,156a4.51,4.51,0,1,1-4.51-4.51A4.51,4.51,0,0,1,161.49,156Z"/><path d="M210.8,156a4.51,4.51,0,1,1-4.51-4.51A4.51,4.51,0,0,1,210.8,156Z"/><path d="M100.14,29.55A4.51,4.51,0,1,1,95.63,25,4.5,4.5,0,0,1,100.14,29.55Z"/><path d="M115.18,29.55A4.51,4.51,0,1,1,110.67,25,4.51,4.51,0,0,1,115.18,29.55Z"/><path d="M122.69,43.38a4.51,4.51,0,1,1-4.51-4.51A4.51,4.51,0,0,1,122.69,43.38Z"/><path d="M92.63,43.38a4.51,4.51,0,1,1-4.51-4.51A4.51,4.51,0,0,1,92.63,43.38Z"/><path d="M107.66,43.38a4.51,4.51,0,1,1-4.51-4.51A4.51,4.51,0,0,1,107.66,43.38Z"/></g></svg>