<svg xmlns="http://www.w3.org/2000/svg" viewBox="0 0 296.8 296.8"><defs><style>.cls-1{fill:#b53333;}.cls-2{fill:#fff;}.cls-3{fill:#e4e4e4;}</style></defs><title>NewМонтажная область 69</title><g id="Слои"><path d="M296.8,54a27,27,0,0,0-27-27H229.35V6.75a6.75,6.75,0,1,0-13.49,0V27H94.44V6.75A6.75,6.75,0,1,0,81,6.75V27H27A27,27,0,0,0,0,54V269.82a27,27,0,0,0,27,27H222.6a6.73,6.73,0,0,0,4.77-2l67.46-67.46a6.53,6.53,0,0,0,1.71-4.77h.26V54Z"/><path class="cls-1" d="M27,40.47H81V54a13.5,13.5,0,1,0,13.49,13.5v-27H215.86V54a13.5,13.5,0,1,0,13.49,13.5v-27h40.47A13.5,13.5,0,0,1,283.31,54V94.44H13.49V54A13.51,13.51,0,0,1,27,40.47Z"/><path class="cls-2" d="M215.86,242.84v40.47H27a13.5,13.5,0,0,1-13.49-13.49V107.93H283.31V215.86H242.84A27,27,0,0,0,215.86,242.84Z"/><path class="cls-3" d="M229.35,273.77V242.84a13.5,13.5,0,0,1,13.49-13.49h30.93Z"/><path d="M121.42,148.4a27,27,0,0,0-27,27,6.75,6.75,0,1,0,13.49,0,13.49,13.49,0,1,1,13.49,13.49,6.75,6.75,0,0,0,0,13.5,13.49,13.49,0,1,1-13.49,13.49,6.75,6.75,0,1,0-13.49,0,27,27,0,1,0,44.81-20.24,27,27,0,0,0-17.83-47.22Z"/><path d="M182.13,148.4h0l-13.47,0a6.75,6.75,0,0,0,0,13.49h6.73v74.19a6.75,6.75,0,1,0,13.49,0V155.15a6.74,6.74,0,0,0-6.74-6.75Z"/></g></svg>