<svg xmlns="http://www.w3.org/2000/svg" viewBox="0 0 325.66 325.76"><defs><style>.cls-1{fill:#f1d0a4;}.cls-2{fill:#f7e585;}.cls-3{fill:#cd7185;}</style></defs><title>NewМонтажная область 82</title><g id="Слои"><path class="cls-1" d="M312.21,146.4a19,19,0,0,0-26.78,2.25l-43.51,44.72H242a19.45,19.45,0,0,0-18.67-14H151.25A76.07,76.07,0,0,0,120.7,173c-30.1,0-56.13,14.59-68.56,42.24l57.51,57.23.11-.09,9.9-9.55a25.44,25.44,0,0,1,17.67-7.14H222.1a50.69,50.69,0,0,0,35.34-14.35l57-68.18A19,19,0,0,0,312.21,146.4Z"/><path class="cls-2" d="M253,70A63.61,63.61,0,1,1,189.39,6.36,63.61,63.61,0,0,1,253,70Z"/><path class="cls-3" d="M108.43,289.05,77.62,319.4l-71.42-72,30.26-30.34a12.72,12.72,0,0,1,18,0l54,54A12.73,12.73,0,0,1,108.43,289.05Z"/><path d="M149.7,221a6.36,6.36,0,1,0-9,0A6.36,6.36,0,0,0,149.7,221Z"/><path d="M119.58,70a70,70,0,1,0,70-70A70.05,70.05,0,0,0,119.58,70ZM246.8,70a57.25,57.25,0,1,1-57.25-57.25A57.32,57.32,0,0,1,246.8,70Z"/><path d="M73.27,323.88a6.36,6.36,0,0,0,9,.05l30.84-30.38a19.23,19.23,0,0,0,4.53-19.74l6.63-6.4a19,19,0,0,1,13.25-5.35h84.56A57,57,0,0,0,262,245.84c.44-.43-3.36,4,57.68-68.91a25.44,25.44,0,0,0-38.71-33l-37.54,38.58A25.56,25.56,0,0,0,223.64,173H152.71a82.17,82.17,0,0,0-31.86-6.36c-30.62,0-57.37,14.15-71.72,40.67a19,19,0,0,0-17,5.28L1.86,242.94a6.37,6.37,0,0,0,0,9Zm47.58-144.51a69.35,69.35,0,0,1,28,5.83,6.45,6.45,0,0,0,2.55.54h72.24a12.72,12.72,0,1,1,0,25.44h-51.9a6.36,6.36,0,1,0,0,12.72h51.9a25.47,25.47,0,0,0,25.44-25.44,26.35,26.35,0,0,0-.22-3.33c36.3-37.32,41.42-42.57,41.64-42.83a12.73,12.73,0,1,1,19.43,16.44l-57.05,68.2a44.28,44.28,0,0,1-30.83,12.4H137.49a31.61,31.61,0,0,0-22.08,8.92L110,263.48,60.17,213.65C71.82,191.8,93.67,179.37,120.85,179.37ZM41.12,221.58a6.35,6.35,0,0,1,7.87-.89c1.1.67-2.06-2.21,55.1,54.87a6.37,6.37,0,0,1,0,9l-26.29,25.9-62.5-63Z"/><path d="M181.76,32v7.26A19.08,19.08,0,0,0,188,76.33,6.47,6.47,0,0,1,194.44,82a6.37,6.37,0,0,1-6.32,7.1c-2.69,0-5.58-1.67-8.17-4.7a6.47,6.47,0,0,0-8.18-1.51,6.38,6.38,0,0,0-1.65,9.59,26.39,26.39,0,0,0,11.64,8.28v7.22a6.5,6.5,0,0,0,5.41,6.5,6.37,6.37,0,0,0,7.31-6.3v-7.45a19.08,19.08,0,0,0-6.25-37.07A6.47,6.47,0,0,1,181.8,58a6.37,6.37,0,0,1,6.32-7.09c2.2,0,4.52,1.09,6.73,3.18a6.53,6.53,0,0,0,8.32.71,6.36,6.36,0,0,0,.68-9.71,24.59,24.59,0,0,0-9.37-5.86v-7.4a6.37,6.37,0,0,0-7.31-6.3A6.49,6.49,0,0,0,181.76,32Z"/></g></svg>