<svg xmlns="http://www.w3.org/2000/svg" viewBox="0 0 251.23 249.29"><defs><style>.cls-1{fill:#f4d891;}.cls-1,.cls-2,.cls-3{fill-rule:evenodd;}.cls-2{fill:#eebf50;}.cls-3{fill:#b58867;}</style></defs><title>NewМонтажная область 78</title><g id="Слои"><path class="cls-1" d="M96.52,34c6.65,5.94,10.12,13.54,14.22,25.46,3.06,8.89,6.82,9.5,10.9,10.16,5.79.94,11.86,1.93,18.59,7.9,5.21,4.63,6.51,10.3,7.92,16.5.91,4,1.9,8.36,4.38,10.75,4.74,4.57,9.55,5.6,13.87,6.53,7,1.51,13.29,2.86,19.47,10.49,4.93,6.09,6.12,10.79,7.24,15.2.72,2.83,1.38,5.41,5.65,8.37a44.66,44.66,0,0,0,8.27,4.26c10.21,4.35,17.95,7.64,23.11,29.4a9.62,9.62,0,0,1,.19,3.41,56.13,56.13,0,0,1,9,11.47c27.65-39.11-33.07-74.09-69-108.54S97.38-19.45,55.86,13.45a94.54,94.54,0,0,1,12.72,9.16C81.9,25.21,90.11,28.24,96.52,34Z"/><path class="cls-2" d="M110.74,59.42C106.64,47.5,103.17,39.9,96.52,34c-6.41-5.72-14.62-8.75-27.94-11.35l-1-.19A9.76,9.76,0,0,0,64,41.61c10.29,2,16.1,3.8,19.55,6.88s5.66,8.4,8.71,17.27c6.86,19.93,16.17,21.45,26.26,23.08,3.09.5,6.32,1,8.81,3.24.5.44,1.12,3.18,1.81,6.18,1.53,6.71,3.21,14.09,9.88,20.53,8.75,8.45,16.44,10.1,23.35,11.58,3.45.74,6.54,1.41,8.38,3.69a18.28,18.28,0,0,1,3.43,7.71c1.65,6.49,3.16,12.43,13.52,19.6a60.71,60.71,0,0,0,11.71,6.18c5,2.13,8.82,3.76,11.71,15.94a9.78,9.78,0,0,0,19.23-1.1,9.62,9.62,0,0,0-.19-3.41c-5.16-21.75-12.9-25-23.11-29.4a44.66,44.66,0,0,1-8.27-4.26c-4.27-3-4.93-5.54-5.65-8.37-1.12-4.41-2.31-9.11-7.24-15.2-6.18-7.63-12.45-9-19.47-10.49-4.32-.93-9.13-2-13.87-6.53-2.48-2.39-3.47-6.77-4.38-10.75-1.41-6.2-2.71-11.87-7.92-16.5-6.73-6-12.8-7-18.59-7.9-4.08-.66-7.84-1.27-10.9-10.16Z"/><path class="cls-3" d="M92.24,65.76c-3-8.87-5.34-14.26-8.71-17.27S74.27,43.56,64,41.61a9.76,9.76,0,0,1,3.59-19.19l1,.19a93.66,93.66,0,0,0-12.72-9.16A45.64,45.64,0,0,0,48.56,10C11.75-3.27.34,36.94,11.67,57.75a31.35,31.35,0,0,1,7.16-6.2c17.72-11.37,33-3.81,55.07,23.84,32.36,40.54,67.67,74.44,109.52,108.68,20.93,17.13,25.77,38.36,16.87,50.53,21.34,15.46,57-9.7,39-40.74a56.13,56.13,0,0,0-9-11.47,9.78,9.78,0,0,1-19.23,1.1c-2.89-12.18-6.69-13.81-11.71-15.94a60.71,60.71,0,0,1-11.71-6.18c-10.36-7.17-11.87-13.11-13.52-19.6a18.28,18.28,0,0,0-3.43-7.71c-1.84-2.28-4.93-2.95-8.38-3.69-6.91-1.48-14.6-3.13-23.35-11.58-6.67-6.44-8.35-13.82-9.88-20.53-.69-3-1.31-5.74-1.81-6.18-2.49-2.21-5.72-2.74-8.81-3.24-10.09-1.63-19.4-3.15-26.26-23.08Z"/><path class="cls-1" d="M183.42,184.07C141.57,149.83,106.26,115.93,73.9,75.39,51.84,47.74,36.55,40.18,18.83,51.55a31.35,31.35,0,0,0-7.16,6.2c-37.59,44.74,90.61,174.55,156.42,185.82,15.72,2.69,26.64-1.37,32.2-9,8.9-12.17,4.06-33.4-16.87-50.53Z"/><path d="M245,194.11c4.68-7.56,6.73-15.46,6.08-23.52-.63-7.9-3.75-15.87-9.53-24.38-10.2-15-27.27-29.39-43.78-43.29-8.28-7-16.83-14.17-24.11-21.14-8.5-8.15-17-18.25-25.95-28.94-14-16.7-28.5-34-43.72-44C95.35,3.16,87.23.27,79.18,0S63.06,2.33,55.46,7.65a44.66,44.66,0,0,0-5.23-2.28C29-2.27,17.08,6.75,11.85,12.81,2.16,24.05-.21,43,6,57.19.24,65.56-1.4,76.43,1.21,89.3,6.7,116.38,31.54,153,67.65,187.17a338.72,338.72,0,0,0,51.26,40.31c18.09,11.37,34.81,18.61,48.35,20.93a59.55,59.55,0,0,0,10,.88c10,0,18.31-2.91,24-8.35a29.38,29.38,0,0,0,13.56,3.27,35.64,35.64,0,0,0,26.47-12.43A32.41,32.41,0,0,0,249,207.83a38.28,38.28,0,0,0-4-13.72ZM61,31.12a4.86,4.86,0,0,1,4.76-4,4.56,4.56,0,0,1,.9.08c13.85,2.62,21.06,5.44,26.6,10.38,5.81,5.2,9,12.23,12.84,23.39,3.71,10.78,9.09,12.5,14.75,13.41s10.46,1.7,16.12,6.73c4,3.58,5.08,8.15,6.4,13.92,1,4.59,2.22,9.78,5.75,13.19,5.75,5.54,11.57,6.8,16.25,7.8,6.73,1.45,11.59,2.49,16.68,8.78,4.26,5.25,5.25,9.17,6.31,13.32.81,3.2,1.82,7.19,7.61,11.19a48.75,48.75,0,0,0,9.14,4.75c9.77,4.16,15.67,6.67,20.25,26a4.87,4.87,0,1,1-9.48,2.24c-3.22-13.54-8.07-16.55-14.57-19.32a55.85,55.85,0,0,1-10.84-5.69c-8.85-6.13-10-10.6-11.56-16.78a22.82,22.82,0,0,0-4.36-9.59c-2.94-3.63-7.31-4.57-11.17-5.39-6.5-1.4-13.23-2.85-21-10.32-5.62-5.42-7-11.58-8.51-18.11-1.17-5.13-1.66-7.25-3.33-8.74-3.56-3.16-7.84-3.85-11.28-4.41-9.58-1.55-16.51-2.68-22.41-19.83-3.4-9.9-5.9-15.6-10.08-19.34-4.61-4.12-11.8-6.13-21.91-8h0A4.86,4.86,0,0,1,61,31.12Zm79.23,28C149,69.57,158,80.34,166.9,88.86c7.51,7.2,16.18,14.5,24.57,21.57,35,29.46,57.79,51.22,47.49,74.26q-1.69-2.13-3.67-4.23a14.78,14.78,0,0,0-.38-2.62c-5.73-24.16-15.1-28.15-26-32.77a39.77,39.77,0,0,1-7.39-3.79c-2.77-1.91-3.06-3.05-3.69-5.54a39.67,39.67,0,0,0-8.19-17.08c-7.27-9-14.88-10.61-22.25-12.19-4-.86-7.76-1.67-11.49-5.27-1.43-1.38-2.3-5.22-3-8.31-1.5-6.59-3.05-13.41-9.45-19.08-7.79-6.92-15.15-8.11-21.06-9.07-3.39-.55-4.94-.8-7-6.92C111,45.09,107.22,36.93,99.79,30.3S82.7,20.44,70.75,18q-3.14-2.57-6-4.64C88.28.54,110.32,23.51,140.23,59.15Zm93.58,166.27c-6.22,7.32-17.34,11.47-26.83,7.37,7-15.66-1.17-36.74-20.45-52.52-42-34.34-74.75-66.43-103.16-101a4.91,4.91,0,0,0-7.58,6.23c28.83,35.08,62,67.6,104.52,102.36,18.2,14.89,21.92,31.69,17.68,41-4,8.74-14.59,12.34-29.07,9.86-24.51-4.2-60.73-26.69-94.52-58.7-34.7-32.86-58.46-67.51-63.57-92.69-3-14.79.48-25.15,10.65-31.67,8.69-5.58,16.1-5.73,24.76-.52a4.91,4.91,0,1,0,5.06-8.41c-11.83-7.12-23.32-6.9-35.12.66-.92.59-1.79,1.21-2.63,1.85-2.79-10.24-.67-22.62,5.74-30C25.55,12,35.1,10.35,46.9,14.6a47.37,47.37,0,0,1,10.31,5.51,14.66,14.66,0,0,0,5.87,26.32c9.72,1.84,14.7,3.5,17.18,5.72s4.62,7.3,7.34,15.21C95.41,90.07,107.26,92,117.72,93.69a16.21,16.21,0,0,1,5.61,1.54c.3,1,.71,2.83,1,4.12,1.58,6.92,3.54,15.52,11.26,23,9.76,9.42,18.61,11.32,25.73,12.85,2.49.54,4.84,1,5.6,2A13.75,13.75,0,0,1,169.4,143c1.78,7,3.61,14.21,15.49,22.43a65,65,0,0,0,12.57,6.65c4.36,1.86,6.55,2.79,8.87,12.56a14.72,14.72,0,0,0,14.26,11.31,15.35,15.35,0,0,0,3.42-.4,14.67,14.67,0,0,0,7.5-4.44c9.54,12.18,10.5,24.7,2.3,34.33Z"/><path d="M65.45,60.53h0a4.91,4.91,0,1,0,4.91,4.9A4.9,4.9,0,0,0,65.44,60.53Z"/></g></svg>