<svg xmlns="http://www.w3.org/2000/svg" viewBox="0 0 273.22 165.39"><defs><style>.cls-1{fill:#acd467;}.cls-2{fill:#bfeb78;}.cls-3{fill:#d3f19e;}.cls-4{fill:#a0c45e;}</style></defs><title>NewМонтажная область 84</title><g id="Слои"><path class="cls-1" d="M264.57,0H35.34a8.66,8.66,0,0,0-8.66,8.65V128.39A8.66,8.66,0,0,0,35.34,137H264.57a8.65,8.65,0,0,0,8.65-8.65V8.65A8.65,8.65,0,0,0,264.57,0Z"/><path class="cls-2" d="M237.89,28.35H8.65A8.65,8.65,0,0,0,0,37V156.74a8.65,8.65,0,0,0,8.65,8.65H237.89a8.65,8.65,0,0,0,8.65-8.65V37A8.65,8.65,0,0,0,237.89,28.35Z"/><path class="cls-3" d="M237.89,28.35H8.65A8.65,8.65,0,0,0,0,37v76.45c33.51,6.56,76.94,7.18,123.27-12.8,53.05-22.88,95.16-24.87,123.27-21.57V37a8.65,8.65,0,0,0-8.65-8.65Z"/><path class="cls-4" d="M101.32,74.91a31.05,31.05,0,1,0,43.91,0,31,31,0,0,0-43.91,0Z"/><path class="cls-4" d="M52.47,28.35H8.65A8.65,8.65,0,0,0,0,37V80.82a8.65,8.65,0,0,0,8.65,8.65A52.53,52.53,0,0,0,61.12,37,8.65,8.65,0,0,0,52.47,28.35Z"/><path class="cls-4" d="M237.89,28.35H194.07A8.65,8.65,0,0,0,185.42,37a52.53,52.53,0,0,0,52.47,52.47,8.65,8.65,0,0,0,8.65-8.65V37A8.65,8.65,0,0,0,237.89,28.35Z"/><path class="cls-4" d="M237.89,104.27a52.53,52.53,0,0,0-52.47,52.47,8.65,8.65,0,0,0,8.65,8.65h43.82a8.65,8.65,0,0,0,8.65-8.65V112.92a8.65,8.65,0,0,0-8.65-8.65Z"/><path class="cls-4" d="M8.65,104.27A8.65,8.65,0,0,0,0,112.92v43.82a8.65,8.65,0,0,0,8.65,8.65H52.47a8.65,8.65,0,0,0,8.65-8.65A52.53,52.53,0,0,0,8.65,104.27Z"/><path d="M264.57,0H35.34a8.66,8.66,0,0,0-8.66,8.65v19.7h-18A8.65,8.65,0,0,0,0,37V156.74a8.65,8.65,0,0,0,8.65,8.65H237.89a8.65,8.65,0,0,0,8.65-8.65V137h18a8.65,8.65,0,0,0,8.65-8.65V8.65A8.65,8.65,0,0,0,264.57,0ZM186.14,45.66a52.59,52.59,0,0,0,43.1,43.09V105a52.59,52.59,0,0,0-43.1,43.09H60.4A52.59,52.59,0,0,0,17.31,105V88.75A52.59,52.59,0,0,0,60.4,45.66Zm43.1,25.43A35.31,35.31,0,0,1,203.8,45.66h25.44ZM17.31,45.66H42.74A35.28,35.28,0,0,1,17.31,71.09Zm0,102.42V122.65a35.29,35.29,0,0,1,25.43,25.43Zm211.93,0H203.8a35.32,35.32,0,0,1,25.44-25.43Zm26.68-28.35h-9.38V37a8.65,8.65,0,0,0-8.65-8.65H44v-11H255.92Z"/><path d="M123.27,127.91a31,31,0,1,0-31-31,31,31,0,0,0,31.05,31Zm-9.72-40.76a13.75,13.75,0,1,1,0,19.44A13.74,13.74,0,0,1,113.55,87.15Z"/></g></svg>