<svg xmlns="http://www.w3.org/2000/svg" viewBox="0 0 208.41 208.41"><defs><style>.cls-1{fill:#e4b77f;}.cls-2{fill:#d57e38;}.cls-3{fill:#c36a29;}</style></defs><title>NewМонтажная область 73</title><g id="Слои"><path class="cls-1" d="M48.63,166.73l6.15,6.15A62,62,0,0,0,98.63,191h0a41.35,41.35,0,0,1,22.94,7h0a41.37,41.37,0,0,0,22.94,6.94h8.32a52.09,52.09,0,0,0,52.1-52.1v-8.31a41.38,41.38,0,0,0-6.94-23h0a41.35,41.35,0,0,1-7-22.94V72.94a24.31,24.31,0,0,0-24.31-24.31h-6.95v-7a13.89,13.89,0,0,0-13.9-13.89H111.15l-2.21-2.21A75.48,75.48,0,0,0,55.58,3.47h0A52.11,52.11,0,0,0,3.47,55.58v38.2A24.32,24.32,0,0,0,27.79,118.1h0v27.79a13.89,13.89,0,0,0,13.89,13.89h7Z"/><rect class="cls-2" x="40.34" y="84.56" width="127.72" height="39.3" transform="translate(-43.16 104.2) rotate(-45)"/><path class="cls-3" d="M142.41,52.1l3.47-3.47h0a26.59,26.59,0,0,0,20.85-20.84h0l7.54-7.54a9.79,9.79,0,0,1,6.95-2.88h0A9.82,9.82,0,0,1,191,27.19h0a9.83,9.83,0,0,1-2.88,7l-7.54,7.54h0a26.57,26.57,0,0,0-20.84,20.84h0L156.31,66Z"/><path class="cls-3" d="M66,156.31l-3.48,3.47h0a26.56,26.56,0,0,0-20.84,20.84h0l-7.54,7.54A9.79,9.79,0,0,1,27.19,191h0a9.82,9.82,0,0,1-9.82-9.82h0a9.82,9.82,0,0,1,2.87-6.95l7.55-7.54h0a26.6,26.6,0,0,0,20.84-20.84h0l3.47-3.48Z"/><rect x="79.73" y="30.83" width="10.74" height="6.95" rx="3.47" transform="translate(-5.78 21.67) rotate(-14.04)"/><path d="M194.51,98.63V72.94A27.82,27.82,0,0,0,176.1,46.79a23,23,0,0,1,5.22-1.71,3.41,3.41,0,0,0,1.76-.94l7.54-7.55a13.3,13.3,0,0,0-18.81-18.8l-7.54,7.54a3.38,3.38,0,0,0-.94,1.75,23.25,23.25,0,0,1-2.22,6.26,17.39,17.39,0,0,0-15.23-9H112.59l-1.19-1.19A78.45,78.45,0,0,0,55.58,0,55.65,55.65,0,0,0,0,55.58v38.2a27.84,27.84,0,0,0,24.31,27.58v24.53a17.39,17.39,0,0,0,9,15.22,23.25,23.25,0,0,1-6.26,2.22,3.38,3.38,0,0,0-1.75.94l-7.54,7.54a13.3,13.3,0,0,0,18.8,18.81l7.55-7.54a3.6,3.6,0,0,0,1-1.78,23.09,23.09,0,0,1,4-9.16l3.2,3.19a65,65,0,0,0,46.3,19.18,37.78,37.78,0,0,1,21,6.37,44.77,44.77,0,0,0,24.87,7.53h8.32a55.65,55.65,0,0,0,55.58-55.58v-8.31a44.78,44.78,0,0,0-7.53-24.88A37.78,37.78,0,0,1,194.51,98.63ZM169.9,29.52l6.82-6.82a6.38,6.38,0,0,1,10.21,1.66,6.3,6.3,0,0,1-1.22,7.32h0l-6.83,6.83A30,30,0,0,0,156.6,60.79l-.29.29-9-9,.3-.3A29.93,29.93,0,0,0,169.9,29.52Zm-97,128.82L50.07,135.46l85.39-85.39,22.88,22.87ZM31.26,118.43l8.47-44.49A41.49,41.49,0,0,1,67.26,42.47a3.45,3.45,0,0,0,2.24-4.12h0A3.48,3.48,0,0,0,65,35.9,48.45,48.45,0,0,0,32.91,72.64l-8,41.79A20.87,20.87,0,0,1,7,93.78V55.58A48.68,48.68,0,0,1,55.58,7,71.49,71.49,0,0,1,106.48,28l2.21,2.21a3.47,3.47,0,0,0,2.46,1h34.73a10.44,10.44,0,0,1,10.24,8.49,23.06,23.06,0,0,1-10.92,5.47,3.53,3.53,0,0,0-1.77,1l-1,1-4.49-4.49a3.46,3.46,0,0,0-4.91,0L42.7,133a3.46,3.46,0,0,0,0,4.91h0l4.49,4.49-1,1a3.53,3.53,0,0,0-1,1.77,23.06,23.06,0,0,1-5.47,10.92,10.43,10.43,0,0,1-8.49-10.23Zm7.25,60.45-6.83,6.83a6.37,6.37,0,0,1-10.2-1.66,6.29,6.29,0,0,1,1.21-7.32h0l6.82-6.83A29.93,29.93,0,0,0,51.8,147.62l.3-.3,9,9-.29.29A30,30,0,0,0,38.51,178.88Zm163-26a48.68,48.68,0,0,1-48.63,48.63h-8.32a37.77,37.77,0,0,1-21-6.36,44.67,44.67,0,0,0-24.87-7.53,58.12,58.12,0,0,1-41.39-17.15l-3.2-3.2a22.93,22.93,0,0,1,9.16-4,3.56,3.56,0,0,0,1.78-.95l1-1,4.49,4.49a3.46,3.46,0,0,0,4.91,0l16.65-16.65,14.16,14.17a3.52,3.52,0,0,0,5,0h0a3.44,3.44,0,0,0,0-4.86L97,144.15l7.24-7.25,29.7,29.7a3.64,3.64,0,0,0,5.16,0h0a3.29,3.29,0,0,0,0-4.66L109.12,132l7.24-7.24,17.81,17.8a3.27,3.27,0,0,0,4.63,0l.15-.15a3.46,3.46,0,0,0,0-4.89l-17.68-17.68,7.25-7.24L160.9,145a4.77,4.77,0,0,0,6.74,0h0a2.18,2.18,0,0,0,0-3.08l-34.21-34.21,9-9L155,111.29a3.27,3.27,0,0,0,4.63,0l.21-.21a3.37,3.37,0,0,0,0-4.77L147.32,93.78l18.46-18.45a3.36,3.36,0,0,0-.07-4.84h0L161.22,66l1-1a3.41,3.41,0,0,0,1-1.78,23.14,23.14,0,0,1,5.55-11,20.87,20.87,0,0,1,18.84,20.74V98.63a44.67,44.67,0,0,0,7.53,24.87,37.78,37.78,0,0,1,6.36,21Z"/><rect x="118.1" y="168.76" width="6.95" height="9.82" rx="3.47" transform="translate(-87.2 136.83) rotate(-45)"/><rect x="145.88" y="172.23" width="6.95" height="9.82" rx="3.47" transform="translate(-81.52 157.5) rotate(-45)"/><rect x="145.88" y="147.92" width="6.95" height="9.82" rx="3.47" transform="translate(-64.32 150.38) rotate(-45)"/><rect x="173.67" y="151.39" width="6.95" height="9.82" rx="3.47" transform="translate(-58.64 171.04) rotate(-45)"/><rect x="166.73" y="116.66" width="6.95" height="9.82" rx="3.47" transform="translate(-36.11 155.96) rotate(-45)"/></g></svg>