<svg xmlns="http://www.w3.org/2000/svg" viewBox="0 0 128.76 232.53"><defs><style>.cls-1{fill:#e2e6eb;}.cls-2{fill:#6f7680;}.cls-3{fill:#d1dbe6;}.cls-4{fill:#c03536;}.cls-5{fill:#a61c18;}</style></defs><title>NewМонтажная область 76</title><g id="Слои"><path class="cls-1" d="M117.32,229.12H11.44a2.28,2.28,0,0,1-2.28-2.27v-8.72a2.28,2.28,0,0,1,2.28-2.27H117.32a2.27,2.27,0,0,1,2.27,2.27v8.72A2.27,2.27,0,0,1,117.32,229.12Z"/><path class="cls-2" d="M51,33.87H24.08V14.31A10.9,10.9,0,0,1,35,3.41h5.13A10.89,10.89,0,0,1,51,14.31Z"/><circle class="cls-1" cx="37.51" cy="17.23" r="4.62"/><path class="cls-1" d="M117.32,47.13H11.44a2.28,2.28,0,0,1-2.28-2.27V36.14a2.28,2.28,0,0,1,2.28-2.27H117.32a2.27,2.27,0,0,1,2.27,2.27v8.72A2.27,2.27,0,0,1,117.32,47.13Z"/><path class="cls-3" d="M119.59,36.15v8.7a2.28,2.28,0,0,1-2.27,2.28H87.52V33.87h29.8A2.28,2.28,0,0,1,119.59,36.15Z"/><path class="cls-3" d="M119.59,218.13v8.71a2.28,2.28,0,0,1-2.27,2.28H87.52V215.86h29.8A2.27,2.27,0,0,1,119.59,218.13Z"/><path class="cls-4" d="M111,47.13H17.8l-13.95,20a2.37,2.37,0,0,0-.44,1.39v126a2.44,2.44,0,0,0,.44,1.39l14,20H111l14-20a2.44,2.44,0,0,0,.44-1.39V68.5a2.5,2.5,0,0,0-.44-1.4Z"/><path class="cls-5" d="M125.35,68.5v126a2.5,2.5,0,0,1-.44,1.4l-14,20H87.52l14-20a2.49,2.49,0,0,0,.43-1.4V68.5a2.43,2.43,0,0,0-.43-1.39l-14-20H111l14,20A2.44,2.44,0,0,1,125.35,68.5Z"/><path class="cls-1" d="M26,67.58S14.62,93.47,21,139c0,0,7.28,40.62,5,55.91H54.2s5.92-16.67-3.5-55.89c-5.48-22.85-4.83-50.14,2.9-70,.19-.5.39-1,.6-1.52Z"/><path d="M128.76,67.58a3.4,3.4,0,0,0-1.11-2.51L117.5,50.53A5.69,5.69,0,0,0,123,44.85v-8.7a5.69,5.69,0,0,0-5.69-5.69H54.41V14.33A14.34,14.34,0,0,0,40.09,0H35A14.35,14.35,0,0,0,20.67,14.33V30.46H11.44a5.69,5.69,0,0,0-5.69,5.69v8.7a5.69,5.69,0,0,0,5.51,5.68L1.11,65.07A3.4,3.4,0,0,0,0,67.58c0,.14,0,.27,0,.4s0,.34,0,.52v126c0,.09,0,.18,0,.26s0,.13,0,.2a3.42,3.42,0,0,0,.31,1.42,6.15,6.15,0,0,0,.74,1.47l10.21,14.62a5.69,5.69,0,0,0-5.51,5.67v8.71a5.69,5.69,0,0,0,5.69,5.69H117.32a5.69,5.69,0,0,0,5.69-5.69v-8.71a5.69,5.69,0,0,0-5.51-5.67l10.21-14.63a5.9,5.9,0,0,0,.74-1.46,3.42,3.42,0,0,0,.31-1.42c0-.07,0-.13,0-.2s0-.17,0-.26V68.5a4.41,4.41,0,0,0,0-.52A2.6,2.6,0,0,0,128.76,67.58ZM96,191.54a3.41,3.41,0,1,0,0,6.82h23l-9.84,14.09H19.58L9.74,198.36H72.57a3.41,3.41,0,1,0,0-6.82H58.48C59.75,184,60.92,167,54,138.26a131.53,131.53,0,0,1-3.45-26.53,3.41,3.41,0,0,0-6.82.2,137.16,137.16,0,0,0,3.63,27.92c7.11,29.59,5.26,46,4.15,51.69H29.74c.93-17.3-5-50.77-5.38-53C19.23,101.68,26,77.85,28.36,71H49.27a99.37,99.37,0,0,0-4,16.4A3.41,3.41,0,1,0,52,88.47,89.75,89.75,0,0,1,56.53,71h65.4V191.54ZM54.2,64.17H10.06l9.52-13.63h89.6l9.52,13.63ZM21.15,71c-3,9.6-8.47,33.24-3.54,68.52,0,.05,0,.09,0,.13.07.38,6.32,35.56,5.28,51.9H6.82V71ZM27.5,14.33A7.51,7.51,0,0,1,35,6.82h5.09a7.51,7.51,0,0,1,7.5,7.51V30.46H27.5V14.33Zm-14.92,23h103.6v6.44H12.58ZM116.18,225.7H12.58v-6.43h103.6v6.43Z"/><path d="M37.51,9.19a8,8,0,1,0,8,8A8,8,0,0,0,37.51,9.19Zm0,9.25a1.21,1.21,0,1,1,1.21-1.21A1.21,1.21,0,0,1,37.51,18.44Z"/></g></svg>