<svg width="22" height="21" viewBox="0 0 22 21" fill="none" xmlns="http://www.w3.org/2000/svg">
<path d="M10.997 5.07403C7.87374 5.07403 5.35309 7.46206 5.35309 10.421C5.35309 13.38 7.87374 15.768 10.997 15.768C14.1203 15.768 16.641 13.38 16.641 10.421C16.641 7.46206 14.1203 5.07403 10.997 5.07403ZM10.997 13.8962C8.97722 13.8962 7.32888 12.3346 7.32888 10.421C7.32888 8.50747 8.97722 6.94587 10.997 6.94587C13.0169 6.94587 14.6652 8.50747 14.6652 10.421C14.6652 12.3346 13.0169 13.8962 10.997 13.8962ZM16.8722 3.60889C16.1429 3.60889 15.554 4.16679 15.554 4.85765C15.554 5.54851 16.1429 6.10641 16.8722 6.10641C17.6014 6.10641 18.1903 5.55111 18.1903 4.85765C18.1905 4.6936 18.1565 4.53112 18.0904 4.37952C18.0242 4.22792 17.9271 4.09018 17.8047 3.97418C17.6822 3.85818 17.5369 3.76621 17.3768 3.70352C17.2168 3.64084 17.0453 3.60868 16.8722 3.60889ZM21.9988 10.421C21.9988 8.98195 22.0125 7.55591 21.9272 6.11944C21.8419 4.45095 21.4402 2.97017 20.1523 1.75008C18.8617 0.527393 17.3014 0.149375 15.5403 0.0685578C14.0213 -0.0122597 12.516 0.000775442 10.9998 0.000775442C9.4808 0.000775442 7.97556 -0.0122597 6.45931 0.0685578C4.69816 0.149375 3.13513 0.53 1.84728 1.75008C0.556684 2.97277 0.157672 4.45095 0.0723655 6.11944C-0.0129406 7.55852 0.000818509 8.98455 0.000818509 10.421C0.000818509 11.8575 -0.0129406 13.2861 0.0723655 14.7226C0.157672 16.3911 0.559435 17.8719 1.84728 19.092C3.13788 20.3146 4.69816 20.6927 6.45931 20.7735C7.97831 20.8543 9.48355 20.8413 10.9998 20.8413C12.5188 20.8413 14.024 20.8543 15.5403 20.7735C17.3014 20.6927 18.8645 20.312 20.1523 19.092C21.4429 17.8693 21.8419 16.3911 21.9272 14.7226C22.0153 13.2861 21.9988 11.8601 21.9988 10.421ZM19.5772 16.5684C19.3763 17.0428 19.1341 17.3974 18.7461 17.7624C18.3581 18.13 17.9866 18.3594 17.4858 18.5497C16.0384 19.0946 12.6013 18.972 10.997 18.972C9.39274 18.972 5.95298 19.0946 4.50553 18.5523C4.0047 18.362 3.63045 18.1326 3.2452 17.765C2.8572 17.3974 2.61504 17.0455 2.41415 16.571C1.84178 15.1971 1.97111 11.9409 1.97111 10.421C1.97111 8.90113 1.84178 5.64236 2.41415 4.27107C2.61504 3.79659 2.8572 3.44204 3.2452 3.07706C3.63321 2.71207 4.0047 2.48005 4.50553 2.28974C5.95298 1.74748 9.39274 1.87001 10.997 1.87001C12.6013 1.87001 16.0411 1.74748 17.4886 2.28974C17.9894 2.48005 18.3636 2.70947 18.7489 3.07706C19.1369 3.44464 19.3791 3.79659 19.5799 4.27107C20.1523 5.64236 20.023 8.90113 20.023 10.421C20.023 11.9409 20.1523 15.1971 19.5772 16.5684Z" fill="white"/>
</svg>
