<svg xmlns="http://www.w3.org/2000/svg" viewBox="0 0 175.86 78.9"><defs><style>.cls-1{fill:#654538;}.cls-1,.cls-2,.cls-3{stroke:#9f796f;stroke-linecap:round;stroke-linejoin:round;stroke-width:2px;}.cls-2{fill:#87574b;}.cls-3{fill:#6f4b3d;}.cls-4{opacity:0.25;}.cls-5{fill:#fff;}</style></defs><title>ShapesМонтажная область 17</title><g id="Дополнения"><polygon class="cls-1" points="69.35 41.62 69.35 77.85 1 56.52 1.08 56.77 1.08 20.55 69.35 41.62"/><polygon class="cls-2" points="1.08 20.55 107.16 1 174.86 22.12 69.35 41.62 1.08 20.55"/><polygon class="cls-3" points="69.35 41.62 69.35 77.9 174.86 58.34 174.86 22.12 69.35 41.62"/><g class="cls-4"><path class="cls-5" d="M112,29.8c-3.52.83-7,1.65-10.57,2.41s-7,1.56-10.59,2.27L80.25,36.67,69.62,38.74a.54.54,0,0,1-.22,0c-3.36-1-6.69-2.16-10-3.24s-6.67-2.22-10-3.37c3.4.91,6.8,1.84,10.17,2.82s6.77,1.92,10.13,3h-.21l10.61-2.19,10.63-2.07c3.55-.71,7.11-1.33,10.66-2S108.46,30.38,112,29.8Z"/></g><g class="cls-4"><path class="cls-5" d="M66.2,70.22c-.4-4.12-.49-8.25-.5-12.38s.1-8.25.5-12.38c.39,4.13.48,8.26.5,12.38S66.59,66.1,66.2,70.22Z"/></g></g></svg>