<svg xmlns="http://www.w3.org/2000/svg" viewBox="0 0 162 73.36"><defs><style>.cls-1{fill:#87574b;}.cls-1,.cls-2,.cls-3{stroke:#9f796f;stroke-linecap:round;stroke-linejoin:round;stroke-width:2px;}.cls-2{fill:#6f4b3d;}.cls-3{fill:#654538;}.cls-4{opacity:0.25;}.cls-5{fill:#fff;}</style></defs><title>ShapesArtboard 1</title><g id="Дополнения"><polygon class="cls-1" points="1 14 81 1 161 14 81 30.94 1 14"/><polygon class="cls-2" points="81 30.94 81 72.36 161 55.35 161 14 81 30.94"/><polygon class="cls-3" points="81 30.94 81 72.36 1 55.35 1 14 81 30.94"/><g class="cls-4"><path class="cls-5" d="M123.5,17c-3.51.94-7,1.86-10.56,2.72s-7,1.76-10.59,2.57L91.74,24.79,81.1,27.16a.61.61,0,0,1-.19,0c-3.87-.81-7.73-1.72-11.59-2.58s-7.72-1.77-11.57-2.71c3.9.69,7.8,1.39,11.68,2.15s7.78,1.47,11.66,2.28H80.9l10.61-2.49,10.64-2.37c3.54-.81,7.11-1.53,10.66-2.28S119.93,17.7,123.5,17Z"/></g><g class="cls-4"><path class="cls-5" d="M77.67,63.17c-.21-2.35-.31-4.71-.39-7.07s-.1-4.71-.11-7.06,0-4.71.11-7.07l.14-3.53c.08-1.18.13-2.36.25-3.54.11,1.18.16,2.36.24,3.54L78.05,42c.09,2.36.11,4.71.12,7.07s0,4.71-.12,7.06S77.87,60.82,77.67,63.17Z"/></g></g></svg>