<svg xmlns="http://www.w3.org/2000/svg" viewBox="0 0 113.69 158.49"><defs><style>.cls-1,.cls-2{fill:#ff666d;}.cls-1{stroke:#b63338;stroke-linecap:round;stroke-linejoin:round;stroke-width:2px;}.cls-3{fill:#b63338;}.cls-4{opacity:0.5;}.cls-5{fill:#dcc992;}.cls-6{fill:#fff;}</style></defs><title>CREAMМонтажная область 15</title><g id="Слои"><path class="cls-1" d="M108,39.4l-4.23-.51a4.18,4.18,0,0,0-4.44,2.79l-6.52,17A12.63,12.63,0,0,1,82.93,67L72.67,68.67A4.19,4.19,0,0,0,69.25,72L64.67,111a4.17,4.17,0,0,1-6.76,2.38h0a4.17,4.17,0,0,0-6.62,1.9L40.35,154.63a4.18,4.18,0,0,1-5.56,2.54l-20.62-8.55a5.33,5.33,0,0,0-3.67-.15L9,149c-1.84.58-2.32-.67-3.3-2.33a43,43,0,0,1-3.07-6.41A25.39,25.39,0,0,1,1,131.89s.61-112.63.58-113.08a2,2,0,0,1,1.73-2.17L111.42,1a1.1,1.1,0,0,1,1.19,1.47.09.09,0,0,1,.07.09V35.26A4.17,4.17,0,0,1,108,39.4Z"/><line class="cls-2" x1="54.09" y1="55.63" x2="104.55" y2="9.8"/><path class="cls-3" d="M53.41,54.89,104.55,9.8,54.76,56.37a1,1,0,0,1-1.37-1.46Z"/><path class="cls-2" d="M8.11,34.21c5.77,8.48,17.88,18,43.28,22.2a3.26,3.26,0,0,0,2.7-.79"/><path class="cls-3" d="M8.11,34.21a39.38,39.38,0,0,0,4.3,5,45,45,0,0,0,5.05,4.2A57,57,0,0,0,29,49.63a80.59,80.59,0,0,0,12.5,3.94c1.06.28,2.13.48,3.2.7s2.14.46,3.23.62l3.23.53.4.06.29,0a2.25,2.25,0,0,0,.58-.07,2.4,2.4,0,0,0,1-.55,1,1,0,0,1,1.41,0,1,1,0,0,1,0,1.42l0,0h0a4.27,4.27,0,0,1-1.9,1,4.75,4.75,0,0,1-1.06.09,5,5,0,0,1-.54-.06l-.41-.08-3.26-.67c-1.09-.2-2.16-.49-3.24-.74s-2.16-.51-3.22-.84a82,82,0,0,1-12.53-4.47,57.61,57.61,0,0,1-11.43-6.74,45,45,0,0,1-4.93-4.43A38.61,38.61,0,0,1,8.11,34.21Z"/><path class="cls-3" d="M53.63,56.46l-1,44.33-1-44.33a1,1,0,0,1,1-1,1,1,0,0,1,1,1Z"/><g class="cls-4"><line class="cls-5" x1="50.57" y1="53.72" x2="101.03" y2="7.89"/><path class="cls-6" d="M50.57,53.72q5.91-6.15,12.09-12c4.1-3.94,8.28-7.79,12.47-11.62s8.45-7.59,12.76-11.3S96.57,11.43,101,7.89q-5.91,6.17-12.09,12c-4.1,3.94-8.27,7.79-12.47,11.62S68,39.14,63.71,42.84,55,50.19,50.57,53.72Z"/></g><g class="cls-4"><path class="cls-6" d="M48.88,59c.21,3.69.31,7.39.39,11.08s.1,7.39.11,11.08,0,7.39-.11,11.09l-.14,5.54c-.09,1.85-.13,3.69-.25,5.54-.11-1.85-.16-3.69-.24-5.54l-.14-5.54c-.09-3.7-.11-7.39-.12-11.09s0-7.38.12-11.08S48.68,62.72,48.88,59Z"/></g></g></svg>