<svg xmlns="http://www.w3.org/2000/svg" viewBox="0 0 62.55 56.37"><defs><style>.cls-1{fill:#692d1e;stroke:#2c0506;stroke-linecap:round;stroke-linejoin:round;stroke-width:2px;}</style></defs><title>Монтажная область 45</title><g id="Слои"><path class="cls-1" d="M51.5,40.36l-.26.23h0a1.09,1.09,0,0,1-.33.19,1.06,1.06,0,0,1-.56.06l-1.93-.32c-1.51-.26-3-.54-4.39-.83-.8-.17-1.58-.34-2.34-.52l-1.15-.27c-.76-.19-1.5-.37-2.23-.57s-1.37-.37-2-.56l-1.16-.35-1-.32-2-.65-1-.34c-.95-.34-1.87-.69-2.77-1l-.88-.36c-.58-.24-1.15-.49-1.71-.74L25,33.6l-1.6-.77c-.78-.39-1.53-.79-2.26-1.19l-.72-.4c-.5-.29-1-.58-1.48-.88s-.83-.51-1.23-.77-.84-.56-1.25-.85-.81-.56-1.19-.85L14.12,27a41.17,41.17,0,0,1-3.73-3.32l-.64-.66-.61-.66c-.61-.66-1.16-1.32-1.67-2-.17-.21-.34-.43-.5-.65-.33-.43-.64-.87-.92-1.3-.15-.21-.29-.42-.43-.64-.28-.43-.54-.85-.78-1.27l0,0c-.24-.41-.46-.81-.66-1.21l-.32-.61c-.2-.4-.39-.8-.56-1.2L3,12.91a28.9,28.9,0,0,1-1-2.78c-.16-.53-.3-1-.42-1.52A26.48,26.48,0,0,1,1.07,6c0-.13,0-.26-.05-.38A3,3,0,0,1,3.6,2.2L11.88,1c2.82,9.46,12.9,25.37,48.42,30.94C60.52,32,52.89,39.13,51.5,40.36Z"/><polygon class="cls-1" points="60.87 32 61.55 45.91 51.24 55.09 51.24 40.59 51.51 40.36 60.87 32"/><path class="cls-1" d="M50.36,40.85C22.26,36.44,10.08,25.56,4.82,16.52A28.92,28.92,0,0,1,1,5.6V20.1c1,7.83,7.56,28.7,49.34,35.25a1.1,1.1,0,0,0,.89-.26V40.59A1.1,1.1,0,0,1,50.36,40.85Z"/></g></svg>