<svg xmlns="http://www.w3.org/2000/svg" viewBox="0 0 113.7 158.49"><defs><style>.cls-1,.cls-2{fill:#fff;}.cls-1{stroke:#000;stroke-miterlimit:10;stroke-width:2px;}.cls-3{opacity:0.5;}.cls-4{fill:#dcc992;}</style></defs><title>CREAMМонтажная область 20</title><g id="Слои"><path class="cls-1" d="M108,39.4l-4.23-.51a4.17,4.17,0,0,0-4.43,2.79l-6.53,17A12.63,12.63,0,0,1,82.93,67L72.67,68.67A4.16,4.16,0,0,0,69.26,72L64.67,111a4.17,4.17,0,0,1-6.75,2.38h0a4.17,4.17,0,0,0-6.63,1.9L40.35,154.63a4.17,4.17,0,0,1-5.56,2.54l-20.62-8.55a5.33,5.33,0,0,0-3.67-.15L9,149c-1.83.58-2.32-.67-3.29-2.33a43,43,0,0,1-3.08-6.41A25.92,25.92,0,0,1,1,131.89S1,19.21,1,18.76c-.08-1.06,1.26-2,2.32-2.12L111.42,1a1.1,1.1,0,0,1,1.19,1.47.09.09,0,0,1,.08.09V35.26A4.18,4.18,0,0,1,108,39.4Z"/><line class="cls-2" x1="54.09" y1="55.63" x2="104.55" y2="9.8"/><polygon points="53.42 54.89 104.55 9.8 54.76 56.37 53.42 54.89"/><path class="cls-2" d="M8.12,34.21c5.76,8.48,17.87,18,43.27,22.2a3.25,3.25,0,0,0,2.7-.79"/><path d="M8.12,34.21a39.3,39.3,0,0,0,4.29,5,44.21,44.21,0,0,0,5.06,4.2A56.69,56.69,0,0,0,29,49.63a80.59,80.59,0,0,0,12.5,3.94c1.06.28,2.14.48,3.21.7s2.14.46,3.22.62l3.24.53.4.06.29,0a2.22,2.22,0,0,0,.57-.07,2.34,2.34,0,0,0,1-.55l1.34,1.49a4.36,4.36,0,0,1-1.91,1,4.7,4.7,0,0,1-1.06.09,4.52,4.52,0,0,1-.53-.06l-.41-.08-3.27-.67c-1.09-.2-2.16-.49-3.24-.74s-2.16-.51-3.22-.84A81.83,81.83,0,0,1,28.6,50.55a57,57,0,0,1-11.43-6.74,45.14,45.14,0,0,1-4.94-4.43A38.54,38.54,0,0,1,8.12,34.21Z"/><polygon points="53.63 56.46 52.63 100.79 51.63 56.46 53.63 56.46"/><g class="cls-3"><line class="cls-4" x1="50.57" y1="53.72" x2="101.04" y2="7.89"/><path class="cls-2" d="M50.57,53.72q5.93-6.15,12.1-12c4.09-3.94,8.27-7.79,12.46-11.62s8.45-7.59,12.77-11.3S96.57,11.43,101,7.89q-5.92,6.17-12.09,12c-4.1,3.94-8.28,7.79-12.47,11.62S68,39.14,63.71,42.84,55,50.19,50.57,53.72Z"/></g><g class="cls-3"><path class="cls-2" d="M48.89,59c.41,3.69.63,7.39.77,11.08s.21,7.39.23,11.08-.06,7.39-.22,11.09-.37,7.39-.78,11.08c-.42-3.69-.64-7.39-.78-11.08s-.21-7.39-.22-11.09.06-7.38.22-11.08S48.47,62.72,48.89,59Z"/></g></g></svg>