<svg xmlns="http://www.w3.org/2000/svg" viewBox="0 0 222.41 222.41"><defs><style>.cls-1{fill:#6d452f;}.cls-2{fill:#633e2b;}.cls-3{fill:#82573e;}.cls-4{fill:#ebb340;}.cls-5{fill:#d35346;}.cls-6{fill:#c74d42;}.cls-7{fill:#e9a62d;}.cls-8{fill:#ebdcc1;}</style></defs><title>NewМонтажная область 67</title><g id="Слои"><g id="Filled_outline" data-name="Filled outline"><path class="cls-1" d="M3.7,148.27,148.24,3.72l70.42,70.42L74.12,218.69Z"/><path class="cls-2" d="M218.71,74.14,74.14,218.71,28.8,173.37C99.44,150.55,149,121.15,202.16,57.59Z"/><path class="cls-3" d="M129.72,44.49,148.25,26l18.53,18.53L148.25,63Z"/><path class="cls-3" d="M159.37,74.15,177.9,55.62l18.53,18.53L177.9,92.68Z"/><path class="cls-3" d="M100.07,74.14,118.6,55.61l18.53,18.53L118.6,92.67Z"/><path class="cls-3" d="M129.71,103.8l18.54-18.53,18.53,18.53-18.53,18.53Z"/><path class="cls-3" d="M70.41,103.79,88.94,85.26l18.53,18.53L88.94,122.32Z"/><path class="cls-4" d="M3.69,148.27l14.82-14.83,70.42,70.42L74.11,218.69Z"/><path class="cls-5" d="M170.52,122.33,89,203.88,18.53,133.45,59.31,92.67l84.46,22.53Z"/><path class="cls-6" d="M170.52,122.33,89,203.88,50.84,165.76c34.87-12.89,64.65-28.42,92.93-50.56Z"/><path class="cls-7" d="M89,203.88,74.14,218.71,28.8,173.37q11.37-3.68,22-7.61Z"/><path class="cls-8" d="M59.31,92.67l59.31,48.19,51.9-18.53Z"/><path d="M221.33,71.52,150.9,1.09a3.71,3.71,0,0,0-5.25,0h0l-89,89,4.74,5.74L148.28,9l65.18,65.19L169.4,118.19,60.27,89.09a3.72,3.72,0,0,0-3.58,1l-55.6,55.6a3.71,3.71,0,0,0,0,5.25h0l70.43,70.43a3.72,3.72,0,0,0,5.24,0h0L221.33,76.76a3.72,3.72,0,0,0,0-5.24Zm-63.27,51.32-38.72,13.83L75.09,100.72ZM74.14,213.46,9,148.28l9.58-9.59,65.19,65.19ZM89,198.64,23.78,133.45,57,100.19l2.54-2.53,56.71,46.08a3.7,3.7,0,0,0,3.59.61l36.37-13ZM150.83,23.26a3.6,3.6,0,0,0-5.18.07h0L127.09,41.89a3.65,3.65,0,0,0,0,5.21h0l18.6,18.61a3.61,3.61,0,0,0,5.18-.07h0l18.56-18.57a3.66,3.66,0,0,0,0-5.21h0Zm-2.55,34.51L135,44.48l13.3-13.29,13.29,13.29Zm29.65,38.61a3.68,3.68,0,0,0,2.62-1.09L199,76.83a3.83,3.83,0,0,0,.08-5.31h0L180.48,52.91a3.6,3.6,0,0,0-5.17.07h0L156.85,71.44a3.85,3.85,0,0,0-.08,5.32h0l18.54,18.53a3.68,3.68,0,0,0,2.62,1.09Zm0-35.53,13.29,13.29L177.93,87.43,164.64,74.14ZM116,53,97.46,71.52a3.72,3.72,0,0,0,0,5.24h0l18.61,18.6a3.59,3.59,0,0,0,5.17-.07h0L139.7,76.83a3.83,3.83,0,0,0,.08-5.31h0L121.17,52.91A3.6,3.6,0,0,0,116,53Zm2.62,34.45L105.33,74.14l13.29-13.29,13.29,13.29Zm42.95,16.36h0L148.28,90.5l-9.63,9.63a3.66,3.66,0,0,1-5.16,0h0a3.77,3.77,0,0,1,0-5.33l12.23-12.23a3.6,3.6,0,0,1,5.18.07h0l18.46,18.46a3.84,3.84,0,0,1,.07,5.31h0l-.94.94a3.92,3.92,0,0,1-5.54,0L161.57,106A1.53,1.53,0,0,1,161.57,103.79ZM51.12,121.55l1.5,1.5a2.67,2.67,0,0,1,0,3.79L41.29,138.18a2.27,2.27,0,0,1-3.2,0l-1.76-1.76a2.67,2.67,0,0,1,0-3.77l11.1-11.1A2.61,2.61,0,0,1,51.12,121.55ZM63,111.16h0a3.78,3.78,0,0,1,0,5.34l-.7.69a3.58,3.58,0,0,1-5.08,0h0a3.82,3.82,0,0,1,0-5.4l.63-.63A3.65,3.65,0,0,1,63,111.16Z"/></g></g></svg>