<svg xmlns="http://www.w3.org/2000/svg" viewBox="0 0 170.2 127.39"><defs><style>.cls-1{fill:#86d7d7;}.cls-2{fill:#e9d88f;}.cls-3{fill:#df6555;}.cls-4{fill:#e8a39d;}.cls-5{fill:#805747;}.cls-6{fill:#e8be6b;}</style></defs><title>NewМонтажная область 71</title><g id="Слои"><path class="cls-1" d="M124.32,85.63H45.87V79a15.3,15.3,0,0,1,15.29-15.3H109A15.29,15.29,0,0,1,124.32,79Z"/><path class="cls-1" d="M45.87,102.13h78.45v6.65A15.29,15.29,0,0,1,109,124.07H61.16a15.3,15.3,0,0,1-15.29-15.29Z"/><path class="cls-2" d="M47.48,93.88h0a9.91,9.91,0,0,0,4.41,8.25H118.3a9.92,9.92,0,0,0,4.42-8.25h0a9.92,9.92,0,0,0-4.42-8.25H51.89A9.91,9.91,0,0,0,47.48,93.88Z"/><path class="cls-3" d="M45.87,108.78v-6.65H3.32v6.65a15.3,15.3,0,0,0,15.29,15.29H61.16A15.3,15.3,0,0,1,45.87,108.78Z"/><path class="cls-4" d="M51.89,102.13a9.91,9.91,0,0,1-4.41-8.25h0a9.91,9.91,0,0,1,4.41-8.25H9.34a9.91,9.91,0,0,0-4.41,8.25h0a9.91,9.91,0,0,0,4.41,8.25H51.89Z"/><path class="cls-3" d="M45.87,79a15.3,15.3,0,0,1,15.29-15.3H18.61A15.3,15.3,0,0,0,3.32,79v6.64H45.87Z"/><path class="cls-3" d="M151.58,63.69H109A15.29,15.29,0,0,1,124.32,79v6.64h42.55V79A15.29,15.29,0,0,0,151.58,63.69Z"/><path class="cls-4" d="M160.85,85.63H118.3a9.92,9.92,0,0,1,4.42,8.25h0a9.92,9.92,0,0,1-4.42,8.25h42.55a9.92,9.92,0,0,0,4.42-8.25h0A9.92,9.92,0,0,0,160.85,85.63Z"/><path class="cls-3" d="M124.32,102.13v6.65A15.29,15.29,0,0,1,109,124.07h42.55a15.29,15.29,0,0,0,15.29-15.29v-6.65Z"/><path class="cls-5" d="M124.32,25.26H45.87V18.61A15.3,15.3,0,0,1,61.16,3.32H109a15.29,15.29,0,0,1,15.29,15.29v6.65Z"/><path class="cls-5" d="M45.87,41.76h78.45V48.4A15.28,15.28,0,0,1,109,63.69H61.16A15.29,15.29,0,0,1,45.87,48.4Z"/><path class="cls-6" d="M47.48,33.51h0a9.91,9.91,0,0,0,4.41,8.25H118.3a9.92,9.92,0,0,0,4.42-8.25h0a9.92,9.92,0,0,0-4.42-8.25H51.89A9.91,9.91,0,0,0,47.48,33.51Z"/><path d="M105.46,17.62a2.88,2.88,0,0,1-.65-.07,2.77,2.77,0,0,1-.62-.19,3.19,3.19,0,0,1-.58-.3,2.86,2.86,0,0,1-.5-.42,3.31,3.31,0,0,1-1-2.35,3.66,3.66,0,0,1,.06-.65,3.41,3.41,0,0,1,.19-.62,3.15,3.15,0,0,1,.31-.57,4,4,0,0,1,.41-.51,3.31,3.31,0,0,1,.5-.41,4,4,0,0,1,.58-.31,4.44,4.44,0,0,1,.62-.19,3.55,3.55,0,0,1,1.3,0,4.44,4.44,0,0,1,.62.19,4.63,4.63,0,0,1,.58.31,3.31,3.31,0,0,1,.5.41,4,4,0,0,1,.41.51,3.15,3.15,0,0,1,.31.57,3.41,3.41,0,0,1,.19.62,3.69,3.69,0,0,1,.07.65,3.32,3.32,0,0,1-1,2.35,2.86,2.86,0,0,1-.5.42,3.55,3.55,0,0,1-.58.3,2.77,2.77,0,0,1-.62.19A2.88,2.88,0,0,1,105.46,17.62Z"/><path d="M63.77,78a3.49,3.49,0,0,1-.65-.06,3.83,3.83,0,0,1-.63-.2,3.1,3.1,0,0,1-.57-.3,3.77,3.77,0,0,1-.92-.92,2.89,2.89,0,0,1-.3-.58,2.62,2.62,0,0,1-.19-.62,3,3,0,0,1,0-1.29,2.7,2.7,0,0,1,.19-.63,3.1,3.1,0,0,1,.3-.57,3.35,3.35,0,0,1,.42-.51,3.31,3.31,0,0,1,.5-.41,3.1,3.1,0,0,1,.57-.3,3,3,0,0,1,.63-.19,3.16,3.16,0,0,1,1.3,0,2.77,2.77,0,0,1,.62.19,3.1,3.1,0,0,1,.57.3,3,3,0,0,1,.92.92,3.91,3.91,0,0,1,.31.57A4.19,4.19,0,0,1,67,74a3.5,3.5,0,0,1,0,1.29,4.06,4.06,0,0,1-.19.62,3.56,3.56,0,0,1-.31.58,3.31,3.31,0,0,1-.41.5,3.35,3.35,0,0,1-.51.42,3.1,3.1,0,0,1-.57.3,3.45,3.45,0,0,1-.62.2A3.66,3.66,0,0,1,63.77,78Z"/><path d="M170.2,85.63V79a18.64,18.64,0,0,0-18.62-18.62h-28.3a18.55,18.55,0,0,0,4.37-12V41.76a3.32,3.32,0,0,0-2.59-3.24,13.3,13.3,0,0,0,0-10,3.32,3.32,0,0,0,2.59-3.24V18.61A18.64,18.64,0,0,0,109,0H61.16A18.63,18.63,0,0,0,42.55,18.61v6.65a3.32,3.32,0,0,0,2.59,3.24,13.24,13.24,0,0,0-1,5h0a13.19,13.19,0,0,0,1,5,3.34,3.34,0,0,0-2.59,3.25V48.4a18.5,18.5,0,0,0,4.37,12H18.61A18.64,18.64,0,0,0,0,79v6.64a3.32,3.32,0,0,0,2.59,3.24,13.17,13.17,0,0,0,0,10A3.32,3.32,0,0,0,0,102.13v6.65a18.63,18.63,0,0,0,18.61,18.61h133a18.64,18.64,0,0,0,18.62-18.61v-6.65a3.31,3.31,0,0,0-2.6-3.24,13.24,13.24,0,0,0,1-5,13.43,13.43,0,0,0-1-5A3.32,3.32,0,0,0,170.2,85.63ZM151.58,67a12,12,0,0,1,12,12v3.32h-35.9V79a18.55,18.55,0,0,0-4.37-12Zm10.36,26.86a6.56,6.56,0,0,1-2.21,4.92H125.1l0-.08a1.59,1.59,0,0,1,.07-.2l.18-.5c0-.08.05-.15.07-.23s.11-.35.15-.53a1.21,1.21,0,0,0,.05-.18c.06-.24.11-.48.16-.72a.77.77,0,0,0,0-.15,5.81,5.81,0,0,0,.09-.58,2,2,0,0,0,0-.24c0-.18,0-.35,0-.53a1.79,1.79,0,0,0,0-.23c0-.25,0-.5,0-.75s0-.5,0-.75a2,2,0,0,0,0-.23c0-.17,0-.35,0-.53a2,2,0,0,0,0-.24c0-.19,0-.38-.09-.58a.77.77,0,0,0,0-.15c0-.24-.1-.48-.16-.72a1.21,1.21,0,0,0-.05-.18,5.26,5.26,0,0,0-.15-.53c0-.08,0-.15-.07-.23l-.18-.51a1.07,1.07,0,0,1-.07-.19l0-.08h34.63A6.56,6.56,0,0,1,161.94,93.88Zm-153.69,0A6.59,6.59,0,0,1,10.46,89H45.1l0,.08a1.59,1.59,0,0,0-.07.2,4.24,4.24,0,0,0-.18.5,2,2,0,0,0-.07.23c-.06.18-.11.35-.16.53s0,.12,0,.18c-.06.24-.12.48-.16.72l0,.15-.09.58,0,.24c0,.18,0,.36-.05.53s0,.15,0,.23q0,.38,0,.75t0,.75c0,.08,0,.15,0,.23s0,.35.05.53l0,.24.09.58,0,.15c0,.24.1.48.16.72,0,.06,0,.12,0,.18s.1.36.16.53a1.55,1.55,0,0,0,.07.23c.06.17.11.34.18.5a1.18,1.18,0,0,0,.07.2l0,.08H10.46A6.59,6.59,0,0,1,8.25,93.88ZM61.16,67H109a11.94,11.94,0,0,1,9.2,4.32h-42a3.33,3.33,0,1,0,0,6.65H121c0,.33,0,.66,0,1v3.32H49.2V79A12,12,0,0,1,61.16,67ZM53,98.8l-.17-.15-.08-.07-.26-.28,0-.06c-.07-.07-.13-.15-.19-.22l-.09-.11L52,97.72,52,97.59l-.12-.19-.09-.13-.11-.2s-.05-.08-.07-.13a2.26,2.26,0,0,1-.11-.22l-.06-.11c0-.11-.1-.23-.14-.34s0,0,0-.06l-.11-.3a.93.93,0,0,0,0-.13L51,95.55a.83.83,0,0,1,0-.15c0-.07,0-.15,0-.22l0-.15,0-.24a.68.68,0,0,1,0-.14l0-.26a.49.49,0,0,0,0-.12c0-.13,0-.26,0-.39s0-.26,0-.38a.62.62,0,0,0,0-.13l0-.26a.78.78,0,0,1,0-.14l0-.24,0-.14c0-.08,0-.16,0-.23a.83.83,0,0,1,0-.15,2,2,0,0,1,.07-.23l0-.13.11-.3,0,0c0-.12.09-.23.14-.35a.47.47,0,0,0,0-.1l.12-.23s0-.09.07-.13l.12-.2s0-.09.07-.13a2.14,2.14,0,0,0,.13-.19l.09-.12a1.43,1.43,0,0,1,.14-.2l.08-.1.2-.24,0-.05.26-.28.07-.06L53,89h64.16a1.07,1.07,0,0,0,.16.14l.08.09a2.23,2.23,0,0,1,.26.27l.07.07.18.21.09.12.14.18.09.13.12.19.08.13.12.2.07.13c0,.07.07.15.11.22a1.17,1.17,0,0,0,0,.11l.15.35a.17.17,0,0,0,0,0c0,.1.07.2.1.3a.65.65,0,0,1,0,.13c0,.08,0,.15.07.23l0,.15a1.55,1.55,0,0,1,.05.23l0,.14a2,2,0,0,1,0,.24.59.59,0,0,0,0,.14c0,.09,0,.18,0,.26s0,.08,0,.13,0,.25,0,.38,0,.26,0,.39,0,.08,0,.12,0,.17,0,.26,0,.1,0,.14a2,2,0,0,1,0,.24l0,.15a1.74,1.74,0,0,1-.05.22l0,.15c0,.08-.05.15-.07.23a.5.5,0,0,1,0,.13c0,.1-.06.19-.1.29a.64.64,0,0,0,0,.07l-.15.34a.61.61,0,0,0,0,.12,2.12,2.12,0,0,0-.11.21l-.08.14-.11.19-.08.14-.12.18-.09.13-.14.18-.09.12-.18.21-.07.08a3.19,3.19,0,0,1-.26.26.3.3,0,0,1-.08.08l-.16.15ZM50.8,33.51A6.56,6.56,0,0,1,53,28.59h64.17a6.58,6.58,0,0,1,0,9.84H53A6.56,6.56,0,0,1,50.8,33.51ZM61.16,6.65H109a12,12,0,0,1,12,12v3.33H49.2V18.61c0-.33,0-.66,0-1H93.05a3.33,3.33,0,0,0,0-6.65H52A11.92,11.92,0,0,1,61.16,6.65ZM49.2,48.4V45.08H121V48.4a12,12,0,0,1-12,12H61.16A12,12,0,0,1,49.2,48.4ZM6.65,79a12,12,0,0,1,12-12H46.92a18.5,18.5,0,0,0-4.37,12v3.32H6.65Zm12,41.75a12,12,0,0,1-12-12v-3.33h35.9v3.33c0,.3,0,.6,0,.9,0,.1,0,.2,0,.3s0,.4,0,.6,0,.23,0,.34,0,.36.07.55,0,.23,0,.35.06.35.1.52,0,.24.07.36a4.7,4.7,0,0,0,.12.51c0,.11,0,.23.08.34l.15.53.09.31c.07.19.13.38.2.58s.06.16.08.23c.1.28.21.54.32.81l0,.06q.15.36.33.72l.12.25c.09.17.17.35.26.51l.16.29.27.46.18.29.27.43c.07.1.13.2.2.29l.3.42.2.27q.16.23.33.42l.2.25.06.07Zm30.59-12v-3.33H121v3.33a12,12,0,0,1-12,12H61.16A12,12,0,0,1,49.2,108.78Zm114.35,0a12,12,0,0,1-12,12h-28.3l.06-.07.2-.25.33-.42.2-.27.3-.42.19-.29c.1-.14.19-.28.28-.43l.18-.29c.09-.15.18-.3.26-.46l.16-.29c.09-.16.18-.33.26-.5s.09-.17.13-.26.22-.47.32-.7l0-.08c.12-.27.22-.53.32-.8l.09-.25.19-.57.09-.32a4.44,4.44,0,0,0,.15-.52l.09-.34.12-.51c0-.12,0-.24.07-.36l.09-.52.06-.36c0-.18,0-.36.07-.54s0-.23,0-.34,0-.4,0-.6,0-.2,0-.3q0-.45,0-.9v-3.33h35.9Z"/></g></svg>