<svg width="392" height="449" viewBox="0 0 392 449" fill="none" xmlns="http://www.w3.org/2000/svg">
<g id="Logo A">
<path id="logo" d="M190.13 6C193.18 6.94 249.29 146.79 252.13 153.83C254.03 158.47 250.71 161.23 247.52 161.23H247.23C239.44 160.82 196.03 32.52 192.99 30.64C190.8 33 45.9898 379.44 48.9898 382.24C49.0509 382.283 49.125 382.304 49.1998 382.3C54.9498 382.3 146.72 299.09 227.28 210.86C309.193 121.227 350.153 73.1233 350.16 66.55C350.16 64.68 346.01 61.81 339.99 58.32C334.6 55.18 327.57 52.55 332.34 50.67C333.8 50.1 337.63 49.88 342.47 49.88C355.8 49.88 376.84 51.54 377.54 52.04C378.61 52.45 386.64 92.94 385.45 92.94C385.232 92.8784 385.006 92.8514 384.78 92.86C384.34 92.86 383.78 92.91 383.17 92.91C381.38 92.91 378.91 92.48 376.4 89.17C368.77 81.84 365.82 82.8 362.58 82.04H362.53C354.67 82 61.2998 429.92 7.31979 442.46C7.23001 442.469 7.13957 442.469 7.04979 442.46C4.16979 442.46 7.29979 429.72 14.4998 412.86C31.8698 373.58 184.99 6 190.13 6ZM377.35 117.55C379.13 117.55 379.88 118.82 379.62 121.35C378.32 131.68 298.99 229.64 299.87 232C299.87 235.76 339.27 320 374.97 398.84C385.25 421.9 387.95 433.437 383.07 433.45C382.759 433.446 382.451 433.406 382.15 433.33C379.97 432.86 291.38 239.74 290.08 239.74C279.19 251 153.43 409.87 158.23 410.82C162.15 411.28 182.98 415.9 181.04 423.71C179.43 430.19 140.04 432.06 127.78 432.06C126.587 432.132 125.391 432.078 124.21 431.9C123.39 431.41 118.1 387.7 122.69 385.45C122.781 385.408 122.88 385.387 122.98 385.39C126.24 385.39 141.84 401.39 141.84 402.34C177.99 363.39 368.99 121.12 372.44 119.24C373.925 118.307 375.605 117.729 377.35 117.55ZM190.13 0C185.71 0 183.99 3.46 179.99 11.81C177.4 17.12 173.76 25.02 169.17 35.27C161.01 53.46 149.43 80.03 134.74 114.27C107.74 177.18 75.2498 254.12 49.1598 315.94C29.4198 362.64 13.8398 399.53 8.98979 410.47C6.11926 417.036 3.67421 423.78 1.66979 430.66C-0.460211 438.35 -0.540211 442.46 1.35979 445.34C1.97885 446.288 2.82402 447.066 3.81911 447.606C4.81419 448.145 5.92789 448.428 7.05979 448.43C7.60841 448.426 8.15497 448.362 8.68979 448.24C19.9898 445.67 45.3498 431.52 133.81 339.49C188.93 282.15 251.41 212.41 297.03 161.49C327.59 127.38 356.57 95 363.99 88.35C365.79 88.62 367.7 89.17 371.99 93.2C373.282 94.9653 374.973 96.4012 376.924 97.3915C378.875 98.3818 381.032 98.8986 383.22 98.9C383.606 98.9 383.966 98.9 384.3 98.9L384.47 98.96H385.47C386.907 98.9615 388.297 98.4541 389.396 97.5278C390.494 96.6016 391.229 95.3164 391.47 93.9C391.67 92.79 392.06 90.73 388.03 70.38C387.03 65.25 386.03 60.45 385.16 56.85C383.81 51.02 383.16 48.29 380.6 46.85C379.35 46.05 377.51 45.63 365.17 44.78C361.17 44.51 350.95 43.88 342.49 43.88C334.37 43.88 331.77 44.46 330.17 45.09C325.72 46.84 324.89 49.99 324.79 51.72C324.5 56.82 329.06 59.24 333.89 61.81C334.94 62.37 336.02 62.94 337 63.5C339.179 64.7259 341.295 66.0609 343.34 67.5C341.16 71.21 334.26 81.02 312.53 106.44C292.22 130.19 262.09 164 222.99 206.81C157.11 278.92 89.1798 342.38 60.7098 366.47C69.6498 343 89.7098 293.01 125.71 205.94C154.39 136.65 181.71 71.72 192.92 45.59C195.64 52.68 199.15 62.12 202.59 71.38C209.59 90.19 218.26 113.59 225.65 131.82C229.74 141.9 233.02 149.43 235.65 154.82C239.71 163.03 242.44 166.99 246.93 167.22H247.53C249.399 167.256 251.247 166.815 252.898 165.938C254.55 165.062 255.95 163.779 256.968 162.21C257.986 160.642 258.587 158.84 258.715 156.975C258.843 155.11 258.494 153.243 257.7 151.55C257.38 150.78 256.44 148.44 255 144.88C249.06 130 234.99 95.2 221.99 63.65C214.66 45.9 208.76 31.86 204.44 21.92C201.93 16.13 199.92 11.63 198.44 8.54C196.14 3.71 194.99 1.41 192.37 0.42L191.37 0.01L190.13 0ZM377.35 111.55C374.606 111.693 371.941 112.522 369.6 113.96C367.54 115.07 367.17 115.27 298.97 200.38C243.55 269.56 168.86 362.78 141.97 393.27C140.82 392.1 139.45 390.75 137.81 389.18C128.36 380.18 125.42 379.39 123.01 379.39C121.991 379.382 120.985 379.612 120.07 380.06C115.73 382.19 115.14 387.67 114.94 392.64C114.6 400.57 115.57 411.78 116.18 417.76C116.57 421.64 117.02 425.39 117.44 428.34C118.06 432.61 118.44 434.96 120.44 436.56C122.22 438.06 124.32 438.06 127.81 438.06C133.04 438.06 146.3 437.69 159.08 436.28C177.86 434.21 185.4 431.2 186.89 425.16C187.242 423.699 187.275 422.178 186.987 420.703C186.699 419.227 186.096 417.831 185.22 416.61C181.69 411.5 173.57 408.38 167.29 406.66C174.37 396.24 192.6 371.66 227.09 327.66C252.03 295.78 277.38 264.09 288.83 250.38C295.44 264.09 309.67 294.56 323.54 324.25C335.98 350.89 348.85 378.44 358.93 399.75C364.4 411.3 368.49 419.83 371.44 425.83C373.08 429.18 374.33 431.67 375.25 433.42C376.82 436.42 377.95 438.53 380.87 439.19C381.601 439.358 382.349 439.445 383.1 439.45C384.45 439.467 385.782 439.143 386.973 438.506C388.164 437.87 389.174 436.942 389.91 435.81C392.35 432.04 393.64 425.9 380.48 396.39C368.88 370.77 356.73 344.23 346.01 320.82C327.48 280.36 309.9 241.97 306.37 232.66C309.72 227.66 320.37 213.82 330.71 200.33C342.31 185.2 355.46 168.06 365.95 153.71C383.42 129.82 385.24 125.01 385.61 122.12V122C385.94 118.75 385.23 116.13 383.49 114.21C382.714 113.365 381.766 112.694 380.711 112.242C379.656 111.791 378.517 111.568 377.37 111.59L377.35 111.55Z" fill="black"/>
</g>
</svg>
