<svg xmlns="http://www.w3.org/2000/svg" viewBox="0 0 113.69 173.79"><defs><style>.cls-1,.cls-3{fill:#fff;}.cls-1{stroke:#000;}.cls-1,.cls-4{stroke-linecap:round;stroke-linejoin:round;stroke-width:2px;}.cls-2{opacity:0.5;}.cls-4{fill:#995720;stroke:#b96e16;}</style></defs><title>EmptyМонтажная область 4</title><g id="SAmle"><path class="cls-1" d="M110.14,117.23l-.35-23.51S53,144.84,53,144.84a4.63,4.63,0,0,0-1.53,3.43v23a.3.3,0,0,0,.51.21l57-51.4A4.06,4.06,0,0,0,110.14,117.23Z"/><path class="cls-1" d="M108.55,92.35,4.15,107.45a3,3,0,0,0-2.58,3.4c1,7.83,7.56,28.7,49.34,35.24a1.1,1.1,0,0,0,.89-.25l57.63-51.62A1.08,1.08,0,0,0,108.55,92.35Z"/><path class="cls-1" d="M51.33,147.81c0,7.64.09,16.58.09,22.94a1,1,0,0,1-1.23.93c-6.5-1.83-38.08-5.39-47.25-29.58A24.9,24.9,0,0,1,1.4,134l.09-24.22c.67,7.13,6.12,28.89,48,35.89A2.23,2.23,0,0,1,51.33,147.81Z"/><g class="cls-2"><path class="cls-3" d="M48.29,162.18c-.18-2.35-.28-4.71-.35-7.06s-.13-4.71-.14-7.07l.43.49q-5.05-.64-10-1.67c-1.66-.36-3.31-.75-5-1.19a23.61,23.61,0,0,1-4.77-1.79,30.31,30.31,0,0,0,4.89,1.28c1.65.34,3.32.63,5,.89q5,.81,10,1.51h0a.48.48,0,0,1,.42.48c0,2.36,0,4.71-.13,7.07S48.47,159.83,48.29,162.18Z"/></g><g class="cls-2"><path class="cls-3" d="M72.68,122.77c-1.62,1.68-3.27,3.35-5,5s-3.36,3.26-5.06,4.86c-3.42,3.19-6.87,6.34-10.39,9.42l0,0a3.16,3.16,0,0,1-1.32.64,6,6,0,0,1-1.32.19,12.4,12.4,0,0,1-2.59-.18,20.62,20.62,0,0,1-2.49-.63c-.81-.25-1.61-.55-2.39-.87.82.21,1.64.43,2.46.61a21.45,21.45,0,0,0,2.49.39,12,12,0,0,0,2.47,0,6.39,6.39,0,0,0,1.17-.24,2.6,2.6,0,0,0,.93-.48l0,0h0C55.12,138.2,58.56,135,62,131.9q2.61-2.34,5.28-4.62C69.07,125.74,70.87,124.24,72.68,122.77Z"/></g><path class="cls-1" d="M108.55,77.6,4.15,92.7a3,3,0,0,0-2.58,3.4c1,7.83,7.56,28.7,49.34,35.25a1.07,1.07,0,0,0,.89-.26l57.63-51.62A1.08,1.08,0,0,0,108.55,77.6Z"/><polygon class="cls-1" points="109.79 78.76 109.79 93.97 51.8 145.59 51.8 131.09 109.79 78.76"/><path class="cls-4" d="M50.91,131.35C22.81,126.94,10.63,116.06,5.37,107A28.92,28.92,0,0,1,1.57,96.1v14.5c1,7.83,7.56,28.7,49.34,35.25a1.1,1.1,0,0,0,.89-.26v-14.5A1.1,1.1,0,0,1,50.91,131.35Z"/><path class="cls-1" d="M52.05,130.85l-.26.23h0a1.09,1.09,0,0,1-.33.19,1.06,1.06,0,0,1-.56.06L49,131c-1.51-.26-3-.54-4.39-.83-.8-.17-1.58-.34-2.34-.52l-1.15-.27c-.76-.19-1.5-.37-2.23-.57s-1.37-.37-2-.56l-1.16-.35-1-.32-2-.65-1-.34c-.95-.34-1.87-.69-2.77-1l-.88-.36c-.58-.24-1.15-.49-1.71-.74l-.82-.37-1.6-.77c-.78-.39-1.53-.79-2.26-1.19l-.72-.4c-.5-.29-1-.58-1.48-.88s-.83-.51-1.23-.77-.84-.56-1.25-.85-.81-.56-1.19-.85l-1.13-.86a41.17,41.17,0,0,1-3.73-3.32l-.64-.66-.61-.66c-.61-.66-1.16-1.32-1.67-2-.17-.21-.34-.43-.5-.65-.33-.43-.64-.87-.92-1.3-.15-.21-.29-.42-.43-.64-.28-.43-.54-.85-.78-1.27l0,0c-.24-.41-.46-.81-.66-1.21l-.32-.61c-.2-.4-.39-.8-.56-1.2l-.26-.59a28.9,28.9,0,0,1-1-2.78c-.16-.53-.3-1-.42-1.52a26.48,26.48,0,0,1-.51-2.62c0-.13,0-.26-.05-.38a3,3,0,0,1,2.58-3.41l8.28-1.2c2.82,9.46,12.9,25.37,48.42,30.94C61.07,122.46,53.44,129.62,52.05,130.85Z"/><polygon class="cls-1" points="61.41 122.5 62.1 136.41 51.79 145.59 51.79 131.09 52.05 130.85 61.41 122.5"/><path class="cls-1" d="M50.91,131.35C22.81,126.94,10.63,116.06,5.37,107A28.92,28.92,0,0,1,1.57,96.1v14.5c1,7.83,7.56,28.7,49.34,35.25a1.1,1.1,0,0,0,.89-.26v-14.5A1.1,1.1,0,0,1,50.91,131.35Z"/><path class="cls-1" d="M110,77.25l-.35-23.5s-56.85,51.11-56.85,51.11a4.62,4.62,0,0,0-1.52,3.43v23a.3.3,0,0,0,.51.21l57-51.39A4.1,4.1,0,0,0,110,77.25Z"/><path class="cls-1" d="M108.45,52.37,4.05,67.47a3,3,0,0,0-2.58,3.4c1,7.83,7.56,28.7,49.33,35.25a1.09,1.09,0,0,0,.9-.26l57.63-51.62A1.08,1.08,0,0,0,108.45,52.37Z"/><path class="cls-1" d="M51.22,107.84c0,7.64.1,16.58.1,22.93a1,1,0,0,1-1.23.93c-6.5-1.82-38.09-5.39-47.26-29.58A25.09,25.09,0,0,1,1.3,94l.09-24.23c.67,7.13,6.12,28.9,48,35.9A2.22,2.22,0,0,1,51.22,107.84Z"/><g class="cls-2"><path class="cls-3" d="M48.19,122.21c-.18-2.36-.29-4.71-.36-7.07s-.12-4.71-.13-7.06l.42.48c-3.37-.43-6.71-1-10-1.67-1.66-.36-3.31-.75-5-1.19a24.07,24.07,0,0,1-4.77-1.79,31.83,31.83,0,0,0,4.9,1.29c1.65.33,3.31.62,5,.88,3.33.55,6.68,1,10,1.51h0a.5.5,0,0,1,.42.49c0,2.35,0,4.71-.14,7.06S48.37,119.85,48.19,122.21Z"/></g><g class="cls-2"><path class="cls-3" d="M72.58,82.79q-2.43,2.53-5,5C66,89.4,64.27,91,62.57,92.62c-3.42,3.19-6.87,6.35-10.39,9.43l0,0a3,3,0,0,1-1.32.64,6.69,6.69,0,0,1-1.32.2,13.22,13.22,0,0,1-2.6-.18c-.84-.17-1.67-.38-2.48-.63s-1.61-.56-2.39-.88c.82.21,1.63.43,2.46.61a23.27,23.27,0,0,0,2.48.4,12.86,12.86,0,0,0,2.48,0,5.65,5.65,0,0,0,1.17-.24,2.69,2.69,0,0,0,.93-.48h0l0,0c3.37-3.24,6.81-6.41,10.28-9.53,1.74-1.57,3.5-3.1,5.27-4.63S70.76,84.27,72.58,82.79Z"/></g><path class="cls-1" d="M108.45,38.48,4.05,53.57A3,3,0,0,0,1.47,57C2.45,64.81,9,85.67,50.8,92.22a1.09,1.09,0,0,0,.9-.26l57.63-51.61A1.08,1.08,0,0,0,108.45,38.48Z"/><polygon class="cls-1" points="109.69 39.63 109.69 54.85 51.7 106.46 51.7 91.96 109.69 39.63"/><path class="cls-4" d="M50.81,92.22C22.71,87.81,10.53,76.93,5.27,67.89A28.92,28.92,0,0,1,1.47,57v14.5c1,7.83,7.56,28.7,49.34,35.25a1.1,1.1,0,0,0,.89-.26V92A1.1,1.1,0,0,1,50.81,92.22Z"/><path class="cls-1" d="M52,91.73l-.26.23h0a1.09,1.09,0,0,1-.33.19,1.06,1.06,0,0,1-.56.06l-1.93-.32c-1.51-.26-3-.54-4.39-.83-.8-.17-1.58-.34-2.34-.52L41,90.28c-.76-.19-1.5-.37-2.23-.57s-1.37-.37-2-.56l-1.16-.35-1-.32-2-.65-1-.34c-.95-.34-1.87-.69-2.77-1L28,86.08c-.58-.24-1.15-.49-1.71-.74L25.43,85l-1.6-.77c-.78-.39-1.53-.79-2.26-1.19l-.72-.4c-.5-.29-1-.58-1.48-.88s-.83-.51-1.23-.77-.84-.56-1.25-.85-.81-.56-1.19-.85l-1.13-.86a41.17,41.17,0,0,1-3.73-3.32l-.64-.66-.61-.66c-.61-.66-1.16-1.32-1.67-2-.17-.21-.34-.43-.5-.65-.33-.43-.64-.87-.92-1.3-.15-.21-.29-.42-.43-.64-.28-.43-.54-.85-.78-1.27l0,0c-.24-.41-.46-.81-.66-1.21l-.32-.61c-.2-.4-.39-.8-.56-1.2l-.26-.59a28.9,28.9,0,0,1-1-2.78c-.16-.53-.3-1-.42-1.52a26.48,26.48,0,0,1-.51-2.62c0-.13,0-.26-.05-.38a3,3,0,0,1,2.58-3.41l8.28-1.2c2.82,9.46,12.9,25.37,48.42,30.94C61,83.34,53.34,90.5,52,91.73Z"/><polygon class="cls-1" points="61.31 83.37 62 97.28 51.69 106.46 51.69 91.96 51.95 91.73 61.31 83.37"/><path class="cls-1" d="M50.81,92.22C22.71,87.81,10.53,76.93,5.27,67.89A28.92,28.92,0,0,1,1.47,57v14.5c1,7.83,7.56,28.7,49.34,35.25a1.1,1.1,0,0,0,.89-.26V92A1.1,1.1,0,0,1,50.81,92.22Z"/><path class="cls-1" d="M110,37.74l-.35-23.51L52.84,65.35a4.62,4.62,0,0,0-1.52,3.43v23a.3.3,0,0,0,.51.21l57-51.4A4.06,4.06,0,0,0,110,37.74Z"/><path class="cls-1" d="M108.45,12.86,4.05,28a3,3,0,0,0-2.58,3.4C2.45,39.19,9,60.06,50.8,66.6a1.12,1.12,0,0,0,.9-.25l57.63-51.62A1.08,1.08,0,0,0,108.45,12.86Z"/><path class="cls-1" d="M51.22,68.32c0,7.64.1,16.58.1,22.93a1,1,0,0,1-1.23.94C43.59,90.36,12,86.8,2.83,62.61A25.15,25.15,0,0,1,1.3,54.46l.09-24.22c.67,7.13,6.12,28.89,48,35.89A2.22,2.22,0,0,1,51.22,68.32Z"/><g class="cls-2"><path class="cls-3" d="M48.19,82.69c-.18-2.35-.29-4.71-.36-7.06s-.12-4.71-.13-7.07l.42.49c-3.37-.43-6.71-1-10-1.67-1.66-.36-3.31-.75-5-1.19a24.07,24.07,0,0,1-4.77-1.79,30.7,30.7,0,0,0,4.9,1.28c1.65.34,3.31.63,5,.89,3.33.54,6.68,1,10,1.51h0a.49.49,0,0,1,.42.48c0,2.36,0,4.71-.14,7.07S48.37,80.34,48.19,82.69Z"/></g><g class="cls-2"><path class="cls-3" d="M72.58,43.28c-1.62,1.68-3.27,3.35-5,5s-3.36,3.26-5.06,4.86c-3.42,3.19-6.87,6.34-10.39,9.42l0,0a3.16,3.16,0,0,1-1.32.64,6,6,0,0,1-1.32.19,12.5,12.5,0,0,1-2.6-.18,20.94,20.94,0,0,1-2.48-.63c-.82-.25-1.61-.55-2.39-.87.82.21,1.63.43,2.46.61a21,21,0,0,0,2.48.39,12.12,12.12,0,0,0,2.48,0,6.39,6.39,0,0,0,1.17-.24,2.69,2.69,0,0,0,.93-.48v0h0c3.37-3.24,6.81-6.41,10.28-9.54q2.61-2.34,5.27-4.62C69,46.25,70.76,44.75,72.58,43.28Z"/></g><path class="cls-1" d="M108,39.4l-4.23-.51a4.18,4.18,0,0,0-4.44,2.79l-6.52,17A12.63,12.63,0,0,1,82.93,67L72.67,68.67A4.19,4.19,0,0,0,69.25,72L64.67,111a4.17,4.17,0,0,1-6.76,2.38h0a4.17,4.17,0,0,0-6.62,1.9L40.35,154.63a4.18,4.18,0,0,1-5.56,2.54l-20.62-8.55a5.33,5.33,0,0,0-3.67-.15L9,149c-1.84.58-2.32-.67-3.3-2.33a43,43,0,0,1-3.07-6.41A25.39,25.39,0,0,1,1,131.89s.61-112.63.58-113.08a2,2,0,0,1,1.73-2.17L111.42,1a1.1,1.1,0,0,1,1.19,1.47.09.09,0,0,1,.07.09V35.26A4.17,4.17,0,0,1,108,39.4Z"/><line class="cls-3" x1="54.09" y1="55.63" x2="104.55" y2="9.8"/><path d="M53.41,54.89,104.55,9.8,54.76,56.37a1,1,0,0,1-1.37-1.46Z"/><path class="cls-3" d="M8.11,34.21c5.77,8.48,17.88,18,43.28,22.2a3.26,3.26,0,0,0,2.7-.79"/><path d="M8.11,34.21a39.38,39.38,0,0,0,4.3,5,45,45,0,0,0,5.05,4.2A57,57,0,0,0,29,49.63a80.59,80.59,0,0,0,12.5,3.94c1.06.28,2.13.48,3.2.7s2.14.46,3.23.62l3.23.53.4.06.29,0a2.25,2.25,0,0,0,.58-.07,2.4,2.4,0,0,0,1-.55,1,1,0,0,1,1.41,0,1,1,0,0,1,0,1.42l0,0h0a4.27,4.27,0,0,1-1.9,1,4.75,4.75,0,0,1-1.06.09,5,5,0,0,1-.54-.06l-.41-.08-3.26-.67c-1.09-.2-2.16-.49-3.24-.74s-2.16-.51-3.22-.84a82,82,0,0,1-12.53-4.47,57.61,57.61,0,0,1-11.43-6.74,45,45,0,0,1-4.93-4.43A38.61,38.61,0,0,1,8.11,34.21Z"/><path d="M53.63,56.46l-1,44.33-1-44.33a1,1,0,0,1,1-1,1,1,0,0,1,1,1Z"/></g></svg>