<svg xmlns="http://www.w3.org/2000/svg" viewBox="0 0 121.69 169.92"><defs><style>.cls-1{fill:#dcc992;}.cls-1,.cls-2,.cls-3{stroke:#d69055;}.cls-1,.cls-10,.cls-6,.cls-7,.cls-8,.cls-9{stroke-linecap:round;stroke-linejoin:round;}.cls-1,.cls-10,.cls-2,.cls-3,.cls-6,.cls-7,.cls-8,.cls-9{stroke-width:2px;}.cls-2,.cls-9{fill:#e8d9b9;}.cls-2,.cls-3{stroke-miterlimit:10;}.cls-3{fill:#e2bc60;}.cls-4{opacity:0.5;}.cls-5{fill:#fff;}.cls-6{fill:#d69055;}.cls-6,.cls-7,.cls-8{stroke:#b96e16;}.cls-7{fill:#cc742a;}.cls-8{fill:#995720;}.cls-9{stroke:#c7b299;}.cls-10,.cls-11{fill:#ff666d;}.cls-10{stroke:#b63338;}.cls-12{fill:#b63338;}</style></defs><title>SAmpleМонтажная область 4</title><g id="SAmle"><path class="cls-1" d="M117.37,110.06,117,86.55,60.18,137.67a4.58,4.58,0,0,0-1.53,3.43v23a.3.3,0,0,0,.51.21l57-51.4A4.07,4.07,0,0,0,117.37,110.06Z"/><path class="cls-2" d="M115.78,85.18,11.38,100.27a3,3,0,0,0-2.58,3.41c1,7.83,7.56,28.7,49.34,35.24a1.08,1.08,0,0,0,.89-.26l57.63-51.61A1.08,1.08,0,0,0,115.78,85.18Z"/><path class="cls-3" d="M58.56,140.64c0,7.64.09,16.58.09,22.93a1,1,0,0,1-1.23.94c-6.5-1.83-38.09-5.39-47.25-29.58a24.9,24.9,0,0,1-1.54-8.15l.09-24.22c.67,7.13,6.12,28.89,48,35.89A2.23,2.23,0,0,1,58.56,140.64Z"/><g class="cls-4"><path class="cls-5" d="M55.52,155c-.18-2.35-.28-4.71-.36-7.06s-.12-4.71-.13-7.07l.43.49q-5.05-.65-10.05-1.67c-1.66-.36-3.31-.75-4.95-1.19a23.64,23.64,0,0,1-4.77-1.8A29.34,29.34,0,0,0,40.58,138c1.65.34,3.32.63,5,.89q5,.81,10,1.51h0a.49.49,0,0,1,.42.48c0,2.36,0,4.71-.14,7.07S55.7,152.66,55.52,155Z"/></g><g class="cls-4"><path class="cls-5" d="M79.91,115.6c-1.62,1.68-3.27,3.35-5,5s-3.36,3.26-5.06,4.85c-3.42,3.2-6.87,6.35-10.39,9.43l0,0a3.07,3.07,0,0,1-1.32.65,6,6,0,0,1-1.32.19,12.36,12.36,0,0,1-2.59-.18,20.62,20.62,0,0,1-2.49-.63,25.32,25.32,0,0,1-2.39-.88c.82.22,1.64.44,2.46.62a23.42,23.42,0,0,0,2.49.39,12,12,0,0,0,2.47,0,6.39,6.39,0,0,0,1.17-.24,2.69,2.69,0,0,0,.93-.48l0,0h0c3.37-3.24,6.81-6.41,10.28-9.54q2.61-2.34,5.28-4.62T79.91,115.6Z"/></g><path class="cls-6" d="M114.88,70.68,10.48,85.77A3,3,0,0,0,7.9,89.18c1,7.83,7.56,28.7,49.34,35.24a1.07,1.07,0,0,0,.89-.26l57.63-51.61A1.08,1.08,0,0,0,114.88,70.68Z"/><polygon class="cls-7" points="116.12 71.83 116.12 87.05 58.13 138.66 58.13 124.16 116.12 71.83"/><path class="cls-8" d="M57.24,124.42C29.14,120,17,109.13,11.7,100.09A28.92,28.92,0,0,1,7.9,89.17v14.5c1,7.83,7.56,28.7,49.34,35.25a1.1,1.1,0,0,0,.89-.26v-14.5A1.1,1.1,0,0,1,57.24,124.42Z"/><path class="cls-9" d="M58.38,123.93l-.26.23h0a1.09,1.09,0,0,1-.33.19,1.06,1.06,0,0,1-.56.06l-1.93-.32c-1.51-.26-3-.54-4.39-.83-.8-.17-1.58-.34-2.34-.52l-1.15-.27c-.76-.19-1.5-.37-2.23-.57s-1.37-.37-2-.56L42,121l-1-.32L39,120l-1-.34c-.95-.34-1.87-.69-2.77-1l-.88-.36c-.58-.24-1.15-.49-1.71-.74l-.82-.37-1.6-.77c-.78-.39-1.53-.79-2.26-1.19l-.72-.4c-.5-.29-1-.58-1.48-.88s-.83-.51-1.23-.77-.84-.56-1.25-.85-.81-.56-1.19-.85L21,110.6a41.17,41.17,0,0,1-3.73-3.32l-.64-.66L16,106c-.61-.66-1.16-1.32-1.67-2-.17-.21-.34-.43-.5-.65-.33-.43-.64-.87-.92-1.3-.15-.21-.29-.42-.43-.64-.28-.43-.54-.85-.78-1.27l0,0c-.24-.41-.46-.81-.66-1.21l-.32-.61c-.2-.4-.39-.8-.56-1.2l-.26-.59a28.9,28.9,0,0,1-1-2.78c-.16-.53-.3-1-.42-1.52A26.48,26.48,0,0,1,8,89.56c0-.13,0-.26,0-.38a3,3,0,0,1,2.58-3.41l8.28-1.2c2.82,9.46,12.9,25.37,48.42,30.94C67.4,115.54,59.77,122.7,58.38,123.93Z"/><polygon class="cls-10" points="67.74 115.57 68.43 129.48 58.12 138.66 58.12 124.16 58.38 123.93 67.74 115.57"/><path class="cls-10" d="M57.24,124.42C29.14,120,17,109.13,11.7,100.09A28.92,28.92,0,0,1,7.9,89.17v14.5c1,7.83,7.56,28.7,49.34,35.25a1.1,1.1,0,0,0,.89-.26v-14.5A1.1,1.1,0,0,1,57.24,124.42Z"/><path class="cls-1" d="M117.27,68.15l-.35-23.51L60.07,95.76a4.62,4.62,0,0,0-1.52,3.43v23a.3.3,0,0,0,.51.21l57-51.4A4.07,4.07,0,0,0,117.27,68.15Z"/><path class="cls-2" d="M115.68,43.27,11.28,58.37a3,3,0,0,0-2.58,3.4C9.68,69.6,16.26,90.47,58,97a1.1,1.1,0,0,0,.89-.25l57.64-51.62A1.08,1.08,0,0,0,115.68,43.27Z"/><path class="cls-3" d="M58.45,98.73c0,7.64.09,16.58.09,22.93a1,1,0,0,1-1.22.94c-6.5-1.83-38.09-5.39-47.26-29.58a24.88,24.88,0,0,1-1.53-8.15l.09-24.22c.67,7.13,6.12,28.89,48,35.89A2.22,2.22,0,0,1,58.45,98.73Z"/><g class="cls-4"><path class="cls-5" d="M55.42,113.1c-.18-2.35-.29-4.71-.36-7.06s-.12-4.71-.13-7.07l.42.49c-3.37-.43-6.71-1-10-1.67-1.66-.36-3.31-.75-5-1.19a23.84,23.84,0,0,1-4.77-1.79,30.87,30.87,0,0,0,4.89,1.28c1.66.34,3.32.63,5,.89,3.33.54,6.68,1,10,1.51h0a.49.49,0,0,1,.42.48c0,2.36,0,4.71-.14,7.07S55.6,110.75,55.42,113.1Z"/></g><g class="cls-4"><path class="cls-5" d="M79.81,73.69c-1.63,1.68-3.27,3.35-5,5s-3.35,3.26-5.06,4.86q-5.12,4.78-10.38,9.42l0,0a3.16,3.16,0,0,1-1.32.64,6.09,6.09,0,0,1-1.32.19,12.5,12.5,0,0,1-2.6-.18,20.94,20.94,0,0,1-2.48-.63c-.82-.25-1.61-.55-2.4-.87.83.21,1.64.43,2.47.61a21,21,0,0,0,2.48.39,12,12,0,0,0,2.47,0,6.33,6.33,0,0,0,1.18-.24,2.69,2.69,0,0,0,.93-.48v0h0q5.06-4.86,10.28-9.54,2.61-2.34,5.27-4.62C76.19,76.66,78,75.16,79.81,73.69Z"/></g><path class="cls-6" d="M114.88,29.71,10.48,44.81a3,3,0,0,0-2.58,3.4c1,7.83,7.56,28.7,49.34,35.25a1.07,1.07,0,0,0,.89-.26l57.63-51.62A1.08,1.08,0,0,0,114.88,29.71Z"/><polygon class="cls-7" points="116.12 30.87 116.12 46.08 58.13 97.7 58.13 83.2 116.12 30.87"/><path class="cls-8" d="M57.24,83.46C29.14,79.05,17,68.17,11.7,59.13A28.92,28.92,0,0,1,7.9,48.21v14.5c1,7.83,7.56,28.7,49.34,35.25a1.1,1.1,0,0,0,.89-.26V83.2A1.1,1.1,0,0,1,57.24,83.46Z"/><path class="cls-9" d="M58.38,83l-.26.23h0a1.09,1.09,0,0,1-.33.19,1.06,1.06,0,0,1-.56.06l-1.93-.32c-1.51-.26-3-.54-4.39-.83-.8-.17-1.58-.34-2.34-.52l-1.15-.27c-.76-.19-1.5-.37-2.23-.57s-1.37-.37-2-.56L42,80l-1-.32-2-.65-1-.34c-.95-.34-1.87-.69-2.77-1l-.88-.36c-.58-.24-1.15-.49-1.71-.74l-.82-.37-1.6-.77c-.78-.39-1.53-.79-2.26-1.19l-.72-.4c-.5-.29-1-.58-1.48-.88s-.83-.51-1.23-.77-.84-.56-1.25-.85-.81-.56-1.19-.85L21,69.63a41.17,41.17,0,0,1-3.73-3.32l-.64-.66L16,65c-.61-.66-1.16-1.32-1.67-2-.17-.21-.34-.43-.5-.65-.33-.43-.64-.87-.92-1.3-.15-.21-.29-.42-.43-.64-.28-.43-.54-.85-.78-1.27l0,0c-.24-.41-.46-.81-.66-1.21l-.32-.61c-.2-.4-.39-.8-.56-1.2l-.26-.59a28.9,28.9,0,0,1-1-2.78c-.16-.53-.3-1-.42-1.52A26.48,26.48,0,0,1,8,48.59c0-.13,0-.26,0-.38a3,3,0,0,1,2.58-3.41l8.28-1.2C21.58,53.06,31.66,69,67.18,74.54,67.4,74.57,59.77,81.73,58.38,83Z"/><polygon class="cls-10" points="67.74 74.61 68.43 88.52 58.12 97.69 58.12 83.19 58.38 82.97 67.74 74.61"/><path class="cls-10" d="M57.24,83.46C29.14,79.05,17,68.17,11.7,59.13A28.92,28.92,0,0,1,7.9,48.21v14.5c1,7.83,7.56,28.7,49.34,35.25a1.1,1.1,0,0,0,.89-.26V83.2A1.1,1.1,0,0,1,57.24,83.46Z"/><path class="cls-1" d="M116.37,28.46,116,5S59.18,56.07,59.18,56.07a4.59,4.59,0,0,0-1.53,3.43v23a.3.3,0,0,0,.51.21l57-51.39A4.1,4.1,0,0,0,116.37,28.46Z"/><path class="cls-2" d="M114.78,3.58,10.38,18.68a3,3,0,0,0-2.58,3.4c1,7.83,7.56,28.7,49.33,35.25a1.13,1.13,0,0,0,.9-.26L115.66,5.45A1.08,1.08,0,0,0,114.78,3.58Z"/><path class="cls-3" d="M57.55,59.05c0,7.64.1,16.58.1,22.93a1,1,0,0,1-1.23.93c-6.5-1.82-38.09-5.39-47.26-29.58a25.09,25.09,0,0,1-1.53-8.14L7.72,21c.67,7.13,6.12,28.9,48,35.9A2.21,2.21,0,0,1,57.55,59.05Z"/><g class="cls-4"><path class="cls-5" d="M54.52,73.42c-.18-2.36-.29-4.71-.36-7.07S54,61.64,54,59.28l.43.49c-3.38-.43-6.72-1-10.05-1.67-1.66-.36-3.31-.75-5-1.19a23.75,23.75,0,0,1-4.76-1.79,30.31,30.31,0,0,0,4.89,1.28c1.65.34,3.31.63,5,.89,3.33.54,6.68,1,10,1.51h0a.49.49,0,0,1,.42.48c0,2.36,0,4.71-.14,7.07S54.7,71.06,54.52,73.42Z"/></g><g class="cls-4"><path class="cls-5" d="M78.91,34q-2.43,2.53-5,5c-1.68,1.64-3.36,3.26-5.06,4.86C65.48,47,62,50.18,58.51,53.25l0,0a3,3,0,0,1-1.32.64,6,6,0,0,1-1.32.19,12.5,12.5,0,0,1-2.6-.17,23.12,23.12,0,0,1-2.48-.64,24.28,24.28,0,0,1-2.39-.87c.82.21,1.63.43,2.46.61a23.27,23.27,0,0,0,2.48.4,12.86,12.86,0,0,0,2.48,0A5.65,5.65,0,0,0,57,53.18,2.69,2.69,0,0,0,58,52.7l0,0h0c3.37-3.24,6.81-6.41,10.28-9.53,1.74-1.57,3.5-3.1,5.27-4.63S77.09,35.48,78.91,34Z"/></g><path class="cls-10" d="M111.7,42.34l-4.22-.51A4.18,4.18,0,0,0,103,44.62l-6.52,17A12.64,12.64,0,0,1,86.6,70L76.35,71.61a4.16,4.16,0,0,0-3.42,3.29L68.34,114a4.17,4.17,0,0,1-6.75,2.38h0a4.18,4.18,0,0,0-6.63,1.9L44,157.57a4.16,4.16,0,0,1-5.55,2.54l-20.63-8.55a5.39,5.39,0,0,0-3.67-.16l-1.54.52c-1.84.59-2.33-.66-3.3-2.32a43.51,43.51,0,0,1-3.08-6.41,25.64,25.64,0,0,1-1.57-8.36S5.29,22.2,5.26,21.74A2,2,0,0,1,7,19.58L115.1,4a1.1,1.1,0,0,1,1.19,1.47.09.09,0,0,1,.07.09V38.2A4.18,4.18,0,0,1,111.7,42.34Z"/><line class="cls-11" x1="57.76" y1="58.57" x2="108.23" y2="12.74"/><path class="cls-12" d="M57.09,57.83l51.14-45.09L58.43,59.31A1,1,0,0,1,57,59.26a1,1,0,0,1,0-1.41Z"/><path class="cls-11" d="M11.79,37.15c5.76,8.48,17.88,18,43.27,22.2a3.25,3.25,0,0,0,2.7-.79"/><path class="cls-12" d="M11.79,37.15a38.53,38.53,0,0,0,4.29,5,44.12,44.12,0,0,0,5.06,4.21,56.69,56.69,0,0,0,11.52,6.22,80.37,80.37,0,0,0,12.51,3.94c1,.28,2.13.48,3.2.7s2.14.46,3.22.62l3.24.53.4.06.29,0a2.17,2.17,0,0,0,.57-.07,2.28,2.28,0,0,0,1-.55,1,1,0,1,1,1.37,1.46l0,0h0a4.36,4.36,0,0,1-1.91.95,4.65,4.65,0,0,1-1.06.09,4.78,4.78,0,0,1-.53-.06l-.41-.08-3.26-.67c-1.09-.2-2.17-.49-3.25-.75s-2.16-.51-3.22-.83a82.91,82.91,0,0,1-12.52-4.47,57.33,57.33,0,0,1-11.43-6.74,44.14,44.14,0,0,1-4.93-4.43A37.83,37.83,0,0,1,11.79,37.15Z"/><path class="cls-12" d="M57.3,59.4l-1,44.33-1-44.33a1,1,0,1,1,2,0Z"/><g class="cls-4"><line class="cls-11" x1="54.24" y1="56.66" x2="104.71" y2="10.83"/><path class="cls-12" d="M54.24,56.66q5.92-6.15,12.1-12c4.1-3.94,8.27-7.79,12.46-11.62s8.46-7.6,12.77-11.3,8.67-7.34,13.14-10.88q-5.92,6.16-12.09,12c-4.1,3.94-8.28,7.79-12.47,11.62S71.7,42.08,67.38,45.78,58.71,53.13,54.24,56.66Z"/></g><g class="cls-4"><path class="cls-12" d="M52.56,62c.41,3.69.63,7.39.78,11.08s.2,7.39.22,11.08-.06,7.39-.22,11.09-.37,7.38-.78,11.08c-.42-3.7-.64-7.39-.78-11.08s-.2-7.39-.22-11.09.06-7.38.22-11.08S52.14,65.66,52.56,62Z"/></g></g></svg>