<svg xmlns="http://www.w3.org/2000/svg" viewBox="0 0 201 120.92"><defs><style>.cls-1{fill:#4d4d4d;stroke:#000;stroke-miterlimit:10;}.cls-2{fill:gray;}.cls-3,.cls-6{fill:#f2f2f2;}.cls-3,.cls-5{opacity:0.42;}.cls-4{fill:#333;}</style></defs><title>Монтажная область 52</title><g id="Слои"><ellipse class="cls-1" cx="100.5" cy="103.44" rx="59.97" ry="16.97"/><path class="cls-1" d="M88.25,58.25V97.5s15,3.25,24.5,0V58.25Z"/><ellipse class="cls-1" cx="100.5" cy="31.13" rx="100" ry="30.62"/><ellipse class="cls-2" cx="100.5" cy="28.75" rx="86.34" ry="22.75"/><path class="cls-3" d="M71.1,94.79a.49.49,0,0,0,.09-.9c-3.78-2.17-24.25-1.82-20.9,9.55,3.66,12.48,44.5,12.64,46.83,11.64,0,0-37.17-4.59-36.33-13.37C60.61,98.34,68.68,95.55,71.1,94.79Z"/><path class="cls-4" d="M83.8,95a13.63,13.63,0,0,0,3.81,1.75,28.93,28.93,0,0,0,4,.88,61.29,61.29,0,0,0,8.25.63,74.37,74.37,0,0,0,8.31-.3,35.68,35.68,0,0,0,4.11-.59,10.61,10.61,0,0,0,3.9-1.45,8,8,0,0,1-3.41,2.84,21.89,21.89,0,0,1-4.19,1.52,33.68,33.68,0,0,1-8.77,1,30.76,30.76,0,0,1-8.75-1.35A19.45,19.45,0,0,1,87,98.1,9.35,9.35,0,0,1,83.8,95Z"/><g class="cls-5"><path class="cls-6" d="M24.71,15.6a53.38,53.38,0,0,0-6.46,3.6A22.33,22.33,0,0,0,12.84,24a8.09,8.09,0,0,0-2,6.22,10.43,10.43,0,0,0,3.35,5.7c3.42,3.19,7.83,5.4,12.32,7.19a100.8,100.8,0,0,0,14,4.33c4.75,1.18,9.58,2.08,14.44,2.84s9.74,1.36,14.65,1.88c9.81,1,19.68,1.51,29.6,1.93a214.57,214.57,0,0,1-29.79.4c-5-.24-9.93-.77-14.87-1.4s-9.86-1.58-14.74-2.73a98.88,98.88,0,0,1-14.33-4.63,55.52,55.52,0,0,1-6.8-3.43,27.7,27.7,0,0,1-6.1-4.75,12.14,12.14,0,0,1-3.63-7.1,8.62,8.62,0,0,1,.63-4.06A11.55,11.55,0,0,1,11.72,23a22.63,22.63,0,0,1,6.1-4.53A44.07,44.07,0,0,1,24.71,15.6Z"/></g><g class="cls-5"><path class="cls-6" d="M176.29,46.08c1.71-1.14,3.33-2.19,5-3.24s3.24-2.07,4.81-3.12,3.13-2.11,4.6-3.28a24.42,24.42,0,0,0,4.13-4,10.16,10.16,0,0,1-2.46,5.68,20.14,20.14,0,0,1-4.6,4.11A25.54,25.54,0,0,1,182.28,45,16.72,16.72,0,0,1,176.29,46.08Z"/></g></g></svg>