<svg id="Слой_1" data-name="Слой 1" xmlns="http://www.w3.org/2000/svg" viewBox="0 0 451.28 404.89"><defs><style>.cls-1,.cls-3{fill:#494845;}.cls-2{fill:#e6ea9e;}.cls-3{font-size:58.86px;font-family:MyriadPro-Regular, Myriad Pro;}</style></defs><title>Монтажная область 1</title><path class="cls-1" d="M50.69,170.67q0,20.37,0,40.74c0,1.67-.09,3.34,0,5,.11,3.32-1.1,5.75-4.71,5.65s-4.09-2.7-4.07-5.67c.09-14.17.11-28.34.17-42.5.09-18.5.1-37,.37-55.5.06-3.9-.66-4.8-4.69-3.72-12.12,3.26-11.59,4.1-14.73-8.89Q15.66,75.45,8.39,45.1c-1.45-6.08-.57-7.33,5.35-8.75q50-12,100-24.09c7.36-1.78,8.36-1.16,10,6,4.79,20.25,9.5,40.51,14.55,60.69,2.5,10,3.81,12.37-9.45,14.61-12.5,2.12-24.63,5.55-36.95,8.26s-24.58,6-36.91,8.78c-3,.69-3.7,2-4,5-1.64,19.3,4.17,37.15,10.28,55,1.89,5.51,3.79,11,5.84,16.47a21.51,21.51,0,0,0,25.29,13.66c6-1.37,11.88-3.27,17.89-4.59,3.23-.71,4.18-2.19,4.16-5.45-.15-19,0-38-.11-57a13.43,13.43,0,0,1,2.86-8.73Q139.77,95.22,162,65.29a7.78,7.78,0,0,1,7.06-3.49q82.5.15,165,.09c11.09,0,15.31,4.3,15.31,15.53q0,147.75-.06,295.49c0,11.76-4.18,15.82-16,15.81q-101.25,0-202.49,0c-12.34,0-16.35-4-16.35-16.51q0-81,0-162c0-6,0-6-5.93-4.48-4.52,1.15-9.07,2.22-13.58,3.39A30.16,30.16,0,0,1,58.84,190q-3.5-9.73-7-19.48Zm289.87,54.75q0-73.48,0-147c0-7.26-.42-7.68-7.58-7.68q-78.46,0-157-.09c-3.93,0-5.05,1-5,5,.21,18.33,0,36.66.17,55,0,3.28-.88,4.26-4.19,4.21-12.16-.19-24.33-.13-36.49-.08-8,0-7.29-1.2-7.3,7.06q0,31.44,0,62.87,0,84,0,167.94c0,6.44.78,7.21,7.12,7.21H332.23c8,0,8.31-.27,8.32-8.51Q340.57,298.4,340.56,225.42ZM130,81.44c-.07-.32-.14-.65-.22-1-4.56-18.74-9.22-37.46-13.59-56.25-.75-3.19-2.13-2.91-4.49-2.34-20,4.83-40.08,9.56-60.11,14.37C41.38,38.69,31.28,41.33,21.1,43.7c-2.84.66-4.23,1.51-3.08,4.73A92.27,92.27,0,0,1,20.62,58c3.63,15.16,7.28,30.31,10.77,45.51.7,3.06,1.83,3.35,4.77,2.58,11.42-3,22.94-5.55,34.42-8.31Q98.71,91,126.81,84.22C128.27,83.87,130.45,84.12,130,81.44Zm32.17.38-1-.24L128,125.78c11.26,0,21.51,0,31.75,0,2.15,0,2.43-1.13,2.43-2.82Q162.1,102.41,162.12,81.82Z"/><path class="cls-2" d="M340.56,225.42q0,73,0,146c0,8.24-.31,8.51-8.32,8.51H130.29c-6.34,0-7.12-.77-7.12-7.21q0-84,0-167.94,0-31.44,0-62.87c0-8.26-.67-7,7.3-7.06,12.16-.05,24.33-.11,36.49.08,3.31.05,4.21-.93,4.19-4.21-.16-18.33,0-36.66-.17-55,0-4,1.08-5,5-5q78.48.19,157,.09c7.16,0,7.58.42,7.58,7.68Q340.58,151.95,340.56,225.42ZM237,349h63.45c3.17,0,6.33,0,9.49-.06,2.73-.09,4.42-1.56,4.53-4.31s-1.77-3.82-4-4.38a14.88,14.88,0,0,0-3.48-.15H168.56a17.76,17.76,0,0,0-5,.29,4.35,4.35,0,0,0,.43,8.51,27.92,27.92,0,0,0,4,.09Zm.54-19.81q35.25,0,70.5,0c3.43,0,6.19-1,6.2-4.75,0-3.61-3-3.86-5.81-3.84H167.89c-1.33,0-2.67,0-4,.1a3.54,3.54,0,0,0-3.22,2.73,4.35,4.35,0,0,0,1.11,4.6c1.5,1.45,3.4,1.13,5.21,1.13ZM239,213.57c-23.31-.14-40.85,6.16-56.61,17.71-3,2.16-7.65,4.35-4.11,8.88,3.34,4.26,6.46.26,9.3-1.77,20.81-14.86,43.51-20.23,68.42-13A81.45,81.45,0,0,1,283.67,240c2.45,1.93,5.08,3.1,7.44.23s.67-5.23-1.82-7.12C273.34,221,255.63,213.82,239,213.57Zm-28.9,95.36q21.48,0,43,0c3.39,0,7.4.41,7.49-4.29s-3.74-4.61-7.25-4.6q-42.95,0-85.91,0c-3.34,0-6.87.06-7,4.38s3.41,4.52,6.76,4.51C181.49,308.9,195.81,308.93,210.13,308.93ZM210,290.86h24.47c7,0,14,0,21,0,3.1,0,5.35-1.44,5.22-4.69-.12-3-2.27-4.24-5.2-4.14-.83,0-1.67,0-2.5,0q-42.93,0-85.85,0c-3.12,0-6.5,0-6.66,4.12-.17,4.39,3.2,4.77,6.61,4.76Q188.5,290.84,210,290.86ZM277,189a18.86,18.86,0,1,0-.33-37.72c-10.05,0-18.64,8.89-18.5,19.08A18.68,18.68,0,0,0,277,189Zm-90.33,0A18.82,18.82,0,1,0,168.11,170,18.86,18.86,0,0,0,186.67,188.94Z"/><path class="cls-2" d="M130,81.45c.5,2.67-1.68,2.42-3.14,2.77Q98.7,91,70.58,97.8c-11.48,2.76-23,5.33-34.42,8.31-2.94.77-4.07.48-4.77-2.58C27.9,88.33,24.25,73.18,20.62,58A92.27,92.27,0,0,0,18,48.43c-1.15-3.22.24-4.07,3.08-4.73,10.18-2.37,20.28-5,30.44-7.45,20-4.81,40.08-9.54,60.11-14.37,2.36-.57,3.74-.85,4.49,2.34,4.37,18.79,9,37.51,13.59,56.25C129.81,80.79,129.88,81.12,130,81.45Z"/><path class="cls-2" d="M162.12,81.82q0,20.58,0,41.17c0,1.69-.28,2.84-2.43,2.82-10.24-.07-20.49,0-31.75,0l33.17-44.2Z"/><path class="cls-1" d="M237,349H168a27.92,27.92,0,0,1-4-.09,4.35,4.35,0,0,1-.43-8.51,17.76,17.76,0,0,1,5-.29H306.94a14.88,14.88,0,0,1,3.48.15c2.24.56,4.12,1.75,4,4.38s-1.8,4.22-4.53,4.31c-3.16.09-6.32.06-9.49.06Z"/><path class="cls-1" d="M237.5,329.2H167c-1.81,0-3.71.32-5.21-1.13a4.35,4.35,0,0,1-1.11-4.6,3.54,3.54,0,0,1,3.22-2.73c1.32-.12,2.66-.1,4-.1h140.5c2.81,0,5.82.23,5.81,3.84,0,3.77-2.77,4.75-6.2,4.75Q272.75,329.16,237.5,329.2Z"/><path class="cls-1" d="M239,213.57c16.6.25,34.31,7.45,50.26,19.53,2.49,1.89,4.23,4.19,1.82,7.12s-5,1.7-7.44-.23A81.45,81.45,0,0,0,256,225.38c-24.91-7.22-47.61-1.85-68.42,13-2.84,2-6,6-9.3,1.77-3.54-4.53,1.15-6.72,4.11-8.88C198.18,219.73,215.72,213.43,239,213.57Z"/><path class="cls-1" d="M210.13,308.93c-14.32,0-28.64,0-43,0-3.35,0-6.89,0-6.76-4.51s3.67-4.39,7-4.38q43,0,85.91,0c3.51,0,7.35,0,7.25,4.6s-4.1,4.3-7.49,4.29Q231.61,308.91,210.13,308.93Z"/><path class="cls-1" d="M210,290.86q-21.47,0-42.94,0c-3.41,0-6.78-.37-6.61-4.76.16-4.16,3.54-4.12,6.66-4.12q42.91,0,85.85,0c.83,0,1.67,0,2.5,0,2.93-.1,5.08,1.17,5.2,4.14.13,3.25-2.12,4.68-5.22,4.69-7,.05-14,0-21,0Z"/><path class="cls-1" d="M277,189a18.68,18.68,0,0,1-18.83-18.64c-.14-10.19,8.45-19,18.5-19.08A18.86,18.86,0,1,1,277,189Zm10-18.89a10.37,10.37,0,0,0-10.37-10A10.22,10.22,0,0,0,267,170.24a9.94,9.94,0,0,0,10.31,9.89A10,10,0,0,0,287,170.07Z"/><path class="cls-1" d="M186.67,188.94a18.82,18.82,0,0,1,.25-37.64,18.82,18.82,0,1,1-.25,37.64ZM177,170.16a9.72,9.72,0,0,0,10.13,10,10,10,0,0,0,9.72-10,9.93,9.93,0,1,0-19.85,0Z"/><text class="cls-3" transform="translate(35.72 94.07) rotate(-13.95)">404</text></svg>